/* XPM */
static char * arrow_xpm[] = {
"60 30 256 2",
"  	c #000001",
". 	c #6B0000",
"+ 	c #720002",
"@ 	c #730000",
"# 	c #740000",
"$ 	c #750000",
"% 	c #740005",
"& 	c #6D0300",
"* 	c #760100",
"= 	c #7B0002",
"- 	c #7D0000",
"; 	c #7D0004",
"> 	c #7C000B",
", 	c #7F0000",
"' 	c #7E0005",
") 	c #760214",
"! 	c #800007",
"~ 	c #7F000D",
"{ 	c #6D0515",
"] 	c #75021E",
"^ 	c #6D051A",
"/ 	c #810100",
"( 	c #780401",
"_ 	c #7E001D",
": 	c #80010E",
"< 	c #5E0B18",
"[ 	c #880000",
"} 	c #870004",
"| 	c #770410",
"1 	c #800114",
"2 	c #7F0119",
"3 	c #87000B",
"4 	c #860011",
"5 	c #890006",
"6 	c #850016",
"7 	c #88000C",
"8 	c #8A0007",
"9 	c #860017",
"0 	c #85001B",
"a 	c #89000D",
"b 	c #880012",
"c 	c #6D0724",
"d 	c #870018",
"e 	c #7F021E",
"f 	c #850020",
"g 	c #670A18",
"h 	c #8A000E",
"i 	c #780515",
"j 	c #890013",
"k 	c #77051A",
"l 	c #87001C",
"m 	c #81030F",
"n 	c #7F0223",
"o 	c #7E0227",
"p 	c #8A0014",
"q 	c #890018",
"r 	c #760523",
"s 	c #88001D",
"t 	c #810315",
"u 	c #900002",
"v 	c #590F1B",
"w 	c #8A0019",
"x 	c #820409",
"y 	c #81031A",
"z 	c #890023",
"A 	c #77061F",
"B 	c #700917",
"C 	c #830502",
"D 	c #91000B",
"E 	c #8C0208",
"F 	c #70091C",
"G 	c #6F0920",
"H 	c #600E1E",
"I 	c #940005",
"J 	c #790716",
"K 	c #81041F",
"L 	c #820510",
"M 	c #93000D",
"N 	c #680C1D",
"O 	c #670C21",
"P 	c #920012",
"Q 	c #79071B",
"R 	c #910017",
"S 	c #90001B",
"T 	c #820515",
"U 	c #8B021A",
"V 	c #8A021F",
"W 	c #900021",
"X 	c #82051B",
"Y 	c #6A0D15",
"Z 	c #690D19",
"` 	c #8C030F",
" .	c #8B0315",
"..	c #93001D",
"+.	c #631011",
"@.	c #710B1D",
"#.	c #7B0912",
"$.	c #830711",
"%.	c #6A0E1A",
"&.	c #7B0A0C",
"*.	c #7A091C",
"=.	c #85080C",
"-.	c #6A0F1E",
";.	c #8C051B",
">.	c #7D0C00",
",.	c #690F28",
"'.	c #83081C",
").	c #8C0520",
"!.	c #7B0B18",
"~.	c #5E141A",
"{.	c #64121C",
"].	c #8E0611",
"^.	c #7B0B1D",
"/.	c #5E141F",
"(.	c #6C101B",
"_.	c #730E19",
":.	c #860A05",
"<.	c #6B1024",
"[.	c #8F0803",
"}.	c #6D1116",
"|.	c #6C1120",
"1.	c #850B18",
"2.	c #5D162D",
"3.	c #751124",
"4.	c #6D142B",
"5.	c #8A1008",
"6.	c #891015",
"7.	c #8B1201",
"8.	c #920F14",
"9.	c #851706",
"0.	c #9C1C1A",
"a.	c #9B1C20",
"b.	c #90220F",
"c.	c #91230F",
"d.	c #93250A",
"e.	c #A02017",
"f.	c #942612",
"g.	c #912B0A",
"h.	c #9E2710",
"i.	c #992B16",
"j.	c #9A2C0F",
"k.	c #973016",
"l.	c #9C3620",
"m.	c #9E3714",
"n.	c #9B3A0B",
"o.	c #A43C19",
"p.	c #A53D12",
"q.	c #A14019",
"r.	c #A24121",
"s.	c #AD4419",
"t.	c #A54917",
"u.	c #AB4811",
"v.	c #A04B1D",
"w.	c #A64A1F",
"x.	c #B44916",
"y.	c #A34E1F",
"z.	c #AA4D1B",
"A.	c #AF4C24",
"B.	c #AB4E1C",
"C.	c #A6501A",
"D.	c #AC4F1D",
"E.	c #B74C19",
"F.	c #A25319",
"G.	c #B24E1F",
"H.	c #AE512C",
"I.	c #AF521F",
"J.	c #B15319",
"K.	c #AC551F",
"L.	c #BA5415",
"M.	c #AE5D2A",
"N.	c #B16026",
"O.	c #AF6316",
"P.	c #C95746",
"Q.	c #B7631A",
"R.	c #C75B41",
"S.	c #C1612E",
"T.	c #BE642E",
"U.	c #C1623B",
"V.	c #C46437",
"W.	c #C16729",
"X.	c #BB6D18",
"Y.	c #BB6D29",
"Z.	c #CE663C",
"`.	c #CA693C",
" +	c #CA732B",
".+	c #C9792E",
"++	c #CF8325",
"@+	c #DD892E",
"#+	c #E68962",
"$+	c #E58C50",
"%+	c #E5903D",
"&+	c #DF9B1B",
"*+	c #E69739",
"=+	c #E49A1E",
"-+	c #E49A29",
";+	c #E7983A",
">+	c #E59C3C",
",+	c #EBA141",
"'+	c #EDA232",
")+	c #EDA33B",
"!+	c #F1A535",
"~+	c #ECA835",
"{+	c #EEAE16",
"]+	c #EFAF26",
"^+	c #FAB341",
"/+	c #FAC30D",
"(+	c #FFC300",
"_+	c #FFC211",
":+	c #FCC500",
"<+	c #FDC600",
"[+	c #FCC511",
"}+	c #FFC416",
"|+	c #FFC324",
"1+	c #FFC04B",
"2+	c #FFC700",
"3+	c #FDC614",
"4+	c #FAC900",
"5+	c #FFC800",
"6+	c #FFC431",
"7+	c #FEC716",
"8+	c #F9C913",
"9+	c #FBCA00",
"0+	c #FFC900",
"a+	c #FFC818",
"b+	c #FCCB00",
"c+	c #FFC53D",
"d+	c #FBCA17",
"e+	c #FFC827",
"f+	c #FDC73C",
"g+	c #FECC00",
"h+	c #FEC833",
"i+	c #F9CE00",
"j+	c #FFCA1C",
"k+	c #FEC83E",
"l+	c #FFCD02",
"m+	c #FFC935",
"n+	c #FDCC1A",
"o+	c #FFCA2B",
"p+	c #FFC93F",
"q+	c #FFCF06",
"r+	c #FFCB36",
"s+	c #FECA50",
"t+	c #FFCC41",
"u+	c #FFCF1F",
"v+	c #FDD206",
"w+	c #FECE37",
"x+	c #FFCF2D",
"y+	c #FECB60",
"z+	c #FDCE41",
"A+	c #FFD039",
"B+	c #FDD321",
"C+	c #FFD40E",
"D+	c #FFD13A",
"E+	c #FFD144",
"F+	c #FED430",
"G+	c #FDD445",
"                                                          2 e                                                           ",
"                                                    H g i 1 e N                                                         ",
"                                                Z k J T L U t %.                                                        ",
"                                            /.Y | U j ;.w 9 X |.                                                        ",
"                                        ^ J : &.' j S 9 y 0 z O                                                         ",
"                                  v |.i w  .a x :.; C a.T s y A                                                         ",
"                              4.3.k 1.' =.! m ' * f.w.$+/ j p 9 y { @.A _ e _ Q k Q *.*.*.*.*.*.*.*.*.*.*.*.*.@.-.,.    ",
"                          2.<.] e s R ` 5 * 9.q.n.)+E+;+! h P  .j T X w S R w 9 9 9 w U U U U U U U U U U U U j 1 ^.o r ",
"                      G n n 2 1 j j j ! x l..+E+n+9+v+-+; E M M ].a j j h a $.m : m j j j j j j j j j j j j j 5 E j s f ",
"                Z }.#.w j  .j a / * h.s.L.1+h+_+l+i+v+]+k.# , , * * # * * * * # # # # * # * # * # * * # * # * , [ E S ).",
"            c Q '.: ! E I u / * b.y.'+A+n+(+2+2+2+l+9+x+,+w.B.v.C.C.F.C.B.z.B.B.B.B.z.z.B.z.B.z.B.z.z.B.z.z.B.A.e.5  .s ",
"        g F _ s s j 8 / , C E.u.@+G+e+2+l+9+2+2+2+2+9+[+|+m+m+p+p+p+z+p+p+k+k+c+c+c+k+k+c+k+c+k+c+k+k+c+k+c+c+y+Z.( L 0 ",
"    { #.&.: T 1 : : # # r.Y.6+u+7+3+d+9+9+9+2+2+3+(+l+9+2+3+7+3+7+7+3+7+7+7+7+3+_+_+_+_+_+_+_+_+_+_+_+_+_+3+_+k+T.# m '.",
"] _ 9 p h a / * % d.N.Q.^+w+_+2+2+:+l+9+9+9+9+:+2+2+2+9+l+9+9+2+2+l+:+2+9+9+2+2+2+2+2+2+2+2+2+2+2+2+2+2+2+2+2+m+W.& &.z ",
"j U w 9 p 5 [.R.V.*+G+x+_+7+9+2+9+9+l+9+2+2+9+9+l+9+9+2+9+9+2+2+2+2+2+2+2+2+2+2+2+2+2+2+2+2+2+2+2+2+2+2+2+2+2+m+W.* ' s ",
"D h p s V j 8.P.U.%+z+e+2+9+9+9+l+9+2+9+2+9+2+9+2+:+9+l+9+:+3+l+9+2+2+2+9+9+2+2+2+2+2+9+9+9+9+9+9+9+9+9+9+9+2+w+T.# =.9 ",
"1 1 T s s ).w ' * d.M.!+F+B+7+9+9+d+9+2+9+2+2+2+2+2+2+9+9+d+_+7+7+2+2+7+d+d+7+3+3+7+7+7+7+7+7+7+7+7+7+7+7+7+7+p+S.* / j ",
"    N @.2 ;.S  .` / . p.K.X.k+o+[+2+l+2+2+2+l+/+9+9+9+2+:+a+w+p+k+k+k+k+p+p+k+h+k+p+p+p+p+p+p+p+p+p+p+p+p+m+k+y+`.# ! 9 ",
"        _.i t w t 9 j ' % ( w.++p+o+7+_+7+d+/+9+9+i+d+7+u+&+F.K.J.G.G.G.I.I.I.I.K.I.I.I.I.I.I.I.I.I.I.I.I.I.I.H.i.! L s ",
"            -.G A f s j ].5 * 7.x.u.)+z+x+3+i+l+9+9+9+u+)+g.. % ; * ; * * * * * * * * * * * * * * * * * * * * * , C j w ",
"                c r e 9 a ].h j ' # i.t.O.m+e+3+n+:+C+{+j.; a p 9 m 9 j j p a j w j j j j j j j j j j j j j j a a a j j ",
"                    N _.| 1 V ).j x ! * >.m. +s+6+7+v+=+# : ).V w 9 9 j  .R U w w w U w U w U w U w w U U U U U p j ..j ",
"                          -.A Q T 9 w w S > 5.o.n.~+A+>+( f s 1 T #.J !.y y !.Q k J ^.!.^.!.^.!.^.!.!.k k k i k A ] k J ",
"                              ~.(.Q y V W S ! ; # b.D.#+a w 9 )                                                         ",
"                                    G _ y X s T $.! / 0.h p m _.                                                        ",
"                                        < ^ ) y 9 j a a =.a m (.                                                        ",
"                                            ~.Y ) T w 9 m a j N                                                         ",
"                                                {.}.#.t y w w {.                                                        ",
"                                                    +.B r s L {.                                                        ",
"                                                          K 6.                                                          "};
