/* XPM */
static char * bar_xpm[] = {
"60 60 181 2",
"  	c #000001",
". 	c #ECD568",
"+ 	c #F5D55B",
"@ 	c #EAD962",
"# 	c #F2D854",
"$ 	c #F8D756",
"% 	c #FADD40",
"& 	c #F9DD49",
"* 	c #EFE148",
"= 	c #F3DF51",
"- 	c #FBDE41",
"; 	c #FFDD43",
"> 	c #F6E041",
", 	c #FADE4A",
"' 	c #F5E04A",
") 	c #F8E137",
"! 	c #FCDF42",
"~ 	c #F7E142",
"{ 	c #FBDF4C",
"] 	c #F4E05B",
"^ 	c #F6E14B",
"/ 	c #FBDF54",
"( 	c #F9E239",
"_ 	c #FDE044",
": 	c #FADF5C",
"< 	c #F6E154",
"[ 	c #F4E438",
"} 	c #F8E243",
"| 	c #F6DF71",
"1 	c #F3E442",
"2 	c #FDE04D",
"3 	c #F4E163",
"4 	c #FFE13B",
"5 	c #F8E24C",
"6 	c #FCE055",
"7 	c #FFDF56",
"8 	c #FEE145",
"9 	c #F7E255",
"0 	c #F5E539",
"a 	c #F1E179",
"b 	c #F9E344",
"c 	c #F4E544",
"d 	c #FBE15D",
"e 	c #F9E34D",
"f 	c #FBE43B",
"g 	c #FFE33C",
"h 	c #EFE46B",
"i 	c #F0E27F",
"j 	c #F8E356",
"k 	c #F6E63B",
"l 	c #FEE24E",
"m 	c #F2E093",
"n 	c #F3E555",
"o 	c #FDE531",
"p 	c #FBE445",
"q 	c #FDE256",
"r 	c #F2E55D",
"s 	c #FFE346",
"t 	c #FCE25E",
"u 	c #F6E645",
"v 	c #FAE44E",
"w 	c #FFE43D",
"x 	c #FCE53D",
"y 	c #F5E64E",
"z 	c #F9E457",
"A 	c #F7E73C",
"B 	c #FFE34F",
"C 	c #FFE447",
"D 	c #EEE57A",
"E 	c #FEE357",
"F 	c #FCE547",
"G 	c #F7E746",
"H 	c #FFE450",
"I 	c #F8E55F",
"J 	c #F6E74F",
"K 	c #FEE733",
"L 	c #F9E83D",
"M 	c #FFE458",
"N 	c #F8E566",
"O 	c #FBE650",
"P 	c #F1E48F",
"Q 	c #FAE933",
"R 	c #F8E847",
"S 	c #FAE658",
"T 	c #FEE73E",
"U 	c #FFE460",
"V 	c #FDE748",
"W 	c #FFE55A",
"X 	c #FAE93F",
"Y 	c #FCE751",
"Z 	c #F9E948",
"` 	c #FFE83F",
" .	c #FFE935",
"..	c #FCE759",
"+.	c #FEE849",
"@.	c #FDE852",
"#.	c #FFE940",
"$.	c #FFEA37",
"%.	c #F8EA51",
"&.	c #F2E697",
"*.	c #FDE85A",
"=.	c #FBEB40",
"-.	c #FFE94A",
";.	c #FFEA42",
">.	c #FAEB4A",
",.	c #FFE953",
"'.	c #FFEA4B",
").	c #FEE95B",
"!.	c #FCEC41",
"~.	c #FDE963",
"{.	c #FBEC4B",
"].	c #FFEA54",
"^.	c #FCE96B",
"/.	c #FBE972",
"(.	c #FBE78D",
"_.	c #FBEC54",
":.	c #FDED42",
"<.	c #FFEB55",
"[.	c #FAE980",
"}.	c #FDED4C",
"|.	c #FFEE39",
"1.	c #F7EF4B",
"2.	c #F7EC73",
"3.	c #FCED55",
"4.	c #FEEE44",
"5.	c #FBED5D",
"6.	c #FFEF3A",
"7.	c #FEEE4D",
"8.	c #FEEB74",
"9.	c #FBF139",
"0.	c #FFEC66",
"a.	c #FDEE56",
"b.	c #FFEF45",
"c.	c #F9EB8F",
"d.	c #FBEE66",
"e.	c #FFEF4E",
"f.	c #F2EBAF",
"g.	c #FFF046",
"h.	c #FAF14E",
"i.	c #FEEF57",
"j.	c #FDEF5F",
"k.	c #FFF050",
"l.	c #FCF245",
"m.	c #FFF058",
"n.	c #FDED83",
"o.	c #FFF060",
"p.	c #FDF347",
"q.	c #FFF159",
"r.	c #FCF350",
"s.	c #FCF077",
"t.	c #FFF25B",
"u.	c #FEF448",
"v.	c #FDF451",
"w.	c #FFF53F",
"x.	c #FDF45A",
"y.	c #FFF549",
"z.	c #FFF363",
"A.	c #FFF553",
"B.	c #FFF64A",
"C.	c #FEF55B",
"D.	c #FFF464",
"E.	c #FDF563",
"F.	c #FFF654",
"G.	c #FAF853",
"H.	c #FFF65C",
"I.	c #FDF941",
"J.	c #FCF94B",
"K.	c #FFF84C",
"L.	c #FAF67A",
"M.	c #FFF85D",
"N.	c #FEFA4C",
"O.	c #FFF866",
"P.	c #FDFA56",
"Q.	c #FFFB43",
"R.	c #FCF3B0",
"S.	c #FEF875",
"T.	c #FFFB4E",
"U.	c #FCFF45",
"V.	c #FCFF4F",
"W.	c #FFFE50",
"X.	c #FEFD60",
"                                                                                                        n k.* ' 5 2 2 2 ",
"                                                                                                      3 %.Z u } 5 5 5 e ",
"                                                                                                    n.o.y c u F 5 5 5 e ",
"                                                                                                  m s.z 5 } R F ~ 2 5 - ",
"                                                                                                f.(.+ / 5 > x F > F F _ ",
"                                                                                              R.P . $ E v > F F ~ F F F ",
"                                                                                            a 8.@ # : M e ~ x F F > F 4.",
"                                                                                          h 0.< < z M 2 2 ~ } -.F F F F ",
"                                                                                        D d.y e F F H 2 5 F } G }.y.~   ",
"                                                                                      &.8.*.v } ) x F ~ F {.R R T.{.    ",
"                                                                                    c.[.] j v > ) x x c c Z Z T.A.      ",
"                                                                                  L.S.z j 5 2 F F F ) c u R V.P.        ",
"                                                                                5.X.F F 8 _ _ 8 8 _ ~ } {.y.A.          ",
"                                                                              U q._ 4 4 4 _ _ _ _ _ F -.p.Z             ",
"                                                                            | o.2 _ _ 4 _ _ _ F } - F b.}               ",
"                                                                          i ^.,.2 _ _ _ _ F F F F F k.F                 ",
"                                                                        /.d.v F H H 2 2 2 F F x x y.-.                  ",
"                                                                      o.O.R F F F 2 2 6 2 2 F x Q.4.                    ",
"                                                                    o.H.R 0 X -.F 2 2 6 2 F F Q.p.                      ",
"                                                                  z H.~ [ L X F F 2 2 2 2 F y.p.                        ",
"                                                                r q.~ ~ ) x x F e 2 2 _ 8 4.#.                          ",
"                                                              Y x.Y F F x F F v v 2 _ x #.%                             ",
"                                                            _ 7.F F F F F F v 2 2 _ x 4.(                               ",
"                                                          _ 7.F _ F F F F 2 2 2 2 8 u.x                                 ",
"                                                        v b.F _ _ F F F _ _ 2 2 2 y.:.                                  ",
"                                                      h.A.F _ _ _ F F 4 4 _ _ 2 A.}.                                    ",
"                                                    k.T.F F F _ _ 8 4 4 4 4 _ A.}.                                      ",
"                                                  }.y._ _ F v v H 8 4 4 4 x b.{.                                        ",
"                                                F y.4 4 _ 2 2 H v F x o K 4._                                           ",
"                                              z k.x 4 4 _ 2 6 j v G x $.4._                                             ",
"                                            9 a.F 4 4 4 4 _ v v y G X b._                                               ",
"                                          Y k.F _ 4 4 x x x x G G F y.F                                                 ",
"                                        q.A._ _ _ _ _ F L L L L x T.{.                                                  ",
"                                      5.A._ _ 2 2 2 2 v F R L x Q.b.                                                    ",
"                                    N x._ ; _ 2 2 E z v v F F K.l.                                                      ",
"                                  2.o._ _ _ _ _ 2 v v v v -.k.-.                                                        ",
"                                N D.2 _ _ _ _ F F F u F -.7.2                                                           ",
"                              I ].Y 2 _ _ _ F F G 0 0 #.b.-                                                             ",
"                            < o.v 5 F } F F F Z Z X !.w.x                                                               ",
"                          E o.).2 e F } F F c u u X U.Q                                                                 ",
"                        o.o.M 2 2 F F c c G c c c Q.9.                                                                  ",
"                      3.C.E 2 2 } F L 0 k L u x I.6.                                                                    ",
"                    1.A.& 2 2 - F L L k L L #.b.4.                                                                      ",
"                  _.P.F _ ; % - F c u R R Z 7._                                                                         ",
"                j q.Y 8 8 _ - } F } u F 7.a.2                                                                           ",
"              : o.M 2 _ x x x F G F x -.A.H                                                                             ",
"            M o.M 6 2 2 x x ( ( x x x I.-.                                                                              ",
"          }.C.@.2 2 2 _ _ _ F F F F Q.|.                                                                                ",
"        A.y.F F F v 2 2 _ _ H v F T.p.                                                                                  ",
"      a.T.F F F F F F 2 2 2 2 Y A.k.                                                                                    ",
"    ~.H._ x x F F F F 8 H 2 ].A.].                                                                                      ",
"  : D.Y 4 x x x F x x x 8 F q.v                                                                                         ",
"2 6 2 _ x x x F F x o o x 7.e                                                                                           ",
"7.2 2 2 8 4 x F F 4 x 4 p.F                                                                                             ",
"F 2 2 2 _ 8 F H 2 - _ y.F                                                                                               ",
"F _ 2 2 2 _ 2 2 2 2 A.{.                                                                                                ",
"F F 2 2 2 2 v 2 v A._.                                                                                                  ",
"F F 2 7 2 2 v F A.{.                                                                                                    ",
"v 2 2 7 6 2 F }.G                                                                                                       ",
"v 2 2 2 2 2 p.Z                                                                                                         "};
