/* XPM */
static char * bar_xpm[] = {
"30 30 190 2",
"  	c #000001",
". 	c #FAED53",
"+ 	c #FBE74B",
"@ 	c #F9E14F",
"# 	c #FBE351",
"$ 	c #FDEE70",
"% 	c #FEEC4B",
"& 	c #F8E446",
"* 	c #F8E04A",
"= 	c #F8E14C",
"- 	c #F6E48D",
"; 	c #FFE760",
"> 	c #F9E145",
", 	c #F9E342",
"' 	c #F9E147",
") 	c #FFE749",
"! 	c #F9EC70",
"~ 	c #FFE861",
"{ 	c #FDE156",
"] 	c #FAE148",
"^ 	c #FAE444",
"/ 	c #FFEC4B",
"( 	c #FCE646",
"_ 	c #FAEE70",
": 	c #FFEF4F",
"< 	c #FCE345",
"[ 	c #FBE34B",
"} 	c #F9E44B",
"| 	c #FFF34D",
"1 	c #FDF652",
"2 	c #FBF079",
"3 	c #FFED5D",
"4 	c #FBE24A",
"5 	c #FAE241",
"6 	c #F6E241",
"7 	c #FFF34E",
"8 	c #FEFB53",
"9 	c #FDF35B",
"0 	c #FFF14A",
"a 	c #FEE245",
"b 	c #FEE24A",
"c 	c #FCE048",
"d 	c #FFEE48",
"e 	c #FDF34D",
"f 	c #FCEB67",
"g 	c #FFED4F",
"h 	c #FFE044",
"i 	c #FEE347",
"j 	c #FBE247",
"k 	c #FFEE4B",
"l 	c #FDF04D",
"m 	c #FCF263",
"n 	c #FFF050",
"o 	c #FEE34E",
"p 	c #FDE254",
"q 	c #FCE150",
"r 	c #FFF048",
"s 	c #FEF74A",
"t 	c #FDF258",
"u 	c #FFF246",
"v 	c #FBE744",
"w 	c #FCE350",
"x 	c #FBE053",
"y 	c #FFED52",
"z 	c #FEF54A",
"A 	c #FCF15A",
"B 	c #FAE440",
"C 	c #FCE54A",
"D 	c #FCE14F",
"E 	c #FFED4D",
"F 	c #FDEC47",
"G 	c #FEEF4F",
"H 	c #FFEF50",
"I 	c #FBE447",
"J 	c #FCE449",
"K 	c #FFED51",
"L 	c #FEF246",
"M 	c #FDEF4D",
"N 	c #FFEE4A",
"O 	c #FCE149",
"P 	c #FDE146",
"Q 	c #FFEB52",
"R 	c #FEF251",
"S 	c #FEF44E",
"T 	c #FFEF4B",
"U 	c #FCE34C",
"V 	c #FEE44B",
"W 	c #FFE33F",
"X 	c #FFEE41",
"Y 	c #FEEF4C",
"Z 	c #FFEE43",
"` 	c #FEE14A",
" .	c #FCE357",
"..	c #FAE44D",
"+.	c #FFF23F",
"@.	c #FEEF43",
"#.	c #FDF056",
"$.	c #FFEF49",
"%.	c #FFE33E",
"&.	c #FEE543",
"*.	c #FAE44B",
"=.	c #FFF250",
"-.	c #FEF34B",
";.	c #FDF051",
">.	c #FFEC4E",
",.	c #FFE150",
"'.	c #FCE44D",
").	c #F8E645",
"!.	c #FFF343",
"~.	c #FFF64A",
"{.	c #FDEE5D",
"].	c #FFEB47",
"^.	c #FFDF49",
"/.	c #FCE254",
"(.	c #F8E353",
"_.	c #FFF053",
":.	c #FEF24C",
"<.	c #FCF15F",
"[.	c #FFEC50",
"}.	c #FEE046",
"|.	c #FDE54A",
"1.	c #F7E546",
"2.	c #FFF148",
"3.	c #FEEF4B",
"4.	c #FCEE5D",
"5.	c #FAE249",
"6.	c #F8E349",
"7.	c #F7E64A",
"8.	c #FFF546",
"9.	c #FEF641",
"0.	c #FEF160",
"a.	c #FFED57",
"b.	c #F7E643",
"c.	c #F5E644",
"d.	c #FFEF47",
"e.	c #FEF544",
"f.	c #FCF452",
"g.	c #FFEA50",
"h.	c #FCDD47",
"i.	c #F8E543",
"j.	c #F6E643",
"k.	c #FFF34B",
"l.	c #FCEF5F",
"m.	c #FFEF52",
"n.	c #FEE343",
"o.	c #FAE242",
"p.	c #F8E345",
"q.	c #FFF24C",
"r.	c #FEF256",
"s.	c #FDF05C",
"t.	c #FFEC5B",
"u.	c #FEE04F",
"v.	c #FDE444",
"w.	c #FAE443",
"x.	c #FFF149",
"y.	c #FEF645",
"z.	c #FDF550",
"A.	c #FFF14C",
"B.	c #FDE24A",
"C.	c #FDE34D",
"D.	c #FDE14F",
"E.	c #FFEF54",
"F.	c #FEF450",
"G.	c #FDF15C",
"H.	c #FFF046",
"I.	c #FDE443",
"J.	c #FDE644",
"K.	c #FEE443",
"L.	c #FFEF51",
"M.	c #FCF057",
"N.	c #FCE452",
"O.	c #FFE752",
"P.	c #FFE343",
"Q.	c #FEE546",
"R.	c #FDE344",
"S.	c #FFF03D",
"T.	c #FEF149",
"U.	c #FFE84C",
"V.	c #FEDF4D",
"W.	c #FFE34B",
"X.	c #FDE24D",
"Y.	c #FFEB51",
"Z.	c #FDF24C",
"`.	c #FEE150",
" +	c #FFE051",
".+	c #FDF053",
"++	c #FCE34E",
"@+	c #FEDF51",
"#+	c #FFE652",
"$+	c #FCF04A",
"                                                    . + @ # ",
"                                                  $ % & * = ",
"                                                - ; > , ' ) ",
"                                              ! ~ { ] ^ / ( ",
"                                            _ : < [ } | 1   ",
"                                          2 3 4 5 6 7 8     ",
"                                        9 0 a b c d e       ",
"                                      f g h i j k l         ",
"                                    m n o p q r s           ",
"                                  t u v w x y z             ",
"                                A k B C D E F               ",
"                              G H I J q K L                 ",
"                            M N O < P Q R                   ",
"                          S T U V W X Y                     ",
"                        | Z `  ...+.@.                      ",
"                      #.$.%.&.*.=.-.                        ",
"                    ;.>.,.'.).!.~.                          ",
"                  {.].^./.(._.:.                            ",
"                <.[.}.|.1.2.3.                              ",
"              4.y 5.6.7.8.9.                                ",
"            0.a.j b.c.d.e.                                  ",
"          f.g.h.i.j.k.3.                                    ",
"        l.m.n.o.p.q.r.                                      ",
"      s.t.u.v.w.x.y.                                        ",
"    z.A.B.C.D.E.F.                                          ",
"  G.H.I.J.K.L.M.                                            ",
"N.O.P.Q.R.S.T.                                              ",
"U.V.W.X.Y.Z.                                                ",
"J `. +g..+                                                  ",
"++@+#+$+                                                    "};
