/* XPM */
static char * boyjump_xpm[] = {
"42 60 887 2",
"  	c #000001",
". 	c #5782A6",
"+ 	c #5C82A8",
"@ 	c #3577B3",
"# 	c #2171B2",
"$ 	c #0D70B5",
"% 	c #4F7FAB",
"& 	c #2B73B1",
"* 	c #4D7FAE",
"= 	c #5985B7",
"- 	c #076DB7",
"; 	c #4C80B0",
"> 	c #0C6EB7",
", 	c #086EB8",
"' 	c #146BB0",
") 	c #2773B9",
"! 	c #2A71B2",
"~ 	c #0372CB",
"{ 	c #487DB1",
"] 	c #2D74B1",
"^ 	c #0A6CBB",
"/ 	c #467FAF",
"( 	c #056BBC",
"_ 	c #166BAC",
": 	c #64869F",
"< 	c #377CBB",
"[ 	c #3374B4",
"} 	c #136AB2",
"| 	c #096EC2",
"1 	c #6895C0",
"2 	c #1F6FB7",
"3 	c #0781E1",
"4 	c #256FB9",
"5 	c #146FBB",
"6 	c #0970C1",
"7 	c #4B88C0",
"8 	c #146EB9",
"9 	c #066BBA",
"0 	c #3C79AE",
"a 	c #016EBA",
"b 	c #4C7CA3",
"c 	c #2B72A8",
"d 	c #337DBC",
"e 	c #076BBC",
"f 	c #4A84BD",
"g 	c #066DC1",
"h 	c #0B7CD7",
"i 	c #026EBF",
"j 	c #026DC2",
"k 	c #088EF2",
"l 	c #0175CD",
"m 	c #387ABF",
"n 	c #0373CE",
"o 	c #0379D6",
"p 	c #046BBC",
"q 	c #0674CB",
"r 	c #066FBF",
"s 	c #518CC4",
"t 	c #0C6CBA",
"u 	c #066BBB",
"v 	c #6E94C2",
"w 	c #066BBC",
"x 	c #0E6DB2",
"y 	c #507EB1",
"z 	c #3981BF",
"A 	c #0573CB",
"B 	c #016DC1",
"C 	c #006EC7",
"D 	c #0789EF",
"E 	c #016FC5",
"F 	c #0270CA",
"G 	c #098FF5",
"H 	c #0680DB",
"I 	c #006CC1",
"J 	c #067DDD",
"K 	c #057CDA",
"L 	c #016CBF",
"M 	c #0783E3",
"N 	c #026EC3",
"O 	c #006CC2",
"P 	c #0A79D3",
"Q 	c #1D73BF",
"R 	c #096BB7",
"S 	c #6384A7",
"T 	c #076EB9",
"U 	c #1E6FB9",
"V 	c #2476BE",
"W 	c #0780E1",
"X 	c #0475CF",
"Y 	c #036EC1",
"Z 	c #0D8AED",
"` 	c #0576D0",
" .	c #0270C6",
"..	c #057AD9",
"+.	c #0672C8",
"@.	c #026BBF",
"#.	c #0472CB",
"$.	c #0572C4",
"%.	c #016EC4",
"&.	c #0987E9",
"*.	c #016EC3",
"=.	c #006FC6",
"-.	c #078AEC",
";.	c #026CC2",
">.	c #026BC1",
",.	c #086CB9",
"'.	c #4B81B3",
").	c #658CBB",
"!.	c #0370BE",
"~.	c #0573CE",
"{.	c #026CC3",
"].	c #097FDC",
"^.	c #0986EB",
"/.	c #0171CB",
"(.	c #016CC4",
"_.	c #016CBE",
":.	c #016BC2",
"<.	c #046ABD",
"[.	c #016BBF",
"}.	c #016CC0",
"|.	c #016DC0",
"1.	c #026BC0",
"2.	c #057AD7",
"3.	c #098AEF",
"4.	c #0272C7",
"5.	c #086EC1",
"6.	c #6493BE",
"7.	c #156DB7",
"8.	c #5E8BB9",
"9.	c #447CA8",
"0.	c #046FC6",
"a.	c #0A86E9",
"b.	c #006DC6",
"c.	c #0677CF",
"d.	c #0271CA",
"e.	c #006DC1",
"f.	c #026CBF",
"g.	c #006CC0",
"h.	c #0771C5",
"i.	c #1176CA",
"j.	c #1379CC",
"k.	c #0F75C9",
"l.	c #036DC2",
"m.	c #016BC0",
"n.	c #016ABF",
"o.	c #2375BC",
"p.	c #016EBE",
"q.	c #457DB4",
"r.	c #086EB9",
"s.	c #407AB5",
"t.	c #0271CB",
"u.	c #058FF6",
"v.	c #026CBD",
"w.	c #0E73C4",
"x.	c #298DDF",
"y.	c #37A0F3",
"z.	c #3CA8FB",
"A.	c #3FACFF",
"B.	c #3EAAFE",
"C.	c #3AA6F9",
"D.	c #329AED",
"E.	c #1E83D6",
"F.	c #036EC2",
"G.	c #026CBE",
"H.	c #0E82DC",
"I.	c #016FC7",
"J.	c #047AD4",
"K.	c #296EAD",
"L.	c #457FB3",
"M.	c #016EC5",
"N.	c #026CC0",
"O.	c #0471C1",
"P.	c #057CDD",
"Q.	c #016CC1",
"R.	c #046DC3",
"S.	c #278EDF",
"T.	c #3CAAFA",
"U.	c #40ACFF",
"V.	c #44ABFD",
"W.	c #45ABFD",
"X.	c #43ACFD",
"Y.	c #41ADFE",
"Z.	c #40ACFE",
"`.	c #39A2F4",
" +	c #1A7ED2",
".+	c #016DC2",
"++	c #0477D1",
"@+	c #0783E4",
"#+	c #296EAE",
"$+	c #467EAB",
"%+	c #0474CF",
"&+	c #056BBF",
"*+	c #016DBF",
"=+	c #0971C6",
"-+	c #359EF2",
";+	c #40ADFE",
">+	c #42ADFD",
",+	c #44ACFE",
"'+	c #44ACFC",
")+	c #43ADFB",
"!+	c #43ADFC",
"~+	c #43ADFE",
"{+	c #42ABFE",
"]+	c #42AAFC",
"^+	c #298BDA",
"/+	c #036BBC",
"(+	c #0885E7",
"_+	c #0685E9",
":+	c #3C76B3",
"<+	c #447BAD",
"[+	c #0575CF",
"}+	c #0B88E7",
"|+	c #006CC3",
"1+	c #0970C6",
"2+	c #36A0F2",
"3+	c #41ACFE",
"4+	c #44ACFD",
"5+	c #45ACF9",
"6+	c #43ACFF",
"7+	c #43ACFE",
"8+	c #42ACFF",
"9+	c #45ACFC",
"0+	c #45ABFE",
"a+	c #44ADFE",
"b+	c #42ACFD",
"c+	c #41ACFD",
"d+	c #268CDF",
"e+	c #016BBE",
"f+	c #0377D3",
"g+	c #0787E8",
"h+	c #4178B3",
"i+	c #3F7CB0",
"j+	c #0675CC",
"k+	c #0877D2",
"l+	c #026BBE",
"m+	c #2E98EB",
"n+	c #41ADFD",
"o+	c #42ADFE",
"p+	c #45ACFB",
"q+	c #44ACFB",
"r+	c #42ADFC",
"s+	c #43ABFD",
"t+	c #3FAAFD",
"u+	c #1A7FD1",
"v+	c #047FD9",
"w+	c #3978B5",
"x+	c #3D79AD",
"y+	c #036FC2",
"z+	c #1C80D1",
"A+	c #3FACFD",
"B+	c #41ABFF",
"C+	c #3FACFE",
"D+	c #43ACFB",
"E+	c #43ADFA",
"F+	c #43AAFE",
"G+	c #40ACFB",
"H+	c #44ABFE",
"I+	c #39A1F3",
"J+	c #056DC0",
"K+	c #0171C5",
"L+	c #2271B5",
"M+	c #3A76AA",
"N+	c #026CBC",
"O+	c #016ABD",
"P+	c #006BC1",
"Q+	c #349DEF",
"R+	c #43ACFC",
"S+	c #44ACFA",
"T+	c #43ADFD",
"U+	c #3CA7F9",
"V+	c #2288D9",
"W+	c #0A74C6",
"X+	c #1378CE",
"Y+	c #2F96E9",
"Z+	c #41ABFC",
"`+	c #2B8EE0",
" @	c #0E76CF",
".@	c #0C75CF",
"+@	c #288DE0",
"@@	c #3FAAFB",
"#@	c #42ACFE",
"$@	c #2183D5",
"%@	c #0C6CB7",
"&@	c #3774A9",
"*@	c #026ABE",
"=@	c #0D75CB",
"-@	c #3EABFD",
";@	c #3FAAFC",
">@	c #157ACD",
",@	c #1279CC",
"'@	c #2E93E3",
")@	c #278BDB",
"!@	c #046DC1",
"~@	c #2C93E7",
"{@	c #40ADFF",
"]@	c #2286DA",
"^@	c #0B72C5",
"/@	c #2C90DF",
"(@	c #2C90DE",
"_@	c #0B72C4",
":@	c #2286D8",
"<@	c #339AED",
"[@	c #006BC2",
"}@	c #066DBC",
"|@	c #3073A8",
"1@	c #036BC0",
"2@	c #2084DA",
"3@	c #43ABFE",
"4@	c #329BED",
"5@	c #056FC1",
"6@	c #3BA2F0",
"7@	c #225F8E",
"8@	c #398FC8",
"9@	c #278CDD",
"0@	c #1078C8",
"a@	c #37A5F8",
"b@	c #056EC3",
"c@	c #3399EC",
"d@	c #357FB3",
"e@	c #3476A2",
"f@	c #349BEA",
"g@	c #036DC4",
"h@	c #3BA5F8",
"i@	c #3CA6F9",
"j@	c #036DBC",
"k@	c #34709E",
"l@	c #046CBE",
"m@	c #046AC0",
"n@	c #2A8FE4",
"o@	c #46AAFD",
"p@	c #40AEFD",
"q@	c #2F98EB",
"r@	c #0A73C3",
"s@	c #3AA3F0",
"t@	c #0B2C48",
"u@	c #2C7AAB",
"v@	c #2D96E9",
"w@	c #0974C5",
"x@	c #349FF4",
"y@	c #36A0F1",
"z@	c #276086",
"A@	c #244F6A",
"B@	c #38A3F2",
"C@	c #37A2F6",
"D@	c #40ABFE",
"E@	c #0B71C7",
"F@	c #0A6BB3",
"G@	c #166EB8",
"H@	c #036BBF",
"I@	c #2B92E5",
"J@	c #45AAFE",
"K@	c #41ADFC",
"L@	c #45ABF9",
"M@	c #39A5F8",
"N@	c #2D90E0",
"O@	c #4193D2",
"P@	c #3E9EE4",
"Q@	c #127BD4",
"R@	c #1D85D7",
"S@	c #42A9FB",
"T@	c #1077CC",
"U@	c #2484D3",
"V@	c #3F9DE1",
"W@	c #3B9AE0",
"X@	c #1E85D9",
"Y@	c #1074C5",
"Z@	c #45ACFD",
"`@	c #0E75CC",
" #	c #4980B8",
".#	c #2D73B5",
"+#	c #2790E3",
"@#	c #44AAFE",
"##	c #45ABFA",
"$#	c #2D94E6",
"%#	c #066FC4",
"&#	c #0771C8",
"*#	c #026EC4",
"=#	c #127AD1",
"-#	c #39A6F7",
";#	c #349FF3",
">#	c #0B74C9",
",#	c #046FC3",
"'#	c #0371C8",
")#	c #0974CC",
"!#	c #359DF0",
"~#	c #0C74C9",
"{#	c #026DC0",
"]#	c #648DBA",
"^#	c #2A70AF",
"/#	c #026BBD",
"(#	c #1E87DB",
"_#	c #43AAFF",
":#	c #45ABFB",
"<#	c #3397EB",
"[#	c #339CF0",
"}#	c #3FA9FB",
"|#	c #44ABFB",
"1#	c #3CA9F9",
"2#	c #3398EA",
"3#	c #339AEA",
"4#	c #46AAF9",
"5#	c #3BA8FA",
"6#	c #056FC3",
"7#	c #487DAC",
"8#	c #4C81BB",
"9#	c #1176CB",
"0#	c #41AAFE",
"a#	c #46ABFD",
"b#	c #42ABFD",
"c#	c #43ABFC",
"d#	c #339DEF",
"e#	c #016BC1",
"f#	c #066DBA",
"g#	c #5584B0",
"h#	c #086CBA",
"i#	c #016EC2",
"j#	c #3AA0F3",
"k#	c #3CA7F8",
"l#	c #2A8FE1",
"m#	c #40AAFD",
"n#	c #45ABFC",
"o#	c #288EE0",
"p#	c #3EA9FB",
"q#	c #2287DA",
"r#	c #2370B4",
"s#	c #4179AD",
"t#	c #016EBD",
"u#	c #0F6BB3",
"v#	c #4B82B2",
"w#	c #146FB9",
"x#	c #1E85D5",
"y#	c #40ADFD",
"z#	c #39A4F6",
"A#	c #0671C6",
"B#	c #2489DC",
"C#	c #41AAFC",
"D#	c #40ABFD",
"E#	c #0972C8",
"F#	c #3BA6FA",
"G#	c #42ADFF",
"H#	c #3BA6F7",
"I#	c #066FC2",
"J#	c #036BC1",
"K#	c #467CB2",
"L#	c #5D85AD",
"M#	c #2E73AF",
"N#	c #3276AF",
"O#	c #5887B0",
"P#	c #066DBD",
"Q#	c #046BBD",
"R#	c #036DBE",
"S#	c #2B75B5",
"T#	c #0E72C1",
"U#	c #046BBA",
"V#	c #036DC1",
"W#	c #359DEF",
"X#	c #076FC5",
"Y#	c #2688DA",
"Z#	c #42ABFF",
"`#	c #3FABFC",
" $	c #2489DA",
".$	c #359FF1",
"+$	c #40ACFD",
"@$	c #1F84D5",
"#$	c #006BBE",
"$$	c #066CBA",
"%$	c #5B8BBA",
"&$	c #3E78B5",
"*$	c #0469C2",
"=$	c #036CBE",
"-$	c #4E80B0",
";$	c #0573CA",
">$	c #0478D6",
",$	c #016CC2",
"'$	c #0E74C4",
")$	c #3AA5F6",
"!$	c #379DEF",
"~$	c #0971C5",
"{$	c #1378CC",
"]$	c #288DDF",
"^$	c #2C93E6",
"/$	c #298EE0",
"($	c #137ACC",
"_$	c #0970C2",
":$	c #369DEC",
"<$	c #42ACFB",
"[$	c #2D93E4",
"}$	c #026BC2",
"|$	c #016CBD",
"1$	c #016EC7",
"2$	c #046BBE",
"3$	c #136EB6",
"4$	c #286FB0",
"5$	c #046BBB",
"6$	c #0889EF",
"7$	c #038FFC",
"8$	c #0682E2",
"9$	c #036CC5",
"0$	c #036BBE",
"a$	c #1376CA",
"b$	c #3BA3F5",
"c$	c #3BA7F8",
"d$	c #258BE1",
"e$	c #157BD2",
"f$	c #0E76CE",
"g$	c #137BD1",
"h$	c #268BDC",
"i$	c #3CA3F6",
"j$	c #42ACFC",
"k$	c #2E94E6",
"l$	c #006CBF",
"m$	c #0381DF",
"n$	c #0789EC",
"o$	c #0170C4",
"p$	c #026DBD",
"q$	c #3374B3",
"r$	c #427BAF",
"s$	c #036EC3",
"t$	c #0273CC",
"u$	c #0987EA",
"v$	c #048FFA",
"w$	c #0390FD",
"x$	c #048DF4",
"y$	c #0377D5",
"z$	c #036AC1",
"A$	c #006DBF",
"B$	c #2E97E9",
"C$	c #46ABFA",
"D$	c #3DA6F8",
"E$	c #2287D8",
"F$	c #026CC1",
"G$	c #016CC3",
"H$	c #0476D7",
"I$	c #078AF3",
"J$	c #018FFE",
"K$	c #068FFB",
"L$	c #087EE1",
"M$	c #0569BB",
"N$	c #056CBC",
"O$	c #5382B6",
"P$	c #3C79B0",
"Q$	c #136BB3",
"R$	c #036CBF",
"S$	c #0174D2",
"T$	c #0482E4",
"U$	c #068DF5",
"V$	c #088DF7",
"W$	c #0581E8",
"X$	c #016FC8",
"Y$	c #167BCE",
"Z$	c #2E96EA",
"`$	c #3CA5F8",
" %	c #3FADFF",
".%	c #3DAAFD",
"+%	c #278BDE",
"@%	c #026ABD",
"#%	c #0173D0",
"$%	c #0686E9",
"%%	c #078FF8",
"&%	c #0290FA",
"*%	c #068AEB",
"=%	c #057DD6",
"-%	c #0272C5",
";%	c #016DBD",
">%	c #1F71B6",
",%	c #4E7EB1",
"'%	c #1C6FB7",
")%	c #016EC9",
"!%	c #037CD9",
"~%	c #0789E8",
"{%	c #0C89EB",
"]%	c #0375D7",
"^%	c #046EC2",
"/%	c #0E76CA",
"(%	c #157ED1",
"_%	c #1780D4",
":%	c #147BCF",
"<%	c #0C73C6",
"[%	c #0170C7",
"}%	c #067FDD",
"|%	c #0A8DF1",
"1%	c #068AEF",
"2%	c #057EDE",
"3%	c #0172CE",
"4%	c #076BC1",
"5%	c #1C6EB2",
"6%	c #4A7DB1",
"7%	c #5886B4",
"8%	c #3876B4",
"9%	c #0A6DBA",
"0%	c #026DBF",
"a%	c #0475D0",
"b%	c #0A82E0",
"c%	c #077EDC",
"d%	c #0776CF",
"e%	c #0C85E6",
"f%	c #047FE3",
"g%	c #0273CF",
"h%	c #056CBF",
"i%	c #216EB1",
"j%	c #487DAF",
"k%	c #487EB1",
"l%	c #046DBD",
"m%	c #016DBE",
"n%	c #036FC7",
"o%	c #026DC4",
"p%	c #0480E1",
"q%	c #047AD8",
"r%	c #0274D0",
"s%	c #0172CA",
"t%	c #0171C9",
"u%	c #0376D2",
"v%	c #057FDF",
"w%	c #0378D4",
"x%	c #046FC9",
"y%	c #016AC3",
"z%	c #1B70B7",
"A%	c #407AB2",
"B%	c #5284B5",
"C%	c #3475B4",
"D%	c #046CBC",
"E%	c #0781E4",
"F%	c #0590FD",
"G%	c #0190FE",
"H%	c #0490FD",
"I%	c #0590FB",
"J%	c #058FFB",
"K%	c #078FFB",
"L%	c #068EF9",
"M%	c #038FFB",
"N%	c #098CF2",
"O%	c #0171CA",
"P%	c #026BBB",
"Q%	c #0E6DB5",
"R%	c #4077B3",
"S%	c #5C86B1",
"T%	c #2F77BA",
"U%	c #0270C7",
"V%	c #068DF9",
"W%	c #068FFE",
"X%	c #0790FB",
"Y%	c #0590FC",
"Z%	c #0291FF",
"`%	c #0191FF",
" &	c #048FFB",
".&	c #067EDE",
"+&	c #056DBF",
"@&	c #2F76B2",
"#&	c #0377CF",
"$&	c #068FF7",
"%&	c #0790FF",
"&&	c #0590FE",
"*&	c #0490FF",
"=&	c #0690FE",
"-&	c #088FF9",
";&	c #078FFC",
">&	c #0787EB",
",&	c #0B6CB6",
"'&	c #1F6CAB",
")&	c #026AC2",
"!&	c #017BD9",
"~&	c #0790F4",
"{&	c #078FFD",
"]&	c #0690FC",
"^&	c #0390FE",
"/&	c #0788EC",
"(&	c #056EBD",
"_&	c #4D7EB3",
":&	c #0276CF",
"<&	c #048FFC",
"[&	c #068FFD",
"}&	c #0491FD",
"|&	c #0491FC",
"1&	c #098FFB",
"2&	c #058FFE",
"3&	c #0685E8",
"4&	c #0D6CB9",
"5&	c #5183B3",
"6&	c #046DBE",
"7&	c #056BBB",
"8&	c #048AF5",
"9&	c #038FFE",
"0&	c #0391FE",
"a&	c #0491FE",
"b&	c #0690FD",
"c&	c #078FFE",
"d&	c #0291FD",
"e&	c #0490F7",
"f&	c #0379D5",
"g&	c #056ABF",
"h&	c #2271B3",
"i&	c #0F70B7",
"j&	c #0478D7",
"k&	c #088EF6",
"l&	c #0690FA",
"m&	c #0691FB",
"n&	c #088FFB",
"o&	c #098FFA",
"p&	c #0686EB",
"q&	c #006EC3",
"r&	c #4B80AD",
"s&	c #4B82B0",
"t&	c #056CBE",
"u&	c #057ADA",
"v&	c #068EF7",
"w&	c #0390FC",
"x&	c #0292FE",
"y&	c #0291FE",
"z&	c #0290FE",
"A&	c #068FFC",
"B&	c #0685E5",
"C&	c #0270C4",
"D&	c #2671B6",
"E&	c #3879B1",
"F&	c #077FDD",
"G&	c #0788EB",
"H&	c #0684E5",
"I&	c #0578D2",
"J&	c #0A6CB7",
"K&	c #477EB0",
"L&	c #1B6EB6",
"M&	c #006CBE",
"N&	c #036ABC",
"O&	c #046CBD",
"P&	c #5181B2",
"Q&	c #5284B1",
"R&	c #036CBD",
"S&	c #037CDB",
"T&	c #0170CD",
"U&	c #006DC4",
"V&	c #0376D3",
"W&	c #0475D1",
"X&	c #1B6EB5",
"Y&	c #166BB5",
"Z&	c #016EBF",
"`&	c #0579D6",
" *	c #068FF9",
".*	c #098CF4",
"+*	c #067CDA",
"@*	c #0B89EB",
"#*	c #0788EF",
"$*	c #5181B3",
"%*	c #4B80B3",
"&*	c #056BBD",
"**	c #016EC1",
"=*	c #068AF1",
"-*	c #057CDB",
";*	c #078CF4",
">*	c #0578D3",
",*	c #1B6DB8",
"'*	c #1A6DB5",
")*	c #058FFA",
"!*	c #0478D5",
"~*	c #0A89ED",
"{*	c #0490FE",
"]*	c #0588F0",
"^*	c #036CC0",
"/*	c #4D7EAF",
"(*	c #497CAB",
"_*	c #016DC4",
":*	c #0889EE",
"<*	c #0391FF",
"[*	c #0786E9",
"}*	c #068FF8",
"|*	c #0378D6",
"1*	c #2372B4",
"2*	c #206EB2",
"3*	c #0479D5",
"4*	c #0390FF",
"5*	c #0581E3",
"6*	c #0690FB",
"7*	c #0490FC",
"8*	c #0988EA",
"9*	c #4D7FB0",
"0*	c #4D80B4",
"a*	c #016DC3",
"b*	c #0888ED",
"c*	c #068CF2",
"d*	c #057EDD",
"e*	c #0591FD",
"f*	c #0378D3",
"g*	c #046BBF",
"h*	c #2170B4",
"i*	c #1B6FB8",
"j*	c #0379D7",
"k*	c #0589EE",
"l*	c #058FFC",
"m*	c #0888EC",
"n*	c #046EBD",
"o*	c #4F81B8",
"p*	c #066ABD",
"q*	c #0789EE",
"r*	c #038FFD",
"s*	c #0586EA",
"t*	c #0174D0",
"u*	c #068EFA",
"v*	c #088FFC",
"w*	c #0690FF",
"x*	c #048FFD",
"y*	c #0179D6",
"z*	c #1C70B6",
"A*	c #176EB9",
"B*	c #036BBD",
"C*	c #0581E2",
"D*	c #046AC3",
"E*	c #116EBA",
"F*	c #3B7FC2",
"G*	c #036AC0",
"H*	c #0590F8",
"I*	c #058FFF",
"J*	c #068FFF",
"K*	c #038FFF",
"L*	c #0489ED",
"M*	c #076BBB",
"N*	c #4F83B6",
"O*	c #4C82B4",
"P*	c #0488F2",
"Q*	c #0591FC",
"R*	c #3979BD",
"S*	c #5383B5",
"T*	c #046CBB",
"U*	c #016DC8",
"V*	c #048EF4",
"W*	c #0590F7",
"X*	c #0179DA",
"Y*	c #1D70B4",
"Z*	c #156FBC",
"`*	c #0477D5",
" =	c #088EFC",
".=	c #0278D4",
"+=	c #0469BD",
"@=	c #2872B7",
"#=	c #088AEC",
"$=	c #0391FA",
"%=	c #058FFD",
"&=	c #0790FA",
"*=	c #0589F1",
"==	c #4D81B5",
"-=	c #5183AD",
";=	c #0788F1",
">=	c #068FFA",
",=	c #0174CB",
"'=	c #0469C1",
")=	c #3D7DB5",
"!=	c #0B6BB9",
"~=	c #006DC7",
"{=	c #0A86EB",
"]=	c #0590F9",
"^=	c #078EFC",
"/=	c #098EF6",
"(=	c #1E71BA",
"_=	c #1F72B8",
":=	c #026DBE",
"<=	c #0373C7",
"[=	c #0273CB",
"}=	c #0272CB",
"|=	c #0272CA",
"1=	c #6087B2",
"2=	c #186EB8",
"3=	c #046EC8",
"4=	c #0274CA",
"5=	c #0273CA",
"6=	c #0372CC",
"7=	c #0373C8",
"8=	c #0171C8",
"9=	c #056DBB",
"0=	c #5784AD",
"a=	c #5081B0",
"b=	c #3F75A3",
"c=	c #2D73B6",
"d=	c #2A70AD",
"e=	c #4276A6",
"f=	c #2C71B0",
"g=	c #2D72B2",
"h=	c #2D72B1",
"i=	c #2E72B2",
"j=	c #2E73B2",
"k=	c #2F73B2",
"l=	c #2F73B1",
"m=	c #2E72B5",
"n=	c #2D72B4",
"o=	c #3E71A0",
"p=	c #2C72B2",
"q=	c #2D73B2",
"r=	c #2E71B2",
"s=	c #2B70B8",
"t=	c #276FAB",
"                                      .       +                                     ",
"                                    @ #       $     %                               ",
"                              & *   = -     ; >     ,                               ",
"                              ' )   ! ~ {   ] ^   / (     _                         ",
"                    :   < [   } | 1 2 3 4   5 6 7 8 9   0 a   b                     ",
"                    c   d e f g h i j k l m n o p q r s t u v w                     ",
"                    x y z A B C D E F G H I J K L M N O P B Q R     S               ",
"                    T U V W X Y Z `  ...+.@.#.$.%.&.*.=.-.;.>.,.  '.).              ",
"                    !.~.{.].^.O /.(._.:.<.[.}.|.L 1.I 2.3.|.4.5.6.7.8.              ",
"                9.  0.a.b.c.d.e.f.1.g.h.i.j.k.l.m.[.n.(.A }.].0.o.p.q.              ",
"                r.s.t.u.X _.[.v.w.x.y.z.A.A.B.C.D.E.F.I G.G.H.I.|.J.K.              ",
"              L.M.N.O.P.Q.f.R.S.T.U.V.V.V.W.X.Y.U.Z.`. +.+O N }.++@+#+              ",
"              $+%+2.&+;.*+=+-+;+>+,+W.W.W.W.'+)+!+~+{+]+^+}./+O (+_+:+              ",
"              <+[+}+|+L 1+2+3+4+5+'+6+,+7+8+Y.)+9+0+a+b+c+d+/+e+f+g+h+              ",
"              i+j+k+Q.l+m+n+X.,+X.o+7+p+p+!+X.q+>+r+'+q+s+t+u+[.Q.v+w+              ",
"              x+y+O }.z+A+!+X.B+U.C+Z.b+D+E+'+F+G+G+{+H+7+3+I+J+N.K+L+              ",
"              M+N+O+P+Q+R+S+T+U+V+W+X+Y+Z.3+Z+`+ @.@+@@@3+#@8+$@[._.%@              ",
"              &@_.*@=@-@p+R+;@>@,@'@)@!@~@{@]@^@/@(@_@:@3+7+{+<@[@@.}@              ",
"              |@}.1@2@3@!+c+4@5@6@7@8@9@0@a@b@c@d@e@f@g@h@,+V.i@R.Q.j@              ",
"              k@l@m@n@o@p@X.q@r@s@t@u@v@w@x@|.y@z@A@B@;.C@V.9+D@E@Q.F@              ",
"                G@H@I@J@K@L@M@F.N@O@P@Q@R@S@T@U@V@W@X@Y@t+'+Z@Z.`@}. #              ",
"                .#l++#@#r+##Z.$#%#&#*#=#-#V.;#>#,#'#)#!#3+4+7+Z.~#{#]#              ",
"                ^#/#(#_#r+7+:#X.M@<#[#}#V.o+|#1#2#3#U+4#R+X.b+5#6#@.7#              ",
"                8#*+9#0#a#,+4+b#3+V.{+c#9+o+9+X.7+3+{+{+X.R+o+d#e#f#                ",
"          7#    g#h#i#j#q+'+8+k#l#m#X.a+X.X.4+n#3@}#o#p#6+7+o+q#:.r#                ",
"        s#t#u#v#  w#_.x#y#!+c+z#A#B#C#X.X.X.7+7+D#q#E#F#6+G#H#I#J#K#  L#M#N#        ",
"      O#P#e#Q#R#S#T#U#V#[#c+>+n+W#X#Y#C#Z#8+#@`# $I#.$Y.7++$@$#$$$%$&$f#*$=$-$      ",
"      7.;.;$>$J#,$@.v.O '$)$7+4+3@!$~${$]$^$/$($_$:$<$c#7+[$I e+f.$$}$|$1$2$3$      ",
"    4$5$N 6$7$8$9$N.*+}.0$a$b$#@V.3@c$d$e$f$g$h$i$X.j$+$k$}.L l$#$G.%.m$n$o$p$q$    ",
"  r$s$I t$u$v$w$x$y$z$/#A$Q.h.B$-@b#C$:#'+s+3+Y.8+{+D$E$F$m.*@@.G$H$I$J$K$L$M$N$O$  ",
"  P$Q$R$9 m.S$T$U$V$W$X$|$N.[.L Y$Z$`$Z.U. % %.%y.+%=+Q.1.@%Q.#%$%%%&%*%=%-%;%{#>%  ",
"      ,%'%R#p F$)%!%~%{%]%O l+Q#l+g.^%/%(%_%:%<%}.g.g.}.B [%}%|%1%2%3%;.{#>.4%5%6%  ",
"          7%8%9%0%[.G$a%b%c%1$[._.l$#$L L _.l+@.[.l$[.@.d%e%f%g%.+{#Q#h%i%j%        ",
"                k%r#l%m%,$n%j Q.o%p%q%r%s%t%t$u%v%w%g.@.x%F$m%y%j@z%A%              ",
"                    B%C%,.D%L O E%F%G%H%I%J%K%L%M%N%O%P%[.=$Q%R%S%                  ",
"                          T%R$U%V%W%K%K%X%K%Y%Z%`% &.&I +&*                         ",
"                          @&<.#&$&%&&&*&*&*&=&-&;&w$>&,$,&                          ",
"                          '&)&!&~&&&{&=&=&;&K%]&X%^&/&e#(&                          ",
"                          _&)&:&<&W%[&W%{&]&}&|&1&2&3&/+4&                          ",
"                          5&6&7&8&9&0&a&&&b&{&c&d&e&f&g&h&                          ",
"                            i&g&j&k&l&m&;&n&o&^&G%p&q&D%r&                          ",
"                            s&t&m%u&v&w&x&y&z&A&B&C&=$D&                            ",
"                              E&L Q.d.F&g+G&H&I&}$|+J&K&                            ",
"                              L&p @.l+@%l+e.g.M&N&@.O&P&                            ",
"                            Q&R&{.S&T&U&L L I %.V&W&L X&                            ",
"                            Y&Z&`& *.*+*g.e+I.@*J%#*N.*.$*                          ",
"                          %*&***=*J% &-*m.l+b.;*Z%K$>*f.,*                          ",
"                          '*.+J.d&&&)*!*[.l+U&~*K%{*]*^*R$/*                        ",
"                        (*R#_*:*0&<*$&~ @.m.}.[*w$X%}*|*H@1*                        ",
"                        2*e+3*L%4*&&U$1$@.m.[.5*^&6*7*8*b.O&9*                      ",
"                      0*G.a*b*^&{*A&c*G$@.m.l+d*w$e*Z%$&f*g*h*                      ",
"                      i*F$j*L%^&]&J%k*:.0$m.l+j*l*]&*&<&m*}.n*$*                    ",
"                    o*p*o%q*r*b&K%H%s*e#2$}./#t*u*v*w*v*x*y*Q#z*                    ",
"                    A*B*o l*F%F%F%J%C*D*E*F*G*t%H*I*J*{*K*L*;.M*N*                  ",
"                  O*&*|.P*7*e*|&Q*K%+*v.R*S*T*U*V*0&v*v*l&W*X*G.Y*                  ",
"                  Z*p$`* =6*6*6*]&K$.=+=@=  R J##=$=F%%=&=J%*=^*9 ==                ",
"                -=Q#v.;=>=w$w$w$w$ *,='=)=  !=~={=]=w&<&J%^=/=u%J#(=                ",
"                _=:=}$t$<=[=[=[=}=|=A${#1=  2=l+3=[=4=5=[=6=7=8=B*9=0=              ",
"              a=G.M&L l$L L L L L m%|.p$b=  c=L L L l$L l$L L l$@.{#d=              ",
"              e=f=g=h=i=i=j=j=k=k=l=m=n=    o=p=q=j=j=j=j=i=i=h=r=s=t=              "};
