/* XPM */
static char * boywin_xpm[] = {
"35 60 814 2",
"  	c #000001",
". 	c #45739A",
"+ 	c #6689A5",
"@ 	c #126BB3",
"# 	c #1B71B5",
"$ 	c #537FA4",
"% 	c #7898B4",
"& 	c #5984B8",
"* 	c #3775B1",
"= 	c #3B7AAE",
"- 	c #056CBC",
"; 	c #4B7FB0",
"> 	c #066CBE",
", 	c #4D86B5",
"' 	c #1B6FB5",
") 	c #6A91B6",
"! 	c #6084A3",
"~ 	c #5E88BD",
"{ 	c #076EBE",
"] 	c #608BB8",
"^ 	c #0472C6",
"/ 	c #2270B5",
"( 	c #4780B2",
"_ 	c #026DC0",
": 	c #246BB0",
"< 	c #4C7EB1",
"[ 	c #086DBC",
"} 	c #6D93B8",
"| 	c #2270AE",
"1 	c #386E9F",
"2 	c #4D789C",
"3 	c #0F6DB9",
"4 	c #5084B5",
"5 	c #0170C1",
"6 	c #467FBA",
"7 	c #3077B9",
"8 	c #0A80E0",
"9 	c #0B6FBF",
"0 	c #3475BC",
"a 	c #0672C8",
"b 	c #3B7CBA",
"c 	c #3276BF",
"d 	c #066DBB",
"e 	c #6C90B6",
"f 	c #5385B6",
"g 	c #3673A2",
"h 	c #5C83A3",
"i 	c #216BA9",
"j 	c #066DBC",
"k 	c #3778BE",
"l 	c #2B76BE",
"m 	c #067DDA",
"n 	c #026DC1",
"o 	c #026BC0",
"p 	c #0785EE",
"q 	c #037BDB",
"r 	c #2975BC",
"s 	c #066DBF",
"t 	c #067FDE",
"u 	c #016DC0",
"v 	c #036FC4",
"w 	c #0475CA",
"x 	c #5B89BC",
"y 	c #176CBF",
"z 	c #016EBE",
"A 	c #5F93C0",
"B 	c #1E71B3",
"C 	c #7195B8",
"D 	c #266CAC",
"E 	c #3A76B1",
"F 	c #6688B2",
"G 	c #0673C9",
"H 	c #016DBE",
"I 	c #0686E6",
"J 	c #0475CD",
"K 	c #016CC1",
"L 	c #0E89EE",
"M 	c #0787EB",
"N 	c #006CC1",
"O 	c #0474CF",
"P 	c #0B86E2",
"Q 	c #026CC2",
"R 	c #077BD9",
"S 	c #0277D1",
"T 	c #036CBC",
"U 	c #0775D0",
"V 	c #0671C8",
"W 	c #1F72C0",
"X 	c #036EBA",
"Y 	c #7194B6",
"Z 	c #5F88A8",
"` 	c #2B70B0",
" .	c #086CBB",
"..	c #2E76BD",
"+.	c #0476CE",
"@.	c #0781DE",
"#.	c #026CC0",
"$.	c #0985EC",
"%.	c #077FDF",
"&.	c #006EC2",
"*.	c #0679D4",
"=.	c #0473CB",
"-.	c #016CC0",
";.	c #036FC1",
">.	c #0574CF",
",.	c #036CBD",
"'.	c #0684E0",
").	c #0375D2",
"!.	c #026BBF",
"~.	c #0489EC",
"{.	c #0170C7",
"].	c #026CBE",
"^.	c #096BBC",
"/.	c #5987AF",
"(.	c #276DA8",
"_.	c #3174AD",
":.	c #0676D6",
"<.	c #046BBB",
"[.	c #0376D1",
"}.	c #0B8CF1",
"|.	c #016EC4",
"1.	c #026FC9",
"2.	c #016BC1",
"3.	c #016BC0",
"4.	c #016BBF",
"5.	c #026CBF",
"6.	c #0273CE",
"7.	c #0D8CEF",
"8.	c #0170C5",
"9.	c #016FC2",
"0.	c #0870C2",
"a.	c #658FBB",
"b.	c #2972B0",
"c.	c #236BAD",
"d.	c #2D72AE",
"e.	c #3572B1",
"f.	c #0786ED",
"g.	c #0172CE",
"h.	c #0272CC",
"i.	c #0375D0",
"j.	c #056BBA",
"k.	c #006BC0",
"l.	c #056FC4",
"m.	c #1377CB",
"n.	c #1479CC",
"o.	c #1277CA",
"p.	c #0670C4",
"q.	c #006BC1",
"r.	c #036ABC",
"s.	c #0373CD",
"t.	c #006DC2",
"u.	c #057BD6",
"v.	c #1E71BD",
"w.	c #046DBE",
"x.	c #3373AD",
"y.	c #0E6CB4",
"z.	c #3D7FBC",
"A.	c #1E6EBE",
"B.	c #0789EB",
"C.	c #077FDC",
"D.	c #016BBE",
"E.	c #0670C6",
"F.	c #2389DB",
"G.	c #359FF1",
"H.	c #3CA8FA",
"I.	c #3EABFF",
"J.	c #3FACFF",
"K.	c #3FACFE",
"L.	c #3CA8FB",
"M.	c #359FF2",
"N.	c #278BDE",
"O.	c #0971C5",
"P.	c #0B7ED8",
"Q.	c #0374CD",
"R.	c #036BC0",
"S.	c #067AD7",
"T.	c #3976B1",
"U.	c #0A6DBA",
"V.	c #016FC6",
"W.	c #036AC1",
"X.	c #047FDC",
"Y.	c #016DC3",
"Z.	c #036BBC",
"`.	c #2186D9",
" +	c #3BA6F9",
".+	c #42ACFD",
"++	c #42ACFE",
"@+	c #42ADFE",
"#+	c #42ADFF",
"$+	c #3CA7F9",
"%+	c #036ABE",
"&+	c #026BC1",
"*+	c #0370C6",
"=+	c #0A87E8",
"-+	c #3376B9",
";+	c #0A6EBD",
">+	c #107FDB",
",+	c #016CC3",
"'+	c #046EC2",
")+	c #2C94E7",
"!+	c #44ABFC",
"~+	c #44ACFC",
"{+	c #44ABFE",
"]+	c #44ABFD",
"^+	c #45ADFC",
"/+	c #43ACFC",
"(+	c #41ACFD",
"_+	c #3097E8",
":+	c #056EC2",
"<+	c #016BC3",
"[+	c #0481DF",
"}+	c #078BEE",
"|+	c #2170BD",
"1+	c #096EBA",
"2+	c #0D89EB",
"3+	c #0171C8",
"4+	c #0369C0",
"5+	c #026CC1",
"6+	c #2F94E6",
"7+	c #41ABFF",
"8+	c #42ACFF",
"9+	c #43ACFF",
"0+	c #43ACFE",
"a+	c #43ACFD",
"b+	c #41ACFE",
"c+	c #3299EA",
"d+	c #0171CA",
"e+	c #0C87ED",
"f+	c #0C6EBC",
"g+	c #096EB9",
"h+	c #087EDB",
"i+	c #016CBF",
"j+	c #036AC0",
"k+	c #2488D9",
"l+	c #40ACFE",
"m+	c #45ACFC",
"n+	c #44ACFD",
"o+	c #45ABFD",
"p+	c #288EE0",
"q+	c #0A7BDC",
"r+	c #086EBB",
"s+	c #0A6DB7",
"t+	c #026CBB",
"u+	c #0970C5",
"v+	c #3BA8F9",
"w+	c #41ADFE",
"x+	c #44ADFC",
"y+	c #45ACFB",
"z+	c #44ACFB",
"A+	c #43ADFE",
"B+	c #43ABFC",
"C+	c #3CA9FB",
"D+	c #0E75C9",
"E+	c #026BBC",
"F+	c #016DC8",
"G+	c #056EB9",
"H+	c #096CB5",
"I+	c #026DBB",
"J+	c #268BE2",
"K+	c #3FA9FA",
"L+	c #41ACFC",
"M+	c #44ADFD",
"N+	c #3FACFD",
"O+	c #3FAAFC",
"P+	c #40ABFC",
"Q+	c #41ABFD",
"R+	c #2C92E6",
"S+	c #016BC2",
"T+	c #026DB7",
"U+	c #086DB7",
"V+	c #026DBE",
"W+	c #36A1F6",
"X+	c #41ABFE",
"Y+	c #1578CC",
"Z+	c #2E94E7",
"`+	c #3BA8FB",
" @	c #157CD0",
".@	c #3AA2F3",
"+@	c #2084D7",
"@@	c #40ABFE",
"#@	c #2186D7",
"$@	c #2E94E6",
"%@	c #42ABFD",
"&@	c #38A5F8",
"*@	c #036EC0",
"=@	c #016DB7",
"-@	c #056DBC",
";@	c #036BBE",
">@	c #0673C6",
",@	c #42A9FD",
"'@	c #288DE0",
")@	c #0C73C8",
"!@	c #35A1F3",
"~@	c #3AA8FA",
"{@	c #2287DB",
"]@	c #0F75C9",
"^@	c #3FA8FA",
"/@	c #359BEE",
"(@	c #036EC5",
"_@	c #2E98EB",
":@	c #2B93E6",
"<@	c #036EC2",
"[@	c #36A0F2",
"}@	c #3FADFD",
"|@	c #0F75CD",
"1@	c #006DBF",
"2@	c #036BBB",
"3@	c #0C6DB8",
"4@	c #147CCF",
"5@	c #3FA9FB",
"6@	c #1B7ED1",
"7@	c #036DC2",
"8@	c #046FC3",
"9@	c #0870C5",
"0@	c #369DEF",
"a@	c #44ACFE",
"b@	c #42AAFE",
"c@	c #278ADF",
"d@	c #036DC5",
"e@	c #056EC4",
"f@	c #2B91E3",
"g@	c #1B7ED8",
"h@	c #006CC2",
"i@	c #076CB9",
"j@	c #2A70B3",
"k@	c #1780D4",
"l@	c #43ABFE",
"m@	c #39A1F4",
"n@	c #369DEE",
"o@	c #3DA6F9",
"p@	c #42ACFB",
"q@	c #3CA5F6",
"r@	c #349DEE",
"s@	c #39A3F5",
"t@	c #1F84D9",
"u@	c #1F6FB2",
"v@	c #2C6EAC",
"w@	c #147DD1",
"x@	c #42ABFE",
"y@	c #43ADFB",
"z@	c #44ADFE",
"A@	c #43ADFA",
"B@	c #42ACFA",
"C@	c #42ACFC",
"D@	c #43ADFD",
"E@	c #1782D5",
"F@	c #046BBD",
"G@	c #296FA8",
"H@	c #5282B6",
"I@	c #036ABF",
"J@	c #0774C9",
"K@	c #42AAFD",
"L@	c #43ADFC",
"M@	c #44ADFB",
"N@	c #45ACFD",
"O@	c #3DA7F8",
"P@	c #1B80D5",
"Q@	c #1078CE",
"R@	c #036BBF",
"S@	c #5588B9",
"T@	c #056BBD",
"U@	c #39A1F5",
"V@	c #45ABFC",
"W@	c #37A3F5",
"X@	c #1076C9",
"Y@	c #1D82D6",
"Z@	c #45ACFA",
"`@	c #42ADFD",
" #	c #3BA7F8",
".#	c #066CC5",
"+#	c #066CBC",
"@#	c #4A7FAF",
"##	c #166EB6",
"$#	c #006DC3",
"%#	c #2A8DE1",
"&#	c #41ABFC",
"*#	c #288DDE",
"=#	c #329BED",
"-#	c #0870C3",
";#	c #016DC2",
">#	c #37A0F2",
",#	c #41ADFD",
"'#	c #2D94E4",
")#	c #0F6DBA",
"!#	c #407BB1",
"~#	c #036DBF",
"{#	c #0E73C8",
"]#	c #3EA8FA",
"^#	c #197DCF",
"/#	c #167ACC",
"(#	c #3EA8F9",
"_#	c #2C91E3",
":#	c #026BBE",
"<#	c #1F82D5",
"[#	c #3EAAFB",
"}#	c #1177CB",
"|#	c #036CBE",
"1#	c #3476B7",
"2#	c #3175AF",
"3#	c #1970AE",
"4#	c #0D6CB6",
"5#	c #278ADC",
"6#	c #3CA6F9",
"7#	c #1378CC",
"8#	c #177BCE",
"9#	c #38A2F5",
"0#	c #2285D7",
"a#	c #016DC4",
"b#	c #0781E1",
"c#	c #0377D2",
"d#	c #36A0F3",
"e#	c #2A90E2",
"f#	c #026AC1",
"g#	c #086BBC",
"h#	c #5485BE",
"i#	c #3577B9",
"j#	c #086DB9",
"k#	c #036AC5",
"l#	c #046AC0",
"m#	c #4479B1",
"n#	c #3976B2",
"o#	c #026DC3",
"p#	c #3098E9",
"q#	c #41ABFB",
"r#	c #3BA6F7",
"s#	c #177ACC",
"t#	c #036DC4",
"u#	c #016EC5",
"v#	c #0785E8",
"w#	c #0590FC",
"x#	c #006CC4",
"y#	c #1C81D5",
"z#	c #329BEE",
"A#	c #036EC3",
"B#	c #016EBF",
"C#	c #066AB8",
"D#	c #016DBF",
"E#	c #026DBF",
"F#	c #016EBC",
"G#	c #066EBA",
"H#	c #5D87AF",
"I#	c #1F6EB4",
"J#	c #046CBE",
"K#	c #066DC3",
"L#	c #3098EC",
"M#	c #45ABFB",
"N#	c #38A0F2",
"O#	c #1074C7",
"P#	c #0273CB",
"Q#	c #078AED",
"R#	c #048FFB",
"S#	c #058DF8",
"T#	c #0780DF",
"U#	c #016EC3",
"V#	c #006CBF",
"W#	c #016CC2",
"X#	c #046EC4",
"Y#	c #057CDD",
"Z#	c #0E89EF",
"`#	c #0372C9",
" $	c #2770B0",
".$	c #2470B4",
"+$	c #046BC0",
"@$	c #046BBF",
"#$	c #238AE2",
"$$	c #3196E7",
"%$	c #0670C3",
"&$	c #056BBB",
"*$	c #0477D1",
"=$	c #058CF8",
"-$	c #048EF7",
";$	c #0582E7",
">$	c #0171CC",
",$	c #016BBD",
"'$	c #0176D5",
")$	c #058AF0",
"!$	c #048FFC",
"~$	c #028FFC",
"{$	c #0885EB",
"]$	c #026DC5",
"^$	c #467CB1",
"/$	c #206EB1",
"($	c #016ABE",
"_$	c #047EDC",
":$	c #0A8CF5",
"<$	c #0784E6",
"[$	c #0274CD",
"}$	c #046ABD",
"|$	c #006CC3",
"1$	c #026ABF",
"2$	c #026ABE",
"3$	c #0070CB",
"4$	c #0683E6",
"5$	c #078DF7",
"6$	c #068FFA",
"7$	c #0589F0",
"8$	c #0480DF",
"9$	c #0373CC",
"0$	c #026DBC",
"a$	c #056BBC",
"b$	c #0A6DB8",
"c$	c #2871B7",
"d$	c #026BC3",
"e$	c #0782E0",
"f$	c #0487ED",
"g$	c #0275D1",
"h$	c #036ABD",
"i$	c #026AC0",
"j$	c #006EC5",
"k$	c #047CDB",
"l$	c #088DF4",
"m$	c #068BF3",
"n$	c #067FDD",
"o$	c #0373CB",
"p$	c #046DC1",
"q$	c #1A6EB2",
"r$	c #497EAC",
"s$	c #3877AB",
"t$	c #036EBB",
"u$	c #016CBC",
"v$	c #0170CA",
"w$	c #077FDE",
"x$	c #0375CF",
"y$	c #016CBD",
"z$	c #0375CD",
"A$	c #0B86E4",
"B$	c #0375CC",
"C$	c #016DC1",
"D$	c #016CC4",
"E$	c #036DBE",
"F$	c #1D70B3",
"G$	c #447DB0",
"H$	c #3174B0",
"I$	c #0372C7",
"J$	c #0272CD",
"K$	c #0277D3",
"L$	c #047DDD",
"M$	c #057DD9",
"N$	c #026BBD",
"O$	c #046DC2",
"P$	c #016CC5",
"Q$	c #166CB5",
"R$	c #3C79B2",
"S$	c #5C87AF",
"T$	c #487DB0",
"U$	c #066ABA",
"V$	c #046ABB",
"W$	c #016EC2",
"X$	c #037BD7",
"Y$	c #068AEE",
"Z$	c #068EF9",
"`$	c #058FFA",
" %	c #0490FD",
".%	c #068FF9",
"+%	c #0277D5",
"@%	c #0C6CB8",
"#%	c #3D77B2",
"$%	c #5482B0",
"%%	c #0477D7",
"&%	c #0590F8",
"*%	c #0390FD",
"=%	c #0490FE",
"-%	c #0590FE",
";%	c #0491FE",
">%	c #0A85E7",
",%	c #4B81B8",
"'%	c #648CBC",
")%	c #046CBC",
"!%	c #016DC5",
"~%	c #0887EC",
"{%	c #078FF9",
"]%	c #048FFD",
"^%	c #0490FF",
"/%	c #0790FE",
"(%	c #078FFC",
"_%	c #088FFB",
":%	c #0690FD",
"<%	c #078BF5",
"[%	c #006DC6",
"}%	c #056CBD",
"|%	c #3578B4",
"1%	c #698FC0",
"2%	c #046CBD",
"3%	c #016FC8",
"4%	c #078FF7",
"5%	c #0490FB",
"6%	c #0690FE",
"7%	c #078FFE",
"8%	c #078FFD",
"9%	c #078CFB",
"0%	c #026FC4",
"a%	c #2E74AF",
"b%	c #537FB1",
"c%	c #056BB9",
"d%	c #058DF4",
"e%	c #0390FE",
"f%	c #0590FD",
"g%	c #088AF4",
"h%	c #056DBB",
"i%	c #096DB5",
"j%	c #0482E6",
"k%	c #068FFD",
"l%	c #078FFB",
"m%	c #0690FC",
"n%	c #0381DF",
"o%	c #026AC2",
"p%	c #106EB9",
"q%	c #3375B1",
"r%	c #016CBE",
"s%	c #0271CB",
"t%	c #0A8BEF",
"u%	c #0790F9",
"v%	c #0890FB",
"w%	c #0590FB",
"x%	c #078FFA",
"y%	c #0B8AEF",
"z%	c #0071C9",
"A%	c #0569C7",
"B%	c #3D77B1",
"C%	c #126DB5",
"D%	c #0989ED",
"E%	c #058FFC",
"F%	c #058FFE",
"G%	c #0490FC",
"H%	c #048FFA",
"I%	c #0273CC",
"J%	c #026DBD",
"K%	c #116BB7",
"L%	c #387AB5",
"M%	c #006FCA",
"N%	c #0584E7",
"O%	c #0788EC",
"P%	c #0684E6",
"Q%	c #027AD8",
"R%	c #006FC7",
"S%	c #036DBB",
"T%	c #5084B7",
"U%	c #3574B1",
"V%	c #006DC4",
"W%	c #026BBB",
"X%	c #3A77B2",
"Y%	c #077BD5",
"Z%	c #0174CE",
"`%	c #026CBD",
" &	c #026ABC",
".&	c #036BBD",
"+&	c #016EC6",
"@&	c #0274D1",
"#&	c #0979D2",
"$&	c #016EBB",
"%&	c #0171D1",
"&&	c #068EF7",
"*&	c #068EF8",
"=&	c #0883E4",
"-&	c #0987E7",
";&	c #068FF8",
">&	c #088CF1",
",&	c #0170CD",
"'&	c #3C77AE",
")&	c #076DBB",
"!&	c #0682E3",
"~&	c #0684E7",
"{&	c #0685E8",
"]&	c #0290FD",
"^&	c #0481E3",
"/&	c #0B6EBC",
"(&	c #0171CE",
"_&	c #078EF4",
":&	c #0791FC",
"<&	c #0780DD",
"[&	c #0882E2",
"}&	c #088CF6",
"|&	c #0172C8",
"1&	c #3D79B5",
"2&	c #086CB9",
"3&	c #036ABB",
"4&	c #0582E5",
"5&	c #038FFD",
"6&	c #067BD6",
"7&	c #026ABD",
"8&	c #057EDC",
"9&	c #068FFC",
"0&	c #056ABD",
"a&	c #0B6EB8",
"b&	c #3677B3",
"c&	c #036CBF",
"d&	c #0271C9",
"e&	c #068DF7",
"f&	c #0390FC",
"g&	c #0376D0",
"h&	c #037AD6",
"i&	c #048FFE",
"j&	c #068CF8",
"k&	c #0370C4",
"l&	c #026DC2",
"m&	c #3F7AAF",
"n&	c #096CB7",
"o&	c #0282E9",
"p&	c #0790FC",
"q&	c #0490FA",
"r&	c #0173CB",
"s&	c #0290FE",
"t&	c #0181E3",
"u&	c #096EB6",
"v&	c #3978B0",
"w&	c #026CBC",
"x&	c #0270CC",
"y&	c #0290FF",
"z&	c #0690FB",
"A&	c #058FF9",
"B&	c #006CC0",
"C&	c #0590FF",
"D&	c #0392F7",
"E&	c #048EF8",
"F&	c #026FC6",
"G&	c #3978B3",
"H&	c #0B6BB4",
"I&	c #0581E7",
"J&	c #068EFA",
"K&	c #088FFC",
"L&	c #058BF3",
"M&	c #048EF6",
"N&	c #0591FB",
"O&	c #067EDC",
"P&	c #086CBA",
"Q&	c #0270CA",
"R&	c #078DF6",
"S&	c #0390FF",
"T&	c #058FFD",
"U&	c #0688EF",
"V&	c #3784C5",
"W&	c #038AF3",
"X&	c #0591FC",
"Y&	c #0170C8",
"Z&	c #3D79B2",
"`&	c #0680E0",
" *	c #0785E9",
".*	c #0B6CB6",
"+*	c #77A4C8",
"@*	c #066ABB",
"#*	c #0587ED",
"$*	c #058EFE",
"%*	c #0190FE",
"&*	c #047FE0",
"**	c #096DBB",
"=*	c #3978B1",
"-*	c #098EF3",
";*	c #058FFB",
">*	c #0580E2",
",*	c #2370B4",
"'*	c #0F6AB5",
")*	c #0782E3",
"!*	c #078EFE",
"~*	c #0591FD",
"{*	c #0790FB",
"]*	c #0291FF",
"^*	c #078CF2",
"/*	c #3F79B3",
"(*	c #056DBA",
"_*	c #087FDF",
":*	c #078FF8",
"<*	c #078EF9",
"[*	c #047BD9",
"}*	c #246EB1",
"|*	c #2D72B4",
"1*	c #078EFC",
"2*	c #088EF8",
"3*	c #078EF8",
"4*	c #037FDE",
"5*	c #0C6EBB",
"6*	c #3C79B3",
"7*	c #026BC2",
"8*	c #0271C8",
"9*	c #0172CC",
"0*	c #0171CB",
"a*	c #0172CB",
"b*	c #0172CD",
"c*	c #3F79B6",
"d*	c #046BBA",
"e*	c #0271CA",
"f*	c #0270C9",
"g*	c #447BAF",
"h*	c #086DB8",
"i*	c #066ABF",
"j*	c #046BBE",
"k*	c #006DBE",
"l*	c #046ABC",
"m*	c #5B88B4",
"n*	c #2671AF",
"o*	c #066BB8",
"p*	c #016EBD",
"q*	c #136DB3",
"r*	c #5883AA",
"s*	c #2672B4",
"t*	c #246FB2",
"u*	c #266EB3",
"v*	c #266FB2",
"w*	c #2871B2",
"x*	c #2771B3",
"y*	c #2671B3",
"z*	c #2771B2",
"A*	c #2571B4",
"B*	c #2372BC",
"C*	c #2471B7",
"D*	c #266EAD",
"E*	c #2571B6",
"F*	c #2672B7",
"G*	c #2472B9",
"H*	c #2772B3",
"I*	c #2772B2",
"J*	c #2572B2",
"K*	c #2670B4",
"L*	c #2571AE",
"M*	c #5785AA",
"                        .       +                                     ",
"                        @       #     $ %                             ",
"                & *   = - ;     > ,   ' )                             ",
"            !   ~ {   ] ^ /   ( _ : < [ }   | 1                       ",
"      2     3   4 5 6 7 8 9   0 a b c d e f > g h                     ",
"      i     j k l m n o p q r s t u v w x y z A B C                   ",
"      D E F G v H I J K L M N O P Q R S T U V W X Y   Z               ",
"      `  ...+.@.#.$.%.&.*.=.-.;.>.,.'.).!.~.{.].^.  /.(.              ",
"      _.:.<.[.}.|.1.2.-.3.4.3.3.2.!.-.5.6.7.8.9.0.a.b.c.              ",
"  d.  e.f.g.h.i.j.K N k.l.m.n.o.p.k.q.r.K s.t.u.J v.w.x.              ",
"  y.z.A.B.C.#.D.r.E.F.G.H.I.J.K.L.M.N.O.-.N 5.P.Q.R.S.T.              ",
"  U.V.W.X.Y.Z.5.`. +.+++@+@+#+#+@+@+.+$+F.#.%+&+Y.*+=+-+              ",
"  ;+>+,+-.4.'+)+K.!+~+~+~+~+{+{+]+~+^+/+(+_+:+3.<+[+}+|+              ",
"  1+2+3+4+5+6+7+8+9+0+a+a+a+a+a+0+0+0+0+++b+c+#.4.d+e+f+              ",
"  g+h+i+j+k+l+++/+m+]+a+a+n+n+a+a+n+o+o+n+++b+p+D.#.q+r+              ",
"  s+V.t+u+v+w+.+x+y+z+.+A+^+~+a+a+m+y+m+B+++b+C+D+E+F+G+              ",
"  H+-.I+J+w+b+K+L+M+a+l+N+.+0+O+P+.+~+/+Q+b+#+#+R+Z.S+T+              ",
"  U+D.V+W+0+X+Y+Z+l+w+`+ @.@(+F.+@@@b+b+#@$@++%@&@*@4.=@              ",
"  -@;@>@,@a+8+'@)@!@~@{@]@^@.+/@(@_@~@:@<@[@++a+}@|@1@2@              ",
"  3@!.4@{+a+8+5@6@7@8@9@0@++a@b@c@d@e@7@f@(+8+a+0+g@h@i@              ",
"  j@&+k@l@a+a+b+X+m@n@o@++0+n+~+p@q@r@s@#+@+0+a+a+t@R.u@              ",
"  v@o w@x@y@a+a+0+a+z@0+0+a+y@A@B@C@N+l+0+a+a+a+D@E@F@G@              ",
"  H@I@J@K@L@M@/+a+a+N@l@a@a+a+++++O@P@[@.+a+/+a+b+Q@R@S@              ",
"    T@,+U@a@V@z+.+w+++0+]+o+!+b+W@X@N Y@l+~+Z@`@ #.#+#@#              ",
"    ##$#%#x@n+a+&#*#q@++9+0+b+=#-#!.4.;#>#.+~+,#'#3.)#                ",
"    !#~#{#]#D@M+&#^#/#(#b+Q+_#~#Z.2.-.:#<#Q+`@[#}#|#1#    2#3#        ",
"      4#-.5#++a+.+6#7#8#9#0#4.].a#b#c#3.&+d#J.e#f#g#h#i#j#k#l#m#      ",
"      n#u o#p#q#@+J.r#s#t#i+5.u#v#w#M x#3.y#z#A#n B#C#D#E#u#F#G#H#    ",
"        I#J#K#L#++M#N#O#-.S+P#Q#R#S#T#U#V#W#X#-.-.3.R@a#Y#Z#`#;@ $    ",
"          .$+$@$#$$$%$].&$*$=$-$;$>$#.,$V#i+D.D.Z.3.'$)$!$~${$].]$^$  ",
"            /$T@1@T ($u _$:$<$[$R@}$2.|$1$%+2$S+3$4$5$6$7$8$9$0$a$b$  ",
"              c$W.d$n e$f$g$o E+h$i$S+S+4.i+j$k$l$m$n$o$K R@F@p$q$r$  ",
"            s$t$u$v$w$x$F@}$4.-.|$x#%+Z.y$z$A$e$B$C$D$5+E$F$G$        ",
"            H$-.5+I$K 2$i$u#J$6.K$L$M$a#N$O$P$!.2.+$Q$R$S$            ",
"            T$;@2.U$V$W$X$Y$Z$`$6$ %.%+%-.|#,.@%#%$%                  ",
"              F@|$,+%%Q#&%*%=%-%w#;%R#>%D$J#,%                        ",
"            '%)%!%~%{%]%^%-%/%(%_%-%:%<%[%}%|%                        ",
"            1%2%3%4%5%6%7%8%:%:%(%-%=%9%0%)%a%                        ",
"            b%c%;#d%e%f%:%:%8%:%:%f%-%g%-.h%                          ",
"              i%y$j%!$;%^%k%l%m%=%=%R#n%o%p%                          ",
"              q%r%s%t%u%=%:%v%w%;%x%y%z%A%B%                          ",
"                C%r%o$D%E%F%m%G%H%D%I%J%K%                            ",
"                L%0$-.M%q N%O%P%Q%R%i+S%T%                            ",
"                U%J%4.4.E+i+V%3.N$-.D.W%X%                            ",
"                b$a#Y%Z%;#`% &.&+&@&#&!.[                             ",
"              n#$&%&&&*&=&V%r%N -&;&>&,&~#'&                          ",
"              )&h@!&5%*%~&,+N$|${&*%]&^&2@/&                          ",
"            * i+(&_&:&*%<&K h$!.[&=%-%}&|&Q 1&                        ",
"            2&3&4&5&m%]&6&h@-.7&8&*%m%9&^&0&a&                        ",
"          b&c&d&e&e%9&f&g&h@4..&h&R#m%i&j&k&l&m&                      ",
"          n&r%o&]%w#p&q&r&-.3.F@[.6$p&7%s&t&o u&                      ",
"        v&w&x&:$y&l%z&A&{.B&3.h$>$;&p&C&D&E&F&|#G&                    ",
"        H&u I&J&-%K&(%L&t.K T !.W$M&:%f%N&E%O&-.P&                    ",
"      X%)%Q&R&S&6%k%T&U&N |#V&%+i+W&F%X&6%T&l$Y&a$Z&                  ",
"      U.$#`&`$^%-%^% % *2..*+*@*K #*$*;%K&:%%*&*:#**                  ",
"    =*)%(&-*X&:%p&;%;*>*N ,*  '*N )*!*~*{*m%]*^*Y&!./*                ",
"    (*H _*;&5%:*<*;*4%[*W#}*  |*V#M$1*.%`$6$2*3*4*h$5*                ",
"  6*7*T 8*9*9*0*0*a*b*9.2.2#  c*d*u#h.>$>$>$e*9*f*E+;#g*              ",
"  h*C$i*].].|#|#].d*j*k*l*m*  n*K c&o*;@|#].|#].`%H p*q*              ",
"r*s*t*u*v*w*x*y*z*A*B*C*D*      w*E*F*G*H*I*x*z*J*K*L*A*M*            "};
