/* XPM */
static char * boywalk1reverse_xpm[] = {
"27 60 758 2",
"  	c #000001",
". 	c #146CB6",
"+ 	c #88A5C7",
"@ 	c #3473AD",
"# 	c #3674A7",
"$ 	c #6288B1",
"% 	c #066CB8",
"& 	c #2E7ABE",
"* 	c #046DBD",
"= 	c #6888AC",
"- 	c #146DB4",
"; 	c #5885B4",
"> 	c #497DB5",
", 	c #036CBD",
"' 	c #026CBD",
") 	c #036CC3",
"! 	c #5583B0",
"~ 	c #5584B4",
"{ 	c #0F6BB4",
"] 	c #226FB3",
"^ 	c #126DB8",
"/ 	c #3D79B7",
"( 	c #016DC3",
"_ 	c #016ABC",
": 	c #057BD8",
"< 	c #3677B8",
"[ 	c #186EB2",
"} 	c #026DBD",
"| 	c #096CB5",
"1 	c #5B87B9",
"2 	c #0171C7",
"3 	c #507FB0",
"4 	c #096FBC",
"5 	c #0476CF",
"6 	c #026CC0",
"7 	c #0687E9",
"8 	c #0471CA",
"9 	c #5482B7",
"0 	c #0473C5",
"a 	c #006CC4",
"b 	c #036DC0",
"c 	c #5883B3",
"d 	c #3E75AC",
"e 	c #087AD8",
"f 	c #096EBF",
"g 	c #467FBA",
"h 	c #0577CF",
"i 	c #047CDA",
"j 	c #026CC3",
"k 	c #068CF1",
"l 	c #087BDB",
"m 	c #3178C1",
"n 	c #056FC6",
"o 	c #0A80DD",
"p 	c #046ABE",
"q 	c #016DC0",
"r 	c #5A88B9",
"s 	c #4479AE",
"t 	c #6F93BB",
"u 	c #0679D5",
"v 	c #0480E1",
"w 	c #067FE1",
"x 	c #057FDF",
"y 	c #0170CB",
"z 	c #068FF7",
"A 	c #0A86EA",
"B 	c #016DC2",
"C 	c #037CDC",
"D 	c #0585EA",
"E 	c #026BC1",
"F 	c #0779D4",
"G 	c #3472B1",
"H 	c #5D89B8",
"I 	c #046DB8",
"J 	c #0375CF",
"K 	c #048EFA",
"L 	c #0271C6",
"M 	c #0589EF",
"N 	c #058CF4",
"O 	c #0888EC",
"P 	c #048FFC",
"Q 	c #078EF8",
"R 	c #0174D1",
"S 	c #058CF5",
"T 	c #0488F0",
"U 	c #0277D7",
"V 	c #0B86E9",
"W 	c #3C77BF",
"X 	c #799EC5",
"Y 	c #106CBD",
"Z 	c #056CBF",
"` 	c #457EB9",
" .	c #096AB7",
"..	c #047FDF",
"+.	c #0686E7",
"@.	c #028FFA",
"#.	c #0191FE",
"$.	c #0690FB",
"%.	c #0490FD",
"&.	c #068BF5",
"*.	c #038FFD",
"=.	c #058FFA",
"-.	c #078DF5",
";.	c #026CC1",
">.	c #016DBA",
",.	c #0580E1",
"'.	c #176FBB",
").	c #3374B4",
"!.	c #016CC0",
"~.	c #056BBC",
"{.	c #026BBF",
"].	c #037AD6",
"^.	c #098EF4",
"/.	c #048FFB",
"(.	c #0491FD",
"_.	c #0790FB",
":.	c #078FFC",
"<.	c #0490FE",
"[.	c #0590FD",
"}.	c #078FFB",
"|.	c #0292FF",
"1.	c #078DF6",
"2.	c #026FC8",
"3.	c #057BD6",
"4.	c #0688F2",
"5.	c #076AB9",
"6.	c #5C85B2",
"7.	c #7F9DB9",
"8.	c #1770B9",
"9.	c #036DC1",
"0.	c #036CBF",
"a.	c #2188DC",
"b.	c #309BEB",
"c.	c #0C74C8",
"d.	c #088BF1",
"e.	c #0191FF",
"f.	c #0390FF",
"g.	c #0690FD",
"h.	c #078FF7",
"i.	c #027DDE",
"j.	c #058DF8",
"k.	c #0687EE",
"l.	c #5481BC",
"m.	c #176EB7",
"n.	c #0C73C6",
"o.	c #349DEE",
"p.	c #41ABFD",
"q.	c #42ADFE",
"r.	c #39A5F7",
"s.	c #1379CD",
"t.	c #0273D1",
"u.	c #058BF3",
"v.	c #058FF9",
"w.	c #0690FA",
"x.	c #068FFC",
"y.	c #048FF9",
"z.	c #0686E8",
"A.	c #016EC4",
"B.	c #5584B6",
"C.	c #1D6DB1",
"D.	c #016CBF",
"E.	c #1273C6",
"F.	c #3BA3F5",
"G.	c #42ACFE",
"H.	c #43ACFD",
"I.	c #41ACFE",
"J.	c #3CA6F9",
"K.	c #1B7CD1",
"L.	c #0271C9",
"M.	c #0689EE",
"N.	c #0390FE",
"O.	c #078FFD",
"P.	c #0690FC",
"Q.	c #0590FB",
"R.	c #0391FC",
"S.	c #068EF7",
"T.	c #0785E4",
"U.	c #3E7BBA",
"V.	c #427BB5",
"W.	c #046DBF",
"X.	c #076FC6",
"Y.	c #38A1F4",
"Z.	c #46ABFC",
"`.	c #44ACFD",
" +	c #44ABFC",
".+	c #42A8FA",
"++	c #1E83D6",
"@+	c #0070C8",
"#+	c #0684E6",
"$+	c #058FFC",
"%+	c #0790FC",
"&+	c #0391FE",
"*+	c #0490FF",
"=+	c #0590FC",
"-+	c #068BF0",
";+	c #1F70BA",
">+	c #0C6CB7",
",+	c #036BBD",
"'+	c #2B93E7",
")+	c #46ABFB",
"!+	c #3FACFE",
"~+	c #42ABFD",
"{+	c #42ACFD",
"]+	c #40ACFF",
"^+	c #42AAFA",
"/+	c #2A8EDE",
"(+	c #026EC6",
"_+	c #047DDC",
":+	c #058FF7",
"<+	c #068FFF",
"[+	c #078FFE",
"}+	c #078BF1",
"|+	c #136CB8",
"1+	c #5483B6",
"2+	c #036CBE",
"3+	c #0F75C9",
"4+	c #3FAAFC",
"5+	c #41ACFB",
"6+	c #2F98E8",
"7+	c #2688D8",
"8+	c #288EDF",
"9+	c #3BA6F6",
"0+	c #43ABFC",
"a+	c #44ABFD",
"b+	c #45ACFC",
"c+	c #329AEC",
"d+	c #0871C6",
"e+	c #0375D1",
"f+	c #088BF4",
"g+	c #068BF4",
"h+	c #0F6CB9",
"i+	c #2071B6",
"j+	c #006DC3",
"k+	c #2B8DE1",
"l+	c #2186D9",
"m+	c #076FC2",
"n+	c #1881D8",
"o+	c #107BCB",
"p+	c #0E72C1",
"q+	c #39A4F4",
"r+	c #41ADFE",
"s+	c #43ACFE",
"t+	c #39A3F5",
"u+	c #1579CE",
"v+	c #0171CD",
"w+	c #0588EF",
"x+	c #0290FD",
"y+	c #0391FD",
"z+	c #058DF5",
"A+	c #0B6DB8",
"B+	c #046DB9",
"C+	c #006CC1",
"D+	c #38A0F3",
"E+	c #36A1F3",
"F+	c #026DC0",
"G+	c #369DED",
"H+	c #367FB6",
"I+	c #409DE3",
"J+	c #187CD8",
"K+	c #1E85DA",
"L+	c #42ABFC",
"M+	c #44ADFE",
"N+	c #3AA1F3",
"O+	c #2D91E3",
"P+	c #3EA6F6",
"Q+	c #40A9FA",
"R+	c #2085D9",
"S+	c #016EC6",
"T+	c #0682E4",
"U+	c #058FFE",
"V+	c #0591FD",
"W+	c #058DF7",
"X+	c #056EBF",
"Y+	c #7B98B5",
"Z+	c #036EBF",
"`+	c #0470C4",
" @	c #3EA9FC",
".@	c #2F98EA",
"+@	c #0773C7",
"@@	c #38A2EE",
"#@	c #031123",
"$@	c #3A80AF",
"%@	c #2590E5",
"&@	c #1179CF",
"*@	c #46AAFE",
"=@	c #43ABFD",
"-@	c #2B8FE1",
";@	c #046FC5",
">@	c #036FC5",
",@	c #2588DD",
"'@	c #2C8EDF",
")@	c #036EC5",
"!@	c #037EDD",
"~@	c #068EF9",
"{@	c #0491FC",
"]@	c #058EF9",
"^@	c #0371CA",
"/@	c #6693BC",
"(@	c #026CBE",
"_@	c #0873C7",
":@	c #40ABFD",
"<@	c #35A0F3",
"[@	c #359EEC",
"}@	c #347DAF",
"|@	c #439EDC",
"1@	c #177ED5",
"2@	c #1D85D7",
"3@	c #40ADFE",
"4@	c #2186DA",
"5@	c #2E98EB",
"6@	c #298FE2",
"7@	c #117BD1",
"8@	c #3EADFE",
"9@	c #45ABF9",
"0@	c #40ACFD",
"a@	c #309BED",
"b@	c #026EC2",
"c@	c #0885EA",
"d@	c #0490FC",
"e@	c #048FFA",
"f@	c #0373CE",
"g@	c #7F9ABC",
"h@	c #568DBE",
"i@	c #046CBD",
"j@	c #0873C9",
"k@	c #41AAFD",
"l@	c #3FABFE",
"m@	c #2485D7",
"n@	c #0670C4",
"o@	c #1E82D4",
"p@	c #147CCE",
"q@	c #0A70C7",
"r@	c #38A2F3",
"s@	c #44ACFC",
"t@	c #3CA8FA",
"u@	c #3EACFE",
"v@	c #2A8FE1",
"w@	c #157ACD",
"x@	c #3FADFF",
"y@	c #45ABFB",
"z@	c #41ACFD",
"A@	c #1D82D2",
"B@	c #0477D6",
"C@	c #0474CC",
"D@	c #809CBB",
"E@	c #799BBA",
"F@	c #076BBA",
"G@	c #046FC4",
"H@	c #40AAFC",
"I@	c #41ABFC",
"J@	c #2F97E9",
"K@	c #1F84DA",
"L@	c #258CE1",
"M@	c #39A4F6",
"N@	c #1278CC",
"O@	c #2086DA",
"P@	c #157DD2",
"Q@	c #2589DB",
"R@	c #339DEF",
"S@	c #016DC5",
"T@	c #058BF1",
"U@	c #058FFB",
"V@	c #0377CB",
"W@	c #016CC1",
"X@	c #3AA3F5",
"Y@	c #43ADFE",
"Z@	c #40ACFE",
"`@	c #42ABFB",
" #	c #379FF0",
".#	c #1076CB",
"+#	c #37A0F2",
"@#	c #40ABFC",
"##	c #157ACE",
"$#	c #037CDD",
"%#	c #0670BF",
"&#	c #116EB8",
"*#	c #2D93E5",
"=#	c #45ACFD",
"-#	c #44ACFB",
";#	c #43ADFB",
">#	c #42ACFC",
",#	c #41AAFC",
"'#	c #3BA6F8",
")#	c #41ACFF",
"!#	c #016DC9",
"~#	c #0780DC",
"{#	c #2771B9",
"]#	c #497EB2",
"^#	c #157ACC",
"/#	c #3FABFC",
"(#	c #45ACFB",
"_#	c #3EA8FA",
":#	c #43ADFD",
"<#	c #44ABFB",
"[#	c #3AA8FB",
"}#	c #056EC4",
"|#	c #5080B8",
"1#	c #056DBB",
"2#	c #3099EB",
"3#	c #42ACFF",
"4#	c #3BA6F9",
"5#	c #2187DA",
"6#	c #0F77CB",
"7#	c #3DA9FD",
"8#	c #43ACFC",
"9#	c #42ADFD",
"0#	c #2D95E9",
"a#	c #026CBC",
"b#	c #086CBD",
"c#	c #3978B7",
"d#	c #076BB9",
"e#	c #0772C9",
"f#	c #1B7FD4",
"g#	c #238BDF",
"h#	c #288FE3",
"i#	c #2288DC",
"j#	c #0871C7",
"k#	c #1278CD",
"l#	c #359EF1",
"m#	c #41ABFE",
"n#	c #41ADFC",
"o#	c #43ABFF",
"p#	c #43ABFE",
"q#	c #3AA5F7",
"r#	c #0A71C4",
"s#	c #056DBF",
"t#	c #4B7EB2",
"u#	c #126FBB",
"v#	c #016DBE",
"w#	c #016EBE",
"x#	c #157BCE",
"y#	c #137BD1",
"z#	c #1980D5",
"A#	c #2F95E6",
"B#	c #42ADFF",
"C#	c #45ABFC",
"D#	c #3EA7F9",
"E#	c #147ACE",
"F#	c #1B6EB9",
"G#	c #698FB4",
"H#	c #016CC4",
"I#	c #187ED0",
"J#	c #39A6F7",
"K#	c #45ABFE",
"L#	c #39A3F6",
"M#	c #1378CF",
"N#	c #016DC1",
"O#	c #0A6CBA",
"P#	c #5F88B4",
"Q#	c #5D88B6",
"R#	c #056DBD",
"S#	c #046BBF",
"T#	c #0A71C6",
"U#	c #2D94E6",
"V#	c #2992E1",
"W#	c #0770C7",
"X#	c #046BBE",
"Y#	c #0F6DB1",
"Z#	c #6E92BA",
"`#	c #638BB1",
" $	c #176FB5",
".$	c #0B73C7",
"+$	c #2388DB",
"@$	c #2F98EB",
"#$	c #35A1F2",
"$$	c #35A2F5",
"%$	c #34A0F2",
"&$	c #3098EA",
"*$	c #2287DB",
"=$	c #0972C4",
"-$	c #006DBD",
";$	c #036BC0",
">$	c #226FB1",
",$	c #608EB2",
"'$	c #3978B9",
")$	c #026BC0",
"!$	c #026BC2",
"~$	c #016CBE",
"{$	c #036ABF",
"]$	c #016DBF",
"^$	c #016BC1",
"/$	c #3978BB",
"($	c #2D73B7",
"_$	c #036DC3",
":$	c #026DC1",
"<$	c #016DC4",
"[$	c #036AC1",
"}$	c #2570B8",
"|$	c #5585AD",
"1$	c #056DBA",
"2$	c #006EC7",
"3$	c #0B87E9",
"4$	c #0786E8",
"5$	c #0372C6",
"6$	c #036BC5",
"7$	c #087FDB",
"8$	c #0488EB",
"9$	c #068BF6",
"0$	c #058AED",
"a$	c #016FC1",
"b$	c #026EBE",
"c$	c #5584B1",
"d$	c #2771B7",
"e$	c #047CDC",
"f$	c #0390FD",
"g$	c #0290FE",
"h$	c #0485E9",
"i$	c #016BC2",
"j$	c #0174D2",
"k$	c #048CF5",
"l$	c #058EFC",
"m$	c #027CE0",
"n$	c #056ABD",
"o$	c #276FB6",
"p$	c #066DB8",
"q$	c #0886E8",
"r$	c #078BF2",
"s$	c #026BBD",
"t$	c #016DBB",
"u$	c #026ABD",
"v$	c #0172CF",
"w$	c #058EF2",
"x$	c #068AED",
"y$	c #016CC2",
"z$	c #076CBC",
"A$	c #026CBA",
"B$	c #068BF3",
"C$	c #0378D4",
"D$	c #036BBC",
"E$	c #0787ED",
"F$	c #038DF7",
"G$	c #026DC3",
"H$	c #046CB9",
"I$	c #006DBF",
"J$	c #0B89ED",
"K$	c #0682E5",
"L$	c #006CC3",
"M$	c #026CBF",
"N$	c #0473CB",
"O$	c #0274D0",
"P$	c #098EF7",
"Q$	c #068BF1",
"R$	c #036DBC",
"S$	c #106FB9",
"T$	c #0A7DD9",
"U$	c #016EC8",
"V$	c #097CD8",
"W$	c #0683E5",
"X$	c #0885E7",
"Y$	c #0F6DB6",
"Z$	c #3A75AF",
"`$	c #006CC2",
" %	c #016CC3",
".%	c #0982E1",
"+%	c #0373CB",
"@%	c #0171CB",
"#%	c #0477D0",
"$%	c #2872B8",
"%%	c #6A8EB9",
"&%	c #066CBC",
"*%	c #036BBB",
"=%	c #0379D6",
"-%	c #0787EC",
";%	c #068FF9",
">%	c #0481E5",
",%	c #016BBE",
"'%	c #2473BC",
")%	c #116EBC",
"!%	c #026FC5",
"~%	c #068CF5",
"{%	c #0A8AEE",
"]%	c #068CF6",
"^%	c #056BB8",
"/%	c #4F83B5",
"(%	c #4C81B8",
"_%	c #0486EA",
":%	c #026DC2",
"<%	c #016BBF",
"[%	c #0276D5",
"}%	c #016FC9",
"|%	c #036ABE",
"1%	c #046BBC",
"2%	c #016FC0",
"3%	c #0479CF",
"4%	c #096BBC",
"5%	c #6890B6",
"6%	c #0D6DB8",
"7%	c #057AD4",
"8%	c #026BBE",
"9%	c #046ABA",
"0%	c #036ABC",
"a%	c #016DBD",
"b%	c #037FE0",
"c%	c #1C71B4",
"d%	c #2372B7",
"e%	c #0272CC",
"f%	c #098CF3",
"g%	c #0170C7",
"h%	c #0270C9",
"i%	c #0271CA",
"j%	c #006EC3",
"k%	c #0684E9",
"l%	c #068EFA",
"m%	c #067CD7",
"n%	c #006CBF",
"o%	c #026DBC",
"p%	c #3A77AD",
"q%	c #4C7DAE",
"r%	c #036EC0",
"s%	c #026EC0",
"t%	c #0986E9",
"u%	c #0584E7",
"v%	c #087FDD",
"w%	c #048EF9",
"x%	c #006DC5",
"y%	c #046ABF",
"z%	c #0274CB",
"A%	c #0279D3",
"B%	c #2E73B9",
"C%	c #0F6DB4",
"D%	c #0786EA",
"E%	c #098EF8",
"F%	c #0276D3",
"G%	c #0291FB",
"H%	c #068FFD",
"I%	c #057BD9",
"J%	c #046CBE",
"K%	c #487BB3",
"L%	c #5C8CB3",
"M%	c #1B6EBD",
"N%	c #066ABF",
"O%	c #0679D2",
"P%	c #016CBD",
"Q%	c #006EC1",
"R%	c #0277D2",
"S%	c #0490F9",
"T%	c #0590FE",
"U%	c #0A8CF4",
"V%	c #026DBE",
"W%	c #4E81BC",
"X%	c #1F72B7",
"Y%	c #006BC2",
"Z%	c #016FC6",
"`%	c #068EF3",
" &	c #0291FF",
".&	c #0690FE",
"+&	c #0484EB",
"@&	c #026EC1",
"#&	c #5984B0",
"$&	c #236FB2",
"%&	c #016BC0",
"&&	c #006BC1",
"*&	c #078AEB",
"=&	c #098FFA",
"-&	c #048FFD",
";&	c #068FF5",
">&	c #0478D4",
",&	c #1A6EB7",
"'&	c #026CC2",
")&	c #0575CB",
"!&	c #077DD7",
"~&	c #0481E0",
"{&	c #0A8EF8",
"]&	c #0491FE",
"^&	c #0190FE",
"/&	c #048CF2",
"(&	c #016FC4",
"_&	c #056CBA",
":&	c #3F78B6",
"<&	c #658DB1",
"[&	c #086CBB",
"}&	c #047EDE",
"|&	c #078EF7",
"1&	c #068DF6",
"2&	c #0378D3",
"3&	c #0291FD",
"4&	c #028FFE",
"5&	c #0880DF",
"6&	c #046BBD",
"7&	c #638AB5",
"8&	c #2C76B5",
"9&	c #036BBF",
"0&	c #0273CE",
"a&	c #078FF9",
"b&	c #0377D3",
"c&	c #0170C9",
"d&	c #058FF8",
"e&	c #0490FB",
"f&	c #068FF6",
"g&	c #0276D0",
"h&	c #3174B8",
"i&	c #467BAF",
"j&	c #036AC0",
"k&	c #036CC5",
"l&	c #038BEF",
"m&	c #038FFC",
"n&	c #0691FD",
"o&	c #0889EF",
"p&	c #088EFC",
"q&	c #0887ED",
"r&	c #016EC2",
"s&	c #046BC3",
"t&	c #4C7FB4",
"u&	c #628BB4",
"v&	c #076CBB",
"w&	c #056AC1",
"x&	c #0471C3",
"y&	c #0481E1",
"z&	c #0586EC",
"A&	c #088AF0",
"B&	c #078DF8",
"C&	c #0787EB",
"D&	c #0881E2",
"E&	c #0690F8",
"F&	c #0390F9",
"G&	c #078DF3",
"H&	c #0579D2",
"I&	c #0E6DB9",
"J&	c #286FB3",
"K&	c #056BBD",
"L&	c #006BC0",
"M&	c #0070CA",
"N&	c #0273CC",
"O&	c #0576CD",
"P&	c #0476D0",
"Q&	c #0281E4",
"R&	c #047CD9",
"S&	c #0477D2",
"T&	c #016FC7",
"U&	c #016CC5",
"V&	c #016BC3",
"W&	c #3174B4",
"X&	c #5987AF",
"Y&	c #678DB7",
"Z&	c #407BB5",
"`&	c #3E79BB",
" *	c #2A72B9",
".*	c #086AB9",
"+*	c #066BBB",
"@*	c #056BBE",
"#*	c #006CC0",
"$*	c #006DBC",
"%*	c #076AB5",
"&*	c #166CB5",
"**	c #3C7AB6",
"=*	c #7692A9",
"-*	c #6E91BB",
";*	c #467DB2",
">*	c #5181B5",
",*	c #3076B8",
"'*	c #076CBA",
")*	c #0C6DB8",
"!*	c #1E6FB4",
"~*	c #4E82BB",
"{*	c #497BB2",
"]*	c #4179AF",
"^*	c #7395BF",
"/*	c #5682B2",
"                                                      ",
"                        . + @                         ",
"              #       $ % & *         =               ",
"              - ;     > , ' ) !     ~ {               ",
"              ] ^     / ( _ : <     [ } |             ",
"              1 2 3   4 5 6 7 8   9 0 a b c           ",
"              d e f g h i j k l m n o p q r     s     ",
"              t u v ' w x y z A B C D E F G   H I     ",
"                J K L M N O P Q R S T U V W X Y Z     ",
"              `  ...+.@.#.$.%.P &.*.=.%.-.;.>.,.'.    ",
"            ).!.~.{.].^./.(._.:.<.[.}.|.1.2.3.4.5.6.  ",
"        7.8.9.0.a.b.c.5 d.e.[.}.f.g.:.<.h.i.j.k.;.l.  ",
"        m.6 n.o.p.q.r.s.t.u.v.w.%.g.<.<.x.y.K z.A.B.  ",
"      C.D.E.F.G.H.H.I.J.K.L.M.N.O.O.:.P.Q.R.<.S.T.U.  ",
"    V.W.X.Y.Z.`.H.H.H. +.+++@+#+$+<.g.%+g.&+*+=+-+;+  ",
"    >+,+'+)+!+~+p.{+H.H.]+^+/+(+_+:+%.*+<+O.[+P.}+|+  ",
"  1+2+3+4+5+6+7+8+9+{+0+a+b+G.c+d+e+f+N.%.w.[+[.g+h+  ",
"  i+j+k+I.l+m+n+o+p+q+r+ +s+a+H.t+u+v+w+x+y+<+<.z+A+  ",
"  B+C+D+E+F+G+H+I+J+K+L+M+G.N+O+P+Q+R+S+T+y.U+V+W+X+  ",
"Y+Z+`+ @.@+@@@#@$@%@&@*@=@-@;@>@,@I.~+'@)@!@~@{@]@^@  ",
"/@(@_@:@<@q [@}@|@1@2@3@=@4@5@6@7@8@9@0@a@b@c@d@e@f@g@",
"h@i@j@k@l@m@n@o@p@q@r@s@{+t@u@v@w@x@G.y@z@A@B@P e@C@D@",
"E@F@G@H@s+I@J@K@L@M@z@`.~+N@O@P@Q@{+s+s@H.R@S@T@U@V@  ",
"  i@W@X@Y@s+I.Z@r+G.H.a+`@ #.#)@+#H.H.H.H.@###$#W+%#  ",
"  &#W@*#q.H.=#-#-#=#a+`.;#>#,#'#)#H.H.H.H.y@J@!#~#{#  ",
"  ]#(@^#/#G.s@(#s@H.I._#z@:#H.s+G.H.H.H.H.<#[#}#' |#  ",
"    1#(@2#)#3#3#]+4#5#6#7#{+b+8#9#H.H.H.H.r+0#a#b#    ",
"    c#d#e#f#g#h#i#j#k#l#m#s+s+s+9#n#o#p#I.q#r#s#t#    ",
"      u#v#w#x#y#z#A#4+G.3#B#B#B#s+y@C#`.D#E#,+F#      ",
"      G#W.H#I#J#x@I.s+`.b+b+b+ +K#p#n#L#M#N#O#P#      ",
"        Q#R#S#T#U# @3#G.`.s@s@8#~+t@V#W#X#Y#Z#        ",
"          `# $(@D..$+$@$#$$$%$&$*$=$-$;$>$,$          ",
"              '$)$!$,+~${.q {${$' ]$^$/$              ",
"              ($6 _$:$N#D.{$)$^$S@<$[$}$              ",
"            |$1$2$3$d.4$5$6$7$8$9$0$a$b$c$            ",
"            d$!.e$f$g$h$C+i$j$k$f$l$m$n$o$            ",
"            p$W@q$x+r$>@s$t$u$v$w$%.x$y$z$            ",
"            A$B B$v.C$~${.F+D$<$E$f$F$G$H$            ",
"            I$y$J$K$L$M$N$N#,+O$P$U@Q$H#R$            ",
"            S$^$T$U${.S+V$!.W@W$=+g$X$y$Y$            ",
"            Z$0.`$M$ %.%+%~$@%-.*.d@#%W@$%            ",
"            %%&%D.*%=%-%W@s$_+/.;%>%,%i$'%            ",
"              )%!.!%~%C${.B {%]%$#M$;$i$^%/%          ",
"            (%i@F+_%r$:%<%<$[%}%|%1%2%3%X#4%5%        ",
"            6%!.7%x+..D$8%9%0%M$' a%b%Q O$ %c%        ",
"          d%1%e%f%e@g%{.A.h%i%g%j%D.k%l%m%n%o%p%      ",
"        q%r%s%t%x+u%,+y$v%w%;%3$x%y%z%A%!.} B%        ",
"        C%, B D%E%F%8%W@x G%$.H%I%^$|%2+J%K%          ",
"        L%M%N%6 O%j+P%Q%R%S%(.T%U%@%D$V%W%            ",
"            X%{.Y%W@s$8%Z%`% &.& &+&D.@&#&            ",
"            $&%&&&`$^$|%6 *&g$=&-&;&>&]$,&            ",
"          (%'&:$)&j+!&,%<%~&g${&]&^&/&(&_&:&          ",
"        <&[&)$}&|&W$1&Z%)$2&3&Q.:.U+4&5&)$6&7&        ",
"        8&9&0&S.g$a&P b&9&c&d&&+=+$.e&f&g&M$h&        ",
"      i&j&k&l&m&<.n&f$,.8%y$o&^&=+p&}.g$q&r&s&t&      ",
"    u&v&w&x&y&z&A&B&]@C&!.L$D&x+E&d@S%F&G&H&y$I&      ",
"    J&b K&a%[$L&C+M&N&O&C+i$P&Q&R&S&e%T&U&V&a#'&W&    ",
"    X&Y&Z&`& *.*+*@*{.8%' #*M$D$(@,+2+' } $*%*&***=*  ",
"                  -*;*>*,*'*)*!*~*{*]*^*/*            ",
"                                                      "};
