/* XPM */
static char * boywalk2_xpm[] = {
"39 60 850 2",
"  	c #000001",
". 	c #5B83A9",
"+ 	c #3A79B8",
"@ 	c #3A73A4",
"# 	c #5684B0",
"$ 	c #2C73B5",
"% 	c #4E88C9",
"& 	c #4278A4",
"* 	c #1C6FB4",
"= 	c #026BC1",
"- 	c #086DB5",
"; 	c #3073B1",
"> 	c #036CC1",
", 	c #036CC2",
"' 	c #2C6FAA",
") 	c #487BA1",
"! 	c #036CBE",
"~ 	c #016DBF",
"{ 	c #026DC2",
"] 	c #3E78B7",
"^ 	c #0570BE",
"/ 	c #036BBD",
"( 	c #286BA6",
"_ 	c #5D8AB5",
": 	c #3B77AA",
"< 	c #5685B2",
"[ 	c #026DBF",
"} 	c #026BBF",
"| 	c #0678D2",
"1 	c #1070C0",
"2 	c #407BB5",
"3 	c #0170BF",
"4 	c #026BC0",
"5 	c #016CC1",
"6 	c #336FA9",
"7 	c #6F91B5",
"8 	c #4983C0",
"9 	c #0A6DB9",
"0 	c #5883AD",
"a 	c #3373B2",
"b 	c #0778CF",
"c 	c #036BC1",
"d 	c #067DD9",
"e 	c #057CD6",
"f 	c #487FB6",
"g 	c #1671BE",
"h 	c #0677D0",
"i 	c #0374CB",
"j 	c #4479B1",
"k 	c #116AB1",
"l 	c #066BBF",
"m 	c #026FC7",
"n 	c #1C6FB6",
"o 	c #1E6FBC",
"p 	c #0C83E7",
"q 	c #016EC3",
"r 	c #057DDE",
"s 	c #068BEF",
"t 	c #126FC0",
"u 	c #2575BD",
"v 	c #0479D5",
"w 	c #0879D6",
"x 	c #006DC1",
"y 	c #087FDB",
"z 	c #4A7DB6",
"A 	c #096CB6",
"B 	c #006CC0",
"C 	c #0272C9",
"D 	c #087CD6",
"E 	c #046CC0",
"F 	c #0170C9",
"G 	c #088DF6",
"H 	c #0171CC",
"I 	c #0381E4",
"J 	c #058FFC",
"K 	c #0477D2",
"L 	c #036BC0",
"M 	c #0588EF",
"N 	c #027AD8",
"O 	c #0274CE",
"P 	c #0885E3",
"Q 	c #4B7DB4",
"R 	c #0A6DBA",
"S 	c #016DC4",
"T 	c #0171C7",
"U 	c #078DF4",
"V 	c #0373CD",
"W 	c #0378D6",
"X 	c #038FFD",
"Y 	c #0A8CF4",
"Z 	c #058FFA",
"` 	c #0290FE",
" .	c #0786EA",
"..	c #0374CF",
"+.	c #098DF6",
"@.	c #0A8CF2",
"#.	c #038BF4",
"$.	c #0586ED",
"%.	c #407AB6",
"&.	c #4A78A5",
"*.	c #3872AC",
"=.	c #0574CB",
"-.	c #0478D2",
";.	c #036DBF",
">.	c #038FF9",
",.	c #0688EF",
"'.	c #0683E6",
").	c #0490FD",
"!.	c #0590FC",
"~.	c #0491FE",
"{.	c #0590FD",
"].	c #078EF8",
"^.	c #0388F1",
"/.	c #078FFA",
"(.	c #098BEF",
"_.	c #0372D1",
":.	c #0D6DBC",
"<.	c #5786B2",
"[.	c #2D72AD",
"}.	c #1B70B8",
"|.	c #5C87B9",
"1.	c #0379D7",
"2.	c #0687EB",
"3.	c #037BD8",
"4.	c #048EF8",
"5.	c #048FFD",
"6.	c #058EF9",
"7.	c #068FFB",
"8.	c #078FFB",
"9.	c #058FFB",
"0.	c #028FFD",
"a.	c #0390FC",
"b.	c #0786EB",
"c.	c #0370C8",
"d.	c #046ABD",
"e.	c #006EC0",
"f.	c #076DBB",
"g.	c #3676B4",
"h.	c #6692B9",
"i.	c #086DBA",
"j.	c #156CB8",
"k.	c #3B7EBE",
"l.	c #057AD8",
"m.	c #048FFB",
"n.	c #0290FD",
"o.	c #0690FA",
"p.	c #0690FB",
"q.	c #0190FF",
"r.	c #0690FD",
"s.	c #0490FE",
"t.	c #068BF2",
"u.	c #047CDB",
"v.	c #006EC7",
"w.	c #2083D8",
"x.	c #309AEE",
"y.	c #167CCD",
"z.	c #036ABE",
"A.	c #036DBE",
"B.	c #1A6DB4",
"C.	c #0871C7",
"D.	c #067CD8",
"E.	c #036CBF",
"F.	c #057FDF",
"G.	c #068FF9",
"H.	c #078FFD",
"I.	c #068FFE",
"J.	c #0490FB",
"K.	c #058BF3",
"L.	c #067BD6",
"M.	c #006EC6",
"N.	c #0E76CC",
"O.	c #2F94E7",
"P.	c #42AAFD",
"Q.	c #41ABFD",
"R.	c #40ABFC",
"S.	c #2C92E2",
"T.	c #046EC1",
"U.	c #016CC0",
"V.	c #186EB5",
"W.	c #0770C6",
"X.	c #0B8DEF",
"Y.	c #047AD6",
"Z.	c #0582E6",
"`.	c #0590FA",
" +	c #0590FE",
".+	c #078FFC",
"++	c #078FFE",
"@+	c #088FFB",
"#+	c #0191FE",
"$+	c #058BF0",
"%+	c #0271C6",
"&+	c #1276C9",
"*+	c #3097E9",
"=+	c #3FA9FC",
"-+	c #42ACFE",
";+	c #43ACFE",
">+	c #42ACFD",
",+	c #41ACFE",
"'+	c #40ADFF",
")+	c #309AEC",
"!+	c #036FC5",
"~+	c #036DBD",
"{+	c #2E74B7",
"]+	c #0E6EC2",
"^+	c #068FF4",
"/+	c #058DF4",
"(+	c #068AF3",
"_+	c #0490FF",
":+	c #0788ED",
"<+	c #0071CE",
"[+	c #1D7ED0",
"}+	c #41A7F9",
"|+	c #43ABFD",
"1+	c #42ABFD",
"2+	c #43ACFD",
"3+	c #42ADFD",
"4+	c #45ACFC",
"5+	c #45ACFD",
"6+	c #3096E8",
"7+	c #016DC2",
"8+	c #046BBD",
"9+	c #4B7FB3",
"0+	c #146CBD",
"a+	c #038CF3",
"b+	c #0790FB",
"c+	c #0885EA",
"d+	c #016FC8",
"e+	c #1C80D5",
"f+	c #3EA9FC",
"g+	c #44ACFE",
"h+	c #44ABFD",
"i+	c #43ADFD",
"j+	c #42ACFC",
"k+	c #2085D7",
"l+	c #046BBA",
"m+	c #126EB7",
"n+	c #146BB7",
"o+	c #0389F0",
"p+	c #0691FE",
"q+	c #0886EA",
"r+	c #0070C8",
"s+	c #1E84D5",
"t+	c #3DAAFB",
"u+	c #41ADFE",
"v+	c #40ACFD",
"w+	c #36A1F2",
"x+	c #278EE1",
"y+	c #37A1F2",
"z+	c #40ACFF",
"A+	c #38A4F7",
"B+	c #056FC0",
"C+	c #026DC1",
"D+	c #4E81AF",
"E+	c #1B6EB5",
"F+	c #0287F0",
"G+	c #068FFC",
"H+	c #058FFD",
"I+	c #0986EB",
"J+	c #2184D7",
"K+	c #40A9FB",
"L+	c #42ADFE",
"M+	c #44ADFD",
"N+	c #43ABFC",
"O+	c #2C94E6",
"P+	c #026EC1",
"Q+	c #127ACD",
"R+	c #1479CC",
"S+	c #036DC0",
"T+	c #2F98E9",
"U+	c #40ADFE",
"V+	c #1E83D6",
"W+	c #046BBF",
"X+	c #2272B0",
"Y+	c #4781B8",
"Z+	c #0384E7",
"`+	c #0290FF",
" @	c #058EFB",
".@	c #0984E5",
"+@	c #006FC8",
"@@	c #2588DA",
"#@	c #41AAFC",
"$@	c #339AED",
"%@	c #349DEF",
"&@	c #3CA8FB",
"*@	c #0570C7",
"=@	c #2A8FE2",
"-@	c #3C98D1",
";@	c #4092D2",
">@	c #268DDE",
",@	c #0972C3",
"'@	c #3EA8FC",
")@	c #2F98EC",
"!@	c #026AC2",
"~@	c #0C6CB7",
"{@	c #5282B2",
"]@	c #0681DF",
"^@	c #058EFD",
"/@	c #0390FF",
"(@	c #0484EA",
"_@	c #026EC2",
":@	c #278AD9",
"<@	c #42AAFB",
"[@	c #39A1F4",
"}@	c #036DC3",
"|@	c #026CC1",
"1@	c #1D80D3",
"2@	c #3DA6F8",
"3@	c #349FF1",
"4@	c #016EC5",
"5@	c #3EA3EE",
"6@	c #24526B",
"7@	c #234F73",
"8@	c #32A4F1",
"9@	c #3BA1F5",
"0@	c #36A4F5",
"a@	c #016CC2",
"b@	c #056CBA",
"c@	c #326FA8",
"d@	c #057CD9",
"e@	c #0390FD",
"f@	c #078BF3",
"g@	c #0070CA",
"h@	c #288ADB",
"i@	c #44ABFB",
"j@	c #2D94E8",
"k@	c #0B73C8",
"l@	c #359EF0",
"m@	c #187BCF",
"n@	c #369BED",
"o@	c #42ABFE",
"p@	c #3BA5F7",
"q@	c #026DC4",
"r@	c #2E98ED",
"s@	c #3786B8",
"t@	c #3C81B4",
"u@	c #3196E8",
"v@	c #056EC5",
"w@	c #3EA5F8",
"x@	c #37AAF8",
"y@	c #036FC2",
"z@	c #046DBE",
"A@	c #4B85B1",
"B@	c #447DB5",
"C@	c #057AD6",
"D@	c #0491FC",
"E@	c #0292FE",
"F@	c #057FDD",
"G@	c #0B72C4",
"H@	c #3DA9FA",
"I@	c #43ADFF",
"J@	c #2C92E6",
"K@	c #0D74C9",
"L@	c #3FABFD",
"M@	c #2588DB",
"N@	c #066FC2",
"O@	c #2588DD",
"P@	c #2589DC",
"Q@	c #0570C3",
"R@	c #2889DD",
"S@	c #44AAFE",
"T@	c #38AAFB",
"U@	c #056FC5",
"V@	c #387DB3",
"W@	c #6C92BB",
"X@	c #0278D1",
"Y@	c #048FFC",
"Z@	c #078EF6",
"`@	c #0270CC",
" #	c #2A8DDE",
".#	c #3FADFE",
"+#	c #44ACFD",
"@#	c #44ACFB",
"##	c #339CEE",
"$#	c #036EC4",
"%#	c #137AD3",
"&#	c #329BEE",
"*#	c #42ADFB",
"=#	c #43ADFB",
"-#	c #41A9FC",
";#	c #2E93E5",
">#	c #187DD2",
",#	c #1A7DD1",
"'#	c #2F93E6",
")#	c #41AAFD",
"!#	c #3BA5F9",
"~#	c #016EC2",
"{#	c #086ABA",
"]#	c #6192BA",
"^#	c #0472C3",
"/#	c #078DF7",
"(#	c #0583E4",
"_#	c #056FC7",
":#	c #3EA5F6",
"<#	c #41ADFD",
"[#	c #43ADFE",
"}#	c #0E75C9",
"|#	c #016CC3",
"1#	c #1D81D6",
"2#	c #3EA9F9",
"3#	c #44ADFB",
"4#	c #389DF0",
"5#	c #006CBD",
"6#	c #086CC1",
"7#	c #196FB2",
"8#	c #0782E2",
"9#	c #0276CE",
"0#	c #2486D9",
"a#	c #43ADFC",
"b#	c #42ACFF",
"c#	c #3AA4F6",
"d#	c #349DF0",
"e#	c #41ABFE",
"f#	c #43ACFC",
"g#	c #3FACFE",
"h#	c #2A8EE0",
"i#	c #006DC0",
"j#	c #126DBF",
"k#	c #457BB0",
"l#	c #026EC4",
"m#	c #016DC0",
"n#	c #38A1F4",
"o#	c #44ACFA",
"p#	c #44ADFE",
"q#	c #44ACFC",
"r#	c #3CABFD",
"s#	c #1177CB",
"t#	c #006DBF",
"u#	c #4378B4",
"v#	c #046CBC",
"w#	c #026CBF",
"x#	c #2D94E5",
"y#	c #45ADFA",
"z#	c #45ABFE",
"A#	c #187ED3",
"B#	c #37A1F3",
"C#	c #41ACFD",
"D#	c #2E97EA",
"E#	c #026BBE",
"F#	c #036DBA",
"G#	c #5C85B2",
"H#	c #3977B4",
"I#	c #026CC2",
"J#	c #0B71C3",
"K#	c #3BA4F7",
"L#	c #45ABFA",
"M#	c #3BA6F8",
"N#	c #1B80D4",
"O#	c #036FC6",
"P#	c #2186DB",
"Q#	c #2E9CF0",
"R#	c #319DF1",
"S#	c #3296EA",
"T#	c #268FE3",
"U#	c #0B72C9",
"V#	c #026DBC",
"W#	c #2C73B2",
"X#	c #116DB5",
"Y#	c #157CCC",
"Z#	c #41A6FA",
"`#	c #44ABFC",
" $	c #40ABFD",
".$	c #3199EA",
"+$	c #167DCD",
"@$	c #056BC1",
"#$	c #0271C3",
"$$	c #056BBC",
"%$	c #056ABE",
"&$	c #0A6DBC",
"*$	c #5585B1",
"=$	c #066DBC",
"-$	c #187DCF",
";$	c #3CA5F9",
">$	c #45ACFB",
",$	c #3EABFE",
"'$	c #3DA9FB",
")$	c #38A4F6",
"!$	c #147CD4",
"~$	c #006DC5",
"{$	c #056DB9",
"]$	c #457EB3",
"^$	c #3B7BAD",
"/$	c #066CBD",
"($	c #0E72C4",
"_$	c #45ABFC",
":$	c #3399E8",
"<$	c #1074C3",
"[$	c #056BC0",
"}$	c #066CB9",
"|$	c #3C77A9",
"1$	c #5886B3",
"2$	c #0E6CB6",
"3$	c #036CC0",
"4$	c #006CC2",
"5$	c #1479CE",
"6$	c #2D93E4",
"7$	c #39A2F3",
"8$	c #3EA9FB",
"9$	c #42ABFC",
"0$	c #41ABFC",
"a$	c #38A3F6",
"b$	c #2D95E7",
"c$	c #127CCF",
"d$	c #036BBF",
"e$	c #006CC5",
"f$	c #0D6DB8",
"g$	c #4177A9",
"h$	c #2770B5",
"i$	c #036CBD",
"j$	c #006BC0",
"k$	c #016BC0",
"l$	c #0573C8",
"m$	c #0E77CC",
"n$	c #1077CD",
"o$	c #0672C9",
"p$	c #016CBF",
"q$	c #076ABB",
"r$	c #2670B7",
"s$	c #497FB6",
"t$	c #056BBF",
"u$	c #016BBE",
"v$	c #036ABD",
"w$	c #046BBC",
"x$	c #026BBD",
"y$	c #026CBC",
"z$	c #036CBB",
"A$	c #4E85B7",
"B$	c #076EBB",
"C$	c #0378D3",
"D$	c #0B83E2",
"E$	c #0373CA",
"F$	c #016CBC",
"G$	c #0377D4",
"H$	c #057DDD",
"I$	c #0884E5",
"J$	c #0474CF",
"K$	c #006EC1",
"L$	c #116EB8",
"M$	c #477CAF",
"N$	c #056BBA",
"O$	c #026FC4",
"P$	c #0E88E5",
"Q$	c #047BD6",
"R$	c #006DC3",
"S$	c #0372CE",
"T$	c #0C8DF2",
"U$	c #058EFA",
"V$	c #0689F2",
"W$	c #046CC3",
"X$	c #076AB8",
"Y$	c #4B80AD",
"Z$	c #1E6CB1",
"`$	c #0472C7",
" %	c #026FC9",
".%	c #046ABF",
"+%	c #0784E6",
"@%	c #0491F8",
"#%	c #0277DD",
"$%	c #1E72AF",
"%%	c #0D6CB9",
"&%	c #046BBE",
"*%	c #0470C3",
"=%	c #016BBF",
"-%	c #036BBC",
";%	c #0278D6",
">%	c #0690F9",
",%	c #057FE6",
"'%	c #006CC3",
")%	c #196FB3",
"!%	c #046CBB",
"~%	c #026BBB",
"{%	c #097CD6",
"]%	c #0777D1",
"^%	c #0172CE",
"/%	c #068AF1",
"(%	c #0591FD",
"_%	c #0192FF",
":%	c #0781E4",
"<%	c #186FB5",
"[%	c #5484AD",
"}%	c #1D6FB4",
"|%	c #0A86E7",
"1%	c #057AD5",
"2%	c #016BBD",
"3%	c #058AF2",
"4%	c #078FF9",
"5%	c #0490FC",
"6%	c #0391FD",
"7%	c #116EB9",
"8%	c #3D78B1",
"9%	c #086EBC",
"0%	c #037CDC",
"a%	c #088CF3",
"b%	c #067BD5",
"c%	c #016FC5",
"d%	c #0888EB",
"e%	c #0790FA",
"f%	c #068DF7",
"g%	c #0272CB",
"h%	c #016DC6",
"i%	c #146EBA",
"j%	c #4E80B1",
"k%	c #2571B6",
"l%	c #066BBE",
"m%	c #0172D1",
"n%	c #0587EC",
"o%	c #058FF7",
"p%	c #057DDB",
"q%	c #016FC6",
"r%	c #0789EE",
"s%	c #0790FC",
"t%	c #057EDF",
"u%	c #056DBD",
"v%	c #3877B1",
"w%	c #467BAA",
"x%	c #0B6EB5",
"y%	c #067ADA",
"z%	c #0490F9",
"A%	c #067DDD",
"B%	c #016BC1",
"C%	c #016DC3",
"D%	c #0B87E7",
"E%	c #0390FB",
"F%	c #0390FE",
"G%	c #078EF9",
"H%	c #0681E0",
"I%	c #016FC7",
"J%	c #0B84E5",
"K%	c #0375D1",
"L%	c #026CBE",
"M%	c #176FB7",
"N%	c #5181B1",
"O%	c #0A6FBB",
"P%	c #016BC2",
"Q%	c #026DC3",
"R%	c #0686E7",
"S%	c #057FDB",
"T%	c #006BC2",
"U%	c #0376D1",
"V%	c #0683E5",
"W%	c #0589EE",
"X%	c #0688ED",
"Y%	c #0582E2",
"Z%	c #0275CE",
"`%	c #006DC4",
" &	c #056ABB",
".&	c #0573CB",
"+&	c #078DF6",
"@&	c #088EF6",
"#&	c #087FDE",
"$&	c #016DC1",
"%&	c #3E77B1",
"&&	c #4A7DAD",
"*&	c #066DBA",
"=&	c #0884E3",
"-&	c #0490FA",
";&	c #0181E4",
">&	c #006CC1",
",&	c #0279D9",
"'&	c #058FF9",
")&	c #0888EF",
"!&	c #0271C8",
"~&	c #056DBE",
"{&	c #5C83A8",
"]&	c #2B75B6",
"^&	c #036FC7",
"/&	c #087ED8",
"(&	c #016DC5",
"_&	c #0569BE",
":&	c #016CBE",
"<&	c #026CC0",
"[&	c #056ABD",
"}&	c #016BC3",
"|&	c #026CC3",
"1&	c #056EC4",
"2&	c #036BBE",
"3&	c #037AD9",
"4&	c #068EF8",
"5&	c #0489F2",
"6&	c #036DC1",
"7&	c #3C77B2",
"8&	c #086DB6",
"9&	c #0469C2",
"0&	c #0278D3",
"a&	c #0A82DE",
"b&	c #006CC7",
"c&	c #097BD4",
"d&	c #0585E8",
"e&	c #058BF4",
"f&	c #078EF7",
"g&	c #047DDB",
"h&	c #0375D0",
"i&	c #146DB7",
"j&	c #407DB9",
"k&	c #0369BE",
"l&	c #026BC3",
"m&	c #0273CB",
"n&	c #0685E8",
"o&	c #028FFC",
"p&	c #077DDB",
"q&	c #0475D0",
"r&	c #048FF8",
"s&	c #0391FC",
"t&	c #0887EA",
"u&	c #0272CC",
"v&	c #5182AF",
"w&	c #186EB8",
"x&	c #067FDD",
"y&	c #058DF8",
"z&	c #0291FC",
"A&	c #0490F6",
"B&	c #0474CD",
"C&	c #0180E5",
"D&	c #0291FF",
"E&	c #0A8CF1",
"F&	c #047AD7",
"G&	c #3977B2",
"H&	c #056DBB",
"I&	c #016CC4",
"J&	c #0279D6",
"K&	c #068CEF",
"L&	c #0490F8",
"M&	c #068AF2",
"N&	c #0786E9",
"O&	c #0391FE",
"P&	c #088FF8",
"Q&	c #0684E9",
"R&	c #016FCA",
"S&	c #3374B2",
"T&	c #467BB0",
"U&	c #116BB8",
"V&	c #0174D1",
"W&	c #0886E9",
"X&	c #0191FF",
"Y&	c #098FF8",
"Z&	c #088FFC",
"`&	c #0A8CEF",
" *	c #0271CE",
".*	c #0C70C1",
"+*	c #126DBB",
"@*	c #0172CD",
"#*	c #098BF3",
"$*	c #0590FB",
"%*	c #0491FF",
"&*	c #068BF5",
"**	c #0F6DB6",
"=*	c #4E81B0",
"-*	c #5C85AE",
";*	c #2370B6",
">*	c #026EBC",
",*	c #0480E5",
"'*	c #068EF7",
")*	c #068FFF",
"!*	c #0291FD",
"~*	c #078DF9",
"{*	c #0277D5",
"]*	c #076DBC",
"^*	c #4880B6",
"/*	c #5C88AD",
"(*	c #0C6EC0",
"_*	c #026CBD",
":*	c #0576D2",
"<*	c #0690FC",
"[*	c #068FF6",
"}*	c #0882E0",
"|*	c #026EC7",
"1*	c #016BBC",
"2*	c #036DBB",
"3*	c #3875B1",
"4*	c #2A71AD",
"5*	c #056EBC",
"6*	c #077FDE",
"7*	c #038FFC",
"8*	c #0590FF",
"9*	c #068EFA",
"0*	c #057BDA",
"a*	c #4D80B1",
"b*	c #447CAD",
"c*	c #036EBB",
"d*	c #0280E1",
"e*	c #0390FA",
"f*	c #058BF1",
"g*	c #0476D1",
"h*	c #046BC0",
"i*	c #1E6FB6",
"j*	c #5585AB",
"k*	c #487EAF",
"l*	c #0E6CB4",
"m*	c #0675CD",
"n*	c #0190FE",
"o*	c #0381E2",
"p*	c #3174AB",
"q*	c #2E74AF",
"r*	c #026CC5",
"s*	c #0587EE",
"t*	c #0890F8",
"u*	c #0192FE",
"v*	c #0386ED",
"w*	c #0273CA",
"x*	c #016CC5",
"y*	c #407BA7",
"z*	c #3376B8",
"A*	c #0481E2",
"B*	c #098EF5",
"C*	c #0584E6",
"D*	c #3776B6",
"E*	c #166CB6",
"F*	c #046BC1",
"G*	c #0172CC",
"H*	c #068EF6",
"I*	c #0688EE",
"J*	c #0474D2",
"K*	c #076DB8",
"L*	c #3675AF",
"M*	c #497DB4",
"N*	c #156EBA",
"O*	c #0275D2",
"P*	c #036BC2",
"Q*	c #1970B1",
"R*	c #5D87AF",
"S*	c #0A6BB7",
"T*	c #0379D6",
"U*	c #098AED",
"V*	c #066CBC",
"W*	c #246EB1",
"X*	c #5A87B3",
"Y*	c #3474AF",
"Z*	c #046CBD",
"`*	c #026DC0",
" =	c #026EC6",
".=	c #1E6FB4",
"+=	c #4680B1",
"@=	c #056CB8",
"#=	c #0576CF",
"$=	c #016EC4",
"%=	c #036ABF",
"&=	c #1C70B7",
"*=	c #5382B1",
"==	c #5482B2",
"-=	c #156FB4",
";=	c #096DB9",
">=	c #4F82A6",
",=	c #3076B5",
"'=	c #156EB7",
")=	c #487EB2",
"!=	c #3675B1",
"~=	c #5884B2",
"{=	c #1E6CBA",
"]=	c #0A6CB9",
"^=	c #3C78B3",
"/=	c #6386A3",
"                                                                              ",
"                              . + @         # $ % &                           ",
"                              * = -         ; > , '                           ",
"                    )         ! ~ { ]       ^ = / (                           ",
"                    _ :     < [ } | 1     2 3 4 5 6                           ",
"                  7 8 9 0   a b c d e f   g h 4 i j                           ",
"                  k l m n   o p q r s t u v w x y z                           ",
"                  A B C D E F G H I J K L M N O P Q                           ",
"                  R S T U V W X Y Z `  ...+.@.#.$.%.                          ",
"          &.    *.=.-.;.>.,.'.).!.~.{.].^.` /.(._.:.<.                        ",
"          [.}.  |.1.2.3.4.5.6.7.J ).8.9.0.a.b.c.d.e.f.g.                      ",
"          h.i.j.k.l.m.n.o.p.q.p.r.s.{.Z t.u.v.w.x.y.z.A.B.                    ",
"            C.D.E.F.G.s.H.I.I.H.!.J.K.L.M.N.O.P.Q.R.S.T.U.V.                  ",
"            W.X.Y.Z.`. +.+++@+!.#+$+%+&+*+=+-+;+>+,+'+)+!+~+{+                ",
"            ]+^+/+(+{.s.8. +_+8.:+<+[+}+|+1+2+3+4+5+|+,+6+7+8+9+              ",
"            0+a+a..+~.{.b+{.X c+d+e+f+g+h+2+2+3+2+i+;+>+j+k+l+m+              ",
"            n+o+s.!.s.p+7.Z q+r+s+t+u+2+2+2+2+v+w+x+x+y+z+A+B+C+D+            ",
"            E+F+J.!.G+{.H+I+M.J+K+>+L+M+4+N+v+O+P+Q+R+S+T+U+V+W+X+            ",
"            Y+Z+H+8.`+ @.@+@@@#@-+$@%@R.2+,+&@*@=@-@;@>@,@'@)@!@~@            ",
"            {@]@^@8./@(@_@:@<@-+[@}@|@1@2@,+3@4@5@6@7@8@{ 9@0@a@b@            ",
"            c@d@{.e@f@g@h@<@i@-+j@k@l@m@n@o@p@q@r@s@t@u@v@w@x@y@z@A@          ",
"            B@C@D@E@F@G@H@-+2+I@J@K@v+L@,+;+1+M@N@O@P@Q@R@S@T@U@W+V@          ",
"            W@X@Y@Z@`@ #.#+#@#-+##$#r@%#&#*#=#-#;#>#,#'#)#N+!#~#{#]#          ",
"              ^#/#(#_#:#<#+#+#[#f+}#|#1#2#=#3#h+-+-+-+1+;++#4#5#6#            ",
"              7#8#9#0#|+a#;+2+2+b#c#d#e#-+i+f#+#+#2+2+2+2+g#h#i#j#            ",
"              k#l#m#n#,+o#;+h++#2+;+L+p#i+,+,+L+q#@#2+2+-+r#s#t#u#            ",
"                v#w#x#,+y#+#z#h+2+2+a#q#L+&#A#B#C#>+3+[#g#D#E#F#G#            ",
"                H#I#J#K#i@L#2+2+3+3+3+[#-+M#N#O#P#Q#R#S#T#U#V#W#              ",
"                  X#4 Y#Z#`#a#a#a#=#=#2+;+C# $.$+$@$, #$$$%$&$                ",
"                  *$=$} -$;$;+;+2+4+>$f#2+2+;+b#,$'$)$!$~${$]$                ",
"                    ^$/$|@($*+L@,+>++#_$2+;+L+,+,$:$<$[$}$|$                  ",
"                      1$2$3$4$5$6$7$8$9$0$f+a$b$c$d$e$f$g$                    ",
"                          h$i$j$I#k$l$m$n$o$4$p$|#q$r$                        ",
"                          s$t$|#|#u$v$w$x$U.5 k$y$z$A$                        ",
"                          B$7+C$D$E$F$x$m G$H$I$J$K$L$                        ",
"                        M$N$O$P$Q$R$B 5 S$T$U$Y@V$W$X$Y$                      ",
"                        Z$5 `$ %e$.%.%/ |#+%J s.@%#%> $%                      ",
"                        %%&%E#5 4$c.*%=%-%;%n.!.>%,%'%)%                      ",
"                        !%~%4$7+{%]%U.p$^%/%m.(%_%:%p$<%                      ",
"                    [%}%w#|#^%|%1%p$2%F 3%n.4%5%6%d@i#7%                      ",
"                  8%9%v#&%0%a%b%a@'%c%d%Y@e@e%5%f%g%y$h%i%j%                  ",
"                k%l%.%m%n%o%p%R$-%q%r%Y@!.s%!.G.t%'%/ .%} u%v%                ",
"            w%x%|@a@y%].z%A%B%E#C%D%E%5.F%q.G%H%7+x$I%J%K%L%m#M%N%            ",
"            O%P%Q%R%).m.S%a@T%=%4$U%V%W%X%Y%Z%m#`% &.&+&@&#&4@$&z@%&          ",
"            &&*&P%=&-&;&d$x$u$u$u$U.5 >&k$E#} U.4 d.U.,&'&).)&!&7+~&{&        ",
"              ]&i$^&/&(&_&4 :&U.5 <&[&=%T%}&|&1&/ j$E#2&3&4&5&E 6&7&          ",
"                8&>&:&2&9&k$'%0&a&b&B%p$c&d&e&f&g&R$2%E#k$C@h&! i&            ",
"                j&p$z.k&l&m&n&o&Z p&4$5 q&r&H+s&].t&u&=%E#7+ &S+v&            ",
"              < w&=%! _@x&y&z&++` A&B&&%~$C&4%>%D&J E&F&a@} = %%              ",
"            G&H&[&I&J&K&L&J s.o.J.M&O$l+L%8+N&!.O&s.F%P&Q&R&2&p$S&            ",
"        T&U&{$4 V&W&4&X&O&Y&Z&L&`& *p$.*+*> @*#*$*!.%*F%{.&*J&~$8+**=*        ",
"    -*;*>*= q ,*'*E%r.++)*s.!*~*{*~ ]*^*/*(*_*:*m.).<*<*G+Y@[*}*|*1*2*3*      ",
"    4*5*-%U.6*6.7*F%G+r.8*9*Z 0*k$;.a*    b*c*} d*9.8*H./.r.e@e*f*g*:&h*i*j*  ",
"      k*l*_*U.m*e&n*$*p.~.5%o*d$%$p*        q*E.r*s*6%t*).u*9.9.v*w*2%x*9%y*  ",
"          z*! -%d+A*B*n.a.C*E.F#D*            E*F*G*^+#+e@H*I*J*4 :&K*L*      ",
"            M*N*_*5 O*r%d%4@P*Q*              R*S*-%T*G.U*F&C+x$V*W*X*        ",
"                Y*Z*_*`* =5 .=                  +=@=a@#=$=%=m#&=*=            ",
"                  ==-=V#w#;=>=                    ,=P*<&[ '=)=                ",
"                      !=;=~=                        {=]=^=                    ",
"                                                    /=                        "};
