/* XPM */
static char * boywalk1_xpm[] = {
"27 60 758 2",
"  	c #000001",
". 	c #3473AD",
"+ 	c #88A5C7",
"@ 	c #146CB6",
"# 	c #6888AC",
"$ 	c #046DBD",
"% 	c #2E7ABE",
"& 	c #066CB8",
"* 	c #6288B1",
"= 	c #3674A7",
"- 	c #0F6BB4",
"; 	c #5584B4",
"> 	c #5583B0",
", 	c #036CC3",
"' 	c #026CBD",
") 	c #036CBD",
"! 	c #497DB5",
"~ 	c #5885B4",
"{ 	c #146DB4",
"] 	c #096CB5",
"^ 	c #026DBD",
"/ 	c #186EB2",
"( 	c #3677B8",
"_ 	c #057BD8",
": 	c #016ABC",
"< 	c #016DC3",
"[ 	c #3D79B7",
"} 	c #126DB8",
"| 	c #226FB3",
"1 	c #5883B3",
"2 	c #036DC0",
"3 	c #006CC4",
"4 	c #0473C5",
"5 	c #5482B7",
"6 	c #0471CA",
"7 	c #0687E9",
"8 	c #026CC0",
"9 	c #0476CF",
"0 	c #096FBC",
"a 	c #507FB0",
"b 	c #0171C7",
"c 	c #5B87B9",
"d 	c #4479AE",
"e 	c #5A88B9",
"f 	c #016DC0",
"g 	c #046ABE",
"h 	c #0A80DD",
"i 	c #056FC6",
"j 	c #3178C1",
"k 	c #087BDB",
"l 	c #068CF1",
"m 	c #026CC3",
"n 	c #047CDA",
"o 	c #0577CF",
"p 	c #467FBA",
"q 	c #096EBF",
"r 	c #087AD8",
"s 	c #3E75AC",
"t 	c #046DB8",
"u 	c #5D89B8",
"v 	c #3472B1",
"w 	c #0779D4",
"x 	c #026BC1",
"y 	c #0585EA",
"z 	c #037CDC",
"A 	c #016DC2",
"B 	c #0A86EA",
"C 	c #068FF7",
"D 	c #0170CB",
"E 	c #057FDF",
"F 	c #067FE1",
"G 	c #0480E1",
"H 	c #0679D5",
"I 	c #6F93BB",
"J 	c #056CBF",
"K 	c #106CBD",
"L 	c #799EC5",
"M 	c #3C77BF",
"N 	c #0B86E9",
"O 	c #0277D7",
"P 	c #0488F0",
"Q 	c #058CF5",
"R 	c #0174D1",
"S 	c #078EF8",
"T 	c #048FFC",
"U 	c #0888EC",
"V 	c #058CF4",
"W 	c #0589EF",
"X 	c #0271C6",
"Y 	c #048EFA",
"Z 	c #0375CF",
"` 	c #176FBB",
" .	c #0580E1",
"..	c #016DBA",
"+.	c #026CC1",
"@.	c #078DF5",
"#.	c #0490FD",
"$.	c #058FFA",
"%.	c #038FFD",
"&.	c #068BF5",
"*.	c #0690FB",
"=.	c #0191FE",
"-.	c #028FFA",
";.	c #0686E7",
">.	c #047FDF",
",.	c #096AB7",
"'.	c #457EB9",
").	c #5C85B2",
"!.	c #076AB9",
"~.	c #0688F2",
"{.	c #057BD6",
"].	c #026FC8",
"^.	c #078DF6",
"/.	c #0292FF",
"(.	c #078FFB",
"_.	c #0590FD",
":.	c #0490FE",
"<.	c #078FFC",
"[.	c #0790FB",
"}.	c #0491FD",
"|.	c #048FFB",
"1.	c #098EF4",
"2.	c #037AD6",
"3.	c #026BBF",
"4.	c #056BBC",
"5.	c #016CC0",
"6.	c #3374B4",
"7.	c #5481BC",
"8.	c #0687EE",
"9.	c #058DF8",
"0.	c #027DDE",
"a.	c #078FF7",
"b.	c #0690FD",
"c.	c #0390FF",
"d.	c #0191FF",
"e.	c #088BF1",
"f.	c #0C74C8",
"g.	c #309BEB",
"h.	c #2188DC",
"i.	c #036CBF",
"j.	c #036DC1",
"k.	c #1770B9",
"l.	c #7F9DB9",
"m.	c #5584B6",
"n.	c #016EC4",
"o.	c #0686E8",
"p.	c #048FF9",
"q.	c #068FFC",
"r.	c #0690FA",
"s.	c #058FF9",
"t.	c #058BF3",
"u.	c #0273D1",
"v.	c #1379CD",
"w.	c #39A5F7",
"x.	c #42ADFE",
"y.	c #41ABFD",
"z.	c #349DEE",
"A.	c #0C73C6",
"B.	c #176EB7",
"C.	c #3E7BBA",
"D.	c #0785E4",
"E.	c #068EF7",
"F.	c #0391FC",
"G.	c #0590FB",
"H.	c #0690FC",
"I.	c #078FFD",
"J.	c #0390FE",
"K.	c #0689EE",
"L.	c #0271C9",
"M.	c #1B7CD1",
"N.	c #3CA6F9",
"O.	c #41ACFE",
"P.	c #43ACFD",
"Q.	c #42ACFE",
"R.	c #3BA3F5",
"S.	c #1273C6",
"T.	c #016CBF",
"U.	c #1D6DB1",
"V.	c #1F70BA",
"W.	c #068BF0",
"X.	c #0590FC",
"Y.	c #0490FF",
"Z.	c #0391FE",
"`.	c #0790FC",
" +	c #058FFC",
".+	c #0684E6",
"++	c #0070C8",
"@+	c #1E83D6",
"#+	c #42A8FA",
"$+	c #44ABFC",
"%+	c #44ACFD",
"&+	c #46ABFC",
"*+	c #38A1F4",
"=+	c #076FC6",
"-+	c #046DBF",
";+	c #427BB5",
">+	c #136CB8",
",+	c #078BF1",
"'+	c #078FFE",
")+	c #068FFF",
"!+	c #058FF7",
"~+	c #047DDC",
"{+	c #026EC6",
"]+	c #2A8EDE",
"^+	c #42AAFA",
"/+	c #40ACFF",
"(+	c #42ACFD",
"_+	c #42ABFD",
":+	c #3FACFE",
"<+	c #46ABFB",
"[+	c #2B93E7",
"}+	c #036BBD",
"|+	c #0C6CB7",
"1+	c #0F6CB9",
"2+	c #068BF4",
"3+	c #088BF4",
"4+	c #0375D1",
"5+	c #0871C6",
"6+	c #329AEC",
"7+	c #45ACFC",
"8+	c #44ABFD",
"9+	c #43ABFC",
"0+	c #3BA6F6",
"a+	c #288EDF",
"b+	c #2688D8",
"c+	c #2F98E8",
"d+	c #41ACFB",
"e+	c #3FAAFC",
"f+	c #0F75C9",
"g+	c #036CBE",
"h+	c #5483B6",
"i+	c #0B6DB8",
"j+	c #058DF5",
"k+	c #0391FD",
"l+	c #0290FD",
"m+	c #0588EF",
"n+	c #0171CD",
"o+	c #1579CE",
"p+	c #39A3F5",
"q+	c #43ACFE",
"r+	c #41ADFE",
"s+	c #39A4F4",
"t+	c #0E72C1",
"u+	c #107BCB",
"v+	c #1881D8",
"w+	c #076FC2",
"x+	c #2186D9",
"y+	c #2B8DE1",
"z+	c #006DC3",
"A+	c #2071B6",
"B+	c #056EBF",
"C+	c #058DF7",
"D+	c #0591FD",
"E+	c #058FFE",
"F+	c #0682E4",
"G+	c #016EC6",
"H+	c #2085D9",
"I+	c #40A9FA",
"J+	c #3EA6F6",
"K+	c #2D91E3",
"L+	c #3AA1F3",
"M+	c #44ADFE",
"N+	c #42ABFC",
"O+	c #1E85DA",
"P+	c #187CD8",
"Q+	c #409DE3",
"R+	c #367FB6",
"S+	c #369DED",
"T+	c #026DC0",
"U+	c #36A1F3",
"V+	c #38A0F3",
"W+	c #006CC1",
"X+	c #046DB9",
"Y+	c #0371CA",
"Z+	c #058EF9",
"`+	c #0491FC",
" @	c #068EF9",
".@	c #037EDD",
"+@	c #036EC5",
"@@	c #2C8EDF",
"#@	c #2588DD",
"$@	c #036FC5",
"%@	c #046FC5",
"&@	c #2B8FE1",
"*@	c #43ABFD",
"=@	c #46AAFE",
"-@	c #1179CF",
";@	c #2590E5",
">@	c #3A80AF",
",@	c #031123",
"'@	c #38A2EE",
")@	c #0773C7",
"!@	c #2F98EA",
"~@	c #3EA9FC",
"{@	c #0470C4",
"]@	c #036EBF",
"^@	c #7B98B5",
"/@	c #7F9ABC",
"(@	c #0373CE",
"_@	c #048FFA",
":@	c #0490FC",
"<@	c #0885EA",
"[@	c #026EC2",
"}@	c #309BED",
"|@	c #40ACFD",
"1@	c #45ABF9",
"2@	c #3EADFE",
"3@	c #117BD1",
"4@	c #298FE2",
"5@	c #2E98EB",
"6@	c #2186DA",
"7@	c #40ADFE",
"8@	c #1D85D7",
"9@	c #177ED5",
"0@	c #439EDC",
"a@	c #347DAF",
"b@	c #359EEC",
"c@	c #35A0F3",
"d@	c #40ABFD",
"e@	c #0873C7",
"f@	c #026CBE",
"g@	c #6693BC",
"h@	c #809CBB",
"i@	c #0474CC",
"j@	c #0477D6",
"k@	c #1D82D2",
"l@	c #41ACFD",
"m@	c #45ABFB",
"n@	c #3FADFF",
"o@	c #157ACD",
"p@	c #2A8FE1",
"q@	c #3EACFE",
"r@	c #3CA8FA",
"s@	c #44ACFC",
"t@	c #38A2F3",
"u@	c #0A70C7",
"v@	c #147CCE",
"w@	c #1E82D4",
"x@	c #0670C4",
"y@	c #2485D7",
"z@	c #3FABFE",
"A@	c #41AAFD",
"B@	c #0873C9",
"C@	c #046CBD",
"D@	c #568DBE",
"E@	c #0377CB",
"F@	c #058FFB",
"G@	c #058BF1",
"H@	c #016DC5",
"I@	c #339DEF",
"J@	c #2589DB",
"K@	c #157DD2",
"L@	c #2086DA",
"M@	c #1278CC",
"N@	c #39A4F6",
"O@	c #258CE1",
"P@	c #1F84DA",
"Q@	c #2F97E9",
"R@	c #41ABFC",
"S@	c #40AAFC",
"T@	c #046FC4",
"U@	c #076BBA",
"V@	c #799BBA",
"W@	c #0670BF",
"X@	c #037CDD",
"Y@	c #157ACE",
"Z@	c #40ABFC",
"`@	c #37A0F2",
" #	c #1076CB",
".#	c #379FF0",
"+#	c #42ABFB",
"@#	c #40ACFE",
"##	c #43ADFE",
"$#	c #3AA3F5",
"%#	c #016CC1",
"&#	c #2771B9",
"*#	c #0780DC",
"=#	c #016DC9",
"-#	c #41ACFF",
";#	c #3BA6F8",
">#	c #41AAFC",
",#	c #42ACFC",
"'#	c #43ADFB",
")#	c #45ACFD",
"!#	c #44ACFB",
"~#	c #2D93E5",
"{#	c #116EB8",
"]#	c #5080B8",
"^#	c #056EC4",
"/#	c #3AA8FB",
"(#	c #44ABFB",
"_#	c #43ADFD",
":#	c #3EA8FA",
"<#	c #45ACFB",
"[#	c #3FABFC",
"}#	c #157ACC",
"|#	c #497EB2",
"1#	c #086CBD",
"2#	c #026CBC",
"3#	c #2D95E9",
"4#	c #42ADFD",
"5#	c #43ACFC",
"6#	c #3DA9FD",
"7#	c #0F77CB",
"8#	c #2187DA",
"9#	c #3BA6F9",
"0#	c #42ACFF",
"a#	c #3099EB",
"b#	c #056DBB",
"c#	c #4B7EB2",
"d#	c #056DBF",
"e#	c #0A71C4",
"f#	c #3AA5F7",
"g#	c #43ABFE",
"h#	c #43ABFF",
"i#	c #41ADFC",
"j#	c #41ABFE",
"k#	c #359EF1",
"l#	c #1278CD",
"m#	c #0871C7",
"n#	c #2288DC",
"o#	c #288FE3",
"p#	c #238BDF",
"q#	c #1B7FD4",
"r#	c #0772C9",
"s#	c #076BB9",
"t#	c #3978B7",
"u#	c #1B6EB9",
"v#	c #147ACE",
"w#	c #3EA7F9",
"x#	c #45ABFC",
"y#	c #42ADFF",
"z#	c #2F95E6",
"A#	c #1980D5",
"B#	c #137BD1",
"C#	c #157BCE",
"D#	c #016EBE",
"E#	c #016DBE",
"F#	c #126FBB",
"G#	c #5F88B4",
"H#	c #0A6CBA",
"I#	c #016DC1",
"J#	c #1378CF",
"K#	c #39A3F6",
"L#	c #45ABFE",
"M#	c #39A6F7",
"N#	c #187ED0",
"O#	c #016CC4",
"P#	c #698FB4",
"Q#	c #6E92BA",
"R#	c #0F6DB1",
"S#	c #046BBE",
"T#	c #0770C7",
"U#	c #2992E1",
"V#	c #2D94E6",
"W#	c #0A71C6",
"X#	c #046BBF",
"Y#	c #056DBD",
"Z#	c #5D88B6",
"`#	c #608EB2",
" $	c #226FB1",
".$	c #036BC0",
"+$	c #006DBD",
"@$	c #0972C4",
"#$	c #2287DB",
"$$	c #3098EA",
"%$	c #34A0F2",
"&$	c #35A2F5",
"*$	c #35A1F2",
"=$	c #2F98EB",
"-$	c #2388DB",
";$	c #0B73C7",
">$	c #176FB5",
",$	c #638BB1",
"'$	c #3978BB",
")$	c #016BC1",
"!$	c #016DBF",
"~$	c #036ABF",
"{$	c #016CBE",
"]$	c #026BC2",
"^$	c #026BC0",
"/$	c #3978B9",
"($	c #2570B8",
"_$	c #036AC1",
":$	c #016DC4",
"<$	c #026DC1",
"[$	c #036DC3",
"}$	c #2D73B7",
"|$	c #5584B1",
"1$	c #026EBE",
"2$	c #016FC1",
"3$	c #058AED",
"4$	c #068BF6",
"5$	c #0488EB",
"6$	c #087FDB",
"7$	c #036BC5",
"8$	c #0372C6",
"9$	c #0786E8",
"0$	c #0B87E9",
"a$	c #006EC7",
"b$	c #056DBA",
"c$	c #5585AD",
"d$	c #276FB6",
"e$	c #056ABD",
"f$	c #027CE0",
"g$	c #058EFC",
"h$	c #0390FD",
"i$	c #048CF5",
"j$	c #0174D2",
"k$	c #016BC2",
"l$	c #0485E9",
"m$	c #0290FE",
"n$	c #047CDC",
"o$	c #2771B7",
"p$	c #076CBC",
"q$	c #016CC2",
"r$	c #068AED",
"s$	c #058EF2",
"t$	c #0172CF",
"u$	c #026ABD",
"v$	c #016DBB",
"w$	c #026BBD",
"x$	c #078BF2",
"y$	c #0886E8",
"z$	c #066DB8",
"A$	c #046CB9",
"B$	c #026DC3",
"C$	c #038DF7",
"D$	c #0787ED",
"E$	c #036BBC",
"F$	c #0378D4",
"G$	c #068BF3",
"H$	c #026CBA",
"I$	c #036DBC",
"J$	c #068BF1",
"K$	c #098EF7",
"L$	c #0274D0",
"M$	c #0473CB",
"N$	c #026CBF",
"O$	c #006CC3",
"P$	c #0682E5",
"Q$	c #0B89ED",
"R$	c #006DBF",
"S$	c #0F6DB6",
"T$	c #0885E7",
"U$	c #0683E5",
"V$	c #097CD8",
"W$	c #016EC8",
"X$	c #0A7DD9",
"Y$	c #106FB9",
"Z$	c #2872B8",
"`$	c #0477D0",
" %	c #0171CB",
".%	c #0373CB",
"+%	c #0982E1",
"@%	c #016CC3",
"#%	c #006CC2",
"$%	c #3A75AF",
"%%	c #2473BC",
"&%	c #016BBE",
"*%	c #0481E5",
"=%	c #068FF9",
"-%	c #0787EC",
";%	c #0379D6",
">%	c #036BBB",
",%	c #066CBC",
"'%	c #6A8EB9",
")%	c #4F83B5",
"!%	c #056BB8",
"~%	c #068CF6",
"{%	c #0A8AEE",
"]%	c #068CF5",
"^%	c #026FC5",
"/%	c #116EBC",
"(%	c #6890B6",
"_%	c #096BBC",
":%	c #0479CF",
"<%	c #016FC0",
"[%	c #046BBC",
"}%	c #036ABE",
"|%	c #016FC9",
"1%	c #0276D5",
"2%	c #016BBF",
"3%	c #026DC2",
"4%	c #0486EA",
"5%	c #4C81B8",
"6%	c #1C71B4",
"7%	c #037FE0",
"8%	c #016DBD",
"9%	c #036ABC",
"0%	c #046ABA",
"a%	c #026BBE",
"b%	c #057AD4",
"c%	c #0D6DB8",
"d%	c #3A77AD",
"e%	c #026DBC",
"f%	c #006CBF",
"g%	c #067CD7",
"h%	c #068EFA",
"i%	c #0684E9",
"j%	c #006EC3",
"k%	c #0170C7",
"l%	c #0271CA",
"m%	c #0270C9",
"n%	c #098CF3",
"o%	c #0272CC",
"p%	c #2372B7",
"q%	c #2E73B9",
"r%	c #0279D3",
"s%	c #0274CB",
"t%	c #046ABF",
"u%	c #006DC5",
"v%	c #048EF9",
"w%	c #087FDD",
"x%	c #0584E7",
"y%	c #0986E9",
"z%	c #026EC0",
"A%	c #036EC0",
"B%	c #4C7DAE",
"C%	c #487BB3",
"D%	c #046CBE",
"E%	c #057BD9",
"F%	c #068FFD",
"G%	c #0291FB",
"H%	c #0276D3",
"I%	c #098EF8",
"J%	c #0786EA",
"K%	c #0F6DB4",
"L%	c #4E81BC",
"M%	c #026DBE",
"N%	c #0A8CF4",
"O%	c #0590FE",
"P%	c #0490F9",
"Q%	c #0277D2",
"R%	c #006EC1",
"S%	c #016CBD",
"T%	c #0679D2",
"U%	c #066ABF",
"V%	c #1B6EBD",
"W%	c #5C8CB3",
"X%	c #5984B0",
"Y%	c #026EC1",
"Z%	c #0484EB",
"`%	c #0291FF",
" &	c #0690FE",
".&	c #068EF3",
"+&	c #016FC6",
"@&	c #006BC2",
"#&	c #1F72B7",
"$&	c #1A6EB7",
"%&	c #0478D4",
"&&	c #068FF5",
"*&	c #048FFD",
"=&	c #098FFA",
"-&	c #078AEB",
";&	c #006BC1",
">&	c #016BC0",
",&	c #236FB2",
"'&	c #3F78B6",
")&	c #056CBA",
"!&	c #016FC4",
"~&	c #048CF2",
"{&	c #0190FE",
"]&	c #0491FE",
"^&	c #0A8EF8",
"/&	c #0481E0",
"(&	c #077DD7",
"_&	c #0575CB",
":&	c #026CC2",
"<&	c #638AB5",
"[&	c #046BBD",
"}&	c #0880DF",
"|&	c #028FFE",
"1&	c #0291FD",
"2&	c #0378D3",
"3&	c #068DF6",
"4&	c #078EF7",
"5&	c #047EDE",
"6&	c #086CBB",
"7&	c #658DB1",
"8&	c #3174B8",
"9&	c #0276D0",
"0&	c #068FF6",
"a&	c #0490FB",
"b&	c #058FF8",
"c&	c #0170C9",
"d&	c #036BBF",
"e&	c #0377D3",
"f&	c #078FF9",
"g&	c #0273CE",
"h&	c #2C76B5",
"i&	c #4C7FB4",
"j&	c #046BC3",
"k&	c #016EC2",
"l&	c #0887ED",
"m&	c #088EFC",
"n&	c #0889EF",
"o&	c #0691FD",
"p&	c #038FFC",
"q&	c #038BEF",
"r&	c #036CC5",
"s&	c #036AC0",
"t&	c #467BAF",
"u&	c #0E6DB9",
"v&	c #0579D2",
"w&	c #078DF3",
"x&	c #0390F9",
"y&	c #0690F8",
"z&	c #0881E2",
"A&	c #0787EB",
"B&	c #078DF8",
"C&	c #088AF0",
"D&	c #0586EC",
"E&	c #0481E1",
"F&	c #0471C3",
"G&	c #056AC1",
"H&	c #076CBB",
"I&	c #628BB4",
"J&	c #3174B4",
"K&	c #016BC3",
"L&	c #016CC5",
"M&	c #016FC7",
"N&	c #0477D2",
"O&	c #047CD9",
"P&	c #0281E4",
"Q&	c #0476D0",
"R&	c #0576CD",
"S&	c #0273CC",
"T&	c #0070CA",
"U&	c #006BC0",
"V&	c #056BBD",
"W&	c #286FB3",
"X&	c #7692A9",
"Y&	c #3C7AB6",
"Z&	c #166CB5",
"`&	c #076AB5",
" *	c #006DBC",
".*	c #006CC0",
"+*	c #056BBE",
"@*	c #066BBB",
"#*	c #086AB9",
"$*	c #2A72B9",
"%*	c #3E79BB",
"&*	c #407BB5",
"**	c #678DB7",
"=*	c #5987AF",
"-*	c #5682B2",
";*	c #7395BF",
">*	c #4179AF",
",*	c #497BB2",
"'*	c #4E82BB",
")*	c #1E6FB4",
"!*	c #0C6DB8",
"~*	c #076CBA",
"{*	c #3076B8",
"]*	c #5181B5",
"^*	c #467DB2",
"/*	c #6E91BB",
"                                                      ",
"                        . + @                         ",
"              #         $ % & *       =               ",
"              - ;     > , ' ) !     ~ {               ",
"            ] ^ /     ( _ : < [     } |               ",
"          1 2 3 4 5   6 7 8 9 0   a b c               ",
"    d     e f g h i j k l m n o p q r s               ",
"    t u   v w x y z A B C D E F ' G H I               ",
"    J K L M N O P Q R S T U V W X Y Z                 ",
"    `  ...+.@.#.$.%.&.T #.*.=.-.;.>.,.'.              ",
"  ).!.~.{.].^./.(._.:.<.[.}.|.1.2.3.4.5.6.            ",
"  7.+.8.9.0.a.:.<.b.c.(._.d.e.9 f.g.h.i.j.k.l.        ",
"  m.n.o.Y p.q.:.:.b.#.r.s.t.u.v.w.x.y.z.A.8 B.        ",
"  C.D.E.:.F.G.H.<.I.I.J.K.L.M.N.O.P.P.Q.R.S.T.U.      ",
"  V.W.X.Y.Z.b.`.b.:. +.+++@+#+$+P.P.P.%+&+*+=+-+;+    ",
"  >+,+H.'+I.)+Y.#.!+~+{+]+^+/+P.P.(+y._+:+<+[+}+|+    ",
"  1+2+_.'+r.#.J.3+4+5+6+Q.7+8+9+(+0+a+b+c+d+e+f+g+h+  ",
"  i+j+:.)+k+l+m+n+o+p+P.8+q+$+r+s+t+u+v+w+x+O.y+z+A+  ",
"  B+C+D+E+p.F+G+H+I+J+K+L+Q.M+N+O+P+Q+R+S+T+U+V+W+X+  ",
"  Y+Z+`+ @.@+@@@_+O.#@$@%@&@*@=@-@;@>@,@'@)@!@~@{@]@^@",
"/@(@_@:@<@[@}@|@1@2@3@4@5@6@*@7@8@9@0@a@b@f c@d@e@f@g@",
"h@i@_@T j@k@l@m@Q.n@o@p@q@r@(+s@t@u@v@w@x@y@z@A@B@C@D@",
"  E@F@G@H@I@P.s@q+(+J@K@L@M@_+%+l@N@O@P@Q@R@q+S@T@U@V@",
"  W@C+X@Y@Z@P.P.P.P.`@+@ #.#+#8+P.Q.r+@#O.q+##$#%#C@  ",
"  &#*#=#Q@m@P.P.P.P.-#;#>#,#'#%+8+)#!#!#)#P.x.~#%#{#  ",
"  ]#' ^#/#(#P.P.P.P.Q.q+P._#l@:#O.P.s@<#s@Q.[#}#f@|#  ",
"    1#2#3#r+P.P.P.P.4#5#7+(+6#7#8#9#/+0#0#-#a#f@b#    ",
"    c#d#e#f#O.g#h#i#4#q+q+q+j#k#l#m#n#o#p#q#r#s#t#    ",
"      u#}+v#w#%+x#m@q+y#y#y#0#Q.e+z#A#B#C#D#E#F#      ",
"      G#H#I#J#K#i#g#L#$+7+7+7+%+q+O.n@M#N#O#-+P#      ",
"        Q#R#S#T#U#r@_+5#s@s@%+Q.0#~@V#W#X#Y#Z#        ",
"          `# $.$+$@$#$$$%$&$*$=$-$;$T.f@>$,$          ",
"              '$)$!$' ~$~$f 3.{$}+]$^$/$              ",
"              ($_$:$H@)$^$~$T.I#<$[$8 }$              ",
"            |$1$2$3$4$5$6$7$8$9$e.0$a$b$c$            ",
"            d$e$f$g$h$i$j$k$W+l$m$h$n$5.o$            ",
"            p$q$r$#.s$t$u$v$w$$@x$l+y$%#z$            ",
"            A$B$C$h$D$:$E$T+3.{$F$s.G$A H$            ",
"            I$O#J$F@K$L$}+I#M$N$O$P$Q$q$R$            ",
"            S$q$T$m$X.U$%#5.V$G+3.W$X$)$Y$            ",
"            Z$%#`$:@%.@. %{$.%+%@%N$#%i.$%            ",
"            %%k$&%*%=%|.~+w$%#-%;%>%T.,%'%            ",
"          )%!%k$.$N$X@~%{%A 3.F$]%^%5./%              ",
"        (%_%S#:%<%[%}%|%1%:$2%3%x$4%T+C@5%            ",
"        6%@%L$S 7%8%' N$9%0%a%E$>.l+b%5.c%            ",
"      d%e%f%g%h%i%T.j%k%l%m%n.3.k%_@n%o%[%p%          ",
"        q%^ 5.r%s%t%u%0$=%v%w%q$}+x%l+y%z%A%B%        ",
"          C%D%g+}%)$E%F%*.G%E %#a%H%I%J%A ) K%        ",
"            L%M%E$ %N%O%}.P%Q%R%S%z+T%8 U%V%W%        ",
"            X%Y%T.Z%`% &`%.&+&a%w$%#@&3.#&            ",
"            $&!$%&&&*&=&m$-&8 }%)$#%;&>&,&            ",
"          '&)&!&~&{&]&^&m$/&2%&%(&z+_&<$:&5%          ",
"        <&[&^$}&|&E+<.G.1&2&^$+&3&U$4&5&^$6&7&        ",
"        8&N$9&0&a&*.X.Z.b&c&d&e&T f&m$E.g&d&h&        ",
"      i&j&k&l&m$(.m&X.{&n&q$a% .h$o&:.p&q&r&s&t&      ",
"      u&q$v&w&x&P%:@y&l+z&O$5.A&Z+B&C&D&E&F&G&H&I&    ",
"    J&:&2#K&L&M&o%N&O&P&Q&k$W+R&S&T&W+U&_$8%V&2 W&    ",
"  X&Y&Z&`& *^ ' g+}+f@E$N$.*' a%3.+*@*#*$*%*&***=*    ",
"            -*;*>*,*'*)*!*~*{*]*^*/*                  ",
"                                                      "};
