/* XPM */
static char * boywalk2reverse_xpm[] = {
"39 60 850 2",
"  	c #000001",
". 	c #4278A4",
"+ 	c #4E88C9",
"@ 	c #2C73B5",
"# 	c #5684B0",
"$ 	c #3A73A4",
"% 	c #3A79B8",
"& 	c #5B83A9",
"* 	c #2C6FAA",
"= 	c #036CC2",
"- 	c #036CC1",
"; 	c #3073B1",
"> 	c #086DB5",
", 	c #026BC1",
"' 	c #1C6FB4",
") 	c #286BA6",
"! 	c #036BBD",
"~ 	c #0570BE",
"{ 	c #3E78B7",
"] 	c #026DC2",
"^ 	c #016DBF",
"/ 	c #036CBE",
"( 	c #487BA1",
"_ 	c #336FA9",
": 	c #016CC1",
"< 	c #026BC0",
"[ 	c #0170BF",
"} 	c #407BB5",
"| 	c #1070C0",
"1 	c #0678D2",
"2 	c #026BBF",
"3 	c #026DBF",
"4 	c #5685B2",
"5 	c #3B77AA",
"6 	c #5D8AB5",
"7 	c #4479B1",
"8 	c #0374CB",
"9 	c #0677D0",
"0 	c #1671BE",
"a 	c #487FB6",
"b 	c #057CD6",
"c 	c #067DD9",
"d 	c #036BC1",
"e 	c #0778CF",
"f 	c #3373B2",
"g 	c #5883AD",
"h 	c #0A6DB9",
"i 	c #4983C0",
"j 	c #6F91B5",
"k 	c #4A7DB6",
"l 	c #087FDB",
"m 	c #006DC1",
"n 	c #0879D6",
"o 	c #0479D5",
"p 	c #2575BD",
"q 	c #126FC0",
"r 	c #068BEF",
"s 	c #057DDE",
"t 	c #016EC3",
"u 	c #0C83E7",
"v 	c #1E6FBC",
"w 	c #1C6FB6",
"x 	c #026FC7",
"y 	c #066BBF",
"z 	c #116AB1",
"A 	c #4B7DB4",
"B 	c #0885E3",
"C 	c #0274CE",
"D 	c #027AD8",
"E 	c #0588EF",
"F 	c #036BC0",
"G 	c #0477D2",
"H 	c #058FFC",
"I 	c #0381E4",
"J 	c #0171CC",
"K 	c #088DF6",
"L 	c #0170C9",
"M 	c #046CC0",
"N 	c #087CD6",
"O 	c #0272C9",
"P 	c #006CC0",
"Q 	c #096CB6",
"R 	c #407AB6",
"S 	c #0586ED",
"T 	c #038BF4",
"U 	c #0A8CF2",
"V 	c #098DF6",
"W 	c #0374CF",
"X 	c #0786EA",
"Y 	c #0290FE",
"Z 	c #058FFA",
"` 	c #0A8CF4",
" .	c #038FFD",
"..	c #0378D6",
"+.	c #0373CD",
"@.	c #078DF4",
"#.	c #0171C7",
"$.	c #016DC4",
"%.	c #0A6DBA",
"&.	c #5786B2",
"*.	c #0D6DBC",
"=.	c #0372D1",
"-.	c #098BEF",
";.	c #078FFA",
">.	c #0388F1",
",.	c #078EF8",
"'.	c #0590FD",
").	c #0491FE",
"!.	c #0590FC",
"~.	c #0490FD",
"{.	c #0683E6",
"].	c #0688EF",
"^.	c #038FF9",
"/.	c #036DBF",
"(.	c #0478D2",
"_.	c #0574CB",
":.	c #3872AC",
"<.	c #4A78A5",
"[.	c #3676B4",
"}.	c #076DBB",
"|.	c #006EC0",
"1.	c #046ABD",
"2.	c #0370C8",
"3.	c #0786EB",
"4.	c #0390FC",
"5.	c #028FFD",
"6.	c #058FFB",
"7.	c #078FFB",
"8.	c #068FFB",
"9.	c #058EF9",
"0.	c #048FFD",
"a.	c #048EF8",
"b.	c #037BD8",
"c.	c #0687EB",
"d.	c #0379D7",
"e.	c #5C87B9",
"f.	c #1B70B8",
"g.	c #2D72AD",
"h.	c #1A6DB4",
"i.	c #036DBE",
"j.	c #036ABE",
"k.	c #167CCD",
"l.	c #309AEE",
"m.	c #2083D8",
"n.	c #006EC7",
"o.	c #047CDB",
"p.	c #068BF2",
"q.	c #0490FE",
"r.	c #0690FD",
"s.	c #0690FB",
"t.	c #0190FF",
"u.	c #0690FA",
"v.	c #0290FD",
"w.	c #048FFB",
"x.	c #057AD8",
"y.	c #3B7EBE",
"z.	c #156CB8",
"A.	c #086DBA",
"B.	c #6692B9",
"C.	c #186EB5",
"D.	c #016CC0",
"E.	c #046EC1",
"F.	c #2C92E2",
"G.	c #40ABFC",
"H.	c #41ABFD",
"I.	c #42AAFD",
"J.	c #2F94E7",
"K.	c #0E76CC",
"L.	c #006EC6",
"M.	c #067BD6",
"N.	c #058BF3",
"O.	c #0490FB",
"P.	c #078FFD",
"Q.	c #068FFE",
"R.	c #068FF9",
"S.	c #057FDF",
"T.	c #036CBF",
"U.	c #067CD8",
"V.	c #0871C7",
"W.	c #2E74B7",
"X.	c #036DBD",
"Y.	c #036FC5",
"Z.	c #309AEC",
"`.	c #40ADFF",
" +	c #41ACFE",
".+	c #42ACFD",
"++	c #43ACFE",
"@+	c #42ACFE",
"#+	c #3FA9FC",
"$+	c #3097E9",
"%+	c #1276C9",
"&+	c #0271C6",
"*+	c #058BF0",
"=+	c #0191FE",
"-+	c #088FFB",
";+	c #078FFE",
">+	c #078FFC",
",+	c #0590FE",
"'+	c #0590FA",
")+	c #0582E6",
"!+	c #047AD6",
"~+	c #0B8DEF",
"{+	c #0770C6",
"]+	c #4B7FB3",
"^+	c #046BBD",
"/+	c #016DC2",
"(+	c #3096E8",
"_+	c #43ABFD",
":+	c #45ACFD",
"<+	c #45ACFC",
"[+	c #42ADFD",
"}+	c #43ACFD",
"|+	c #42ABFD",
"1+	c #41A7F9",
"2+	c #1D7ED0",
"3+	c #0071CE",
"4+	c #0788ED",
"5+	c #0490FF",
"6+	c #068AF3",
"7+	c #058DF4",
"8+	c #068FF4",
"9+	c #0E6EC2",
"0+	c #126EB7",
"a+	c #046BBA",
"b+	c #2085D7",
"c+	c #42ACFC",
"d+	c #43ADFD",
"e+	c #44ABFD",
"f+	c #44ACFE",
"g+	c #3EA9FC",
"h+	c #1C80D5",
"i+	c #016FC8",
"j+	c #0885EA",
"k+	c #0790FB",
"l+	c #038CF3",
"m+	c #146CBD",
"n+	c #4E81AF",
"o+	c #026DC1",
"p+	c #056FC0",
"q+	c #38A4F7",
"r+	c #40ACFF",
"s+	c #37A1F2",
"t+	c #278EE1",
"u+	c #36A1F2",
"v+	c #40ACFD",
"w+	c #41ADFE",
"x+	c #3DAAFB",
"y+	c #1E84D5",
"z+	c #0070C8",
"A+	c #0886EA",
"B+	c #0691FE",
"C+	c #0389F0",
"D+	c #146BB7",
"E+	c #2272B0",
"F+	c #046BBF",
"G+	c #1E83D6",
"H+	c #40ADFE",
"I+	c #2F98E9",
"J+	c #036DC0",
"K+	c #1479CC",
"L+	c #127ACD",
"M+	c #026EC1",
"N+	c #2C94E6",
"O+	c #43ABFC",
"P+	c #44ADFD",
"Q+	c #42ADFE",
"R+	c #40A9FB",
"S+	c #2184D7",
"T+	c #0986EB",
"U+	c #058FFD",
"V+	c #068FFC",
"W+	c #0287F0",
"X+	c #1B6EB5",
"Y+	c #0C6CB7",
"Z+	c #026AC2",
"`+	c #2F98EC",
" @	c #3EA8FC",
".@	c #0972C3",
"+@	c #268DDE",
"@@	c #4092D2",
"#@	c #3C98D1",
"$@	c #2A8FE2",
"%@	c #0570C7",
"&@	c #3CA8FB",
"*@	c #349DEF",
"=@	c #339AED",
"-@	c #41AAFC",
";@	c #2588DA",
">@	c #006FC8",
",@	c #0984E5",
"'@	c #058EFB",
")@	c #0290FF",
"!@	c #0384E7",
"~@	c #4781B8",
"{@	c #056CBA",
"]@	c #016CC2",
"^@	c #36A4F5",
"/@	c #3BA1F5",
"(@	c #32A4F1",
"_@	c #234F73",
":@	c #24526B",
"<@	c #3EA3EE",
"[@	c #016EC5",
"}@	c #349FF1",
"|@	c #3DA6F8",
"1@	c #1D80D3",
"2@	c #026CC1",
"3@	c #036DC3",
"4@	c #39A1F4",
"5@	c #42AAFB",
"6@	c #278AD9",
"7@	c #026EC2",
"8@	c #0484EA",
"9@	c #0390FF",
"0@	c #058EFD",
"a@	c #0681DF",
"b@	c #5282B2",
"c@	c #4B85B1",
"d@	c #046DBE",
"e@	c #036FC2",
"f@	c #37AAF8",
"g@	c #3EA5F8",
"h@	c #056EC5",
"i@	c #3196E8",
"j@	c #3C81B4",
"k@	c #3786B8",
"l@	c #2E98ED",
"m@	c #026DC4",
"n@	c #3BA5F7",
"o@	c #42ABFE",
"p@	c #369BED",
"q@	c #187BCF",
"r@	c #359EF0",
"s@	c #0B73C8",
"t@	c #2D94E8",
"u@	c #44ABFB",
"v@	c #288ADB",
"w@	c #0070CA",
"x@	c #078BF3",
"y@	c #0390FD",
"z@	c #057CD9",
"A@	c #326FA8",
"B@	c #387DB3",
"C@	c #056FC5",
"D@	c #38AAFB",
"E@	c #44AAFE",
"F@	c #2889DD",
"G@	c #0570C3",
"H@	c #2589DC",
"I@	c #2588DD",
"J@	c #066FC2",
"K@	c #2588DB",
"L@	c #3FABFD",
"M@	c #0D74C9",
"N@	c #2C92E6",
"O@	c #43ADFF",
"P@	c #3DA9FA",
"Q@	c #0B72C4",
"R@	c #057FDD",
"S@	c #0292FE",
"T@	c #0491FC",
"U@	c #057AD6",
"V@	c #447DB5",
"W@	c #6192BA",
"X@	c #086ABA",
"Y@	c #016EC2",
"Z@	c #3BA5F9",
"`@	c #41AAFD",
" #	c #2F93E6",
".#	c #1A7DD1",
"+#	c #187DD2",
"@#	c #2E93E5",
"##	c #41A9FC",
"$#	c #43ADFB",
"%#	c #42ADFB",
"&#	c #329BEE",
"*#	c #137AD3",
"=#	c #036EC4",
"-#	c #339CEE",
";#	c #44ACFB",
">#	c #44ACFD",
",#	c #3FADFE",
"'#	c #2A8DDE",
")#	c #0270CC",
"!#	c #078EF6",
"~#	c #048FFC",
"{#	c #0278D1",
"]#	c #6C92BB",
"^#	c #086CC1",
"/#	c #006CBD",
"(#	c #389DF0",
"_#	c #44ADFB",
":#	c #3EA9F9",
"<#	c #1D81D6",
"[#	c #016CC3",
"}#	c #0E75C9",
"|#	c #43ADFE",
"1#	c #41ADFD",
"2#	c #3EA5F6",
"3#	c #056FC7",
"4#	c #0583E4",
"5#	c #078DF7",
"6#	c #0472C3",
"7#	c #126DBF",
"8#	c #006DC0",
"9#	c #2A8EE0",
"0#	c #3FACFE",
"a#	c #43ACFC",
"b#	c #41ABFE",
"c#	c #349DF0",
"d#	c #3AA4F6",
"e#	c #42ACFF",
"f#	c #43ADFC",
"g#	c #2486D9",
"h#	c #0276CE",
"i#	c #0782E2",
"j#	c #196FB2",
"k#	c #4378B4",
"l#	c #006DBF",
"m#	c #1177CB",
"n#	c #3CABFD",
"o#	c #44ACFC",
"p#	c #44ADFE",
"q#	c #44ACFA",
"r#	c #38A1F4",
"s#	c #016DC0",
"t#	c #026EC4",
"u#	c #457BB0",
"v#	c #5C85B2",
"w#	c #036DBA",
"x#	c #026BBE",
"y#	c #2E97EA",
"z#	c #41ACFD",
"A#	c #37A1F3",
"B#	c #187ED3",
"C#	c #45ABFE",
"D#	c #45ADFA",
"E#	c #2D94E5",
"F#	c #026CBF",
"G#	c #046CBC",
"H#	c #2C73B2",
"I#	c #026DBC",
"J#	c #0B72C9",
"K#	c #268FE3",
"L#	c #3296EA",
"M#	c #319DF1",
"N#	c #2E9CF0",
"O#	c #2186DB",
"P#	c #036FC6",
"Q#	c #1B80D4",
"R#	c #3BA6F8",
"S#	c #45ABFA",
"T#	c #3BA4F7",
"U#	c #0B71C3",
"V#	c #026CC2",
"W#	c #3977B4",
"X#	c #0A6DBC",
"Y#	c #056ABE",
"Z#	c #056BBC",
"`#	c #0271C3",
" $	c #056BC1",
".$	c #167DCD",
"+$	c #3199EA",
"@$	c #40ABFD",
"#$	c #44ABFC",
"$$	c #41A6FA",
"%$	c #157CCC",
"&$	c #116DB5",
"*$	c #457EB3",
"=$	c #056DB9",
"-$	c #006DC5",
";$	c #147CD4",
">$	c #38A4F6",
",$	c #3DA9FB",
"'$	c #3EABFE",
")$	c #45ACFB",
"!$	c #3CA5F9",
"~$	c #187DCF",
"{$	c #066DBC",
"]$	c #5585B1",
"^$	c #3C77A9",
"/$	c #066CB9",
"($	c #056BC0",
"_$	c #1074C3",
":$	c #3399E8",
"<$	c #45ABFC",
"[$	c #0E72C4",
"}$	c #066CBD",
"|$	c #3B7BAD",
"1$	c #4177A9",
"2$	c #0D6DB8",
"3$	c #006CC5",
"4$	c #036BBF",
"5$	c #127CCF",
"6$	c #2D95E7",
"7$	c #38A3F6",
"8$	c #41ABFC",
"9$	c #42ABFC",
"0$	c #3EA9FB",
"a$	c #39A2F3",
"b$	c #2D93E4",
"c$	c #1479CE",
"d$	c #006CC2",
"e$	c #036CC0",
"f$	c #0E6CB6",
"g$	c #5886B3",
"h$	c #2670B7",
"i$	c #076ABB",
"j$	c #016CBF",
"k$	c #0672C9",
"l$	c #1077CD",
"m$	c #0E77CC",
"n$	c #0573C8",
"o$	c #016BC0",
"p$	c #006BC0",
"q$	c #036CBD",
"r$	c #2770B5",
"s$	c #4E85B7",
"t$	c #036CBB",
"u$	c #026CBC",
"v$	c #026BBD",
"w$	c #046BBC",
"x$	c #036ABD",
"y$	c #016BBE",
"z$	c #056BBF",
"A$	c #497FB6",
"B$	c #116EB8",
"C$	c #006EC1",
"D$	c #0474CF",
"E$	c #0884E5",
"F$	c #057DDD",
"G$	c #0377D4",
"H$	c #016CBC",
"I$	c #0373CA",
"J$	c #0B83E2",
"K$	c #0378D3",
"L$	c #076EBB",
"M$	c #4B80AD",
"N$	c #076AB8",
"O$	c #046CC3",
"P$	c #0689F2",
"Q$	c #058EFA",
"R$	c #0C8DF2",
"S$	c #0372CE",
"T$	c #006DC3",
"U$	c #047BD6",
"V$	c #0E88E5",
"W$	c #026FC4",
"X$	c #056BBA",
"Y$	c #477CAF",
"Z$	c #1E72AF",
"`$	c #0277DD",
" %	c #0491F8",
".%	c #0784E6",
"+%	c #046ABF",
"@%	c #026FC9",
"#%	c #0472C7",
"$%	c #1E6CB1",
"%%	c #196FB3",
"&%	c #006CC3",
"*%	c #057FE6",
"=%	c #0690F9",
"-%	c #0278D6",
";%	c #036BBC",
">%	c #016BBF",
",%	c #0470C3",
"'%	c #046BBE",
")%	c #0D6CB9",
"!%	c #186FB5",
"~%	c #0781E4",
"{%	c #0192FF",
"]%	c #0591FD",
"^%	c #068AF1",
"/%	c #0172CE",
"(%	c #0777D1",
"_%	c #097CD6",
":%	c #026BBB",
"<%	c #046CBB",
"[%	c #116EB9",
"}%	c #0391FD",
"|%	c #0490FC",
"1%	c #078FF9",
"2%	c #058AF2",
"3%	c #016BBD",
"4%	c #057AD5",
"5%	c #0A86E7",
"6%	c #1D6FB4",
"7%	c #5484AD",
"8%	c #4E80B1",
"9%	c #146EBA",
"0%	c #016DC6",
"a%	c #0272CB",
"b%	c #068DF7",
"c%	c #0790FA",
"d%	c #0888EB",
"e%	c #016FC5",
"f%	c #067BD5",
"g%	c #088CF3",
"h%	c #037CDC",
"i%	c #086EBC",
"j%	c #3D78B1",
"k%	c #3877B1",
"l%	c #056DBD",
"m%	c #057EDF",
"n%	c #0790FC",
"o%	c #0789EE",
"p%	c #016FC6",
"q%	c #057DDB",
"r%	c #058FF7",
"s%	c #0587EC",
"t%	c #0172D1",
"u%	c #066BBE",
"v%	c #2571B6",
"w%	c #5181B1",
"x%	c #176FB7",
"y%	c #026CBE",
"z%	c #0375D1",
"A%	c #0B84E5",
"B%	c #016FC7",
"C%	c #0681E0",
"D%	c #078EF9",
"E%	c #0390FE",
"F%	c #0390FB",
"G%	c #0B87E7",
"H%	c #016DC3",
"I%	c #016BC1",
"J%	c #067DDD",
"K%	c #0490F9",
"L%	c #067ADA",
"M%	c #0B6EB5",
"N%	c #467BAA",
"O%	c #3E77B1",
"P%	c #016DC1",
"Q%	c #087FDE",
"R%	c #088EF6",
"S%	c #078DF6",
"T%	c #0573CB",
"U%	c #056ABB",
"V%	c #006DC4",
"W%	c #0275CE",
"X%	c #0582E2",
"Y%	c #0688ED",
"Z%	c #0589EE",
"`%	c #0683E5",
" &	c #0376D1",
".&	c #006BC2",
"+&	c #057FDB",
"@&	c #0686E7",
"#&	c #026DC3",
"$&	c #016BC2",
"%&	c #0A6FBB",
"&&	c #5C83A8",
"*&	c #056DBE",
"=&	c #0271C8",
"-&	c #0888EF",
";&	c #058FF9",
">&	c #0279D9",
",&	c #006CC1",
"'&	c #0181E4",
")&	c #0490FA",
"!&	c #0884E3",
"~&	c #066DBA",
"{&	c #4A7DAD",
"]&	c #3C77B2",
"^&	c #036DC1",
"/&	c #0489F2",
"(&	c #068EF8",
"_&	c #037AD9",
":&	c #036BBE",
"<&	c #056EC4",
"[&	c #026CC3",
"}&	c #016BC3",
"|&	c #056ABD",
"1&	c #026CC0",
"2&	c #016CBE",
"3&	c #0569BE",
"4&	c #016DC5",
"5&	c #087ED8",
"6&	c #036FC7",
"7&	c #2B75B6",
"8&	c #146DB7",
"9&	c #0375D0",
"0&	c #047DDB",
"a&	c #078EF7",
"b&	c #058BF4",
"c&	c #0585E8",
"d&	c #097BD4",
"e&	c #006CC7",
"f&	c #0A82DE",
"g&	c #0278D3",
"h&	c #0469C2",
"i&	c #086DB6",
"j&	c #5182AF",
"k&	c #0272CC",
"l&	c #0887EA",
"m&	c #0391FC",
"n&	c #048FF8",
"o&	c #0475D0",
"p&	c #077DDB",
"q&	c #028FFC",
"r&	c #0685E8",
"s&	c #0273CB",
"t&	c #026BC3",
"u&	c #0369BE",
"v&	c #407DB9",
"w&	c #047AD7",
"x&	c #0A8CF1",
"y&	c #0291FF",
"z&	c #0180E5",
"A&	c #0474CD",
"B&	c #0490F6",
"C&	c #0291FC",
"D&	c #058DF8",
"E&	c #067FDD",
"F&	c #186EB8",
"G&	c #3374B2",
"H&	c #016FCA",
"I&	c #0684E9",
"J&	c #088FF8",
"K&	c #0391FE",
"L&	c #0786E9",
"M&	c #068AF2",
"N&	c #0490F8",
"O&	c #068CEF",
"P&	c #0279D6",
"Q&	c #016CC4",
"R&	c #056DBB",
"S&	c #3977B2",
"T&	c #4E81B0",
"U&	c #0F6DB6",
"V&	c #068BF5",
"W&	c #0491FF",
"X&	c #0590FB",
"Y&	c #098BF3",
"Z&	c #0172CD",
"`&	c #126DBB",
" *	c #0C70C1",
".*	c #0271CE",
"+*	c #0A8CEF",
"@*	c #088FFC",
"#*	c #098FF8",
"$*	c #0191FF",
"%*	c #0886E9",
"&*	c #0174D1",
"**	c #116BB8",
"=*	c #467BB0",
"-*	c #3875B1",
";*	c #036DBB",
">*	c #016BBC",
",*	c #026EC7",
"'*	c #0882E0",
")*	c #068FF6",
"!*	c #0690FC",
"~*	c #0576D2",
"{*	c #026CBD",
"]*	c #0C6EC0",
"^*	c #5C88AD",
"/*	c #4880B6",
"(*	c #076DBC",
"_*	c #0277D5",
":*	c #078DF9",
"<*	c #0291FD",
"[*	c #068FFF",
"}*	c #068EF7",
"|*	c #0480E5",
"1*	c #026EBC",
"2*	c #2370B6",
"3*	c #5C85AE",
"4*	c #5585AB",
"5*	c #1E6FB6",
"6*	c #046BC0",
"7*	c #0476D1",
"8*	c #058BF1",
"9*	c #0390FA",
"0*	c #0590FF",
"a*	c #0280E1",
"b*	c #036EBB",
"c*	c #447CAD",
"d*	c #4D80B1",
"e*	c #057BDA",
"f*	c #068EFA",
"g*	c #038FFC",
"h*	c #077FDE",
"i*	c #056EBC",
"j*	c #2A71AD",
"k*	c #407BA7",
"l*	c #016CC5",
"m*	c #0273CA",
"n*	c #0386ED",
"o*	c #0192FE",
"p*	c #0890F8",
"q*	c #0587EE",
"r*	c #026CC5",
"s*	c #2E74AF",
"t*	c #3174AB",
"u*	c #0381E2",
"v*	c #0190FE",
"w*	c #0675CD",
"x*	c #0E6CB4",
"y*	c #487EAF",
"z*	c #3675AF",
"A*	c #076DB8",
"B*	c #0474D2",
"C*	c #0688EE",
"D*	c #068EF6",
"E*	c #0172CC",
"F*	c #046BC1",
"G*	c #166CB6",
"H*	c #3776B6",
"I*	c #0584E6",
"J*	c #098EF5",
"K*	c #0481E2",
"L*	c #3376B8",
"M*	c #5A87B3",
"N*	c #246EB1",
"O*	c #066CBC",
"P*	c #098AED",
"Q*	c #0379D6",
"R*	c #0A6BB7",
"S*	c #5D87AF",
"T*	c #1970B1",
"U*	c #036BC2",
"V*	c #0275D2",
"W*	c #156EBA",
"X*	c #497DB4",
"Y*	c #5382B1",
"Z*	c #1C70B7",
"`*	c #036ABF",
" =	c #016EC4",
".=	c #0576CF",
"+=	c #056CB8",
"@=	c #4680B1",
"#=	c #1E6FB4",
"$=	c #026EC6",
"%=	c #026DC0",
"&=	c #046CBD",
"*=	c #3474AF",
"==	c #487EB2",
"-=	c #156EB7",
";=	c #3076B5",
">=	c #4F82A6",
",=	c #096DB9",
"'=	c #156FB4",
")=	c #5482B2",
"!=	c #3C78B3",
"~=	c #0A6CB9",
"{=	c #1E6CBA",
"]=	c #5884B2",
"^=	c #3675B1",
"/=	c #6386A3",
"                                                                              ",
"                          . + @ #         $ % &                               ",
"                          * = - ;         > , '                               ",
"                          ) ! , ~       { ] ^ /         (                     ",
"                          _ : < [ }     | 1 2 3 4     5 6                     ",
"                          7 8 < 9 0   a b c d e f   g h i j                   ",
"                          k l m n o p q r s t u v   w x y z                   ",
"                          A B C D E F G H I J K L M N O P Q                   ",
"                          R S T U V W X Y Z `  ...+.@.#.$.%.                  ",
"                        &.*.=.-.;.Y >.,.'.).!.~.{.].^./.(._.:.    <.          ",
"                      [.}.|.1.2.3.4.5.6.7.~.H 8.9.0.a.b.c.d.e.  f.g.          ",
"                    h.i.j.k.l.m.n.o.p.Z '.q.r.s.t.s.u.v.w.x.y.z.A.B.          ",
"                  C.D.E.F.G.H.I.J.K.L.M.N.O.!.P.Q.Q.P.q.R.S.T.U.V.            ",
"                W.X.Y.Z.`. +.+++@+#+$+%+&+*+=+!.-+;+>+,+'+)+!+~+{+            ",
"              ]+^+/+(+ +_+:+<+[+}+|+_+1+2+3+4+7.5+,+7.q.'.6+7+8+9+            ",
"              0+a+b+c+.+++d+}+[+}+}+e+f+g+h+i+j+ .'.k+'.).>+4.l+m+            ",
"            n+o+p+q+r+s+t+t+u+v+}+}+}+}+w+x+y+z+A+Z 8.B+q.!.q.C+D+            ",
"            E+F+G+H+I+J+K+L+M+N+v+O+<+P+Q+.+R+S+L.T+U+'.V+!.O.W+X+            ",
"            Y+Z+`+ @.@+@@@#@$@%@&@ +}+G.*@=@@+-@;@>@,@'@)@7.U+!@~@            ",
"            {@]@^@/@] (@_@:@<@[@}@ +|@1@2@3@4@@+5@6@7@8@9@7.0@a@b@            ",
"          c@d@e@f@g@h@i@j@k@l@m@n@o@p@q@r@s@t@@+u@5@v@w@x@y@'.z@A@            ",
"          B@F+C@D@E@F@G@H@I@J@K@|+++ +L@v+M@N@O@}+@+P@Q@R@S@T@U@V@            ",
"          W@X@Y@Z@O+`@ #.#+#@###$#%#&#*#l@=#-#@+;#>#,#'#)#!#~#{#]#            ",
"            ^#/#(#>#++|+@+@+@+e+_#$#:#<#[#}#g+|#>#>#1#2#3#4#5#6#              ",
"            7#8#9#0#}+}+}+}+>#>#a#d+@+b#c#d#e#}+}+++f#_+g#h#i#j#              ",
"            k#l#m#n#@+}+}+;#o#Q+ + +d+p#Q+++}+>#e+++q# +r#s#t#u#              ",
"            v#w#x#y#0#|#[+.+z#A#B#&#Q+o#f#}+}+e+C#>#D# +E#F#G#                ",
"              H#I#J#K#L#M#N#O#P#Q#R#@+|#[+[+[+}+}+S#u@T#U#V#W#                ",
"                X#Y#Z#`#=  $.$+$@$z#++}+$#$#f#f#f##$$$%$< &$                  ",
"                *$=$-$;$>$,$'$e#++}+}+a#)$<+}+++++!$~$2 {$]$                  ",
"                  ^$/$($_$:$'$ +Q+++}+<$>#.+ +L@$+[$2@}$|$                    ",
"                    1$2$3$4$5$6$7$g+8$9$0$a$b$c$d$e$f$g$                      ",
"                        h$i$[#j$d$k$l$m$n$o$V#p$q$r$                          ",
"                        s$t$u$o$: D.v$w$x$y$[#[#z$A$                          ",
"                        B$C$D$E$F$G$x v$H$I$J$K$/+L$                          ",
"                      M$N$O$P$~#Q$R$S$: P T$U$V$W$X$Y$                        ",
"                      Z$- `$ %q.H .%[#! +%+%3$@%#%: $%                        ",
"                      %%&%*%=%!.v.-%;%>%,%2.d$: x#'%)%                        ",
"                      !%j$~%{%]%w.^%/%j$D.(%_%/+d$:%<%                        ",
"                      [%8#z@}%|%1%v.2%L 3%j$4%5%/%[#F#6%7%                    ",
"                  8%9%0%u$a%b%|%c%y@~#d%e%&%]@f%g%h%'%G#i%j%                  ",
"                k%l%2 +%! &%m%R.!.n%!.~#o%p%;%T$q%r%s%t%+%u%v%                ",
"            w%x%s#y%z%A%B%v$/+C%D%t.E%0.F%G%H%x#I%J%K%,.L%]@2@M%N%            ",
"          O%d@P%[@Q%R%S%T%U%V%s#W%X%Y%Z%`% &d$>%.&]@+&w.~.@&#&$&%&            ",
"        &&*&/+=&-&~.;&>&D.1.< D.2 x#o$,&: D.y$y$y$v$4$'&)&!&$&~&{&            ",
"          ]&^&M /&(&_&:&x#p$! <&[&}&.&>%|&1&: D.2&< 3&4&5&6&q$7&              ",
"            8&/ 9&U@o$x#3%T$0&a&b&c&d&j$I%e&f&g&&%o$h&:&2&,&i&                ",
"            j&J+U%/+x#>%k&l&,.m&U+n&o&: d$p&Z q&r&s&t&u&j.j$v&                ",
"              )%, 2 ]@w&x&H y&=%1%z&-$'%A&B&Y ;+C&D&E&7@/ >%F&4               ",
"            G&j$:&H&I&J&E%q.K&!.L&^+y%a+W$M&O.u.q.H N&O&P&Q&|&R&S&            ",
"        T&U&^+-$P&V&'.E%W&!.X&Y&Z&- `& *j$.*+*N&@*#*K&$*(&%*&*< =$**=*        ",
"      -*;*>*,*'*)*~#V+!*!*~.w.~*{*]*^*/*(*^ _*:*<*q.[*;+r.F%}*|*t , 1*2*3*    ",
"  4*5*6*2&7*8*9*y@r.;.P.0*6.a*2 b*c*    d*/.o$e*Z f*0*r.V+E%g*9.h*D.;%i*j*    ",
"  k*i%l*3%m*n*6.6.o*~.p*}%q*r*T.s*        t*Y#4$u*|%).s.X&v*b&w*D.{*x*y*      ",
"      z*A*2&< B*C*D*y@=+8+E*F*G*            H*w#T.I*4.v.J*K*i+;%/ L*          ",
"        M*N*O*v$o+w&P*R.Q*;%R*S*              T*U*[@d%o%V*: {*W*X*            ",
"            Y*Z*s#`* =.=]@+=@=                  #=: $=%={*&=*=                ",
"                ==-=3 1&U*;=                    >=,=F#I#'=)=                  ",
"                    !=~={=                        ]=,=^=                      ",
"                        /=                                                    "};
