/* XPM */
static char * dots_xpm[] = {
"10 20 43 1",
" 	c #000001",
".	c #FFFF00",
"+	c #FFFF05",
"@	c #FFFF06",
"#	c #FFFF04",
"$	c #FFFF02",
"%	c #FAF60E",
"&	c #FBF90D",
"*	c #FAF70E",
"=	c #FCFA0B",
"-	c #FEFD06",
";	c #FEFC05",
">	c #FEFC04",
",	c #FEFD04",
"'	c #F2ED1A",
")	c #F3F118",
"!	c #F3EF18",
"~	c #F2EC1A",
"{	c #F6F214",
"]	c #FDF90C",
"^	c #FDF809",
"/	c #FDF808",
"(	c #FEF908",
"_	c #FEF708",
":	c #FEF705",
"<	c #FDF705",
"[	c #FDF907",
"}	c #FEFA05",
"|	c #FDF905",
"1	c #F9F30A",
"2	c #ECE810",
"3	c #E9E310",
"4	c #FFF903",
"5	c #FDFA03",
"6	c #FDFB04",
"7	c #FFFC03",
"8	c #FDFB03",
"9	c #FBF806",
"0	c #F5F209",
"a	c #F3EF09",
"b	c #FFFF01",
"c	c #FFFE03",
"d	c #FEFD03",
"..........",
"+++@#$$$$$",
"%&&*=-;>,>",
"')!~{]^/(_",
"          ",
"          ",
"          ",
"          ",
"          ",
"          ",
"          ",
"          ",
"          ",
"          ",
"          ",
"          ",
":<[[[}|123",
"456667890a",
"bb$$$bb$cd",
".........."};
