/* XPM */
static char * dots_xpm[] = {
"20 50 35 1",
" 	c #000001",
".	c #C1B92F",
"+	c #C3BC31",
"@	c #C5BF34",
"#	c #C5BF39",
"$	c #C4C039",
"%	c #C9BF35",
"&	c #C6C038",
"*	c #C6C039",
"=	c #C4C139",
"-	c #C7C137",
";	c #C6C238",
">	c #D1C711",
",	c #D2C811",
"'	c #D2C812",
")	c #DDD31D",
"!	c #E5D900",
"~	c #E4D907",
"{	c #EAE006",
"]	c #EFE40F",
"^	c #F8EC05",
"/	c #F8EC06",
"(	c #F9ED00",
"_	c #F9ED05",
":	c #FAEE04",
"<	c #FCEE00",
"[	c #FCEF00",
"}	c #FCF000",
"|	c #FDF000",
"1	c #FEF000",
"2	c #FEF100",
"3	c #FEF101",
"4	c #FFF100",
"5	c #FFF200",
"6	c #FFF300",
"55555555555555555555",
"55555555555555555555",
"55555555555555555555",
"55555555555555555555",
"55555555555555555555",
"55555555555555555555",
"5555555555555555555|",
"(555555555552[555555",
"~55555{~555555555555",
"*;-$#$*=&]55/5555555",
"                    ",
"                    ",
"                    ",
"                    ",
"                    ",
"                    ",
"                    ",
"                    ",
"                    ",
"                    ",
"                    ",
"                    ",
"                    ",
"                    ",
"                    ",
"                    ",
"                    ",
"                    ",
"                    ",
"                    ",
"                    ",
"                    ",
"                    ",
"                    ",
"                    ",
"                    ",
"                    ",
"                    ",
"                    ",
"                    ",
"^555_:35555555^)%@+.",
"5555555555555551,'>>",
"555555565555555}5555",
"<5545566555555555555",
"55555555555555455555",
"55555555555555555555",
"55555555555555555555",
"55555555555555555555",
"55555555555555555555",
"!5555555555555555555"};
