/* XPM */
static char * hand_xpm[] = {
"16 14 65 1",
" 	c #000001",
".	c #909090",
"+	c #D1D1D1",
"@	c #434343",
"#	c #818181",
"$	c #C6C6C6",
"%	c #CFCFCF",
"&	c #464646",
"*	c #3B3B3B",
"=	c #F2F2F2",
"-	c #A3A3A3",
";	c #3C3C3C",
">	c #E0E0E0",
",	c #636363",
"'	c #FAFAFA",
")	c #5B5B5B",
"!	c #FBFBFB",
"~	c #BFBFBF",
"{	c #F0F0F0",
"]	c #6F6F6F",
"^	c #E3E3E3",
"/	c #D6D6D6",
"(	c #B0B0B0",
"_	c #FDFDFD",
":	c #FFFFFF",
"<	c #FEFEFE",
"[	c #898989",
"}	c #606060",
"|	c #EEEEEE",
"1	c #454545",
"2	c #F7F7F7",
"3	c #FCFCFC",
"4	c #F9F9F9",
"5	c #8B8B8B",
"6	c #ECECEC",
"7	c #EFEFEF",
"8	c #F5F5F5",
"9	c #5F5F5F",
"0	c #2D2D2D",
"a	c #282828",
"b	c #BDBDBD",
"c	c #EAEAEA",
"d	c #F3F3F3",
"e	c #B8B8B8",
"f	c #161616",
"g	c #E1E1E1",
"h	c #E4E4E4",
"i	c #E5E5E5",
"j	c #E7E7E7",
"k	c #E9E9E9",
"l	c #EBEBEB",
"m	c #EDEDED",
"n	c #F4F4F4",
"o	c #202020",
"p	c #CDCDCD",
"q	c #E6E6E6",
"r	c #E2E2E2",
"s	c #1B1B1B",
"t	c #101010",
"u	c #1F1F1F",
"v	c #D0D0D0",
"w	c #E8E8E8",
"x	c #B7B7B7",
"y	c #111111",
"z	c #474747",
"                ",
"                ",
"                ",
"  .+   @#$%&    ",
"  *=-;>,')!~    ",
"   @{]^/(_:<[   ",
"    }|1=2'3!4   ",
"     567=82229  ",
"    0abc67{=de  ",
"   fg^hijklm{no ",
"      .phqjkrs  ",
"       tuvwxy   ",
"          z     ",
"                "};
