/* XPM */
static char * LAVABOY_xpm[] = {
"50 50 899 2",
"  	c None",
". 	c #ED4433",
"+ 	c #F98C23",
"@ 	c #F66D1D",
"# 	c #DC3F3A",
"$ 	c #DF2C30",
"% 	c #F06A26",
"& 	c #F9EB2A",
"* 	c #F9D521",
"= 	c #E46456",
"- 	c #CCCACB",
"; 	c #3A2828",
"> 	c #3E292B",
", 	c #3A292C",
"' 	c #3B2F31",
") 	c #EC5822",
"! 	c #ED4221",
"~ 	c #F8D129",
"{ 	c #FAE627",
"] 	c #E84A1F",
"^ 	c #BB2C1D",
"/ 	c #E36E23",
"( 	c #9E3433",
"_ 	c #8E2A30",
": 	c #8C3334",
"< 	c #4A1E26",
"[ 	c #954046",
"} 	c #87343E",
"| 	c #5A2932",
"1 	c #F09424",
"2 	c #F1401F",
"3 	c #FA991F",
"4 	c #F5C127",
"5 	c #F6591D",
"6 	c #E77123",
"7 	c #AD3A29",
"8 	c #64252E",
"9 	c #62272E",
"0 	c #62262E",
"a 	c #63262F",
"b 	c #632630",
"c 	c #932733",
"d 	c #79202B",
"e 	c #E42729",
"f 	c #EE5523",
"g 	c #EB3220",
"h 	c #F69524",
"i 	c #F7B02B",
"j 	c #FBB213",
"k 	c #DD6826",
"l 	c #65252E",
"m 	c #622630",
"n 	c #62262F",
"o 	c #612630",
"p 	c #622632",
"q 	c #832631",
"r 	c #7D232E",
"s 	c #38171E",
"t 	c #602328",
"u 	c #94343C",
"v 	c #E93720",
"w 	c #F6C226",
"x 	c #F1971D",
"y 	c #F47D20",
"z 	c #F8CD29",
"A 	c #F5A01D",
"B 	c #CF352A",
"C 	c #62252D",
"D 	c #642632",
"E 	c #6C242F",
"F 	c #65252F",
"G 	c #762A34",
"H 	c #9A3338",
"I 	c #63252F",
"J 	c #3A2025",
"K 	c #D83D41",
"L 	c #E77A76",
"M 	c #F4B82A",
"N 	c #EB2B21",
"O 	c #EF4F1E",
"P 	c #F4AE20",
"Q 	c #F49719",
"R 	c #912B2B",
"S 	c #61262E",
"T 	c #622631",
"U 	c #63262E",
"V 	c #932D3A",
"W 	c #DD393B",
"X 	c #EFA29B",
"Y 	c #EE4F1F",
"Z 	c #EC5723",
"` 	c #EB2820",
" .	c #EF5D1E",
"..	c #F4611D",
"+.	c #94292C",
"@.	c #862B35",
"#.	c #872836",
"$.	c #3C1F26",
"%.	c #832F31",
"&.	c #E66863",
"*.	c #EE2B1F",
"=.	c #EC3821",
"-.	c #E53423",
";.	c #C62A2A",
">.	c #992829",
",.	c #6F262E",
"'.	c #63272F",
").	c #7C2D37",
"!.	c #61282E",
"~.	c #CE8577",
"{.	c #E43D2D",
"].	c #EF341D",
"^.	c #F47912",
"/.	c #D64923",
"(.	c #642530",
"_.	c #632530",
":.	c #61272F",
"<.	c #64272F",
"[.	c #742630",
"}.	c #D83321",
"|.	c #F03521",
"1.	c #F4481C",
"2.	c #F58219",
"3.	c #D93421",
"4.	c #8A262F",
"5.	c #64252F",
"6.	c #622530",
"7.	c #7B282F",
"8.	c #9D2A2F",
"9.	c #872731",
"0.	c #622531",
"a.	c #632631",
"b.	c #5A212C",
"c.	c #B32324",
"d.	c #EE3521",
"e.	c #F63F1D",
"f.	c #F8421D",
"g.	c #F63E1B",
"h.	c #E33123",
"i.	c #74232E",
"j.	c #61252F",
"k.	c #822630",
"l.	c #DC2C28",
"m.	c #EB2E25",
"n.	c #DD2B28",
"o.	c #7A2531",
"p.	c #762837",
"q.	c #38191E",
"r.	c #C92A1D",
"s.	c #F6391C",
"t.	c #F73B1D",
"u.	c #F73C1B",
"v.	c #E43423",
"w.	c #72232F",
"x.	c #65262F",
"y.	c #612431",
"z.	c #5E262E",
"A.	c #5F2530",
"B.	c #8F2A2D",
"C.	c #9E2C2C",
"D.	c #9F2D2C",
"E.	c #D93427",
"F.	c #F73D1E",
"G.	c #F43B1F",
"H.	c #AF232A",
"I.	c #7F232D",
"J.	c #6A242F",
"K.	c #69313A",
"L.	c #F38839",
"M.	c #F28743",
"N.	c #772D2E",
"O.	c #A72F25",
"P.	c #B74B22",
"Q.	c #E77B1F",
"R.	c #F34220",
"S.	c #CC3227",
"T.	c #C23128",
"U.	c #90312A",
"V.	c #6A2A30",
"W.	c #A53F36",
"X.	c #A64032",
"Y.	c #A33F32",
"Z.	c #9E2E2A",
"`.	c #D02920",
" +	c #E43021",
".+	c #F6401D",
"++	c #F9411D",
"@+	c #F7401C",
"#+	c #F43D1C",
"$+	c #EB2A22",
"%+	c #BB282D",
"&+	c #70232F",
"*+	c #94363F",
"=+	c #EC6139",
"-+	c #99494D",
";+	c #6A3C36",
">+	c #C95940",
",+	c #924B31",
"'+	c #883719",
")+	c #8A2E1A",
"!+	c #92342B",
"~+	c #BC503F",
"{+	c #D96847",
"]+	c #F8804F",
"^+	c #F87F4F",
"/+	c #F97C4B",
"(+	c #B5563D",
"_+	c #88312A",
":+	c #7B2725",
"<+	c #D13A26",
"[+	c #F8401D",
"}+	c #F73E1C",
"|+	c #F02E20",
"1+	c #DE2C20",
"2+	c #7C1823",
"3+	c #6F222E",
"4+	c #8D3F48",
"5+	c #F28B40",
"6+	c #222126",
"7+	c #F28254",
"8+	c #F87E4F",
"9+	c #F1754D",
"0+	c #F0754C",
"a+	c #F5794D",
"b+	c #F77E4F",
"c+	c #F4824F",
"d+	c #E67C4B",
"e+	c #B85E3C",
"f+	c #823F28",
"g+	c #AC5536",
"h+	c #F7764C",
"i+	c #D45543",
"j+	c #9D291D",
"k+	c #F63F1F",
"l+	c #EB2F1F",
"m+	c #D22321",
"n+	c #7F1818",
"o+	c #4A1824",
"p+	c #62232F",
"q+	c #4E3137",
"r+	c #F96B1F",
"s+	c #F17A34",
"t+	c #222023",
"u+	c #E88E68",
"v+	c #F9844E",
"w+	c #FA8650",
"x+	c #F98752",
"y+	c #F98753",
"z+	c #B5613E",
"A+	c #81422E",
"B+	c #0D0710",
"C+	c #5A3326",
"D+	c #965136",
"E+	c #924D37",
"F+	c #F98151",
"G+	c #EB5E47",
"H+	c #911B1D",
"I+	c #E12522",
"J+	c #B71A1D",
"K+	c #A73531",
"L+	c #772B29",
"M+	c #8D2A33",
"N+	c #672E35",
"O+	c #F4833F",
"P+	c #FA8025",
"Q+	c #F2702E",
"R+	c #9D836C",
"S+	c #743C2C",
"T+	c #D9784E",
"U+	c #F98751",
"V+	c #F98853",
"W+	c #A25637",
"X+	c #82432B",
"Y+	c #BA6241",
"Z+	c #472B29",
"`+	c #442620",
" @	c #43221E",
".@	c #F98250",
"+@	c #EE6248",
"@@	c #7A141C",
"#@	c #95141F",
"$@	c #C35D48",
"%@	c #E16F51",
"&@	c #AA4930",
"*@	c #6E252B",
"=@	c #EE6849",
"-@	c #F98B2B",
";@	c #F8812F",
">@	c #5C5759",
",@	c #4C4244",
"'@	c #0D040E",
")@	c #F28351",
"!@	c #FA8851",
"~@	c #FA8852",
"{@	c #F4AB7F",
"]@	c #A68D8B",
"^@	c #412725",
"/@	c #180C15",
"(@	c #D76E47",
"_@	c #EF6447",
":@	c #63101B",
"<@	c #CD5442",
"[@	c #904037",
"}@	c #261014",
"|@	c #8E3831",
"1@	c #6C2C2F",
"2@	c #F58C38",
"3@	c #EA583A",
"4@	c #F66D2F",
"5@	c #FA962A",
"6@	c #F87126",
"7@	c #F06A31",
"8@	c #979693",
"9@	c #BDB0A3",
"0@	c #3D2724",
"a@	c #C76B46",
"b@	c #FA8951",
"c@	c #F7AA6D",
"d@	c #FDFBF7",
"e@	c #503B3E",
"f@	c #0C0710",
"g@	c #CF6A41",
"h@	c #EE6447",
"i@	c #80352B",
"j@	c #E45E47",
"k@	c #542A2C",
"l@	c #381818",
"m@	c #C75246",
"n@	c #A3684A",
"o@	c #F38242",
"p@	c #FCB624",
"q@	c #EE8C3A",
"r@	c #EA7947",
"s@	c #F68636",
"t@	c #F66D20",
"u@	c #2F2D2F",
"v@	c #C4C2A2",
"w@	c #745337",
"x@	c #C36841",
"y@	c #F98852",
"z@	c #F98850",
"A@	c #F7AA72",
"B@	c #FCFBE5",
"C@	c #919166",
"D@	c #685224",
"E@	c #E37A48",
"F@	c #EB5D43",
"G@	c #EC5F46",
"H@	c #EB5E46",
"I@	c #F67053",
"J@	c #EC604B",
"K@	c #90322E",
"L@	c #AA4B3D",
"M@	c #F7AC46",
"N@	c #FCB926",
"O@	c #F6A230",
"P@	c #F77626",
"Q@	c #2D2C2E",
"R@	c #C0B197",
"S@	c #D0BE45",
"T@	c #C3884A",
"U@	c #C3734B",
"V@	c #F2834F",
"W@	c #F89866",
"X@	c #F9EAAB",
"Y@	c #FCF66D",
"Z@	c #F1C02A",
"`@	c #F47149",
" #	c #EB5E43",
".#	c #EB5D45",
"+#	c #B4463D",
"@#	c #8F3D33",
"##	c #8B3B35",
"$#	c #4E1222",
"%#	c #AD3D38",
"&#	c #F89C41",
"*#	c #FA9E25",
"=#	c #F98F21",
"-#	c #E86A3D",
";#	c #F47935",
">#	c #F5793B",
",#	c #F97F24",
"'#	c #1F1E22",
")#	c #D9C7A8",
"!#	c #FBD469",
"~#	c #E48A4B",
"{#	c #BA6145",
"]#	c #F5864F",
"^#	c #F9884F",
"/#	c #FA874D",
"(#	c #F8BA4A",
"_#	c #F8D243",
":#	c #F59C38",
"<#	c #EF6246",
"[#	c #EA5D45",
"}#	c #C84F41",
"|#	c #4E2021",
"1#	c #6E1828",
"2#	c #661727",
"3#	c #5F1E2C",
"4#	c #F56421",
"5#	c #F8621F",
"6#	c #F5832A",
"7#	c #EF9E49",
"8#	c #EB924D",
"9#	c #E87452",
"0#	c #ED6144",
"a#	c #E36D4F",
"b#	c #F76525",
"c#	c #F46C36",
"d#	c #F27F3F",
"e#	c #553C36",
"f#	c #BB6642",
"g#	c #F0804C",
"h#	c #F4834D",
"i#	c #A95A3A",
"j#	c #A85C3C",
"k#	c #A9603C",
"l#	c #A56A40",
"m#	c #7B4631",
"n#	c #DB6547",
"o#	c #CB4B3D",
"p#	c #9C3B31",
"q#	c #531E1F",
"r#	c #0E0710",
"s#	c #481421",
"t#	c #51232C",
"u#	c #59494C",
"v#	c #F4763E",
"w#	c #F88A2D",
"x#	c #ED6D3E",
"y#	c #F4582E",
"z#	c #F87730",
"A#	c #F87922",
"B#	c #967950",
"C#	c #A98046",
"D#	c #AA5C39",
"E#	c #A95E38",
"F#	c #C06D3E",
"G#	c #BE6540",
"H#	c #813832",
"I#	c #7B3933",
"J#	c #0D0712",
"K#	c #2F1519",
"L#	c #AC4438",
"M#	c #B5463B",
"N#	c #794440",
"O#	c #F87934",
"P#	c #F69351",
"Q#	c #F39B50",
"R#	c #EC5530",
"S#	c #F39C43",
"T#	c #F98728",
"U#	c #F98A29",
"V#	c #F67E26",
"W#	c #F38D52",
"X#	c #BC8466",
"Y#	c #915349",
"Z#	c #4F545F",
"`#	c #672729",
" $	c #B8423D",
".$	c #D35146",
"+$	c #8C3B37",
"@$	c #1D1A26",
"#$	c #432328",
"$$	c #EF5F45",
"%$	c #F06447",
"&$	c #D15342",
"*$	c #B3675A",
"=$	c #F56C27",
"-$	c #F7712B",
";$	c #F9952C",
">$	c #FA9E2B",
",$	c #F9922F",
"'$	c #F48F42",
")$	c #CC865B",
"!$	c #EE9251",
"~$	c #A95841",
"{$	c #43434D",
"]$	c #25222C",
"^$	c #7A2F2E",
"/$	c #53252B",
"($	c #22212D",
"_$	c #272733",
":$	c #382129",
"<$	c #E15244",
"[$	c #F16647",
"}$	c #EF6446",
"|$	c #E36148",
"1$	c #863D36",
"2$	c #F2833D",
"3$	c #E9482F",
"4$	c #E99E65",
"5$	c #CC895F",
"6$	c #EF9456",
"7$	c #F87D4C",
"8$	c #A9493A",
"9$	c #41434A",
"0$	c #292935",
"a$	c #292934",
"b$	c #252430",
"c$	c #130F19",
"d$	c #662C26",
"e$	c #EC8657",
"f$	c #F27F4E",
"g$	c #D6704E",
"h$	c #B64740",
"i$	c #463031",
"j$	c #EC543B",
"k$	c #EB5738",
"l$	c #E97241",
"m$	c #D2967E",
"n$	c #F28952",
"o$	c #EB704B",
"p$	c #C54D41",
"q$	c #6B2F2D",
"r$	c #3E3E46",
"s$	c #2A2A35",
"t$	c #282833",
"u$	c #1A1622",
"v$	c #130F16",
"w$	c #302F31",
"x$	c #CB6D49",
"y$	c #D6785C",
"z$	c #D35241",
"A$	c #B94A42",
"B$	c #F66A31",
"C$	c #EE723C",
"D$	c #F56A3B",
"E$	c #A78F77",
"F$	c #CB806A",
"G$	c #9B7069",
"H$	c #A58786",
"I$	c #56575B",
"J$	c #48484B",
"K$	c #2E2E36",
"L$	c #272630",
"M$	c #23232C",
"N$	c #25252F",
"O$	c #282834",
"P$	c #21202B",
"Q$	c #16131A",
"R$	c #E06D51",
"S$	c #F06B47",
"T$	c #F87A4C",
"U$	c #E06147",
"V$	c #864C48",
"W$	c #F26F3A",
"X$	c #F98624",
"Y$	c #F86E28",
"Z$	c #F35B28",
"`$	c #E49F6D",
" %	c #A9553F",
".%	c #A0888B",
"+%	c #5D6068",
"@%	c #5A5B63",
"#%	c #43434A",
"$%	c #27262D",
"%%	c #5D5E61",
"&%	c #3A393D",
"*%	c #5C5D65",
"=%	c #23242D",
"-%	c #13101A",
";%	c #110D18",
">%	c #0F0A14",
",%	c #94553F",
"'%	c #F9824E",
")%	c #F8834E",
"!%	c #F77F4D",
"~%	c #C95844",
"{%	c #F15F34",
"]%	c #EC623B",
"^%	c #D73B3C",
"/%	c #F1602E",
"(%	c #FB992E",
"_%	c #FB9131",
":%	c #F45821",
"<%	c #F47837",
"[%	c #B1684F",
"}%	c #A25747",
"|%	c #818086",
"1%	c #292933",
"2%	c #272632",
"3%	c #1C1A25",
"4%	c #22222C",
"5%	c #252530",
"6%	c #191622",
"7%	c #4C3B2E",
"8%	c #E1965B",
"9%	c #F9844F",
"0%	c #F7804E",
"a%	c #F77F4E",
"b%	c #F8804C",
"c%	c #CE5C45",
"d%	c #F17E46",
"e%	c #F65322",
"f%	c #F24C26",
"g%	c #E34F3B",
"h%	c #CD6562",
"i%	c #E03434",
"j%	c #E83532",
"k%	c #F37F36",
"l%	c #F98B3A",
"m%	c #F4894D",
"n%	c #826050",
"o%	c #663430",
"p%	c #555358",
"q%	c #23222E",
"r%	c #23212E",
"s%	c #262430",
"t%	c #282633",
"u%	c #2A2936",
"v%	c #22222E",
"w%	c #372023",
"x%	c #D6674B",
"y%	c #F9814E",
"z%	c #D55A43",
"A%	c #DB6349",
"B%	c #F56F47",
"C%	c #A13C35",
"D%	c #E34337",
"E%	c #E45546",
"F%	c #DE5957",
"G%	c #E7312B",
"H%	c #F24F2E",
"I%	c #EA2B2A",
"J%	c #EB614B",
"K%	c #E64735",
"L%	c #F2876B",
"M%	c #F39051",
"N%	c #7B5147",
"O%	c #82848A",
"P%	c #1F1C29",
"Q%	c #592D2E",
"R%	c #140F17",
"S%	c #17131A",
"T%	c #1E1B23",
"U%	c #292732",
"V%	c #2C2C38",
"W%	c #292834",
"X%	c #1F1D29",
"Y%	c #622D28",
"Z%	c #DD5B3F",
"`%	c #D55545",
" &	c #994238",
".&	c #C54C40",
"+&	c #763B39",
"@&	c #E57161",
"#&	c #E5302A",
"$&	c #F1632E",
"%&	c #DB4046",
"&&	c #E84A45",
"*&	c #E13E3E",
"=&	c #F24334",
"-&	c #F55328",
";&	c #E95341",
">&	c #EE4841",
",&	c #F68345",
"'&	c #F19653",
")&	c #463734",
"!&	c #3F1D1C",
"~&	c #5D2826",
"{&	c #A03D38",
"]&	c #B76A5B",
"^&	c #444751",
"/&	c #2E2F3A",
"(&	c #462E35",
"_&	c #472931",
":&	c #140F1A",
"<&	c #252226",
"[&	c #282729",
"}&	c #E74B3D",
"|&	c #F25429",
"1&	c #E44135",
"2&	c #E32B2F",
"3&	c #F05630",
"4&	c #F25B2C",
"5&	c #EC302E",
"6&	c #EF4639",
"7&	c #DC5A53",
"8&	c #E4492D",
"9&	c #E5544B",
"0&	c #F58942",
"a&	c #F37E3A",
"b&	c #946F55",
"c&	c #E17649",
"d&	c #D15735",
"e&	c #B94230",
"f&	c #802D29",
"g&	c #814C2E",
"h&	c #3B2E31",
"i&	c #844641",
"j&	c #D66044",
"k&	c #AA413E",
"l&	c #1A1521",
"m&	c #3A383A",
"n&	c #E84B42",
"o&	c #EF4226",
"p&	c #EB4637",
"q&	c #DE3134",
"r&	c #F25A2D",
"s&	c #F6AE24",
"t&	c #F16B24",
"u&	c #EE3E27",
"v&	c #EC3834",
"w&	c #EB5137",
"x&	c #E8692F",
"y&	c #E95E4F",
"z&	c #E6524E",
"A&	c #722621",
"B&	c #B85126",
"C&	c #B94D1D",
"D&	c #B34117",
"E&	c #753C19",
"F&	c #494245",
"G&	c #523B3D",
"H&	c #DA6947",
"I&	c #F87F4B",
"J&	c #D15240",
"K&	c #3D1C27",
"L&	c #301A22",
"M&	c #6D3B38",
"N&	c #E33B36",
"O&	c #F55F22",
"P&	c #F77725",
"Q&	c #F27428",
"R&	c #DF4E4B",
"S&	c #F1472B",
"T&	c #F39024",
"U&	c #FCF524",
"V&	c #FAB923",
"W&	c #F79B1E",
"X&	c #EF4726",
"Y&	c #EB6326",
"Z&	c #F38E2A",
"`&	c #F13E27",
" *	c #DD716B",
".*	c #483437",
"+*	c #884541",
"@*	c #DC4E1D",
"#*	c #9E101A",
"$*	c #6F0F17",
"%*	c #962C1D",
"&*	c #7B4223",
"**	c #623832",
"=*	c #93594C",
"-*	c #A84C3E",
";*	c #C25E45",
">*	c #D55746",
",*	c #90413C",
"'*	c #F68320",
")*	c #F58A20",
"!*	c #F1761F",
"~*	c #F5B034",
"{*	c #EC7928",
"]*	c #ED4437",
"^*	c #F5A722",
"/*	c #F4AB23",
"(*	c #F6A921",
"_*	c #F0951A",
":*	c #FADE24",
"<*	c #F89623",
"[*	c #F7CA28",
"}*	c #F49E27",
"|*	c #EE4724",
"1*	c #E84031",
"2*	c #EA6B4D",
"3*	c #484542",
"4*	c #C18271",
"5*	c #E31D12",
"6*	c #B4471F",
"7*	c #810C15",
"8*	c #933D1D",
"9*	c #BC3C1E",
"0*	c #7A091A",
"a*	c #88521F",
"b*	c #29282C",
"c*	c #BB8867",
"d*	c #F37846",
"e*	c #F06540",
"f*	c #CC4D39",
"g*	c #8E2126",
"h*	c #4E2428",
"i*	c #EB6F4F",
"j*	c #F87D1D",
"k*	c #F3721C",
"l*	c #F2912A",
"m*	c #F17827",
"n*	c #F3D521",
"o*	c #EA7F3E",
"p*	c #E7433B",
"q*	c #EA4924",
"r*	c #F57521",
"s*	c #F45021",
"t*	c #EF6725",
"u*	c #F5B02A",
"v*	c #F3BA2C",
"w*	c #F9931A",
"x*	c #F8601E",
"y*	c #F04425",
"z*	c #E8392D",
"A*	c #EC472B",
"B*	c #6C6351",
"C*	c #C37956",
"D*	c #DA2826",
"E*	c #B71417",
"F*	c #7F0818",
"G*	c #780719",
"H*	c #8C0B15",
"I*	c #A60D19",
"J*	c #720B1B",
"K*	c #9F621C",
"L*	c #252429",
"M*	c #6B4126",
"N*	c #A33717",
"O*	c #A31618",
"P*	c #822916",
"Q*	c #8E281A",
"R*	c #7F2623",
"S*	c #EA5E4D",
"T*	c #EA4528",
"U*	c #E95127",
"V*	c #EC3426",
"W*	c #F24C25",
"X*	c #F36B26",
"Y*	c #EB8347",
"Z*	c #DB7469",
"`*	c #E75A48",
" =	c #E46653",
".=	c #DD7067",
"+=	c #F3513C",
"@=	c #F16D3F",
"#=	c #F07A3B",
"$=	c #E65E50",
"%=	c #DC534F",
"&=	c #D47167",
"*=	c #5C4933",
"==	c #D75827",
"-=	c #BE6317",
";=	c #B36318",
">=	c #B46319",
",=	c #B96319",
"'=	c #B2641A",
")=	c #B1671C",
"!=	c #B3671E",
"~=	c #984A1E",
"{=	c #2F2E31",
"]=	c #6E4525",
"^=	c #D88820",
"/=	c #C93D19",
"(=	c #862919",
"_=	c #902B20",
":=	c #792123",
"<=	c #DE3A3C",
"[=	c #292529",
"}=	c #710E14",
"|=	c #6F0915",
"1=	c #4A0A14",
"2=	c #420A13",
"3=	c #480A14",
"4=	c #5D0C17",
"5=	c #5E0D19",
"6=	c #47131D",
"7=	c #333034",
"8=	c #4F3B3B",
"9=	c #AD1817",
"0=	c #C3675E",
"a=	c #BB3D39",
"b=	c #650A15",
"c=	c #7F0F1B",
"d=	c #603A18",
"e=	c #B18636",
"f=	c #EE1E14",
"g=	c #E56F66",
"h=	c #DE4038",
"i=	c #B3141B",
"j=	c #780C18",
"k=	c #8C5218",
"l=	c #CA982F",
"m=	c #CA1518",
"n=	c #AC0D19",
"o=	c #AB0D1A",
"p=	c #9A0D1B",
"q=	c #640C17",
"r=	c #8B4E1C",
"s=	c #A16029",
"t=	c #C66C1F",
"u=	c #C67E22",
"v=	c #C38025",
"w=	c #BC7422",
"x=	c #8F3F1A",
"y=	c #472C21",
"z=	c #671017",
"A=	c #650B14",
"B=	c #610D15",
"C=	c #5F0D14",
"D=	c #5D1016",
"E=	c #4E1F25",
"F=	c #2A2A2D",
"                                                                                                    ",
"                                                                                                    ",
"                                  . + @ #                                                           ",
"                                $ % & * = - ; > , '                                                 ",
"                                ) ! ~ { ] ^ / ( _ : < [ } |                                         ",
"                                1 2 3 4 5 6 7 8 9 0 0 a b c d                                       ",
"                              e f g h i j k l m n 0 0 o p q r s t u                                 ",
"                              v w x y z A B C 0 0 0 0 m D E F G H I J                               ",
"                            K L M N O P Q R 0 0 0 0 0 0 S m T n 0 U V a                             ",
"                            W X Y Z `  ...+.0 0 0 0 0 0 S n n 0 0 0 @.#.$.                          ",
"                            %.&.*.=.-.;.>.,.0 '.'.0 0 0 0 S S 0 0 0 U a ).!.                        ",
"                            ~.{.].^./.(._.0 0 0 :.0 0 0 0 S 0 0 0 0 n a <.[.                        ",
"                            }.|.1.2.3.4.5.U 0 0 0 0 0 0 0 n 6.7.8.9.0.a a.b.                        ",
"                            c.d.e.f.g.h.i.U U U 0 0 0 j.0 T k.l.m.n.o.a a p.                        ",
"                            q.r.s.t.u.v.w.x.U U y.z.A.B.C.D.E.F.F.G.H.I.J.K.                        ",
"          L.        M.        N.O.P.Q.R.S.T.U.V.W.X.Y.Z.`. +.+++@+#+$+%+&+*+                        ",
"                    =+        -+;+>+,+'+)+!+~+{+]+^+/+(+_+:+<+[+}+|+1+2+3+4+                        ",
"                        5+      6+7+8+9+0+a+b+c+d+e+f+g+h+i+j+k+l+m+n+o+p+q+                        ",
"                        r+s+    t+u+v+w+x+y+z+A+B+C+D+E+F+G+H+I+J+K+L+M+N+                          ",
"                      O+P+Q+      R+S+T+U+V+W+X+Y+Z+`+ @.@+@@@#@$@%@&@*@                            ",
"                    =@  -@;@      >@,@'@)@!@~@U+{@]@^@/@(@_@:@<@[@}@|@1@                            ",
"              2@    3@4@5@6@7@    8@9@0@a@b@!@!@c@d@e@f@g@h@i@j@k@l@m@n@    o@p@q@                  ",
"              r@          s@t@    u@v@w@x@y@z@z@A@B@C@D@E@F@G@H@I@J@K@L@    M@N@O@                  ",
"                            P@    Q@R@S@T@U@V@z@W@X@Y@Z@`@ #.#+#@###$#%#    &#*#=#-#                ",
"                        ;#>#,#    '#)#!#~#{#]#^#/#(#_#:#<#[#}#|#1#2#3#        4#5#6#      7#        ",
"          8#9#      0#a#b#c#d#      e#f#g#h#i#j#k#l#m#n#o#p#q#r#s#t#u#          v#        w#        ",
"                  x#y#z#A#              B#C#D#E#F#G#H#I#J#K#L#M#N#          O#P#Q#        R#        ",
"                  S#T#U#V#W#              X#Y#Z#`# $.$+$@$#$$$%$&$*$          =$-$                  ",
"                    ;$>$,$'$            )$!$~${$]$^$/$($_$:$<$[$}$|$1$          2$3$                ",
"                        4$            5$6$7$8$9$0$_$a$a$b$c$d$e$f$g$h$i$          j$k$              ",
"                        l$          m$n$o$p$q$r$a$s$s$a$t$u$v$w$x$y$z$A$            B$              ",
"                      C$D$        E$F$G$H$I$J$K$L$M$N$0$O$P$Q$  R$S$T$U$V$                          ",
"                    W$X$Y$Z$      `$ %.%+%@%#%$%%%&%*%=%-%;%>%,%'%)%)%!%~%        {%]%              ",
"                ^%  /%(%_%:%<%    [%}%|%1%0$0$2%P$3%4%N$5%6%7%8%9%0%a%b%c%      d%e%f%g%h%          ",
"              i%j%    k%l%m%      n%o%p%a$O$q%r%s%t%u%0$0$v%w%x%y%z%A%B%C%            D%E%          ",
"          F%G%H%I%  J%K%L%M%        N%O%0$P%Q%R%S%T%U%V%0$W%X%Y%Z%`% &.&+&        @&  #&$&          ",
"        %&&&*&=&-&  ;&>&,&'&          )&!&~&{&]&      ^&/&(&_&:&<&[&  [&            }&|&1&          ",
"        2&3&4&5&6&7&8&  9&  0&a&      b&c&d&e&f&g&    h&i&j&k&l&m&                  n&o&p&q&        ",
"        r&s&t&u&v&w&x&y&z&              A&B&C&D&E&F&  G&H&I&J&K&L&M&                N&O&P&Q&        ",
"    R&S&T&U&V&W&X&Y&Z&`&   *          .*+*@*#*$*%*&*    **=*-*;*>*,*                '*)*!*~*{*      ",
"    ]*^*/*(*_*:*<*[*}*|*1*2*      3*4*5*6*7*8*9*0*a*b*    c*d*e*f*g*h*            i*j*k*l*m*n*o*    ",
"    p*q*r*s*t*u*v*w*x*y*z*A*    B*C*D*E*F*G*H*I*J*K*L*    M*N*O*P*Q*R*            S*T*U*V*W*X*Y*    ",
"      Z*`* =.=+=@=#=$=  %=&=    *===-=;=>=,='=)=!=~={=    ]=^=/=(=_=:=                    <=        ",
"                                [=}=|=1=2=3=4=5=6=7=      8=9=0=a=b=c=d=                            ",
"                                                          e=f=g=h=i=j=k=                            ",
"                                                          l=m=n=o=p=q=r=                            ",
"                                                          s=t=u=v=w=x=y=                            ",
"                                                          z=A=B=C=D=E=F=                            ",
"                                                                                                    ",
"                                                                                                    "};
