/* XPM */
static char * LAVABOY2_xpm[] = {
"50 50 684 2",
"  	c None",
". 	c #ED4433",
"+ 	c #F98C23",
"@ 	c #F66D1D",
"# 	c #DC3F3A",
"$ 	c #DF2C30",
"% 	c #F06A26",
"& 	c #F9EB2A",
"* 	c #F9D521",
"= 	c #E46456",
"- 	c #CCCACB",
"; 	c #3A2828",
"> 	c #3E292B",
", 	c #3A292C",
"' 	c #3B2F31",
") 	c #EC5822",
"! 	c #ED4221",
"~ 	c #F8D129",
"{ 	c #FAE627",
"] 	c #E84A1F",
"^ 	c #BB2C1D",
"/ 	c #E36E23",
"( 	c #9E3433",
"_ 	c #8E2A30",
": 	c #8C3334",
"< 	c #4A1E26",
"[ 	c #954046",
"} 	c #87343E",
"| 	c #5A2932",
"1 	c #F09424",
"2 	c #F1401F",
"3 	c #FA991F",
"4 	c #F5C127",
"5 	c #F6591D",
"6 	c #E77123",
"7 	c #AD3A29",
"8 	c #64252E",
"9 	c #62272E",
"0 	c #62262E",
"a 	c #63262F",
"b 	c #632630",
"c 	c #932733",
"d 	c #79202B",
"e 	c #E42729",
"f 	c #EE5523",
"g 	c #EB3220",
"h 	c #F69524",
"i 	c #F7B02B",
"j 	c #FBB213",
"k 	c #DD6826",
"l 	c #65252E",
"m 	c #622630",
"n 	c #62262F",
"o 	c #612630",
"p 	c #622632",
"q 	c #832631",
"r 	c #7D232E",
"s 	c #38171E",
"t 	c #602328",
"u 	c #94343C",
"v 	c #E93720",
"w 	c #F6C226",
"x 	c #F1971D",
"y 	c #F47D20",
"z 	c #F8CD29",
"A 	c #F5A01D",
"B 	c #CF352A",
"C 	c #62252D",
"D 	c #642632",
"E 	c #6C242F",
"F 	c #65252F",
"G 	c #762A34",
"H 	c #9A3338",
"I 	c #63252F",
"J 	c #3A2025",
"K 	c #D83D41",
"L 	c #E77A76",
"M 	c #F4B82A",
"N 	c #EB2B21",
"O 	c #EF4F1E",
"P 	c #F4AE20",
"Q 	c #F49719",
"R 	c #912B2B",
"S 	c #61262E",
"T 	c #622631",
"U 	c #63262E",
"V 	c #932D3A",
"W 	c #DD393B",
"X 	c #EFA29B",
"Y 	c #EE4F1F",
"Z 	c #EC5723",
"` 	c #EB2820",
" .	c #EF5D1E",
"..	c #F4611D",
"+.	c #94292C",
"@.	c #862B35",
"#.	c #872836",
"$.	c #3C1F26",
"%.	c #832F31",
"&.	c #E66863",
"*.	c #EE2B1F",
"=.	c #EC3821",
"-.	c #E53423",
";.	c #C62A2A",
">.	c #992829",
",.	c #6F262E",
"'.	c #63272F",
").	c #7C2D37",
"!.	c #61282E",
"~.	c #CE8577",
"{.	c #E43D2D",
"].	c #EF341D",
"^.	c #F47912",
"/.	c #D64923",
"(.	c #642530",
"_.	c #632530",
":.	c #61272F",
"<.	c #64272F",
"[.	c #742630",
"}.	c #D83321",
"|.	c #F03521",
"1.	c #F4481C",
"2.	c #F58219",
"3.	c #D93421",
"4.	c #8A262F",
"5.	c #64252F",
"6.	c #622530",
"7.	c #7B282F",
"8.	c #9D2A2F",
"9.	c #872731",
"0.	c #622531",
"a.	c #632631",
"b.	c #5A212C",
"c.	c #B32324",
"d.	c #EE3521",
"e.	c #F63F1D",
"f.	c #F8421D",
"g.	c #F63E1B",
"h.	c #E33123",
"i.	c #74232E",
"j.	c #61252F",
"k.	c #822630",
"l.	c #DC2C28",
"m.	c #EB2E25",
"n.	c #DD2B28",
"o.	c #7A2531",
"p.	c #762837",
"q.	c #38191E",
"r.	c #C92A1D",
"s.	c #F6391C",
"t.	c #F73B1D",
"u.	c #F73C1B",
"v.	c #E43423",
"w.	c #72232F",
"x.	c #65262F",
"y.	c #612431",
"z.	c #5E262E",
"A.	c #5F2530",
"B.	c #8F2A2D",
"C.	c #9E2C2C",
"D.	c #9F2D2C",
"E.	c #D93427",
"F.	c #F73D1E",
"G.	c #F43B1F",
"H.	c #AF232A",
"I.	c #7F232D",
"J.	c #6A242F",
"K.	c #69313A",
"L.	c #772D2E",
"M.	c #A72F25",
"N.	c #B74B22",
"O.	c #E77B1F",
"P.	c #F34220",
"Q.	c #CC3227",
"R.	c #C23128",
"S.	c #90312A",
"T.	c #6A2A30",
"U.	c #A53F36",
"V.	c #A64032",
"W.	c #A33F32",
"X.	c #9E2E2A",
"Y.	c #D02920",
"Z.	c #E43021",
"`.	c #F6401D",
" +	c #F9411D",
".+	c #F7401C",
"++	c #F43D1C",
"@+	c #EB2A22",
"#+	c #BB282D",
"$+	c #70232F",
"%+	c #94363F",
"&+	c #99494D",
"*+	c #6A3C36",
"=+	c #C95940",
"-+	c #924B31",
";+	c #883719",
">+	c #8A2E1A",
",+	c #92342B",
"'+	c #BC503F",
")+	c #D96847",
"!+	c #F8804F",
"~+	c #F87F4F",
"{+	c #F97C4B",
"]+	c #B5563D",
"^+	c #88312A",
"/+	c #7B2725",
"(+	c #D13A26",
"_+	c #F8401D",
":+	c #F73E1C",
"<+	c #F02E20",
"[+	c #DE2C20",
"}+	c #7C1823",
"|+	c #6F222E",
"1+	c #8D3F48",
"2+	c #222126",
"3+	c #F28254",
"4+	c #F87E4F",
"5+	c #F1754D",
"6+	c #F0754C",
"7+	c #F5794D",
"8+	c #F77E4F",
"9+	c #F4824F",
"0+	c #E67C4B",
"a+	c #B85E3C",
"b+	c #823F28",
"c+	c #AC5536",
"d+	c #F7764C",
"e+	c #D45543",
"f+	c #9D291D",
"g+	c #F63F1F",
"h+	c #EB2F1F",
"i+	c #D22321",
"j+	c #7F1818",
"k+	c #4A1824",
"l+	c #62232F",
"m+	c #4E3137",
"n+	c #222023",
"o+	c #E88E68",
"p+	c #F9844E",
"q+	c #FA8650",
"r+	c #F98752",
"s+	c #F98753",
"t+	c #B5613E",
"u+	c #81422E",
"v+	c #0D0710",
"w+	c #5A3326",
"x+	c #965136",
"y+	c #924D37",
"z+	c #F98151",
"A+	c #EB5E47",
"B+	c #911B1D",
"C+	c #E12522",
"D+	c #B71A1D",
"E+	c #A73531",
"F+	c #772B29",
"G+	c #8D2A33",
"H+	c #672E35",
"I+	c #9D836C",
"J+	c #743C2C",
"K+	c #D9784E",
"L+	c #F98751",
"M+	c #F98853",
"N+	c #A25637",
"O+	c #82432B",
"P+	c #BA6241",
"Q+	c #472B29",
"R+	c #442620",
"S+	c #43221E",
"T+	c #F98250",
"U+	c #EE6248",
"V+	c #7A141C",
"W+	c #95141F",
"X+	c #C35D48",
"Y+	c #E16F51",
"Z+	c #AA4930",
"`+	c #6E252B",
" @	c #5C5759",
".@	c #4C4244",
"+@	c #0D040E",
"@@	c #F28351",
"#@	c #FA8851",
"$@	c #FA8852",
"%@	c #F4AB7F",
"&@	c #A68D8B",
"*@	c #412725",
"=@	c #180C15",
"-@	c #D76E47",
";@	c #EF6447",
">@	c #63101B",
",@	c #CD5442",
"'@	c #904037",
")@	c #261014",
"!@	c #8E3831",
"~@	c #6C2C2F",
"{@	c #979693",
"]@	c #BDB0A3",
"^@	c #3D2724",
"/@	c #C76B46",
"(@	c #FA8951",
"_@	c #F7AA6D",
":@	c #FDFBF7",
"<@	c #503B3E",
"[@	c #0C0710",
"}@	c #CF6A41",
"|@	c #EE6447",
"1@	c #80352B",
"2@	c #E45E47",
"3@	c #542A2C",
"4@	c #381818",
"5@	c #C75246",
"6@	c #A3684A",
"7@	c #2F2D2F",
"8@	c #C4C2A2",
"9@	c #745337",
"0@	c #C36841",
"a@	c #F98852",
"b@	c #F98850",
"c@	c #F7AA72",
"d@	c #FCFBE5",
"e@	c #919166",
"f@	c #685224",
"g@	c #E37A48",
"h@	c #EB5D43",
"i@	c #EC5F46",
"j@	c #EB5E46",
"k@	c #F67053",
"l@	c #EC604B",
"m@	c #90322E",
"n@	c #AA4B3D",
"o@	c #2D2C2E",
"p@	c #C0B197",
"q@	c #D0BE45",
"r@	c #C3884A",
"s@	c #C3734B",
"t@	c #F2834F",
"u@	c #F89866",
"v@	c #F9EAAB",
"w@	c #FCF66D",
"x@	c #F1C02A",
"y@	c #F47149",
"z@	c #EB5E43",
"A@	c #EB5D45",
"B@	c #B4463D",
"C@	c #8F3D33",
"D@	c #8B3B35",
"E@	c #4E1222",
"F@	c #AD3D38",
"G@	c #1F1E22",
"H@	c #D9C7A8",
"I@	c #FBD469",
"J@	c #E48A4B",
"K@	c #BA6145",
"L@	c #F5864F",
"M@	c #F9884F",
"N@	c #FA874D",
"O@	c #F8BA4A",
"P@	c #F8D243",
"Q@	c #F59C38",
"R@	c #EF6246",
"S@	c #EA5D45",
"T@	c #C84F41",
"U@	c #4E2021",
"V@	c #6E1828",
"W@	c #661727",
"X@	c #5F1E2C",
"Y@	c #553C36",
"Z@	c #BB6642",
"`@	c #F0804C",
" #	c #F4834D",
".#	c #A95A3A",
"+#	c #A85C3C",
"@#	c #A9603C",
"##	c #A56A40",
"$#	c #7B4631",
"%#	c #DB6547",
"&#	c #CB4B3D",
"*#	c #9C3B31",
"=#	c #531E1F",
"-#	c #0E0710",
";#	c #481421",
">#	c #51232C",
",#	c #59494C",
"'#	c #967950",
")#	c #A98046",
"!#	c #AA5C39",
"~#	c #A95E38",
"{#	c #C06D3E",
"]#	c #BE6540",
"^#	c #813832",
"/#	c #7B3933",
"(#	c #0D0712",
"_#	c #2F1519",
":#	c #AC4438",
"<#	c #B5463B",
"[#	c #794440",
"}#	c #BC8466",
"|#	c #915349",
"1#	c #4F545F",
"2#	c #672729",
"3#	c #B8423D",
"4#	c #D35146",
"5#	c #8C3B37",
"6#	c #1D1A26",
"7#	c #432328",
"8#	c #EF5F45",
"9#	c #F06447",
"0#	c #D15342",
"a#	c #B3675A",
"b#	c #CC865B",
"c#	c #EE9251",
"d#	c #A95841",
"e#	c #43434D",
"f#	c #25222C",
"g#	c #7A2F2E",
"h#	c #53252B",
"i#	c #22212D",
"j#	c #272733",
"k#	c #382129",
"l#	c #E15244",
"m#	c #F16647",
"n#	c #EF6446",
"o#	c #E36148",
"p#	c #863D36",
"q#	c #CC895F",
"r#	c #EF9456",
"s#	c #F87D4C",
"t#	c #A9493A",
"u#	c #41434A",
"v#	c #292935",
"w#	c #292934",
"x#	c #252430",
"y#	c #130F19",
"z#	c #662C26",
"A#	c #EC8657",
"B#	c #F27F4E",
"C#	c #D6704E",
"D#	c #B64740",
"E#	c #463031",
"F#	c #D2967E",
"G#	c #F28952",
"H#	c #EB704B",
"I#	c #C54D41",
"J#	c #6B2F2D",
"K#	c #3E3E46",
"L#	c #2A2A35",
"M#	c #282833",
"N#	c #1A1622",
"O#	c #130F16",
"P#	c #302F31",
"Q#	c #CB6D49",
"R#	c #D6785C",
"S#	c #D35241",
"T#	c #B94A42",
"U#	c #A78F77",
"V#	c #CB806A",
"W#	c #9B7069",
"X#	c #A58786",
"Y#	c #56575B",
"Z#	c #48484B",
"`#	c #2E2E36",
" $	c #272630",
".$	c #23232C",
"+$	c #25252F",
"@$	c #282834",
"#$	c #21202B",
"$$	c #16131A",
"%$	c #E06D51",
"&$	c #F06B47",
"*$	c #F87A4C",
"=$	c #E06147",
"-$	c #864C48",
";$	c #E49F6D",
">$	c #A9553F",
",$	c #A0888B",
"'$	c #5D6068",
")$	c #5A5B63",
"!$	c #43434A",
"~$	c #27262D",
"{$	c #5D5E61",
"]$	c #3A393D",
"^$	c #5C5D65",
"/$	c #23242D",
"($	c #13101A",
"_$	c #110D18",
":$	c #0F0A14",
"<$	c #94553F",
"[$	c #F9824E",
"}$	c #F8834E",
"|$	c #F77F4D",
"1$	c #C95844",
"2$	c #B1684F",
"3$	c #A25747",
"4$	c #818086",
"5$	c #292933",
"6$	c #272632",
"7$	c #1C1A25",
"8$	c #22222C",
"9$	c #252530",
"0$	c #191622",
"a$	c #4C3B2E",
"b$	c #E1965B",
"c$	c #F9844F",
"d$	c #F7804E",
"e$	c #F77F4E",
"f$	c #F8804C",
"g$	c #CE5C45",
"h$	c #826050",
"i$	c #663430",
"j$	c #555358",
"k$	c #23222E",
"l$	c #23212E",
"m$	c #262430",
"n$	c #282633",
"o$	c #2A2936",
"p$	c #22222E",
"q$	c #372023",
"r$	c #D6674B",
"s$	c #F9814E",
"t$	c #D55A43",
"u$	c #DB6349",
"v$	c #F56F47",
"w$	c #A13C35",
"x$	c #7B5147",
"y$	c #82848A",
"z$	c #1F1C29",
"A$	c #592D2E",
"B$	c #140F17",
"C$	c #17131A",
"D$	c #1E1B23",
"E$	c #292732",
"F$	c #2C2C38",
"G$	c #292834",
"H$	c #1F1D29",
"I$	c #622D28",
"J$	c #DD5B3F",
"K$	c #D55545",
"L$	c #994238",
"M$	c #C54C40",
"N$	c #763B39",
"O$	c #463734",
"P$	c #3F1D1C",
"Q$	c #5D2826",
"R$	c #A03D38",
"S$	c #B76A5B",
"T$	c #444751",
"U$	c #2E2F3A",
"V$	c #462E35",
"W$	c #472931",
"X$	c #140F1A",
"Y$	c #252226",
"Z$	c #282729",
"`$	c #946F55",
" %	c #E17649",
".%	c #D15735",
"+%	c #B94230",
"@%	c #802D29",
"#%	c #814C2E",
"$%	c #3B2E31",
"%%	c #844641",
"&%	c #D66044",
"*%	c #AA413E",
"=%	c #1A1521",
"-%	c #3A383A",
";%	c #722621",
">%	c #B85126",
",%	c #B94D1D",
"'%	c #B34117",
")%	c #753C19",
"!%	c #494245",
"~%	c #523B3D",
"{%	c #DA6947",
"]%	c #F87F4B",
"^%	c #D15240",
"/%	c #3D1C27",
"(%	c #301A22",
"_%	c #6D3B38",
":%	c #483437",
"<%	c #884541",
"[%	c #DC4E1D",
"}%	c #9E101A",
"|%	c #6F0F17",
"1%	c #962C1D",
"2%	c #7B4223",
"3%	c #623832",
"4%	c #93594C",
"5%	c #A84C3E",
"6%	c #C25E45",
"7%	c #D55746",
"8%	c #90413C",
"9%	c #484542",
"0%	c #C18271",
"a%	c #E31D12",
"b%	c #B4471F",
"c%	c #810C15",
"d%	c #933D1D",
"e%	c #BC3C1E",
"f%	c #7A091A",
"g%	c #88521F",
"h%	c #29282C",
"i%	c #BB8867",
"j%	c #F37846",
"k%	c #F06540",
"l%	c #CC4D39",
"m%	c #8E2126",
"n%	c #4E2428",
"o%	c #6C6351",
"p%	c #C37956",
"q%	c #DA2826",
"r%	c #B71417",
"s%	c #7F0818",
"t%	c #780719",
"u%	c #8C0B15",
"v%	c #A60D19",
"w%	c #720B1B",
"x%	c #9F621C",
"y%	c #252429",
"z%	c #6B4126",
"A%	c #A33717",
"B%	c #A31618",
"C%	c #822916",
"D%	c #8E281A",
"E%	c #7F2623",
"F%	c #5C4933",
"G%	c #D75827",
"H%	c #BE6317",
"I%	c #B36318",
"J%	c #B46319",
"K%	c #B96319",
"L%	c #B2641A",
"M%	c #B1671C",
"N%	c #B3671E",
"O%	c #984A1E",
"P%	c #2F2E31",
"Q%	c #6E4525",
"R%	c #D88820",
"S%	c #C93D19",
"T%	c #862919",
"U%	c #902B20",
"V%	c #792123",
"W%	c #292529",
"X%	c #710E14",
"Y%	c #6F0915",
"Z%	c #4A0A14",
"`%	c #420A13",
" &	c #480A14",
".&	c #5D0C17",
"+&	c #5E0D19",
"@&	c #47131D",
"#&	c #333034",
"$&	c #4F3B3B",
"%&	c #AD1817",
"&&	c #C3675E",
"*&	c #BB3D39",
"=&	c #650A15",
"-&	c #7F0F1B",
";&	c #603A18",
">&	c #B18636",
",&	c #EE1E14",
"'&	c #E56F66",
")&	c #DE4038",
"!&	c #B3141B",
"~&	c #780C18",
"{&	c #8C5218",
"]&	c #CA982F",
"^&	c #CA1518",
"/&	c #AC0D19",
"(&	c #AB0D1A",
"_&	c #9A0D1B",
":&	c #640C17",
"<&	c #8B4E1C",
"[&	c #A16029",
"}&	c #C66C1F",
"|&	c #C67E22",
"1&	c #C38025",
"2&	c #BC7422",
"3&	c #8F3F1A",
"4&	c #472C21",
"5&	c #671017",
"6&	c #650B14",
"7&	c #610D15",
"8&	c #5F0D14",
"9&	c #5D1016",
"0&	c #4E1F25",
"a&	c #2A2A2D",
"                                                                                                    ",
"                                                                                                    ",
"                                  . + @ #                                                           ",
"                                $ % & * = - ; > , '                                                 ",
"                                ) ! ~ { ] ^ / ( _ : < [ } |                                         ",
"                                1 2 3 4 5 6 7 8 9 0 0 a b c d                                       ",
"                              e f g h i j k l m n 0 0 o p q r s t u                                 ",
"                              v w x y z A B C 0 0 0 0 m D E F G H I J                               ",
"                            K L M N O P Q R 0 0 0 0 0 0 S m T n 0 U V a                             ",
"                            W X Y Z `  ...+.0 0 0 0 0 0 S n n 0 0 0 @.#.$.                          ",
"                            %.&.*.=.-.;.>.,.0 '.'.0 0 0 0 S S 0 0 0 U a ).!.                        ",
"                            ~.{.].^./.(._.0 0 0 :.0 0 0 0 S 0 0 0 0 n a <.[.                        ",
"                            }.|.1.2.3.4.5.U 0 0 0 0 0 0 0 n 6.7.8.9.0.a a.b.                        ",
"                            c.d.e.f.g.h.i.U U U 0 0 0 j.0 T k.l.m.n.o.a a p.                        ",
"                            q.r.s.t.u.v.w.x.U U y.z.A.B.C.D.E.F.F.G.H.I.J.K.                        ",
"                              L.M.N.O.P.Q.R.S.T.U.V.W.X.Y.Z.`. +.+++@+#+$+%+                        ",
"                              &+*+=+-+;+>+,+'+)+!+~+{+]+^+/+(+_+:+<+[+}+|+1+                        ",
"                                2+3+4+5+6+7+8+9+0+a+b+c+d+e+f+g+h+i+j+k+l+m+                        ",
"                                n+o+p+q+r+s+t+u+v+w+x+y+z+A+B+C+D+E+F+G+H+                          ",
"                                  I+J+K+L+M+N+O+P+Q+R+S+T+U+V+W+X+Y+Z+`+                            ",
"                                   @.@+@@@#@$@L+%@&@*@=@-@;@>@,@'@)@!@~@                            ",
"                                  {@]@^@/@(@#@#@_@:@<@[@}@|@1@2@3@4@5@6@                            ",
"                                  7@8@9@0@a@b@b@c@d@e@f@g@h@i@j@k@l@m@n@                            ",
"                                  o@p@q@r@s@t@b@u@v@w@x@y@z@A@B@C@D@E@F@                            ",
"                                  G@H@I@J@K@L@M@N@O@P@Q@R@S@T@U@V@W@X@                              ",
"                                    Y@Z@`@ #.#+#@###$#%#&#*#=#-#;#>#,#                              ",
"                                        '#)#!#~#{#]#^#/#(#_#:#<#[#                                  ",
"                                          }#|#1#2#3#4#5#6#7#8#9#0#a#                                ",
"                                        b#c#d#e#f#g#h#i#j#k#l#m#n#o#p#                              ",
"                                      q#r#s#t#u#v#j#w#w#x#y#z#A#B#C#D#E#                            ",
"                                    F#G#H#I#J#K#w#L#L#w#M#N#O#P#Q#R#S#T#                            ",
"                                  U#V#W#X#Y#Z#`# $.$+$v#@$#$$$  %$&$*$=$-$                          ",
"                                  ;$>$,$'$)$!$~${$]$^$/$($_$:$<$[$}$}$|$1$                          ",
"                                  2$3$4$5$v#v#6$#$7$8$+$9$0$a$b$c$d$e$f$g$                          ",
"                                  h$i$j$w#@$k$l$m$n$o$v#v#p$q$r$s$t$u$v$w$                          ",
"                                    x$y$v#z$A$B$C$D$E$F$v#G$H$I$J$K$L$M$N$                          ",
"                                      O$P$Q$R$S$      T$U$V$W$X$Y$Z$  Z$                            ",
"                                      `$ %.%+%@%#%    $%%%&%*%=%-%                                  ",
"                                        ;%>%,%'%)%!%  ~%{%]%^%/%(%_%                                ",
"                                      :%<%[%}%|%1%2%    3%4%5%6%7%8%                                ",
"                                  9%0%a%b%c%d%e%f%g%h%    i%j%k%l%m%n%                              ",
"                                o%p%q%r%s%t%u%v%w%x%y%    z%A%B%C%D%E%                              ",
"                                F%G%H%I%J%K%L%M%N%O%P%    Q%R%S%T%U%V%                              ",
"                                W%X%Y%Z%`% &.&+&@&#&      $&%&&&*&=&-&;&                            ",
"                                                          >&,&'&)&!&~&{&                            ",
"                                                          ]&^&/&(&_&:&<&                            ",
"                                                          [&}&|&1&2&3&4&                            ",
"                                                          5&6&7&8&9&0&a&                            ",
"                                                                                                    ",
"                                                                                                    "};
