/* XPM */
static char * num_1_xpm[] = {
"47 62 241 2",
"  	c #000001",
". 	c #140D18",
"+ 	c #08060B",
"@ 	c #050107",
"# 	c #000711",
"$ 	c #070918",
"% 	c #040310",
"& 	c #090115",
"* 	c #150619",
"= 	c #261B25",
"- 	c #1A0E19",
"; 	c #1A0B13",
"> 	c #241D22",
", 	c #19171A",
"' 	c #18171F",
") 	c #1A151D",
"! 	c #1C1321",
"~ 	c #201121",
"{ 	c #241626",
"] 	c #0F030B",
"^ 	c #160801",
"/ 	c #110900",
"( 	c #110102",
"_ 	c #98918B",
": 	c #000000",
"< 	c #7F7B44",
"[ 	c #8F873D",
"} 	c #8F852E",
"| 	c #938330",
"1 	c #98822E",
"2 	c #81753B",
"3 	c #474331",
"4 	c #F5EC95",
"5 	c #F8EA79",
"6 	c #F6E46D",
"7 	c #EFDD67",
"8 	c #F8E566",
"9 	c #F6DC59",
"0 	c #FAE064",
"a 	c #F5DC68",
"b 	c #756847",
"c 	c #0A0301",
"d 	c #120D0C",
"e 	c #413E3D",
"f 	c #423B07",
"g 	c #DECF67",
"h 	c #E7D74C",
"i 	c #F5DB4F",
"j 	c #FCE14C",
"k 	c #F9D745",
"l 	c #FDDB52",
"m 	c #E8CF4C",
"n 	c #F7E181",
"o 	c #655732",
"p 	c #190A00",
"q 	c #1F1B19",
"r 	c #3E2D03",
"s 	c #F2DD50",
"t 	c #F8D64D",
"u 	c #FEDB49",
"v 	c #FCD83D",
"w 	c #F7D439",
"x 	c #FFD63D",
"y 	c #F1E179",
"z 	c #6F6035",
"A 	c #1B1817",
"B 	c #7D6A1D",
"C 	c #7C6805",
"D 	c #FAD24B",
"E 	c #FEE145",
"F 	c #F5DE78",
"G 	c #796B38",
"H 	c #0D0604",
"I 	c #433107",
"J 	c #EDD87A",
"K 	c #EDD670",
"L 	c #FDD445",
"M 	c #FEDB40",
"N 	c #FBD731",
"O 	c #716029",
"P 	c #1E131E",
"Q 	c #1A0400",
"R 	c #5C4819",
"S 	c #F2D47A",
"T 	c #F3D266",
"U 	c #F8D85F",
"V 	c #F9CF36",
"W 	c #F9DB34",
"X 	c #FCDF38",
"Y 	c #796830",
"Z 	c #23131F",
"` 	c #594811",
" .	c #FFDB36",
"..	c #FFD532",
"+.	c #F9DC3F",
"@.	c #F1DC46",
"#.	c #F0E070",
"$.	c #F9E173",
"%.	c #F6DA46",
"&.	c #F4DE3E",
"*.	c #73682E",
"=.	c #15111E",
"-.	c #EBD031",
";.	c #1C1527",
">.	c #FBD775",
",.	c #0D061D",
"'.	c #150909",
").	c #573D20",
"!.	c #FFDC87",
"~.	c #FEC455",
"{.	c #FFCA4B",
"].	c #FFD851",
"^.	c #776735",
"/.	c #FDC57D",
"(.	c #FFB759",
"_.	c #FFB84E",
":.	c #FFC44D",
"<.	c #FFD043",
"[.	c #1E1228",
"}.	c #481F0D",
"|.	c #A95323",
"1.	c #B64702",
"2.	c #BA4E00",
"3.	c #C16600",
"4.	c #FFC93F",
"5.	c #FDDE72",
"6.	c #7A6434",
"7.	c #1C151A",
"8.	c #501B10",
"9.	c #AE471E",
"0.	c #C43D02",
"a.	c #26182D",
"b.	c #1D0306",
"c.	c #5A1212",
"d.	c #C1412F",
"e.	c #CF330C",
"f.	c #D05000",
"g.	c #F4D93A",
"h.	c #7C6530",
"i.	c #0C0110",
"j.	c #250104",
"k.	c #5D120C",
"l.	c #C43C2F",
"m.	c #D8311D",
"n.	c #D6310A",
"o.	c #FFBE49",
"p.	c #1F0C16",
"q.	c #2F0708",
"r.	c #C03834",
"s.	c #D22D21",
"t.	c #C94600",
"u.	c #261214",
"v.	c #BB3D3C",
"w.	c #CA3427",
"x.	c #CC331E",
"y.	c #CB4F14",
"z.	c #260701",
"A.	c #571517",
"B.	c #B04344",
"C.	c #B43425",
"D.	c #C35623",
"E.	c #1A070A",
"F.	c #430D0E",
"G.	c #A64E4D",
"H.	c #A54237",
"I.	c #BA6834",
"J.	c #FBC85D",
"K.	c #A3807C",
"L.	c #4F1415",
"M.	c #753304",
"N.	c #340200",
"O.	c #532702",
"P.	c #230506",
"Q.	c #4D2B01",
"R.	c #1F1214",
"S.	c #442E03",
"T.	c #F0D26E",
"U.	c #090813",
"V.	c #3D3105",
"W.	c #FDDB5A",
"X.	c #FADD78",
"Y.	c #705A25",
"Z.	c #18120A",
"`.	c #FFD14D",
" +	c #FED054",
".+	c #422810",
"++	c #FEBE56",
"@+	c #FFB344",
"#+	c #7F5E38",
"$+	c #280E23",
"%+	c #CE4300",
"&+	c #CD4407",
"*+	c #C04500",
"=+	c #63251F",
"-+	c #280410",
";+	c #1F0019",
">+	c #4E0D1E",
",+	c #A83921",
"'+	c #CC3A10",
")+	c #D42D00",
"!+	c #DD3310",
"~+	c #D92800",
"{+	c #B83F24",
"]+	c #6B1924",
"^+	c #280014",
"/+	c #290921",
"(+	c #4F0E1A",
"_+	c #B6372D",
":+	c #D32D12",
"<+	c #E12511",
"[+	c #E62B15",
"}+	c #DE2217",
"|+	c #E13107",
"1+	c #220E20",
"2+	c #1E0011",
"3+	c #47040D",
"4+	c #E72D1E",
"5+	c #DC2C17",
"6+	c #3C060C",
"7+	c #C24A3E",
"8+	c #CC2514",
"9+	c #DA1B0B",
"0+	c #631D24",
"a+	c #0D0A0F",
"b+	c #AA382D",
"c+	c #D01C0E",
"d+	c #E1361E",
"e+	c #DA2A0C",
"f+	c #BE3F33",
"g+	c #631D1E",
"h+	c #260710",
"i+	c #BF403A",
"j+	c #651A1A",
"k+	c #B84136",
"l+	c #B04947",
"m+	c #4C1817",
"n+	c #631017",
"o+	c #20020A",
"p+	c #2B0110",
"q+	c #2F0017",
"r+	c #221827",
"                                                                                              ",
"                                                                                              ",
"                                                                                              ",
"                                                                                              ",
"                                                                                              ",
"                                      . + @ # # $ % & * * @                                   ",
"                                    = - ; > , , ' ) ! ~ { ]                                   ",
"                                    ^ ^ ^ ^ / / / ( ^ ( ^ ^ _                                 ",
"                                : : < [ } } } } | | 1 1 | 2 3 : :                             ",
"                            : : : : 4 5 6 7 8 8 8 9 0 a 6 4 b c d c e                         ",
"                            : : : f g h 0 9 i i j k l i m n o p q + :                         ",
"                            : : : r 7 s t t k u v w x u i y z ( A + :                         ",
"                            : : B C 9 j D l l k w E u k i F G H A + :                         ",
"                    @ ] p I : J K 0 k v u L L v M N w u i F O c A @ :                         ",
"                    & P Q R S T U t E N M V u M W X X X s 5 Y c A @ :                         ",
"                    & Z ( ` K 9 l v N  ...E w +.W X W X @.#.Y c q @ :                         ",
"                    % P p ` $.%.&.E W N E w W X  . . .M @.6 *.H A @ : :                       ",
"                    % =./ ` a %.E -.X M M E X W  .v x M @.6 *.H A @ : :                       ",
"                    & ;./ R >.D u x M M w +.X X  .M x M %.6 *.c A @ : :                       ",
"                    ,.;.'.).!.~.{.].V +.j +.W N v M x v k $.^.c , @ : :                       ",
"                    & ,.'.)./.(._.:.<.v %.%.+.X v M v u t $.^.c , @ : :                       ",
"                    ,.[.; }.|.1.2.3.4.j %.%.+.M +.M v u t 5.6.c 7.@ : :                       ",
"                    & [.; 8.9.0.0.2.{.u %.E M w v M v u t 5.6.H A @ : :                       ",
"                    & a.b.c.d.e.e.f.:.L k g.M ..v +.v M t 5.h.H A @ : :                       ",
"                    i.Z j.k.l.m.n.f.o.<.v M M .. .+.v v l 5.Y c A @ : :                       ",
"                    @ p.q.k.r.s.e.t.~.<.x M x M  .W v v u $.Y H A @ : :                       ",
"                    c u.j.c.v.w.x.y.~.L x v V .. .X  .v u $.Y c A @ :                         ",
"                    H u.z.A.B.r.C.D._.<.v v E M  . . .v i $.Y c A @ :                         ",
"                    c E.Q F.G.H.H.I.J.l M v E v  . .v v i $.Y H A @ :                         ",
"                          K.L.k.k.M.J.L w +.+.+.M M v v i F ^.H A @ :                         ",
"                            j.N.q.O.T l %.E +.+.M v x v i F ^.c A @ :                         ",
"                            b.P.z.Q.T t k g.E g.M v x v t F Y c A @ :                         ",
"                            ] R.^ S.T.].v v v x v v v v l 5.h.H A @ :                         ",
"                            U.7./ V.T.l v v v x v v M v t 5.h.c A @ :                         ",
"                            U.) / V.J l %.+.M v M +.+.%.i F ^.c 7.@ :                         ",
"                            U.) '.I J i %.+.M v M +.&.@.i F ^.( 7.@ :                         ",
"                            U.) ^ I T.i +.W M x v M +.+.i $.6.( A @ :                         ",
"                            U.) ^ I K i +. .v x x  .W &.%.$.h.( A @ :                         ",
"                            U.7.^ r K i +. . ...x  .W &.s #.^.c A @ :                         ",
"                            U.) / r K i +. .v x x v W &.s #.G H A @ :                         ",
"                            U.) '.r S t u M x v x M +.&.i F ^.( A @ :                         ",
"                            U.) ( S.T.W.k v v v M v +.j i X.6.^ A @ :                         ",
"                            U.) / I T.l v M E +.+.+.+.g.k $.h.( A @ :                         ",
"                            U.7.c r >.l L v u k %.k M u D 5.Y.( A @ :                         ",
"                            U., Z.V.S {.`.`.].`.].`.<.`. +X.6./ A @ :                         ",
"                            U.) c .+/.++++@+_.++_._._._.(./.#+( 7.@ :                         ",
"                            U.! $+F.|.1.t.%+&+0.&+&+%+t.*+9.=+-+P @ :                         ",
"                          : + ~ ;+>+,+'+n.)+!+n.n.n.~+)+'+{+]+^+~ @ :                         ",
"                          : . * /+(+_+:+!+<+[+}+}+<+[+|+:+l.]+^+1+U.:                         ",
"                          : @ ! 2+3+_+m.<+<+4+4+4+4+<+<+5+l.]+^+~ % :                         ",
"                          : + - Z 6+7+8+4+[+9+<+9+[+[+<+5+l.0+2+{ @ :                         ",
"                          : a+P p.6+b+x.c+<+d+5+d+e+e+5+m.f+g+h+P U.                          ",
"                          : a+7.P.L.b+w.s.m.m.5+:+m.m.8+x.i+j+P.E.+                           ",
"                            c H E.N.G.k+i+r.l.l.l.l.l.f+7+l+=+b.R.c                           ",
"                                  : m+A.0+g+n+n+n+n+c.g+A.F.:                                 ",
"                                    h+h+o+2+p+q+-+p+h+o+-+o+                                  ",
"                                    { ~ r+! 1+$+1+[.;.! { ;                                   ",
"                                    i.i.% % U.@ % % # % i.]                                   ",
"                                                                                              ",
"                                                                                              ",
"                                                                                              ",
"                                                                                              "};
