/* XPM */
static char * num_7_xpm[] = {
"50 62 256 2",
"  	c #000001",
". 	c #4D4B49",
"+ 	c #535154",
"@ 	c #4C474C",
"# 	c #51505A",
"$ 	c #5B5B65",
"% 	c #1F1D14",
"& 	c #100102",
"* 	c #070309",
"= 	c #0A0417",
"- 	c #100E21",
"; 	c #0D0311",
"> 	c #060511",
", 	c #14101D",
"' 	c #1B151F",
") 	c #14131B",
"! 	c #100F0C",
"~ 	c #46403F",
"{ 	c #180E11",
"] 	c #201419",
"^ 	c #2A202A",
"/ 	c #200F25",
"( 	c #1E0F2B",
"_ 	c #1F0F20",
": 	c #1F141E",
"< 	c #1C151A",
"[ 	c #1F1409",
"} 	c #261913",
"| 	c #160700",
"1 	c #1C0802",
"2 	c #1D1500",
"3 	c #271701",
"4 	c #100B00",
"5 	c #807973",
"6 	c #8A8065",
"7 	c #7D6E47",
"8 	c #9B8C4F",
"9 	c #8F8034",
"0 	c #947F34",
"a 	c #97893D",
"b 	c #897F41",
"c 	c #7D7569",
"d 	c #E1CE90",
"e 	c #F5E38D",
"f 	c #F6E179",
"g 	c #F6E46D",
"h 	c #EFD757",
"i 	c #F8DF6B",
"j 	c #F9E375",
"k 	c #E8DA78",
"l 	c #EFD971",
"m 	c #FDF9A7",
"n 	c #53411F",
"o 	c #2F1D00",
"p 	c #CDBD79",
"q 	c #FCE361",
"r 	c #F3D945",
"s 	c #F5D93B",
"t 	c #F2D74C",
"u 	c #FAE054",
"v 	c #64512D",
"w 	c #281F20",
"x 	c #110E12",
"y 	c #191719",
"z 	c #1E1516",
"A 	c #D7BD73",
"B 	c #FCDF4C",
"C 	c #FDE139",
"D 	c #F5D930",
"E 	c #FFDB41",
"F 	c #FBD83D",
"G 	c #FCE043",
"H 	c #F7D543",
"I 	c #6E5533",
"J 	c #F7D539",
"K 	c #FBD950",
"L 	c #F7D757",
"M 	c #180408",
"N 	c #1D1627",
"O 	c #17171F",
"P 	c #280F01",
"Q 	c #FED43B",
"R 	c #FCD44D",
"S 	c #5B3E22",
"T 	c #170B1D",
"U 	c #F9DC77",
"V 	c #FDDB49",
"W 	c #FED546",
"X 	c #5B4319",
"Y 	c #150E18",
"Z 	c #331600",
"` 	c #DCB981",
" .	c #FECD76",
"..	c #FED25D",
"+.	c #FFD355",
"@.	c #FFD04C",
"#.	c #1A0D19",
"$.	c #210C11",
"%.	c #2F0605",
"&.	c #D69C79",
"*.	c #FFAB6A",
"=.	c #FFA14A",
"-.	c #FEA644",
";.	c #FF9F3E",
">.	c #FCAA4D",
",.	c #FF9C47",
"'.	c #F8AF3E",
").	c #FFD144",
"!.	c #615125",
"~.	c #8F9195",
"{.	c #210815",
"].	c #3B0603",
"^.	c #80351F",
"/.	c #A53503",
"(.	c #BC3903",
"_.	c #C33C00",
":.	c #B73E02",
"<.	c #D37A22",
"[.	c #2B0819",
"}.	c #44020A",
"|.	c #A43431",
"1.	c #CE4429",
"2.	c #D53E04",
"3.	c #D42E05",
"4.	c #DA340B",
"5.	c #DD2D0E",
"6.	c #CE3303",
"7.	c #D96E19",
"8.	c #FCC443",
"9.	c #A1403F",
"0.	c #C63422",
"a.	c #DA2516",
"b.	c #E42909",
"c.	c #E52A14",
"d.	c #DA240A",
"e.	c #DC2F18",
"f.	c #C02703",
"g.	c #D55E16",
"h.	c #FFC754",
"i.	c #C43B2B",
"j.	c #DE3020",
"k.	c #E3291B",
"l.	c #DE6025",
"m.	c #FDD934",
"n.	c #504515",
"o.	c #2A0512",
"p.	c #903635",
"q.	c #D83426",
"r.	c #EC2614",
"s.	c #D75712",
"t.	c #1E0B16",
"u.	c #2B040B",
"v.	c #C13B33",
"w.	c #CB331B",
"x.	c #D22C11",
"y.	c #FDDD80",
"z.	c #9B9095",
"A.	c #450A0D",
"B.	c #B23C32",
"C.	c #C8372E",
"D.	c #CD2F25",
"E.	c #D32D1E",
"F.	c #FFD063",
"G.	c #FED086",
"H.	c #0E010A",
"I.	c #9D8C94",
"J.	c #200101",
"K.	c #320002",
"L.	c #8E4647",
"M.	c #BB3A38",
"N.	c #AD4232",
"O.	c #BB3E2B",
"P.	c #BE3D15",
"Q.	c #BD4500",
"R.	c #AD4A08",
"S.	c #BA6800",
"T.	c #FFBC58",
"U.	c #FFBB68",
"V.	c #511D22",
"W.	c #551318",
"X.	c #5A0A09",
"Y.	c #600405",
"Z.	c #520000",
"`.	c #5D1214",
" +	c #4C0804",
".+	c #A14321",
"++	c #FFB849",
"@+	c #C15704",
"#+	c #C26116",
"$+	c #AA5F29",
"%+	c #522C18",
"&+	c #3F2833",
"*+	c #1D0006",
"=+	c #260508",
"-+	c #410711",
";+	c #875329",
">+	c #4E1715",
",+	c #270811",
"'+	c #26131E",
")+	c #280F23",
"!+	c #81663D",
"~+	c #CE4A01",
"{+	c #B33F2E",
"]+	c #BAB2B8",
"^+	c #574B59",
"/+	c #290E1E",
"(+	c #73682E",
"_+	c #590F1A",
":+	c #6F7376",
"<+	c #6B7268",
"[+	c #000000",
"}+	c #FFBF4E",
"|+	c #C84D12",
"1+	c #6A6D59",
"2+	c #756215",
"3+	c #FFD532",
"4+	c #C75324",
"5+	c #B24C4E",
"6+	c #7E7D7C",
"7+	c #8A7B25",
"8+	c #BBA247",
"9+	c #D48720",
"0+	c #E48A3A",
"a+	c #DF8041",
"b+	c #8B2605",
"c+	c #891C17",
"d+	c #7D1A20",
"e+	c #651B22",
"f+	c #8F6D69",
"g+	c #91887C",
"h+	c #99835D",
"i+	c #B34104",
"j+	c #CEC0BB",
"k+	c #9E7A4D",
"l+	c #CB4000",
"m+	c #CE350F",
"n+	c #9B8955",
"o+	c #B13229",
"p+	c #A1874C",
"q+	c #FFE16E",
"r+	c #E8B149",
"s+	c #9D481A",
"t+	c #A23428",
"u+	c #6B4446",
"v+	c #3B393D",
"w+	c #E7C56B",
"x+	c #2E1503",
"y+	c #FFDB72",
"z+	c #E3B774",
"A+	c #F0AA78",
"B+	c #852922",
"C+	c #C34224",
"D+	c #76292A",
"E+	c #B7413E",
"F+	c #6C1918",
"G+	c #796768",
"                                                                                                    ",
"                                                                                                    ",
"                                                                                                    ",
"                                                                                                    ",
"                    . . + + @ # # # # # # # # # # # # # # $ $ $ # # $ $ $                           ",
"                  % & * * = - = ; > ; > ; > ; > ; > ; > ; , ' ' - = - - ) !                         ",
"                  ~ { ] ^ / ( ( _ : : : : : : : : : : : : ^ ^ ^ ^ ' : < [ %                         ",
"                  } | | & & 1 1 | | | | | | | | | & & | | | 1 2 3 [ & & 2 4                         ",
"              5 6 7 8 9 0 9 0 0 0 9 0 9 0 9 0 9 0 9 0 0 0 0 a a a a 9 b a b 6 c 5                   ",
"          & & 4 & d e f g h g g g g i g i g i g i g i g i g i g g j f k l m n [ } &                 ",
"          ! } [ o p l q r s s r t t t t t t t t t t t t t t t t u q h h h e v } w x                 ",
"          y z | o A j B s C C D s E E E E E E E E E E E F F E G B H q q h l I 1 { >                 ",
"          y { } o A i r C D C C E E E E E E E E F F F J J J J F B K L L h f n M N >                 ",
"          O ' | P A j u s C E E E E E E E E F F F E E E E E F Q H u R L t l S M T >                 ",
"          x ' [ 3 d U L r s H K V W W W W W W W W W W W W W W Q J J V V B i X M : >                 ",
"          O Y | Z `  ...+.@.+...+.+.+.+.@.@.+.+.+.R W Q W W W W F E V B B i X | #.>                 ",
"          O Y $.%.&.*.=.-.;.>.>.=.;.,.=.-.-.;.-.>.'.).E Q G W W W V H B u l !.& : > ~.              ",
"          O Y {.].^./.(._._.:.:._._._._.:.:.(.:./.<.).G J E J V W H H B K f !.4 T = ~.              ",
"          ' T [.}.|.1.2.3.3.4.4.4.5.4.3.6.6.6.6._.7.8.Q J G E J Q Q E B K f !.4 ' > ~.              ",
"          : _ [.}.9.0.a.b.b.c.d.b.b.c.e.e.5.c.5.f.g.h.V E s F E E Q E V K l !.4 ' > ~.              ",
"          ' T [.}.9.i.j.d.b.k.k.c.c.e.e.e.k.c.c.e.l.h.W E s F m.m.m.E H K l n.4 y > ~.              ",
"          y #.o.}.p.i.q.k.r.a.k.5.5.e.j.j.k.r.b.6.s.h.W V s E m.D m.F W R U n.4 < * ~.              ",
"          z t.u.}.9.v.w.e.k.a.j.e.x.j.j.j.k.b.5.6.7.h.W H G E m.D s Q @...y.n.4 < * z.              ",
"          { $.u.A.p.B.C.D.E.q.D.w.w.D.D.E.E.3.2.(.7.h.W H F E E G J R +.F.G.n.4 < H.I.              ",
"          [ ] J.K.L.9.|.B.M.B.B.N.N.M.M.O.P.Q.Q.R.S.K W E F E E J W h.T.U.G.S & ] H.z.              ",
"                  V.W.X.X.Y.Z.`. +`.X.Y.Y..+U.'.++8.V F Q Q G J W 8.S.@+#+$+%+& : H.z.              ",
"                  &+*+u.=+J.=+*+$.{.=+-+K.;+y.+.R V H E Q Q E Q W h.@+_.:..+>+,+t.H.~.              ",
"                  &+t.'+'+: #.^ , N )+[.J.!+l t r B B E Q E J G R ++~+f.w.{+A.{.'+*                 ",
"                  '+H.#.; T H.; = T )+[.M !+l u B s G J Q E s G ).h.s.6.w.v.W.[.: *                 ",
"                              ]+]+^+; /+1 (+j r J J F H E E s G V h.~+3.j.v._+{.#.*                 ",
"                                  :+* % 4 (+g B E G W H E J G G B h.s.3.E.v._+[.#.*                 ",
"                                  <+[+2 4 (+g r E E Q V E E H H R }+|+f.D.M.W.,+] *                 ",
"                                  1+4 2 4 2+j K G 3+E B B H +...F. .4+i.M.5+].| ! [+                ",
"                            5 6+5 6 b 9 7+8+L K Q m.F s B @.9+<.0+a+b+c+d+e+f+g+5                   ",
"                          ~ & & & h+e j i L t s C C C F E 8.i+_.(./.Z.K.%.M j+                      ",
"                          . < w 1 k+l h t r s G D m.E E Q }+l+6.m+O. +%.t.' ]+                      ",
"                          . * z | n+j r G F G E E W V V W '.2.3.w.{+W.*+_ >                         ",
"                          ~ * y & n+g r E m.G G W W R R K '.2.3.w.B.A./+/ T                         ",
"                          @ x z 4 8 g s C m.G s E V W R K ++l+4.q.o+W.t./ >                         ",
"                          + * z | p+g s F m.s E E Q W W W ++_.m+D.M.>+t., ,                         ",
"                          @ > z 1 p+q+V Q E E E 3+E Q ).K ++i+1.C.|.].& > >                         ",
"                          @ > ] M p+i B E E G E 3+m.Q V R r+s+t+|.p.u+~ v+v+                        ",
"                          @ > < | n+j r s G s s m.m.m.H q w+].].K.%.                                ",
"                          @ > < & n+l u B s r B E E F H L A x+$.$.]                                 ",
"                          @ > < 1 n+y+R W V R R V V V +.F.z+x+{ , O                                 ",
"                          @ > ] M k+ .}+++++T.++++++}+++U.A+P : - )                                 ",
"                          @ > '+%.^.R.Q.~+l+2.2.~+~+_.|+P..+].t./ T                                 ",
"                          @ ; {.K.B+C+6.3.5.c.b.5.3.3.m+w.{+].{.T N                                 ",
"                          @ ; {.K.B+0.d.e.k.a.k.k.e.e.j.q.o+A.{._ ,                                 ",
"                          ^+= '+K.B+C.e.d.k.k.e.k.k.a.k.q.B.K.t.Y '                                 ",
"                          @ > '+u.D+C.j.k.c.5.5.5.d.c.j.E.E+K.#.Y O                                 ",
"                          @ * '+u.D+v.q.e.e.5.5.5.5.c.j.D.|.K.: Y y                                 ",
"                          . ! $.%.D+M.D.q.E.x.x.x.x.x.q.C.|.A.$.] x                                 ",
"                          ~ & 1 J.D+5+M.M.O.i.i.i.i.i.o+E+9.J.M & y                                 ",
"                                  u+A._+e+_+`.F+X.F+`.e+W.V.                                        ",
"                                  G+*+o.*+[.[.o.o.J.o.,+*+&+                                        ",
"                                  G+t._ N N ( / / )+_ T t.&+                                        ",
"                                  G+* > > > > - = = > > * :                                         ",
"                                    5       ~.6+  6+                                                ",
"                                                                                                    ",
"                                                                                                    ",
"                                                                                                    "};
