/* XPM */
static char * num_3_xpm[] = {
"54 62 252 2",
"  	c #000001",
". 	c #6B6B63",
"+ 	c #504D51",
"@ 	c #51515A",
"# 	c #504B47",
"$ 	c #050308",
"% 	c #0C0210",
"& 	c #03030F",
"* 	c #090418",
"= 	c #090401",
"- 	c #171416",
"; 	c #241C1F",
"> 	c #201520",
", 	c #1E1127",
"' 	c #1B152A",
") 	c #14050E",
"! 	c #000000",
"~ 	c #453D2D",
"{ 	c #0F0900",
"] 	c #150400",
"^ 	c #140103",
"/ 	c #766C72",
"( 	c #7D7376",
"_ 	c #807B6E",
": 	c #837C64",
"< 	c #8A7E4A",
"[ 	c #877C40",
"} 	c #918235",
"| 	c #93852F",
"1 	c #907C1B",
"2 	c #767472",
"3 	c #6A6E6A",
"4 	c #AEA372",
"5 	c #F4E797",
"6 	c #F4E583",
"7 	c #F3E276",
"8 	c #F4E26B",
"9 	c #F8DF6B",
"0 	c #FAE565",
"a 	c #362907",
"b 	c #393030",
"c 	c #1E120E",
"d 	c #211002",
"e 	c #BDAD63",
"f 	c #EED859",
"g 	c #F3D94D",
"h 	c #FCD948",
"i 	c #FBD950",
"j 	c #FED64F",
"k 	c #FCD759",
"l 	c #DFD170",
"m 	c #675925",
"n 	c #251C0D",
"o 	c #161209",
"p 	c #32271B",
"q 	c #220B02",
"r 	c #B79E3C",
"s 	c #F4E04A",
"t 	c #F6DA3D",
"u 	c #FCD93E",
"v 	c #FFDC41",
"w 	c #FFD53C",
"x 	c #FADE4A",
"y 	c #FBE055",
"z 	c #5B4600",
"A 	c #1B1200",
"B 	c #9A9286",
"C 	c #9B937D",
"D 	c #6A5D3C",
"E 	c #756624",
"F 	c #77610A",
"G 	c #CFB83D",
"H 	c #FFD647",
"I 	c #F2D743",
"J 	c #D4C896",
"K 	c #FBDD74",
"L 	c #FBDE41",
"M 	c #F2CF33",
"N 	c #F6DF72",
"O 	c #6B6A71",
"P 	c #1C1216",
"Q 	c #CEBF7D",
"R 	c #FADE36",
"S 	c #FEDA35",
"T 	c #F8E68B",
"U 	c #291D00",
"V 	c #D2C070",
"W 	c #FFD04C",
"X 	c #FFD156",
"Y 	c #7C6636",
"Z 	c #140B21",
"` 	c #FFD633",
" .	c #FECC40",
"..	c #FDA241",
"+.	c #FFA04A",
"@.	c #FFB247",
"#.	c #FFDC7A",
"$.	c #766530",
"%.	c #151818",
"&.	c #FFE06D",
"*.	c #D99018",
"=.	c #A63600",
"-.	c #C53B00",
";.	c #BA3C00",
">.	c #B64300",
",.	c #C15B05",
"'.	c #F3DE3E",
").	c #736F6D",
"!.	c #191721",
"~.	c #170918",
"{.	c #F5A336",
"].	c #D33A0C",
"^.	c #D8320E",
"/.	c #CE2703",
"(.	c #C55704",
"_.	c #FFC54D",
":.	c #2F1900",
"<.	c #E4C57E",
"[.	c #FFD063",
"}.	c #FFCB53",
"|.	c #F9B83B",
"1.	c #FC983C",
"2.	c #C22E05",
"3.	c #DD2E0F",
"4.	c #E42913",
"5.	c #736A30",
"6.	c #756D79",
"7.	c #270609",
"8.	c #330C00",
"9.	c #D9A26B",
"0.	c #FDC672",
"a.	c #FFBB4F",
"b.	c #FFBA59",
"c.	c #FFB456",
"d.	c #F27730",
"e.	c #CA4808",
"f.	c #AF4E02",
"g.	c #C66F05",
"h.	c #22101D",
"i.	c #521C0B",
"j.	c #8C4116",
"k.	c #C24E04",
"l.	c #E3281B",
"m.	c #DD511C",
"n.	c #FDB367",
"o.	c #200E20",
"p.	c #2D0208",
"q.	c #420709",
"r.	c #94351C",
"s.	c #C64B2B",
"t.	c #C93100",
"u.	c #C92F16",
"v.	c #2E0313",
"w.	c #470106",
"x.	c #A53B36",
"y.	c #C12F1F",
"z.	c #D22D1B",
"A.	c #DC2D18",
"B.	c #D62211",
"C.	c #E03006",
"D.	c #DC3704",
"E.	c #FEDD80",
"F.	c #816331",
"G.	c #2A0116",
"H.	c #C7362D",
"I.	c #DD2D1F",
"J.	c #E92116",
"K.	c #E52609",
"L.	c #FFCB84",
"M.	c #7D5237",
"N.	c #F16E2A",
"O.	c #FFAE50",
"P.	c #FEB845",
"Q.	c #D8671A",
"R.	c #BB6232",
"S.	c #662821",
"T.	c #240412",
"U.	c #280210",
"V.	c #C13D34",
"W.	c #CC2D25",
"X.	c #E6792B",
"Y.	c #FFC665",
"Z.	c #BA3102",
"`.	c #A03A14",
" +	c #5D1A1D",
".+	c #342B36",
"++	c #340F17",
"@+	c #853521",
"#+	c #B83C35",
"$+	c #D5311C",
"%+	c #CD260D",
"&+	c #D53F00",
"*+	c #CD4208",
"=+	c #B54A23",
"-+	c #91443C",
";+	c #AE4E47",
">+	c #B33939",
",+	c #C33C2E",
"'+	c #C34531",
")+	c #AC2C12",
"!+	c #D88038",
"~+	c #C8B2AF",
"{+	c #BE9F9F",
"]+	c #4E1819",
"^+	c #5C1914",
"/+	c #621114",
"(+	c #68110B",
"_+	c #6B0900",
":+	c #AB6526",
"<+	c #FF953E",
"[+	c #1A0008",
"}+	c #3E1D1B",
"|+	c #2A0402",
"1+	c #210908",
"2+	c #350200",
"3+	c #2A1724",
"4+	c #25101A",
"5+	c #805713",
"6+	c #8E805E",
"7+	c #937946",
"8+	c #A57D30",
"9+	c #C17B2F",
"0+	c #E5923C",
"a+	c #D07E22",
"b+	c #DD8820",
"c+	c #E48623",
"d+	c #392800",
"e+	c #CF4600",
"f+	c #825032",
"g+	c #A34000",
"h+	c #2B1020",
"i+	c #93322A",
"j+	c #DC5E23",
"k+	c #6F2126",
"l+	c #FF8544",
"m+	c #60131A",
"n+	c #2C172A",
"o+	c #2E0721",
"p+	c #D52300",
"q+	c #D13D2E",
"r+	c #661C27",
"s+	c #AF515A",
"t+	c #581F2D",
"u+	c #770301",
"v+	c #422E37",
"w+	c #853838",
"x+	c #B9535A",
"y+	c #6F454B",
"z+	c #564045",
"A+	c #2A0C28",
"B+	c #898589",
"C+	c #8E8B90",
"                                                                                                            ",
"                                                                                                            ",
"                                                                                                            ",
"                                                                                                            ",
"                          . + @ @ @ @ @ @ @ @ @ @ @ @ @ @ @ @ @ @ @ + + +                                   ",
"                          # $ % % & % & % & % & % & % & % & % & * * & $ $ =                                 ",
"                          # - ; > > > > > > > > > > > > > > > > , ' > > > ) !                               ",
"                          ~ { { ] ] ] ] ] ] ] ] ] ] ] ] ] ] ] ] ^ ] ^ = { { !                               ",
"                    / ( _ : < [ } } } } } } } } } } } } } } } | | 1 | | } [ : 2 2 3                         ",
"                  ; $ = ] 4 5 6 7 8 9 8 9 8 9 8 9 8 9 8 9 8 9 0 0 0 0 8 7 5 a = = =                         ",
"                  b c d d e 7 f g g g g g g g g g g g g g g g h i j k f f l m d n o                         ",
"                  p ] d q r f s t u u u u v v v v v v v v v v v w x j k y 9 z ^ A = B                       ",
"                C D m E F G y t v v v v v v v v u u u u u u u u u H H h I y 1 F E m C B                     ",
"          = = = A J 5 K 9 y h v u u u u u u u u v v v v v v v v L M h x v I 0 N 7 5 D = { = O               ",
"          P ; c n Q 7 f x L M x u u u u u u u u u u u u u u u u R R u M S L g f f T D ^ n = 2               ",
"          > % c U V 8 s t S L w v v u v u H W W X X W W W j H v R R L v S R L x g K Y = n = 3               ",
"          ' Z P n V 9 h v ` u v R R S u w  ...+.+.+.+.....@. .L R R u w t R L L i #.$.= %.$ 3               ",
"          , Z P U V &.h w S u w u L u w H *.=.-.-.-.;.>.>.,.W u '.'.w H u R R u H K $.= - & ).              ",
"          !.~.c U V 9 y u u v h h  .h j j {.;.].^./.].-.-.(._.H t t H H u S ` w H K $.= !.% /               ",
"          !.~.c :.<.[.W W W j W }.[.}.|.}.1.2.3.4.3.2.;.;.(._.H u u h H u S ` w h N 5.= > % 6.              ",
"          > ~.7.8.9.0.@.a.@.@.b.c.c.c.c.c.d./.4.3.].e.,.f.g._.H v S u u L R S S I 8 5.= h.% 6.              ",
"          > h.7.i.j.f.>.k.k.>.k.k.>.>.e.e.].3.l./.m.n.b.a._.W h S S u t '.L R u I 7 5.= > % /               ",
"          > o.p.q.r.s.2.t.^.t.u.2.].].t.].^.3.3.2.d.b._.j  .w u S S h x s '.t h g N Y ] > ) ).              ",
"          !.o.v.w.x.y.z.l.4.4.l.A.B.3.C.D.^.^.].;.,.[.j  .v u u S u H j i i W W X E.F.] P $ ).              ",
"          !.o.G.w.x.H.I.l.J.J.J.J.4.K.K./.t.e.>.f.g.X  .u S t L v  .}._.a._.a.b.b.L.M.^ > & 3               ",
"          !.o.G.w.x.H.z.l.J.J.K.J.J.K.K.t.N.+.O.P.|.j w ` S t L h W g.,.,.Q.k.(.,.R.S.T.> & 3               ",
"          ~.~.U.w.x.V.W.A.4.K.K.4.l.4.3.t.X.Y.X W H h L S t I I j X (.;.-.t.t.t.Z.`. +T., * (               ",
"          .+) ++q.@+#+H.W.$+%+%+u.u.$+u.Z.X.[.W h L t L t t I i j _.(.-.&+t.D.].*+=+S.T., * /               ",
"          = ^ ^ p.-+;+>+#+V.,+'+#+V.V.,+)+!+[.W v v u u u v h j j }.,.;.-.-.2.-.;.`.i.T., * 6.              ",
"              ~+{+]+^+/+/+(+(+(+(+(+(+_+_+:+[.h u w u w v L H H H W {...1.1.<+<++.n.M.[+~.* /               ",
"                  }+|+p.U.v.7.7.1+|+p.2+|+F.N x v S w w S R u h L u k k X }.X }.}.E.Y ] 3+% /               ",
"                  p 1+1+4+h.4+c c c c d d F.K k H  . .H w u u L S L h i h x h h y N $.] 4+$ 2               ",
"                  p { ] ^ ] 1+1+^ ] ] d ] 5+T [.k X X X W h u t R S u h H u u t x N F.] 4+% ).              ",
"          ).( ( : 6+< [ < 7+7+7+7+7+[ } 8+9+!+0+!+a+b+c+b+*.H u S S u h w w u L x N F.^ > & 3               ",
"          { = = ] Q T 7 7 7 8 0 N N 7 N #.0+=.;.;.Z.2.Z.;.f.}.H S S t h u u u u g N $.= %.$ 3               ",
"          %.- n d+V f f y s '.'.x I g f }.0+;.*+].A.^.&+e+(.a.W w R t x u u w u g 7 5.= %.$ 3               ",
"          !.& { d V 9 g g s '.'.u v '.x k b+=.-.2.t./.].Z.(.a.j u u x x v u w w h 7 5.= %.$ /               ",
"          !.!.o U V f i x h t L S S L t i |.g.X.d.N.N.N.Q.c+_.i u t x x L v S u I 8 5.{ - % /               ",
"          !.!.o U V f i H h u w w u '.'.h h W W }.}.[._.X W  .u t t h L L R R t s 8 5.{ !.* 6.              ",
"          !.$ o U V k j  .H w v w u t L t u h w h h H w w v u R t v u v L R S u h N 5.= > ~.6.              ",
"          P P c :.<.[.k j H ` S u u v v u w H w L L L L u S R R S w v w v v H j X E.F.^ 3+* O               ",
"          - ~.1+8.9.n.@.P. .` S S S u u w w H u t L '.'.L R R S S R u w u  .|.{.c.n.f+1+h.% 2               ",
"          P o.U.q.@+=.f.g+P.h t R S S v u u u u h L L L L v v S R S v h h k g.>.;.=+^+p.h+$ 3               ",
"          - o.G.w.i+s.e.>...W H u u u u w u u h h h u u u w w w v v h i j [.Q.Z.-.'+/+p.h+) 3               ",
"          - o.G.w.x.,+2.Z.<+[.W j H H H H H h h h h H H H H j j H i k k [.Y.j+2.u.'+k+v.h.$ .               ",
"          %.~.G.w.>+y.].t.l+c.a.a.a.a.a.P.P.P.P.P.P.P.P.P.P.P.a.P.@.b.c.b.n.m.%+$+V.m+U.n+% 3               ",
"          %.~.U.w.x.H.%+A.].-.e.e.e.*+*+*+*+*+*+*+*+*+e+e+e.e+e+e+e+&+&+e.&+C.3.%+'+k+p.o+~.O               ",
"          - P 7.q.i+,+z.B.A.t.].^.^.3.3.3.3.3.3.3.3.^.^.^.^.^.3.3.p+C.p+D.C.K.4.$+,+k+v.o+% /               ",
"          c ] 7.q.-+V.q+I.I.B.A.3.3.3.4.4.4.4.4.4.3.3.3.3.3.3.4.4.4.4.4.4.K.4.B.W.>+r+T.n+$ .               ",
"          = c 1+p.-+x.#+W.z.I.A.l.4.4.4.4.4.4.4.4.4.4.4.4.4.4.4.4.4.B.4.l.A.$+H.>+s+t+T.) = _               ",
"              ! ! }+q.(+_+)+u.B.l.l.l.l.l.l.l.l.l.l.l.l.l.l.l.l.3.3.3.3.%+q+u+(+m+p.! ! ! !                 ",
"                  v+[+2+w.`.q+%+A.A.A.A.A.A.A.A.A.A.A.A.A.A.A.A.A.%+3.A.z.'+(+p.U.[+!                       ",
"                  v+) ++w.i+,+u.z.$+$+z.$+z.$+$+$+$+$+$+$+$+$+$+z.I.A.$+W.>+m+p.3+~.!                       ",
"                  !.) ^ p.w+x.#+V.,+,+,+,+,+,+,+,+,+,+,+,+,+,+,+V.V.H.V.>+x+2+[+~.$ !                       ",
"                  ! ! ! ! y+]+ +m+m+m+m+m+m+m+m+m+m+m+m+m+m+m+m+^+^+/+m+r+]+! ! ! !                         ",
"                          z+^ 4+T.U.G.U.G.U.v.U.G.U.G.U.G.U.G.U.7.[+T.U.U.^ !                               ",
"                          + & !.> h.o.h.o.h.o.h.o.h.o.h.o.h.o.h.h.h+, n+A+) !                               ",
"                          + & & & $ & $ & $ & $ & $ & $ & $ & $ % % % * % ~.                                ",
"                            ( B+B+B+B+B+B+B+B+B+B+B+B+B+B+B+B+B+B+B+C+C+B+B+                                ",
"                                                                                                            ",
"                                                                                                            ",
"                                                                                                            "};
