/* XPM */
static char * num_5_xpm[] = {
"56 62 256 2",
"  	c #000001",
". 	c #454047",
"+ 	c #504E5D",
"@ 	c #515059",
"# 	c #505053",
"$ 	c #595B58",
"% 	c #403B35",
"& 	c #252724",
"* 	c #070309",
"= 	c #0D0211",
"- 	c #0A0317",
"; 	c #040410",
"> 	c #030516",
", 	c #090502",
"' 	c #928B85",
") 	c #363529",
"! 	c #100800",
"~ 	c #1B1215",
"{ 	c #241618",
"] 	c #20191C",
"^ 	c #1C161F",
"/ 	c #1C1825",
"( 	c #170F24",
"_ 	c #1F0E20",
": 	c #1C101B",
"< 	c #A09598",
"[ 	c #211B02",
"} 	c #1C0B00",
"| 	c #150400",
"1 	c #9D9488",
"2 	c #817C70",
"3 	c #877E43",
"4 	c #918234",
"5 	c #958034",
"6 	c #847C59",
"7 	c #747378",
"8 	c #777774",
"9 	c #F3E26D",
"0 	c #FCE36F",
"a 	c #F7E265",
"b 	c #FAE78A",
"c 	c #756327",
"d 	c #14100E",
"e 	c #13131A",
"f 	c #231925",
"g 	c #281C00",
"h 	c #DAC166",
"i 	c #EFDB50",
"j 	c #FBD958",
"k 	c #F4DA4F",
"l 	c #FEDB4A",
"m 	c #F3D844",
"n 	c #101616",
"o 	c #6E6E6C",
"p 	c #140519",
"q 	c #301D02",
"r 	c #D8C05C",
"s 	c #FDDB52",
"t 	c #F8D644",
"u 	c #FBDE41",
"v 	c #FFDC41",
"w 	c #FDD93F",
"x 	c #F7DA3D",
"y 	c #FADE4A",
"z 	c #F9DF79",
"A 	c #140103",
"B 	c #151324",
"C 	c #1D0D23",
"D 	c #FED64F",
"E 	c #786621",
"F 	c #180D1D",
"G 	c #F6D438",
"H 	c #FFD63D",
"I 	c #FFD646",
"J 	c #FEDF74",
"K 	c #171A21",
"L 	c #12030C",
"M 	c #D9C356",
"N 	c #FFDB35",
"O 	c #23152E",
"P 	c #131014",
"Q 	c #FFD043",
"R 	c #FFD054",
"S 	c #FFCF4B",
"T 	c #FDD657",
"U 	c #FDD15C",
"V 	c #FFDD88",
"W 	c #83612B",
"X 	c #20070D",
"Y 	c #1D0E29",
"Z 	c #6D6E71",
"` 	c #FFD633",
" .	c #FEB945",
"..	c #F3A134",
"+.	c #FFA041",
"@.	c #FFA04A",
"#.	c #FFA646",
"$.	c #FC9A4C",
"%.	c #FCA05C",
"&.	c #F9B674",
"*.	c #7B4C27",
"=.	c #736A70",
"-.	c #E79729",
";.	c #A53F00",
">.	c #BB3D04",
",.	c #C04000",
"'.	c #C33900",
").	c #C94705",
"!.	c #AD3200",
"~.	c #AB4824",
"{.	c #611E07",
"].	c #18121B",
"^.	c #FCDF38",
"/.	c #F2D82E",
"(.	c #F5DF3F",
"_.	c #FFCB52",
":.	c #EC9935",
"<.	c #AC3B00",
"[.	c #D33F06",
"}.	c #C93601",
"|.	c #D4380A",
"1.	c #CC2F01",
"2.	c #D33713",
"3.	c #C8301A",
"4.	c #B83C28",
"5.	c #731912",
"6.	c #24010C",
"7.	c #16121F",
"8.	c #E0BF6A",
"9.	c #C33000",
"0.	c #D22903",
"a.	c #D6331D",
"b.	c #C53B2E",
"c.	c #280310",
"d.	c #11131F",
"e.	c #B05007",
"f.	c #C15506",
"g.	c #C4500C",
"h.	c #BD4901",
"i.	c #D9340D",
"j.	c #781315",
"k.	c #360017",
"l.	c #FDC249",
"m.	c #FFBF52",
"n.	c #FFB64D",
"o.	c #FFBA57",
"p.	c #FFC05F",
"q.	c #FEB357",
"r.	c #FFA95B",
"s.	c #E15D20",
"t.	c #7F1015",
"u.	c #300013",
"v.	c #220924",
"w.	c #FFC53D",
"x.	c #FFC656",
"y.	c #FFC75E",
"z.	c #D36C13",
"A.	c #C9360C",
"B.	c #6D0D02",
"C.	c #6B6E79",
"D.	c #CA6D08",
"E.	c #AD3D1E",
"F.	c #2E030D",
"G.	c #C27203",
"H.	c #240002",
"I.	c #201401",
"J.	c #FDCE37",
"K.	c #FDB141",
"L.	c #7D501D",
"M.	c #716A76",
"N.	c #1A1A1B",
"O.	c #2D0F00",
"P.	c #EBB974",
"Q.	c #FFCB59",
"R.	c #0C0F03",
"S.	c #21111D",
"T.	c #FFCC6B",
"U.	c #2F0502",
"V.	c #B56939",
"W.	c #C96D1F",
"X.	c #E2731D",
"Y.	c #D96816",
"Z.	c #BE7A06",
"`.	c #7C671B",
" +	c #3C0C10",
".+	c #9B3D19",
"++	c #BE2F02",
"@+	c #39000B",
"#+	c #DD2D0F",
"$+	c #E32813",
"%+	c #766676",
"&+	c #360409",
"*+	c #DD2D18",
"=+	c #E2261A",
"-+	c #736C1B",
";+	c #120011",
">+	c #D08150",
",+	c #F78934",
"'+	c #FF883B",
")+	c #FE8032",
"!+	c #261000",
"~+	c #FFD267",
"{+	c #EB2F19",
"]+	c #D55E16",
"^+	c #241700",
"/+	c #F7D75E",
"(+	c #F59235",
"_+	c #D37A08",
":+	c #D78420",
"<+	c #E19768",
"[+	c #46100B",
"}+	c #332438",
"|+	c #B7382E",
"1+	c #640D08",
"2+	c #2A000F",
"3+	c #AB372D",
"4+	c #C74433",
"5+	c #782420",
"6+	c #D23725",
"7+	c #CC300D",
"8+	c #C23A34",
"9+	c #CF4304",
"0+	c #DC2D20",
"a+	c #A43732",
"b+	c #CA3123",
"c+	c #DB2B02",
"d+	c #D32A11",
"e+	c #D32C1A",
"f+	c #8D3E3E",
"g+	c #BB443C",
"h+	c #E6270A",
"i+	c #C32824",
"j+	c #B14B4A",
"k+	c #581817",
"l+	c #200402",
"m+	c #511E25",
"n+	c #3D0000",
"o+	c #860A05",
"p+	c #5A0E0B",
"q+	c #A78086",
"r+	c #371A29",
"s+	c #A81E0E",
"t+	c #C03A40",
"u+	c #7F1C27",
"v+	c #8C8894",
"w+	c #C35247",
"x+	c #4B0008",
"y+	c #ACAAAA",
"z+	c #C3AEAB",
"A+	c #6B4041",
"B+	c #5E1419",
"C+	c #641117",
"D+	c #979B9E",
"E+	c #533D41",
"F+	c #534652",
"G+	c #89868A",
"                                                                                                                ",
"                                                                                                                ",
"                                                                                                                ",
"                                                                                                                ",
"                      . + + + + + @ @ @ @ @ @ @ @ @ @ @ @ @ @ # # # # @ @ + @ @ # $ %                           ",
"                    & * = - ; ; ; ; ; ; ; ; ; ; ; ; ; ; ; ; ; ; ; ; > - - - - = * , , '                         ",
"                    ) ! ~ { ] ] ^ / ^ ^ ^ ^ ^ ^ ^ ^ ^ ^ ^ ^ ^ ^ ^ / ( ( _ _ _ : { ] , <                         ",
"                    [ ! } | , ! ! ! | ! | ! | ! | ! | ! | ! | | | | | | | | | | | | , 1                         ",
"                  2 3 4 4 4 4 4 4 5 5 5 5 5 5 5 5 5 5 5 5 5 5 5 4 4 4 4 4 4 4 4 4 4 3 6 2 7 8                   ",
"            * * * ,   9 9 9 0 9 0 0 0 0 0 0 0 0 0 0 0 0 0 0 0 0 a a 0 9 a a 9 9 9 9 b c , d ,                   ",
"            e / f g h i j k i i k k k k k k k k k k k k k k k k l l k k m m k i i a b c } f n o                 ",
"            f - p q r s k t m u u u u u u u u u u u u u u u u v w w l l u u x y y k z c A : * o                 ",
"            B ( C } h k s l l u x x x x x u u x x x x x x x x w w l D s v u v u u k z E | f * o                 ",
"            > ( F q r k D t G v v v v v u v v v w w w w w w w w H I D D w w w w w s J c A C * o                 ",
"            K e L } M k l l N N v H H w w H H w I I I I I I I I H w l l w w l l w D z c A O ; 7                 ",
"            P e ~ g M y l w N N N H H v l I Q D R R R R R R R R S D R R D D T T R U V W X Y ; Z                 ",
"            ~ ~ d g r s w N N N ` w w w I S  ...+.@.@.@.@.@.+.+.#.+.+.+.#.#.#.+.$.%.&.*.A f * =.                ",
"            : ~ d g h s w N w w ` N u x t T -.;.>.,.'.'.,.>.>.,.>.,.,.).,.!.,.>.,.!.~.{.X f L =.                ",
"            : ].d [ h j w w w v ^./.(.y D _.:.<.).[.}.|.|.|.|.|.|.|.1.|.|.|.[.}.2.3.4.5.6.F ; Z                 ",
"            : 7.P [ 8.j l w H v u (.(.y D R :.;.,.'.}.}.}.}.}.1.|.1.|.}.9.}.9.1.0.a.b.5.c.C d.Z                 ",
"            ^ 7.P [ 8.j I w H w w u u G Q S -.e.f.f.f.f.f.f.f.g.h.h.f.f.g.g.).'.i.a.b.j.k.O > Z                 ",
"            7.d.P [ 8.j I w H w w w w w l D _.l.m.n.o.o.o.o.o.o.p.p.q.o.o.q.r.s.1.3.b.t.u.v.> 7                 ",
"            e e P [ 8.T I H H w v u w G H H Q w.S S S S S S S S S S S R U x.y.z.'.A.4.B.u.O - C.                ",
"            e e P [ h T w N w w w w w v v v v H w w w w w H H H H w l I S S _.D.>.>.E.B.F.Y - C.                ",
"            e e d g h j w ^.x x v l w w w w v v u G v w H ` H ` N N ` H l Q D G.;.e.e.{.H.( > 7                 ",
"            ~ ~ d I.8.j w x (.u t I H H w w x x u u w G v w N N N ^.^.v w H J.w.K.q.&.L.} / = M.                ",
"            ^ ].~ q 8.T l v m y I I w w w v u (.x x x w v w w u x u x x x y G y R y.V W , N.= M.                ",
"            ^ ].L O.P.Q.S D D S Q Q Q Q Q I t t l D D s I Q l m x u x u l m u t s U V E R.N.L =.                ",
"            ^ F S.O.P.T.y.m.y.y.Q._._._._._._._.Q.Q.Q.Q.l.R T D I l I l I G (.x D _.z E R.n ; M.                ",
"            ^ F _ U.V.W.X.Y.Y.z.z.D.z.z.z.z.z.z.z.X.Y.z.D.G.Z._.I H J.H H v x x l j z `.R.n ; M.                ",
"            d.( v. +.+!.,.}.9.++A.++9.}.}.}.}.1.1.1.0.|.'.<.e.x.Q w v v w ^./.^.J.D J `.R.K - M.                ",
"            d.( v.@+.+g.}.1.i.i.|.2.i.i.i.i.#+#+$+$+$+#+1.).f.o.Q ` N N w ^.^.^.l j J `., K - %+                ",
"            B Y C &+.+!.'.9.1.1.}.9.9.9.++++1.*+=+=+=+#+i.'.f.m.Q N ^.u H H w u y i 9 -+, ] ;+%+                ",
"            B ( _ U.>+$.,+,+'+)+'+,+,+,+,+'+s.0.=+=+=+#+i.9.f.n.Q N ^.u w H w w y i z -+, ] = %+                ",
"            B B ].!+P.~+Q.U U Q.Q._._.x.y.y.'+9.#+{+$+{+i.9.]+n.Q ` u (.w w N w l j z E , K > C.                ",
"            7.7.P ^+8./+j i k k t l I D S U (+>.|.#+#+#+i.9.]+o.S H u (.u N N N w j J E , K > C.                ",
"            F F d g h j i (.x x x y l I I R -.<.'.1.1.1.}.!.f.o.S I u (.u N N N w D J `., K > C.                ",
"            : : ! [ h j y (.^.^.u x x w w I K._+X.X.X.Y.X.X.:+x.S l y (.u ^.N N w D J `.! N.; C.                ",
"            : e R.[ h j t x ^.^.^.x G N w H I Q R _._.l.R j Q I I l y u u ^.^.^.w j J `.R.N.* Z                 ",
"            7.e R.[ 8.U D l N ^.u u v N ` ` w v l m y y m G w w w l x u v v ^.w I T z E R.N.* o                 ",
"            7.d.n ^+P.T.x.S l u w w w w H w w u x (.(.(.u u N N ` v w G H v w I R ~+V W , N.* o                 ",
"            7.7.P H.<+r.#.K.S t l I w w H H w w x x x x x x N N ` N N v w Q Q l.n.q.&.L.A ].* 7                 ",
"            7.B S.[+E.++,.;. .s I w x x w w w w w l I I l w w w N ^.^.w H D _.G.;.<.~.{.c.}+; C.                ",
"            d.( _ @+|+A.[.>.q.R I l x x w H H I I Q Q Q I I t w ^.N w w Q _.x.D.>.>.4.1+2+Y > 7                 ",
"            d.B _ @+3+3.A.>.$.~+D I l l l I l I D D R D D s D I l I s D R y.p.z.++3.4+5+2+( > C.                ",
"            7.F _ @+3+6+7+A.$.q.n. . . . . . . .n.n.n.n. . . . . .n.n.o.q.q.r.]+7+3.8+j.2+O > Z                 ",
"            : _ _ @+3+3.*+#+|.[.[.9+).).9+9+).,.).).9+9+).).9+9+9+).9+9+9+}.[.|.#+0+b.j.F._ L o                 ",
"            S._ ;+ +a+b+0+$+#+c+#+#+#+#+#+#+i.d+0.0.#+#+i.i.c+c+i.i.c+c+#+i.i.#+=+0+b.j.&+S.* 8                 ",
"            / 7.L  +a+b.6+e+a.0+#+$+#+#+$+#+#+#+#+#+#+#+#+#+$+#+#+#+{+{+$+*+d+d+a.b+|+5.U.{ ; 7                 ",
"            P P { U.f+g+4.b.b+0+=+$+$+$+$+$+$+$+$+$+$+$+$+$+$+$+$+{+h+$+*+a.6+b+i+|+j+k+l+~ * Z                 ",
"                    m+n+1+B.3.0+=+=+=+=+=+=+=+=+=+=+=+=+=+=+=+$+$+h+h+{+#+a.b.o+B.p+U.q+                        ",
"                    r+6.U.n+s+a.0+*+*+*+*+*+*+*+*+*+*+*+*+*+*+=+=+$+$+$+d+6+8+1+n+F.L <                         ",
"                    }+F A [+3+b+e+e+a.a.a.a.a.a.a.e+a.e+a.e+a.0+0+0+e+e+0+i+t+u+@+r+= v+                        ",
"                    / ; * l+5+w+|+b.b.b.b.b.b.b.b.b.b.b.b.b.b.b.8+8+8+g+8+t+j+x+H.L ; v+                        ",
"                      y+y+z+A+[+B+B+C+B+C+B+C+B+C+B+C+B+C+B+C+C+k+k+[+k+B+B+k+q+  y+D+                          ",
"                            E+X c.c.2+c.2+c.2+c.2+c.2+c.2+c.2+6.l+A ~ X A c.H.                                  ",
"                            F+p _ S.S.S.S.S.S.S.S.S.S.S.S.S.S.S.S.: f f _ S.L                                   ",
"                            . ; ; * ; * ; * ; * ; * ; * ; * ; * L L ; ; - ; *                                   ",
"                              G+G+G+G+G+G+G+G+G+G+G+G+G+G+G+G+G+G+G+G+v+v+v+8                                   ",
"                                                                                                                ",
"                                                                                                                ",
"                                                                                                                "};
