/* XPM */
static char * num_2_xpm[] = {
"58 62 259 2",
"  	c #000001",
". 	c #5B5B5E",
"+ 	c #4E4E51",
"@ 	c #4E4E59",
"# 	c #0F0E12",
"$ 	c #1A161F",
"% 	c #050511",
"& 	c #060416",
"* 	c #050208",
"= 	c #000000",
"- 	c #1D1519",
"; 	c #29222A",
"> 	c #2E2028",
", 	c #201520",
"' 	c #1E1322",
") 	c #140F1D",
"! 	c #120E0C",
"~ 	c #544F47",
"{ 	c #110203",
"] 	c #241605",
"^ 	c #1B120A",
"/ 	c #271B00",
"( 	c #160600",
"_ 	c #120900",
": 	c #7D787B",
"< 	c #756A54",
"[ 	c #8D824D",
"} 	c #958037",
"| 	c #908545",
"1 	c #94873E",
"2 	c #8B7E32",
"3 	c #91842E",
"4 	c #837B58",
"5 	c #807963",
"6 	c #6F6C69",
"7 	c #180D0E",
"8 	c #564528",
"9 	c #EEDD89",
"0 	c #F4DF78",
"a 	c #F7E273",
"b 	c #F5E36D",
"c 	c #F8E06B",
"d 	c #FBDD75",
"e 	c #F8E061",
"f 	c #F1DC7C",
"g 	c #F9EC96",
"h 	c #B1A675",
"i 	c #21201E",
"j 	c #221813",
"k 	c #1F0B03",
"l 	c #62480D",
"m 	c #EFD454",
"n 	c #F2D84C",
"o 	c #F8D64D",
"p 	c #F9D745",
"q 	c #F2D843",
"r 	c #B09B5A",
"s 	c #281802",
"t 	c #423A3F",
"u 	c #523C00",
"v 	c #FADB69",
"w 	c #FEDB4A",
"x 	c #FEDB40",
"y 	c #FEDA35",
"z 	c #FCDE37",
"A 	c #FADD40",
"B 	c #B69B48",
"C 	c #2B1400",
"D 	c #291A18",
"E 	c #604F1F",
"F 	c #746526",
"G 	c #6E5603",
"H 	c #997C1A",
"I 	c #FCDB5E",
"J 	c #FBD83D",
"K 	c #D1B54B",
"L 	c #7C652F",
"M 	c #766935",
"N 	c #A19D89",
"O 	c #64615F",
"P 	c #645C34",
"Q 	c #FEF5B2",
"R 	c #FFD53C",
"S 	c #D2C694",
"T 	c #1E1D15",
"U 	c #E7CF5B",
"V 	c #F3D83A",
"W 	c #FFD647",
"X 	c #FDE357",
"Y 	c #CABA76",
"Z 	c #6A6D6F",
"` 	c #FFD64F",
" .	c #FFD04C",
"..	c #FFD155",
"+.	c #D4BE6D",
"@.	c #110714",
"#.	c #23141B",
"$.	c #F5E036",
"%.	c #F5DF40",
"&.	c #FFCA48",
"*.	c #FAA73F",
"=.	c #FCA23F",
"-.	c #FBA449",
";.	c #FEA048",
">.	c #F9DE4A",
",.	c #FFD043",
"'.	c #FFC553",
").	c #C55408",
"!.	c #B03500",
"~.	c #BC3F00",
"{.	c #C0360B",
"].	c #B24004",
"^.	c #DC9122",
"/.	c #1B1300",
"(.	c #C73C00",
"_.	c #D93F10",
":.	c #C72E00",
"<.	c #CF3504",
"[.	c #F0A535",
"}.	c #FDCE37",
"|.	c #2D1B00",
"1.	c #1A050A",
"2.	c #190A1D",
"3.	c #FFDC87",
"4.	c #FFCB61",
"5.	c #FFCF5B",
"6.	c #FFCB51",
"7.	c #FFB656",
"8.	c #CA4805",
"9.	c #DE2E10",
"0.	c #0E010A",
"a.	c #785E3C",
"b.	c #FEBC7A",
"c.	c #FFAE5E",
"d.	c #FFAE53",
"e.	c #FFA059",
"f.	c #E42813",
"g.	c #CE4306",
"h.	c #B55600",
"i.	c #E7A62B",
"j.	c #1C101B",
"k.	c #746969",
"l.	c #5A2E17",
"m.	c #B6582C",
"n.	c #BE4A00",
"o.	c #B04904",
"p.	c #D22C06",
"q.	c #E32607",
"r.	c #FFB94E",
"s.	c #21111D",
"t.	c #591916",
"u.	c #BF402C",
"v.	c #CC360E",
"w.	c #DA351A",
"x.	c #250202",
"y.	c #6C2123",
"z.	c #C53B2F",
"A.	c #DC2C18",
"B.	c #DE3605",
"C.	c #D8330C",
"D.	c #23030D",
"E.	c #5F151B",
"F.	c #E2271B",
"G.	c #F12D14",
"H.	c #FDB53B",
"I.	c #716973",
"J.	c #661C25",
"K.	c #C03631",
"L.	c #FFAE49",
"M.	c #FFB846",
"N.	c #290410",
"O.	c #BC3538",
"P.	c #DB2F25",
"Q.	c #DF591F",
"R.	c #FFC162",
"S.	c #FFD758",
"T.	c #5C1E2A",
"U.	c #B9474A",
"V.	c #C63123",
"W.	c #CC361F",
"X.	c #D42F13",
"Y.	c #FED46C",
"Z.	c #DBBD76",
"`.	c #9C4346",
" +	c #BA3E3C",
".+	c #BA3B30",
"++	c #BE3F20",
"@+	c #FFCF79",
"#+	c #E2B681",
"$+	c #351105",
"%+	c #C1A5AD",
"&+	c #956F75",
"*+	c #550A10",
"=+	c #600B07",
"-+	c #893818",
";+	c #C36D01",
">+	c #D07322",
",+	c #D46D1A",
"'+	c #C9773B",
")+	c #A96944",
"!+	c #360900",
"~+	c #220E20",
"{+	c #A48C96",
"]+	c #693908",
"^+	c #FEC834",
"/+	c #3E0300",
"(+	c #A0999B",
"_+	c #FA8D3A",
":+	c #9B3929",
"<+	c #470206",
"[+	c #280519",
"}+	c #9D8B8E",
"|+	c #E3852F",
"1+	c #E88629",
"2+	c #E97728",
"3+	c #A73932",
"4+	c #080605",
"5+	c #050101",
"6+	c #181919",
"7+	c #D82704",
"8+	c #EA6F27",
"9+	c #E56C25",
"0+	c #220615",
"a+	c #331800",
"b+	c #0C050F",
"c+	c #010105",
"d+	c #686C78",
"e+	c #060415",
"f+	c #85683A",
"g+	c #805432",
"h+	c #FFC975",
"i+	c #270B00",
"j+	c #321322",
"k+	c #300307",
"l+	c #672212",
"m+	c #AF5822",
"n+	c #964428",
"o+	c #2D0111",
"p+	c #601616",
"q+	c #A44021",
"r+	c #7A6870",
"s+	c #D32E1B",
"t+	c #D03E2F",
"u+	c #746365",
"v+	c #D92517",
"w+	c #A13539",
"x+	c #661A15",
"y+	c #CD3D3F",
"z+	c #D53029",
"A+	c #150600",
"B+	c #BC5556",
"C+	c #641118",
"D+	c #62333C",
"E+	c #1F102D",
"F+	c #1C1328",
"G+	c #3A3137",
"H+	c #888784",
"I+	c #918C8B",
"J+	c #89868A",
"                                                                                                                    ",
"                                                                                                                    ",
"                                                                                                                    ",
"                                                                                                                    ",
"                                    . . + + + + @ + @ @ @ @ @ @ @ @ @ @ @                                           ",
"                                # $ $ $ % % % % % % % % & & & & % % & & & % * =                                     ",
"                                - ; ; ; > ; , , , , ' ' ' ' ' ' ' ' ' ' ) $ - ! ~                                   ",
"                                { ] ] ^ / ^ ( { ( ( ( ( ( ( ( ( ( { ( ( { _ _ { ~                                   ",
"                            : < [ } | 1 1 1 2 1 2 2 } } } } } } } } } 3 3 2 | [ 4 5 6                               ",
"                        { 7 { 8 9 0 0 a a a a a b b b b c b c c d d e e e b f g h _ _ { i                           ",
"                        j k k l 0 m m e m m n n n n n n n n n n o o p q q n m f r s ] - t                           ",
"                        { k k u v o p w p p w p x x x x x x x x w x x y z A o d B C { { D                           ",
"                      4 E F G H I p w x J J J x J J J J J J J J J J y y y x p I K G L M < N                         ",
"              O = ^ _ P Q 9 a e p J J J x J J J J J J J R R x x x J x y y x x w e c f 9 S { { { _                   ",
"              6 ! T _ M 9 U n V J x J x x x x J J R W W W W W p x V x x R x x R J X m 0 Y / ] j j                   ",
"              Z * ^ _ F 0 e A z z A x x J x w W `  ...........` W J x w R x x y y V X v +./ ^ 7 j                   ",
"              Z @.#._ F b q A z $.%.A x x x W &.*.=.-.-.-.;.;.*.&.W R R x x x y y A q b +./ ^ @.-                   ",
"              Z & , _ F b >.J J %.%.A J J R ,.'.).!.!.~.~.{.~.].^.W R x J J x J x x q e +./ 7 ) -                   ",
"              6 % , /.M 0 o ` w W x W W W W  .'.).(._.:._.<._.~.[.X }.R R x R R R x o v +.|.1.2.$                   ",
"              6 @.$ { M 3.4.5.6.6.&.&. . .6.'.7.8.:.9.9.:.:.<.!.^.w }.x J x W W R w o v +.|.k 2.$                   ",
"              6 0., _ a.b.c.7.7.7.7.7.7.7.7.d.e._.9.f.9.g.8.).h.i.W x A V A q q p >.n c +.|.k j.-                   ",
"              k.* , ( l.m.n.n.8.n.n.n.o.o.n.n.(.p.9.q.p.e.7.7.r.` W x V %.%.>.q A >.n c +.|.k j.-                   ",
"              k.0.s.1.t.u.v.<.:.<.<.v.v.(.(.<.p.w.p.p.<.=.5.&.` W W J A A V V %.A A n e +.|.k j.-                   ",
"              k.0.s.x.y.z.A.9.B.B.9.9.C.<.<.<.<.:.v._.~.[. .W p W >.J A z V A A J A q e +.|.^ j.-                   ",
"              k.0.s.D.E.z.F.f.q.q.G.q.9.(.~.~.8.~.].n.o.H.` w W W W J y y y y R y x p I +.s j ) -                   ",
"              I.0.s.D.J.K.F.f.q.q.G.q._.e.7.L.=.d.d.L.M.&.W W >.W W J J R y R R R R p I +.s 7 ) -                   ",
"              O * #.N.J.O.P.A.f.f.9.p.Q.R.6.&.` S.&. .` }.x J p W W x x x J R w R w o v +.|.7 2.-                   ",
"              : { #.D.T.U.V.W.X.X.v.v.).r.` A V x W w x x A A A w x x J J W ,. .&.S...Y.Z.C #.2.$                   ",
"              ~ 7 1.1.T.`. +.+++!.~.!.h.6.w A z R R x R y V z A J x x W `  .5.'.4.Y.4.@+#+$+D.2.,                   ",
"                    %+&+*+=+=+-+e.;.-.[. .R V z x R R J z z y x A x x ,.i.;+>+,+,+,+>+'+)+!+D.~+,                   ",
"                      {+1.$+x.]+Y...S.` ^+A $.%.x W p w A V R x A V W S.=.!.(.<.:.:.~.].-+/+N.~+,                   ",
"                      (+( s k l c q >.p x y z A x W w p p W w ,.p W &.'._+{._.9.f.9.v.++:+<+[+2., =                 ",
"                      }+{ /.( u b >.q >.x x y y y R W o  ...5.5.6.5.5.R._+!.<.9.f.f.A.V.:+<+[+2.$ =                 ",
"                I.: : 5 | 2 2 B e q q A x J y z y J W ` [.^.|+|+1+1+2+2+Q.:.p.9.f.f.A.V.3+<+[+2.$ =                 ",
"              6 = 4+5+P g a a I n V J x y y z z $.A W 6.;+!.{.:.:.:.:.<.p.9.f.f.G.q.9.W.3+<+N.~+, =                 ",
"              O = 6+/.M 0 m o o x x y y y y z $.%.w ,.6.,+~._.B.B.B.C.9.7+f.f.q.q.7+C.W.:+<+N.2., =                 ",
"              Z = 6+{ M a X w J R y x x R R J x p w  .'.,+!.(.:.:.:.:.<.:.:.<.:.:.:.{.++:+/+[+2., =                 ",
"              Z = T { F b q x x R R R R R R R x p w ` 6.^.,+2+8+2+8+9+8+8+9+2+9+2+2+>+'+)+!+0+2.,                   ",
"              Z = j _ F b q A A J y J J J J x x A x J W `  ...6.5.5.5.5.5.6.5.6...5.4.3.#+a+7 ) $                   ",
"              : b+7 ( F b >.A J x x J J x A x A V A x J A J p w p p w w p w p p p w I d Z.s ^ # -                   ",
"              I.b+#.{ L a q p x x x x A A A A A A x y y x x x x A >.x x x A A %.%.%.n c +.s ^ 7 7                   ",
"              I.c+, ( L a X w J J A A A A A A A A A z z x x x x A A x x x A $.$.$.A n v +.|.k 7 7                   ",
"              d+e+$ ( M a n p A A A A x x x x x A A A A x x R x x x x x x x x x J x ` Y.Z.C ( - 7                   ",
"              d+e+$ { M 0 n W R A A J R W W W W R J V V p W ,.W R J R R R R R R R w S.Y.Z.a+^ # -                   ",
"              d+c+; ( f+d  .` ` w x W W W  . .W W W W W W ` ` ` w x x R W W W W W ` 6.@+Z.] T 6+-                   ",
"              Z c+#.1.g+@+r.r.r.M.H.M.M.M.M.M.M.M.M.M.M.M.r.r.r.M.M.M.M.M.M.M.M.M.r.7.h+#+i+7 # -                   ",
"              6 = j+k+l+m+o.8.g.g.g.8.8.8.8.8.8.8.g.g.g.g.g.g.g.8.8.g.g.g.g.8.8.8.8.~.o.n+/+j+2.j.                  ",
"              6 = 0+o+p+q+{.v.p.9.9.C.C.p.<.<.p.C.C.9.9.9.9.9.C.X.X.X.A.X.X.C.p.B.<.v.++:+<+o+~+j.                  ",
"              r+= ~+D.J. +s+A.9.9.f.f.9.9.9.9.9.9.9.9.9.9.f.f.9.A.A.A.P.P.A.f.f.q.B.X.++:+<+0+2., =                 ",
"              r+b+s.D.J.O.P.F.q.f.F.F.F.F.F.F.F.F.F.F.F.F.F.F.f.f.f.F.F.F.F.F.f.q.f.A.t+3+/+j+) @.=                 ",
"              u+= 7 x.y.K.v+f.G.f.F.F.F.F.F.F.F.F.F.F.F.F.F.F.f.q.q.f.f.F.F.f.f.f.f.s+z.w+/+j+@., =                 ",
"              k.= D x.x+y+P.f.f.F.A.A.A.A.A.A.A.A.A.A.A.A.A.A.F.f.q.f.f.F.F.A.A.f.v+z+K.w+<+o+1.7                   ",
"              6 4+^ x.x+ +V.P.s+s+s+s+s+s+s+s+s+s+s+s+s+s+s+s+A.A.f.A.A.P.s+s+s+s+P.V.K.w+*+k+D.D                   ",
"              O 5+A+A+t.B+ +.+.+z.z.z.z.z.z.z.z.z.z.z.z.z.z.z.z.z.z.z.z.z.u.u.u.K.K. +U.`.k+k 1.{                   ",
"                = = = = <+C+y.p+E.E.C+E.C+E.C+E.C+E.C+E.C+E.C+C+C+C+E.p+E.t.p+p+p+y.E.<+D+= = = =                   ",
"                      = x.k+D.D.N.N.o+N.o+N.o+N.o+N.o+N.o+N.o+[+[+[+0+0+0+D.D.D.N.x.N.D.>                           ",
"                      = 0.s.' ' ~+s.s.s.s.s.s.s.s.s.s.s.s.s.s.~+E+E+F+F+) $ ' ~+2.~+s.s.G+                          ",
"                      = * * % % % * * * * * * * * * * * * * * % & & & % % % % % @.0.* * i                           ",
"                        H+I+J+: J+J+J+J+J+J+J+J+J+J+J+J+J+J+J+H+H+H+H+H+H+H+H+H+: : H+H+                            ",
"                                                                                                                    ",
"                                                                                                                    ",
"                                                                                                                    "};
