/* XPM */
static char * num_9_xpm[] = {
"50 62 256 2",
"  	c #000001",
". 	c #656266",
"+ 	c #413D46",
"@ 	c #524F60",
"# 	c #52525B",
"$ 	c #515154",
"% 	c #191D20",
"& 	c #16111F",
"* 	c #0E0312",
"= 	c #03030F",
"- 	c #0B0919",
"; 	c #070309",
"> 	c #0D0806",
", 	c #37372F",
"' 	c #25191F",
") 	c #251420",
"! 	c #210F1B",
"~ 	c #1F141E",
"{ 	c #1C1322",
"] 	c #2D2634",
"^ 	c #201C02",
"/ 	c #100900",
"( 	c #150500",
"_ 	c #140305",
": 	c #1D0A06",
"< 	c #1D1207",
"[ 	c #6E707E",
"} 	c #7C756F",
"| 	c #887E4F",
"1 	c #8C7F3E",
"2 	c #958035",
"3 	c #968631",
"4 	c #908665",
"5 	c #E6D681",
"6 	c #F0DF7D",
"7 	c #EFD670",
"8 	c #FAE073",
"9 	c #FBE26D",
"0 	c #FAE262",
"a 	c #EEE19A",
"b 	c #1F1200",
"c 	c #1D1216",
"d 	c #2E1919",
"e 	c #2D1D02",
"f 	c #D0BA4E",
"g 	c #EBCF4E",
"h 	c #FBE055",
"i 	c #F2D84C",
"j 	c #FAD84F",
"k 	c #F7D655",
"l 	c #FCDB5E",
"m 	c #EFD569",
"n 	c #3E2D05",
"o 	c #201B16",
"p 	c #121715",
"q 	c #290D09",
"r 	c #FEE550",
"s 	c #F7D543",
"t 	c #FDDA3F",
"u 	c #FFDD42",
"v 	c #FCDA48",
"w 	c #FED64F",
"x 	c #F1D477",
"y 	c #3F2A05",
"z 	c #655B28",
"A 	c #715F1A",
"B 	c #7C6201",
"C 	c #F6DA3C",
"D 	c #FAD73C",
"E 	c #877106",
"F 	c #78650E",
"G 	c #FBDE41",
"H 	c #F7DB47",
"I 	c #544210",
"J 	c #170E19",
"K 	c #382B12",
"L 	c #FDE039",
"M 	c #FFD647",
"N 	c #FFD155",
"O 	c #F8DB33",
"P 	c #FEDA35",
"Q 	c #FEB148",
"R 	c #FFA24A",
"S 	c #F9943A",
"T 	c #FFAC47",
"U 	c #FEC450",
"V 	c #F3DD76",
"W 	c #5F4909",
"X 	c #1A1327",
"Y 	c #382F03",
"Z 	c #FED65A",
"` 	c #D87F1D",
" .	c #AB3A00",
"..	c #B63A00",
"+.	c #CA4606",
"@.	c #CC4106",
"#.	c #C13700",
"$.	c #BC710F",
"%.	c #594A09",
"&.	c #1A1724",
"*.	c #201222",
"=.	c #F5CD3D",
"-.	c #DD7A1F",
";.	c #CE3B00",
">.	c #D33606",
",.	c #CE2702",
"'.	c #D7320B",
").	c #C36E02",
"!.	c #FFD04C",
"~.	c #BF3F00",
"{.	c #DA3502",
"].	c #E32B08",
"^.	c #C82B00",
"/.	c #CF6F12",
"(.	c #FFCB51",
"_.	c #FFCF43",
":.	c #FFD63E",
"<.	c #DC9924",
"[.	c #AD5B02",
"}.	c #B85C00",
"|.	c #C64C03",
"1.	c #D1670B",
"2.	c #FFB946",
"3.	c #949195",
"4.	c #FFB94E",
"5.	c #FFB654",
"6.	c #FFB660",
"7.	c #FA7B38",
"8.	c #DB2B0D",
"9.	c #FCCF37",
"0.	c #F3D075",
"a.	c #FED15C",
"b.	c #FFC764",
"c.	c #C43100",
"d.	c #FFCC5A",
"e.	c #FCCE7F",
"f.	c #FFCE63",
"g.	c #F58636",
"h.	c #211D2B",
"i.	c #482E1B",
"j.	c #FCBF81",
"k.	c #F19E34",
"l.	c #A94800",
"m.	c #431E12",
"n.	c #B05930",
"o.	c #BD5603",
"p.	c #FFD632",
"q.	c #F8BE3E",
"r.	c #0E0C21",
"s.	c #1B051A",
"t.	c #481115",
"u.	c #A13D1E",
"v.	c #B24703",
"w.	c #FEBD40",
"x.	c #1C0D28",
"y.	c #250C21",
"z.	c #47030D",
"A.	c #B3372B",
"B.	c #C83515",
"C.	c #CD3A06",
"D.	c #12061D",
"E.	c #260A1A",
"F.	c #C24739",
"G.	c #D42F1B",
"H.	c #D03415",
"I.	c #B02821",
"J.	c #DC2C17",
"K.	c #DD5E10",
"L.	c #DD6B20",
"M.	c #C87218",
"N.	c #ECAD2E",
"O.	c #4E1513",
"P.	c #D42E12",
"Q.	c #1C0413",
"R.	c #430B10",
"S.	c #B33709",
"T.	c #1B0C21",
"U.	c #9A979A",
"V.	c #0B0C15",
"W.	c #14050E",
"X.	c #D48B56",
"Y.	c #EA8932",
"Z.	c #FA8331",
"`.	c #F0812B",
" +	c #D98D1E",
".+	c #DF721B",
"++	c #8F9C99",
"@+	c #211A23",
"#+	c #26252D",
"$+	c #0E1720",
"%+	c #E67328",
"&+	c #9F959B",
"*+	c #14161D",
"=+	c #171312",
"-+	c #F4D06E",
";+	c #040A0D",
">+	c #8D928D",
",+	c #EDA76E",
"'+	c #FFA455",
")+	c #EE9F50",
"!+	c #66381B",
"~+	c #B94600",
"{+	c #60100C",
"]+	c #310207",
"^+	c #9A9D9B",
"/+	c #27061F",
"(+	c #53091B",
"_+	c #650609",
":+	c #380618",
"<+	c #36162D",
"[+	c #250828",
"}+	c #280323",
"|+	c #BF3F2E",
"1+	c #C2301C",
"2+	c #361B31",
"3+	c #B83C35",
"4+	c #3F0E25",
"5+	c #2D1B2E",
"6+	c #D33325",
"7+	c #E32813",
"8+	c #DA281D",
"9+	c #C72C2A",
"0+	c #731820",
"a+	c #310D19",
"b+	c #AA2F30",
"c+	c #BA3E41",
"d+	c #6D1321",
"e+	c #2F242A",
"f+	c #A0434A",
"g+	c #B93923",
"h+	c #E2271A",
"i+	c #C73C31",
"j+	c #C2382E",
"k+	c #5D222A",
"l+	c #BEAFB4",
"m+	c #2F0B0C",
"n+	c #BF3725",
"o+	c #6A0000",
"p+	c #470302",
"q+	c #B0A2A9",
"r+	c #5E1419",
"s+	c #D82929",
"t+	c #CA535B",
"u+	c #B1535C",
"v+	c #BAA0A4",
"w+	c #562E34",
"x+	c #54170A",
"y+	c #672124",
"z+	c #4D262C",
"A+	c #25040E",
"B+	c #28020F",
"C+	c #32141C",
"D+	c #140313",
"E+	c #888588",
"F+	c #94848C",
"G+	c #867C82",
"                                                                                                    ",
"                                                                                                    ",
"                                                                                                    ",
"                                                                                                    ",
"                        . + @ @ @ @ # @ # # # # # # # # # # # # # $ $ $                             ",
"                        % & * * * * * * * * * * * * * * * * * = - = ; ; >                           ",
"                        , > ' ) ! ~ ~ ~ ~ ~ ~ ~ ~ ~ ~ ~ ~ ~ ~ { * ] { ~ '                           ",
"                        ^ / ( _ : ( ( ( ( ( ( ( ( ( ( ( ( ( ( ( ( _ < > (                           ",
"                    [ } | 1 2 2 2 2 2 2 2 2 2 2 2 2 2 2 2 2 2 2 3 3 2 1 | 4 }                       ",
"                ; * * > 5 6 7 8 9 9 9 9 9 9 9 9 9 9 9 9 9 9 9 0 0 0 8 6 a b / > ;                   ",
"                < c d e f 0 g h i i i i i i i i i i i i i i i i j k l m 5 n < o p                   ",
"                < _ : q f r s s t t u u u u u u t t u u u u u t v w g 9 x y ( / >                   ",
"                z A A B g C v u t t t t t t t t D t t t t t t t t u v j g E F A z 4                 ",
"        > > > e   6 7 9 v u D D u u u t u t t t t t t t t t t u G D t H h 0 9 6 a I / / >           ",
"        ; J ~ K 5 0 g v t u D t t t D D t t v v v v D D D D t t L L t G C s 0 m 5 I ( ' ;           ",
"        J { * K 6 i H u D t u u t t D M w N N N N N N w M v t t O L t G D G i l 5 I ( ~ *           ",
"        = & ; K 7 h G t t t t t P L D w Q R R R R R S T U M v D t t t t t t v k V W ( { =           ",
"        - X ; Y 7 H G D t t t t P P D Z `  . ...+.@.#. .$.w v t t t t t t t v k V %./ &.=           ",
"        * *.> Y m v C C t u t t G t =.N -...+.;.>.,.'.@.).!.=.u t t t t t t v k V %./ &.=           ",
"        * *._ n m v C C t u t t t t M N `  .~.#.{.].].^./.(._.:.t t t t t t v k V %./ &.=           ",
"        * *._ n m v G C t u :.:.t :.M !.<.[.}.|.>.].].>.1.2.w :.:.t t t t t v k V %./ &.= 3.        ",
"        * { > Y 7 w t t P u :.:.G D v M (.4.5.6.7.{.8.^./.U _.9.:.t t t t t v k V %./ &.=           ",
"        * &.> Y 0.Z M t t P t t D C r s w Z a.b.7.c.>.#./.d._.:.t t t t t t v k V %./ &.=           ",
"        = &.> n e.f.N _.t P t t L P G C G M !.d.g...~...$.(.M :.:.t t t t t v k V %./ &.=           ",
"        - h.; i.j.6.4.(.9.u G O G P P L P t 9.!.k.l.l.l.$.!.t O t t t t t t v k V %./ &.=           ",
"        - X * m.n.o.o.)._.:.C G p.p.P P P P :._.q.2.4.4.U w D O t t t t t t v k V %./ &.=           ",
"        - r.s.t.u.....v.w.M v s u u t G O L L D M l (.(.Z M t L t t t t t t v k V %./ &.=           ",
"        - x.y.z.A.B.C.|.T (.N !.M _.w s t O O D u M M !.w v G L t t t t t t v k V %./ &.= 3.        ",
"        = D.E.z.F.G.H.C.6.b.b.4.d.a.a.N v t u t t 9.u v s v O O t t t t t t v k V %./ &.= 3.        ",
"        * *.E.z.I.G.J.>.K.K.L.-./.M.M.M.N._.t :.t u :.D v H L P t t t t t t v k V %./ &.= 3.        ",
"        * { ! O.F.G.P.'.^.;.c.c.C.c.c...k.N M D 9.u P t H s :.p.t t t t t t v k V %./ &.= 3.        ",
"        J { Q.R.A.H.P.'.>.>.^.'.{.{.>.#.S d.(.M M :.:.t v v u p.t t t t t t v k V W ( { = 3.        ",
"        = X ! R.u.S.c.^.^.^.c.c.c.C.#.S.S f.U Z (.N !.w w M D G P t t t :.t s k 7 W ( T.* U.        ",
"        V.X W.m.X.Y.g.Z.Z.Z.g.g.`.`.`.S Y.-.S -.Y.` `  +<.j G C t t t t t t v k 7 W ( { = U.        ",
"        V.& > y e.f.a.N !.!.N N N d.f.b..+..#.c.^.c.#. .)._.D L G t t t t t v j m %./ h.V.++        ",
"        * @+/ Y x k j v C C H H s w N U `.~.^.'.8.'.>.~./.!.9.L t v v t t t t j 8 %./ #+$+U.        ",
"        * ~ / Y 7 k h H G G v H H h w a.-.S.@.c.^.^.c.~.).(.v D M M M v t t D j 8 W ( @+J U.        ",
"        W.c / Y 7 j H C C C D t H H v Z <.).-.%+%+%+L.-. +(.v v M M M t t t M k m W ( J ; &+        ",
"        W.c / Y 7 j H G L P P P G D :.:.M j (.N (.a.(.Z Z j s G t t t G G C s g 7 %./ *+; &+        ",
"        > =+/ Y -+N M t P P P P p.p.p.P O G t t M =.v v =.t t G D t G G t v w a.x %.> % ;+>+        ",
"        ;+*+> n e.f.N w t P P P P P P P L O t :.:.:.t t :.:.t P P P L t :.w Z b.e.I / *+;+>+        ",
"        = & W.m.,+'+T Q _.:.u t P P P P P t t t :.:.:.t :.:.P P P P P :._.w.Q )+j.!+_ & ;+>+        ",
"        D.x.s.R.u.S.~+o.2.Z w v t t G G t t t t t t t t t t t t L D t v w.}.v.v.u.{+]+y.W.^+        ",
"        D.x./+(+A.B.#.~+Q d.!.w M M v v M M v v s s M M D t M M M M =.(.4.o...S.F._+:+<+c U.        ",
"        T.[+}+z.|+C.C.|.5.Z N !.w w w w w w v v v v v M v w w w N N a.U 6.|.#.1+A._+:+2+c ^+        ",
"        * x./+(+|+H.>.@.S Q 4.2.4.4.4.4.4.4.2.2.2.2.2.2.2.4.4.5.5.5.5.6.'++.c.1+3+_+4+5+; ^+        ",
"        = X y.z.A.G.J.'.>.@.@.+.+.+.+.@.@.@.@.@.@.@.@.@.@.@.@.@.@.@.+.@.C.>.G.6+3+_+4+5+% ++        ",
"        ; & Q.R.3+G.P.8.'.'.'.'.>.>.'.'.8.8.8.7+8.8.8.'.8.8.'.'.8.'.'.'.,.P.8+9+3+0+a+h.p ++        ",
"        J { W.t.b+6+G.J.J.J.7+7+8.8.8.7+7+7+7+7+7+7+7+7+7+7+7+7+7+7+8.'.J.G.6+9+c+d+:+e+p >+        ",
"        ; * ' ]+f+3+g+1+6+J.h+7+7+h+7+h+7+h+7+h+7+h+7+h+7+h+7+7+7+7+8.P.G.i+j+c+f+k+a+e+> >+        ",
"              l+m+O.{+_+n+G.8.7+7+h+h+h+h+h+h+h+h+h+h+h+h+h+h+7+7+7+J.B.n+o+{+p+m+q+                ",
"                ! Q.]+p+A.6+J.7+J.J.J.J.J.J.J.J.J.J.J.J.J.J.J.J.7+8.G.6+A._+m+q =+                  ",
"                5+s.4+r+b+9+6+8+G.G.G.G.G.G.G.G.G.G.G.G.G.G.G.8+J.8+s+9+b+{+]+: ;+                  ",
"                * s.Q.]+f+c+A.i+j+|+j+|+j+|+j+|+j+|+j+|+j+|+j+j+i+i+c+t+u+z.q c ;+                  ",
"                  q+l+v+w+t.O.x+r+r+r+r+r+r+r+r+r+r+r+r+r+r+r+r+y+y+k+k+z+v+                        ",
"                        e+_ : : A+B+B+B+B+B+B+B+B+A+B+B+B+B+B+a+C+A+' ' '                           ",
"                        + J ! ! ) ! ! ! ! ! ! ! ! ! ) ! ~ ! ) 5+5+5+] h.#+                          ",
"                        p ; D+Q.; ; ; ; ; ; ; ; ; ; ; ; ; ; V.& s.5+& ; ;+                          ",
"                        >+E+F+G+E+E+E+E+E+E+E+E+E+E+E+E+E+E+3.3.F+G+G+>+>+                          ",
"                                                                                                    ",
"                                                                                                    ",
"                                                                                                    "};
