/* XPM */
static char * num_8_xpm[] = {
"57 62 256 2",
"  	c #000001",
". 	c #404048",
"+ 	c #52515A",
"@ 	c #4E4C5B",
"# 	c #4D4A53",
"$ 	c #060511",
"% 	c #130B16",
"& 	c #0D0211",
"* 	c #0E0718",
"= 	c #070918",
"- 	c #0D091D",
"; 	c #6E6B6E",
"> 	c #110E12",
", 	c #21161F",
"' 	c #1E1323",
") 	c #050208",
"! 	c #090402",
"~ 	c #150500",
"{ 	c #140607",
"] 	c #0F0900",
"^ 	c #6B6959",
"/ 	c #7D7877",
"( 	c #767268",
"_ 	c #837B64",
": 	c #837C50",
"< 	c #8C813C",
"[ 	c #958034",
"} 	c #918232",
"| 	c #615626",
"1 	c #FBF0A5",
"2 	c #EFDF79",
"3 	c #F4E26C",
"4 	c #FBE26D",
"5 	c #F7E475",
"6 	c #423E3B",
"7 	c #776E68",
"8 	c #312518",
"9 	c #1B0D00",
"0 	c #76671C",
"a 	c #ECD551",
"b 	c #F3D84C",
"c 	c #998D39",
"d 	c #1F0900",
"e 	c #312015",
"f 	c #52494E",
"g 	c #715901",
"h 	c #F9E165",
"i 	c #FFDD42",
"j 	c #FBDF42",
"k 	c #FDDA3F",
"l 	c #FEDB4A",
"m 	c #F8DD49",
"n 	c #937C17",
"o 	c #1B0303",
"p 	c #7C6A2C",
"q 	c #B89D2B",
"r 	c #FCE35C",
"s 	c #F7DA3D",
"t 	c #FAD73C",
"u 	c #F8D544",
"v 	c #776A49",
"w 	c #ACA290",
"x 	c #92928A",
"y 	c #978C5D",
"z 	c #EDC63E",
"A 	c #FFD758",
"B 	c #B5A871",
"C 	c #181511",
"D 	c #241D22",
"E 	c #4C4B4E",
"F 	c #211E1D",
"G 	c #9B8D4B",
"H 	c #E9D15D",
"I 	c #FFDD56",
"J 	c #FFD53D",
"K 	c #FFD647",
"L 	c #FEDA35",
"M 	c #FBDE36",
"N 	c #F9D850",
"O 	c #B1A75C",
"P 	c #160F00",
"Q 	c #2F2C3A",
"R 	c #FED64F",
"S 	c #FFD14C",
"T 	c #FFD155",
"U 	c #16081A",
"V 	c #342938",
"W 	c #524553",
"X 	c #14151C",
"Y 	c #FFC947",
"Z 	c #FEB644",
"` 	c #FCAA45",
" .	c #FDA245",
"..	c #FEBD45",
"+.	c #B3A24D",
"@.	c #131823",
"#.	c #FFD043",
"$.	c #A64D00",
"%.	c #A83E00",
"&.	c #BF4300",
"*.	c #B93801",
"=.	c #B44000",
"-.	c #FFB34E",
";.	c #181418",
">.	c #A08A3B",
",.	c #FEDE67",
"'.	c #FFD532",
").	c #FFBF53",
"!.	c #AF4A00",
"~.	c #C33800",
"{.	c #C73400",
"].	c #D53C0B",
"^.	c #CA4703",
"/.	c #FAA137",
"(.	c #BCA350",
"_.	c #BA5803",
":.	c #FAA73A",
"<.	c #1B1621",
"[.	c #B25900",
"}.	c #C8590A",
"|.	c #CF5801",
"1.	c #FFCB51",
"2.	c #FFB84F",
"3.	c #FFB65C",
"4.	c #56464D",
"5.	c #170312",
"6.	c #9F8339",
"7.	c #FDDB74",
"8.	c #FFD968",
"9.	c #C0A257",
"0.	c #2B2A32",
"a.	c #10030C",
"b.	c #B1844D",
"c.	c #FFD175",
"d.	c #FFC659",
"e.	c #FFCF5B",
"f.	c #F7E037",
"g.	c #CB9C63",
"h.	c #1C0D1A",
"i.	c #2B0B00",
"j.	c #713009",
"k.	c #BB651D",
"l.	c #D46F16",
"m.	c #CB8318",
"n.	c #E1922C",
"o.	c #DC6A15",
"p.	c #914B23",
"q.	c #260100",
"r.	c #250F22",
"s.	c #2C000F",
"t.	c #7C2E17",
"u.	c #B2461F",
"v.	c #B9380F",
"w.	c #C33307",
"x.	c #AE3A06",
"y.	c #C86B0D",
"z.	c #D17E18",
"A.	c #832A11",
"B.	c #3A0509",
"C.	c #343039",
"D.	c #C92D0B",
"E.	c #D63415",
"F.	c #CD4206",
"G.	c #DF8122",
"H.	c #C74523",
"I.	c #963627",
"J.	c #2F0205",
"K.	c #332C31",
"L.	c #6B1E05",
"M.	c #D68916",
"N.	c #CB4812",
"O.	c #A66940",
"P.	c #FEA968",
"Q.	c #FD9A53",
"R.	c #FD9843",
"S.	c #FF953C",
"T.	c #FC9733",
"U.	c #C5855A",
"V.	c #C29A5B",
"W.	c #1F1100",
"X.	c #392A31",
"Y.	c #CA2E00",
"Z.	c #B54901",
"`.	c #D63007",
" +	c #DD2D0E",
".+	c #D12A00",
"++	c #D22A0A",
"@+	c #14061F",
"#+	c #332437",
"$+	c #F36E2A",
"%+	c #E66C1D",
"&+	c #EB7D2F",
"*+	c #AA834A",
"=+	c #FFB364",
"-+	c #FFCB40",
";+	c #DB9E27",
">+	c #220C25",
",+	c #360009",
"'+	c #992D28",
")+	c #CD3C2A",
"!+	c #C73828",
"~+	c #360011",
"{+	c #811D1E",
"]+	c #D5321E",
"^+	c #DC2D18",
"/+	c #CB3028",
"(+	c #9E2829",
"_+	c #802524",
":+	c #C23934",
"<+	c #E42713",
"[+	c #DC2C1F",
"}+	c #2B111F",
"|+	c #BB3C39",
"1+	c #D22C1B",
"2+	c #C73219",
"3+	c #BE3E2D",
"4+	c #291117",
"5+	c #28161A",
"6+	c #230308",
"7+	c #72272C",
"8+	c #AF4F48",
"9+	c #C43C2F",
"0+	c #E2271B",
"a+	c #B84131",
"b+	c #A33D37",
"c+	c #863E36",
"d+	c #2D0808",
"e+	c #845E5F",
"f+	c #631016",
"g+	c #700806",
"h+	c #920C00",
"i+	c #DB1D01",
"j+	c #A71D0D",
"k+	c #4C0402",
"l+	c #3F0002",
"m+	c #5F373C",
"n+	c #84716E",
"o+	c #8E1A13",
"p+	c #CB2422",
"q+	c #D34349",
"r+	c #982430",
"s+	c #5E605D",
"t+	c #5F1418",
"u+	c #B65052",
"v+	c #CC3B38",
"w+	c #AF3B46",
"x+	c #C4B4B4",
"y+	c #4D161B",
"z+	c #581918",
"A+	c #A5A4A2",
"B+	c #A5949C",
"C+	c #28020E",
"D+	c #928F93",
"E+	c #22121E",
"F+	c #88878B",
"G+	c #808186",
"                                                                                                                  ",
"                                                                                                                  ",
"                                                                                                                  ",
"                                                                                                                  ",
"                              . + @ @ + + + + @ + + + + + + + + @ + # + @ @ .                                     ",
"                              $ % $ & $ * $ & $ & $ & $ & $ & $ $ = $ $ $ - $ ;                                   ",
"                              > , ' ' ' ' ' ' ' , , , , , , , , , , , , , , ) ;                                   ",
"                              ! ~ ~ { ~ ~ ~ ~ ~ ~ ~ ~ ~ ~ ~ ~ ~ { ~ ~ ~ { ! ] ^                                   ",
"                      ; / ( _ : < [ [ [ [ [ [ } } } } } } } } } } } } } } } < : _ / ;                             ",
"                    ; ! ! ! | 1 2 3 4 3 4 3 4 3 4 3 4 3 4 3 4 3 3 3 5 5 3 5 2 < ! ! ! 6                           ",
"                    7 ] 8 9 0 2 a b b b b b b b b b b b b b b b b b a a b a 3 c d e { f                           ",
"                    ^ ! 9 ~ g h b i i i j i k i i i i i i i i j l l l l m b h n o d ~ 6                           ",
"                    : | p g q r s k k k i k t k k k k k k k k k l l u t t m r q g 0 | v w x                       ",
"            6 ) ! ! y 1 2 5 b l k i k k i k k i k k k k k k k k k k j k i l z A 4 2 1 B ! C ) D                   ",
"            E ) F ! G 2 H I l J t k k t k k J k t t t t K K K t k L L M J K I N m a 2 O P { % Q                   ",
"            f ) > P < 5 r m t i k i k t l K K R S S T T T S S R k M L L k l u l j m 3 O P { U V                   ",
"            W & X ! c h m s i i k t i k K S Y Z `  . . . . .` ..K k k k K K k j M s r +.] C * Q                   ",
"            W * @.] c h m k k k i k j k #.S ..$.%.&.*.*.&.=.%.-.S k k k K K k M M s r +.] ;.* Q                   ",
"            @ * @.! >.,.R J K J J '.t i l S ).!.&.~.{.].~.^.=./.#.k k J K K k k k u ,.(.] ;.* V                   ",
"            @ - @.! >.,.R K K J '.M k t K Y Z _.&.~.{.{.~.&.=.:.K L L k K K k k k u ,.(.] ;.* V                   ",
"            W * <.] >.,.R J k J L L M j j I ..[.}.|.^.^.|._.[.Z J L L k K K k j k u ,.(.P X * V                   ",
"            W & <.] >.,.N t i k L L M j s u S 1.2.-.3.-.-.).1.Y k M L k J K k j i u ,.(.P X * Q                   ",
"            W & <.] >.,.N u j s k i t s j j u K S Y T 1.S S l l j M M t K K t k i u ,.(.P X = Q                   ",
"            4.5., ~ 6.7.T S R R R #.K l s s j s k u l u l j s j j j k K S S S K R S 8.9.9 X = 0.                  ",
"            4.a., o b.c.).).d.).).e.1.R K i s f.f.j s k k k k k j m K S d.).2.).).).c.g.d % <.0.                  ",
"            4.a.h.i.j.k._.}.}.}.l.[.m.T K k M f.f.M M L k k k i s l R n.$.}.o.|.|.}.k.p.q.U * 0.                  ",
"            E & r.s.t.u.v.w.w.w.*.x.y.d.Y l j M M L L k J J k k m K 1.z.=.~.w.{.{.w.x.A.B.r.& C.                  ",
"            E & r.q.t.u.v.D.E.].F.=.l.d.Y K t M L '.J J J J k k t K T G.=.~.{.].].w.H.I.J.r.% K.                  ",
"            # & ' q.L.u.v.w.{.~.&.x.y.d.S K k j k k J J k k s j t K S M.%.*.^.~.~.N.x.A.J.r.a.K.                  ",
"            # & ' o O.P.Q.R.S.T.T./.Z S #.i s s k k k k k k j j k J #... .R.R.R.S.R.P.U.q.h.% C.                  ",
"            # a.D { V.c.d.T R K R I K J k M s M k k k J J J J k t j k #.T T T A A e.c.V.W., = 0.                  ",
"            # a.;.9 6.7.A l s s j t k k L L j J K K #.#.#.#.J J L M k t K K K t u N ,.9.P ;.$ C.                  ",
"            W 5.h.{ >.h b s k k j s k j J #.#.R T T e.T T R R K k M k k K K k k s b h (.] C % X.                  ",
"            W U ' ~ >.h m s k k i j k J #.l Y M.G.G.G.G.n.m.m.Y k M k k K J k j s b h +.P C % V                   ",
"            @ * <.] c h m s k J k k j s l R Z !.*.{.Y.Y.~.&.%.:.K k k k J J M M s b h +.P X = Q                   ",
"            @ = <.] c h m s k J i t s m l S Z Z.F.`. + +`.].&. .S k k J J k M M j m h +.P X - Q                   ",
"            @ = @.] c h m k k J J k l m l S Z !.*.Y..+++Y.~.x. .T l K J J k M M L l ,.(.P X @+#+                  ",
"            @ = @.] c h m k k J J k i s l K Y z.l.o.$+$+%+&+G.2.R m l l J k M M k l ,.(.P ;.@+#+                  ",
"            W $ @.] c 4 N J k L L L M M j k l K R T T T Y Y S S m m m l k k M M k R ,.(.P C * V                   ",
"            W & @.] 6.7.R #.k k '.L L L M s s j m m u u m t J i s j j k k k M L J S 8.9.P C % C.                  ",
"            W & ' ~ *+c.e.R K J J J J k i i j j s s s s k k k L M M '.k J i t J R ).c.V.~ F $ 0.                  ",
"            W & r.o O.=+` :.Y K K J J J k i k s s s s k k k k L L L L L J J l -+:. .=+U.d ;.$ K.                  ",
"            # 5.r.J.A.%.!.$.m.R u s k k k k k k k k k k k k k k M L L M j l R ;+!.=.x.A.J.' - 0.                  ",
"            E & >+,+A.v.N.=.z.T u s t k J J J J J J J K K K K J '.'.'.k u R A n.x.N.H.I.J.@+- Q                   ",
"            E & >+J.'+)+w.*.&+d.R k l K K K K K K K l K K R R R K K S A T e.8. .*.w.!+'+~+>+- C.                  ",
"            E & >+~+'+)+++Y.$+=+2.Z Z Z Z Z Z Z Z Z ..Z Z Z 2.2...Z -.2.3.3.=+&+{.D.)+'+~+>+* C.                  ",
"            f & >+s.{+!+]+ +Y.].F.F.F.F.F.F.^.^.^.^.^.^.^.F.F.^.&.^.F.].{.F.F.]. +^+/+(+,+r.% K.                  ",
"            f & ' s._+:+]+^+E.`. +^+^+E.E.E.`.++`.`.`.`.`.`. +`.Y.]. +<+ + +`. +<+[+/+'+J.}+5.X.                  ",
"            . $ h.J._+|+/+1+]+E.^+<+<+<+^+ + + + + + + + +<+<+ +`.`.<+<+<+ +^+^+E.2+3+I.J.4+h.V                   ",
"            E ) 5+6+7+8+|+9+2+]+^+0+0+0+0+0+0+0+0+0+0+0+0+0+0+<+^+ +<+<+<+^+[+1+!+a+b+c+d+o 5.X.                  ",
"                    e+B.f+g+h+]+^+0+0+0+0+0+0+0+0+0+0+0+0+0+0+0+<+<+<+i+<+[+]+j+g+k+l+m+                          ",
"                    n+o J.l+o+!+1+^+^+^+^+^+^+^+^+^+^+^+^+^+^+^+0+<+<+^+^+1+/+o+l+J.6+4.                          ",
"                    / ! 4+B.{+:+2+1+]+]+]+1+]+]+]+1+]+1+]+1+]+[+[+[+[+[+1+p+q+r+B.}+& @                           ",
"                    s+) a.o t+u+|+9+9+9+9+9+9+9+9+9+9+9+9+9+9+9+:+v+v+:+:+|+w+7+o a.$ #                           ",
"                        x+x+e+y+t+t+f+t+f+t+f+t+f+t+f+t+f+t+f+t+t+t+t+t+z+z+y+e+x+A+A+                            ",
"                            B+{ C+C+s.C+s.C+s.C+s.C+s.C+s.C+s.C+6+6+q.6+6+5+! 7                                   ",
"                            D+$ , E+E+E+E+E+E+E+E+E+E+E+E+E+E+E+h.E+h.r.' D ) 7                                   ",
"                            D+) $ ) ) ) ) ) ) ) ) ) ) ) ) ) ) ) ) $ $ * $ $ ) s+                                  ",
"                              / F+F+F+F+F+F+F+F+F+F+F+F+F+F+F+F+F+G+G+D+G+F+F+                                    ",
"                                                                                                                  ",
"                                                                                                                  ",
"                                                                                                                  "};
