/* XPM */
static char * num_4_xpm[] = {
"58 62 255 2",
"  	c #000001",
". 	c #4B434A",
"+ 	c #53505A",
"@ 	c #524758",
"# 	c #434346",
"$ 	c #575352",
"% 	c #535054",
"& 	c #4A4542",
"* 	c #0C0415",
"= 	c #030310",
"- 	c #130F1C",
"; 	c #060208",
"> 	c #110E13",
", 	c #180E10",
"' 	c #686E6F",
") 	c #0A0301",
"! 	c #2B2121",
"~ 	c #20141A",
"{ 	c #1A0E19",
"] 	c #1F0F20",
"^ 	c #281829",
"/ 	c #201620",
"( 	c #1E140F",
"_ 	c #6C6A70",
": 	c #140F19",
"< 	c #20191E",
"[ 	c #221A29",
"} 	c #190E1D",
"| 	c #23162D",
"1 	c #1D0C15",
"2 	c #2F1C25",
"3 	c #322A2F",
"4 	c #110900",
"5 	c #160700",
"6 	c #110203",
"7 	c #170F00",
"8 	c #766D63",
"9 	c #281D15",
"0 	c #897E5F",
"a 	c #887A42",
"b 	c #9A8B3A",
"c 	c #8F8235",
"d 	c #7F7883",
"e 	c #726D7B",
"f 	c #7E7D77",
"g 	c #948645",
"h 	c #847A4B",
"i 	c #716667",
"j 	c #726534",
"k 	c #FBEE95",
"l 	c #E7D86E",
"m 	c #F3E26B",
"n 	c #FAE567",
"o 	c #F3E478",
"p 	c #EAE18C",
"q 	c #2E2000",
"r 	c #11040C",
"s 	c #020516",
"t 	c #F8E684",
"u 	c #EBD46C",
"v 	c #CDC17B",
"w 	c #EBDB54",
"x 	c #F8E154",
"y 	c #F3D84D",
"z 	c #F5D945",
"A 	c #ECD84B",
"B 	c #E2D171",
"C 	c #392905",
"D 	c #1C151A",
"E 	c #1B1422",
"F 	c #17191F",
"G 	c #1B181B",
"H 	c #E6D04F",
"I 	c #FEDC53",
"J 	c #CFBF6F",
"K 	c #21170D",
"L 	c #1C1314",
"M 	c #7B6730",
"N 	c #FDE14D",
"O 	c #FBDE41",
"P 	c #94842F",
"Q 	c #F5DB5A",
"R 	c #F5D93B",
"S 	c #FCD93E",
"T 	c #FFDC41",
"U 	c #7C6639",
"V 	c #F8D74E",
"W 	c #FEDA35",
"X 	c #A08B2D",
"Y 	c #F7D438",
"Z 	c #FFD63D",
"` 	c #FFDD4C",
" .	c #E9D560",
"..	c #281702",
"+.	c #FADC35",
"@.	c #3D2805",
"#.	c #191527",
"$.	c #140F22",
"%.	c #FBD947",
"&.	c #ECD246",
"*.	c #F8DF6A",
"=.	c #D6C069",
"-.	c #000609",
";.	c #1B090C",
">.	c #151028",
",.	c #FFD431",
"'.	c #2A1C00",
").	c #09041B",
"!.	c #F6D442",
"~.	c #171A17",
"{.	c #7B692B",
"].	c #FED546",
"^.	c #A08A3B",
"/.	c #FAD960",
"(.	c #816430",
"_.	c #FEDF74",
":.	c #2C1900",
"<.	c #FBDB69",
"[.	c #210D02",
"}.	c #D8BF73",
"|.	c #483103",
"1.	c #1F0D09",
"2.	c #533A00",
"3.	c #311901",
"4.	c #E4C865",
"5.	c #D0B65A",
"6.	c #C9B371",
"7.	c #CAB263",
"8.	c #000000",
"9.	c #F8E074",
"0.	c #D8BA73",
"a.	c #FED571",
"b.	c #FAD555",
"c.	c #FED64F",
"d.	c #836342",
"e.	c #FFD784",
"f.	c #FFC556",
"g.	c #FFD466",
"h.	c #FFCE53",
"i.	c #260309",
"j.	c #6D3924",
"k.	c #C87E3E",
"l.	c #D27E24",
"m.	c #CE6A11",
"n.	c #E1922D",
"o.	c #34020B",
"p.	c #620E10",
"q.	c #9A360E",
"r.	c #B54300",
"s.	c #AB2B00",
"t.	c #311C2F",
"u.	c #2C010D",
"v.	c #711C22",
"w.	c #BE4528",
"x.	c #C83E0C",
"y.	c #C53100",
"z.	c #DE5C11",
"A.	c #FFD04C",
"B.	c #FFD043",
"C.	c #72696E",
"D.	c #D1453A",
"E.	c #D42E12",
"F.	c #D42E08",
"G.	c #FFC962",
"H.	c #FFCE5B",
"I.	c #220505",
"J.	c #C23831",
"K.	c #D9291D",
"L.	c #D44704",
"M.	c #F07B31",
"N.	c #E5832B",
"O.	c #E48A32",
"P.	c #DE9636",
"Q.	c #EBB83E",
"R.	c #C6393E",
"S.	c #D33021",
"T.	c #BD3300",
"U.	c #C44203",
"V.	c #B73600",
"W.	c #CA2528",
"X.	c #D82714",
"Y.	c #DD3819",
"Z.	c #EF9233",
"`.	c #1D0D24",
" +	c #5F1923",
".+	c #B7424D",
"++	c #D32F33",
"@+	c #DE372D",
"#+	c #E1321B",
"$+	c #DA260C",
"%+	c #210510",
"&+	c #685F59",
"*+	c #786266",
"=+	c #724147",
"-+	c #962827",
";+	c #99271E",
">+	c #AC1716",
",+	c #D22F1A",
"'+	c #E23323",
")+	c #3B0608",
"!+	c #480A09",
"~+	c #740E0C",
"{+	c #CC3425",
"]+	c #B73C32",
"^+	c #CB362B",
"/+	c #D83D36",
"(+	c #B03805",
"_+	c #313330",
":+	c #993935",
"<+	c #A0312C",
"[+	c #AC393A",
"}+	c #AC3E36",
"|+	c #D59B45",
"1+	c #46131C",
"2+	c #400E18",
"3+	c #441500",
"4+	c #B68C38",
"5+	c #251320",
"6+	c #31202C",
"7+	c #2E2034",
"8+	c #AE8B46",
"9+	c #2F2933",
"0+	c #3A323C",
"a+	c #302939",
"b+	c #B68354",
"c+	c #FFC676",
"d+	c #FFB85A",
"e+	c #FFB64B",
"f+	c #E3B37F",
"g+	c #321102",
"h+	c #290603",
"i+	c #7A3215",
"j+	c #B74C1D",
"k+	c #CA4B0D",
"l+	c #9C3C28",
"m+	c #280617",
"n+	c #842315",
"o+	c #BE3924",
"p+	c #D82700",
"q+	c #550009",
"r+	c #30021B",
"s+	c #200826",
"t+	c #E22C12",
"u+	c #B33536",
"v+	c #4F0305",
"w+	c #E02A05",
"x+	c #BF5050",
"y+	c #92493F",
"z+	c #8F5B5E",
"A+	c #5F1618",
"B+	c #6D2225",
"C+	c #552D2E",
"D+	c #C4A9AE",
"E+	c #858680",
"F+	c #818285",
"                                                                                                                    ",
"                                                                                                                    ",
"                                                                                                                    ",
"                                                                                                                    ",
"                        . + + @ + + + + + + # $                   # % % % + + + + % % &                             ",
"                        * * * * = - = * - ; > ,                 ' ; = = = = * * * = ; ) !                           ",
"                        ) ~ { ] ^ ^ ] { / ~ , (                 _ : < / / [ } | ] [ 1 2 3                           ",
"                        ) 4 5 5 6 5 5 6 5 5 4 7                 8 ) 6 4 5 6 5 5 5 ) 6 5 9                           ",
"                      0 a b c c c c c c c c c a 8 d e e d e e f 0 a g c c c c c c c c g h 0 8 i                     ",
"                ) ) ) j k l m m m m m n m m o p q r = s s * - ) a k t u m n n n n m o p v ) 5 ) )                   ",
"                ) ! 5 j t w x x y y z z z A w B C , D E - F G 4 b t H H I z z z A x H l J q K , !                   ",
"                ) L ) M o x z z N O O O O z x l C , D - - F > 4 P Q Q x R S T T O z w o J q 5 ~ ,                   ",
"                > , 5 U l H V N S S W W S z x l C 6 / - s - E 4 X n y z Y T Z Z S ` I  .J ..9 ~ !                   ",
"                ; D 5 j t y ` S T +.W W T z x l @., : - #.$.$.) b n y N O Z Z T T %.&.*.=...5 r ,                   ",
"                -.G ) M m R Y W W +.S S ` V Q u @.;.: = #.$.>.4 b n A z S ,.T ,.,.S N Q =.'.5 E ~                   ",
"              ' -.G 4 M m O W W +.+.T Z ` V Q u @.;.D E $.).| ) b m y z S W ,.T Z O !.Q =.'.6 } /                   ",
"              ' -.~.) {.*.R O +.+.W W Z Z ].y u @.;.D : - #.] 6 ^.*.y R S S S S ].%.V /.=..., : D                   ",
"              ' -.~.4 M *.z O O S T S Z Z ].%.u @., D : - #.] 5 ^.*.y R S S S T %.V V /.=..., : D                   ",
"              _ = G 5 (._.%.S T S S S S Z %.y u @.;.: - $.$.} 5 ^.*.y R S S S T %.%.%./.=..., : D                   ",
"              _ = < 6 (._.%.S T O S S T S S y u @.;.- $.$.$.- 4 ^.*.y R S S S S %.%.%./.=..., : D                   ",
"              e = < 6 (._.%.S O ` R S S S R y u @.1 - >.>.>.} ) ^.*.y %.T T S S %.%.%./.=.:., - D                   ",
"              e = < 5 (._.%.O O O O S S S z y B @.;.- >.>.>.#.5 ^.<.V %.T T S S S %.%./.=.:.L - D                   ",
"              _ = G 5 M <.%.O O R T T S S %.Q u @.[.~ } } } } 5 ^./.V ` ` S S S S %.%./.}.:.L - D                   ",
"              _ = G 5 M <.%.O +.S T T S S ` Q u |.....K 5 ;.1.1.X *.V ` ` S S +.S %.%./.}.:.L - D                   ",
"              ' -.~.) M <.` S +.W W S S Z %.V <.2.3.C q ....[.[.X Q I %.` T Y +.S !.!./.}.:., : D                   ",
"              ' -.~.) M _.%.T S W W S Z Z %.V /.4.5.=.J J 6.6.7. .Q V N ].%.S W T %.%./.}.:., - D 8.                ",
"              ' -.~.7 M _.V !.T S S S S Z ].%.V Q Q m m 9.9.9.*.Q &.%.N ].%.T S Y !.!./.0.:., : D 8.                ",
"              ' -.~.4 U a.b.c.].Z Z S Z Z ].%.%.` y y y y I y y &.z N %.c.%.Y Y Y !.%.<.0.:.( : D 8.8.              ",
"              ' ; F 6 d.e.f.g.h.].S Z Z Z Z Z S Y O N O O O O ` z z ` ].I %.Y T R %.V <.0.:.5 > D 8.8.              ",
"              ' = / i.j.k.l.m.n.c.].].Z Z Z Z S Y Y T %.T T T S O R S ].I c.T O R %.V <.0.:.( , D 8.8.              ",
"              _ = ] o.p.q.r.s.m.h.%.%.S S S ].].].].c.c.I ` ` S O R O ` c.c.` S ` ` I <.}.C 9 < D 8.8.              ",
"              _ * t.u.v.w.x.y.z.f.A.B.B.B.B.B.A.A.A.h.h.h.A.c.].` O S %.I I ].` ` ` I <.}.C K D D 8.8.              ",
"              C.; / u.v.D.E.F.z.G.H.H.H.H.H.H.H.H.H.H.g.g.H.g.H.I ` %.%.` I c.A.I c.I <.}.q K > G 8.8.              ",
"              C.-.< I.v.J.K.F.L.M.N.N.N.N.N.O.O.O.O.O.l.l.l.l.P.Q.c.` ` ` !.c.A.].c.I *.=.q K r D 8.                ",
"              C.; ~ i.v.R.S.E.F.y.y.y.T.T.T.x.x.x.x.x.U.V.V.V.r.P.b.I ` N z N !.!.!.y m J '.;.} D 8.                ",
"                ; ~ u.v.R.W.S.X.E.F.F.F.F.Y.Y.Y.Y.Y.E.E.E.E.E.T.Z./.A.%.N O N R R z A  .J ..;.`./ 8.                ",
"              i ) r I. +.+R.++@+#+$+$+$+#+#+#+#+#+#+X.$+$+F.Y.T.Z.H.c.].O O R T Y R A m J :.%+] ~ 8.                ",
"                &+i *+=+v.-+;+>+,+X.X.X.#+#+'+'+#+X.#+X.$+$+$+y.Z.h.c.` O O S T S S z m J :.I.] ~ 8.                ",
"                        i.)+!+~+{+X.X.X.'+'+'+'+'+X.'+X.#+X.$+y.n.h.].O O O T Z Z ].y m J '.1.1 D 8.                ",
"                        6 I.)+p.J.,+S.S.S.@+@+@+S.S.,+,+,+E.,+T.n.b.!.O R O ` B.].].V *.J '.1.1 D                   ",
"                        ) , ;.!+]+{+^+^+^+/+/+/+/+^+{+{+{+{+S.(+P.b.V N R R ].].].B.b.9.J ..1.{ D                   ",
"                        _+& & =+:+<+-+-+-+[+[+[+<+}+<+;+;+<+;+q.|+/.V z z O ].B.].A.b.9.J q 5 { D                   ",
"                                I.o.o.o.o.1+1+2+1+2+1+o.)+o.1+3+4+<.y N R R S T S !.V *.J '.4 D D                   ",
"                                5+^ ^ ] ] 5+5+6+6+^ ^ 7+t.t.^ [.8+<.b.V !.S Y Y Z ` I <.J q 7 > G                   ",
"                                E [ [ E } { } E E [ [ [ | 7+7+[.8+_.G.h.A.c.].].B.c.h.a.0...~.F G                   ",
"                                9+9+0+0+0+3 9+9+0+0+9+9+a+#.[ 1.b+c+d+d+e+e+e+e+e+e+d+c+f+g+, : G                   ",
"                                                        . E a+h+i+j+r.U.L.L.L.x.U.k+k+j+l+)+m+`./                   ",
"                                                        . : [ i.n+o+x.F.p+p+F.F.E.E.,+^+<+q+r+s+/                   ",
"                                                        . r E u.n+{+E.$+t+t+X.K.K.@+K.^+u+v+r+`./                   ",
"                                                        . : } i.;+{+,+$+t+t+X.'+'+X.K.^+u+q+m+} {                   ",
"                                                        . r E u.-+^+S.#+t+w+t+$+t+#+,+^+<+)+5+- <                   ",
"                                                        . r { i.~+D.{+,+#+$+t+$+t+X.,+o+:+!+1 : >                   ",
"                                                        . r / i.:+J.^+{+,+#+X.X.X.E.S.o+:+!+I.L !                   ",
"                                                        & ) ; I.p.x+[+u+J.J.D.^+^+o+]+}+y+h+6 ) )                   ",
"                                                                z+!+ +A+A+B+q+v.p.p.B+!+C+D+                        ",
"                                                                *+I.i.i.m+%+m+u.u.u.i.i.2                           ",
"                                                                *+;./ } $.`.`.`.`.`.] ] 0+                          ",
"                                                                &+) ; ; = s ).).* $.= ; !                           ",
"                                                                  f E+E+E+E+F+F+F+F+f E+                            ",
"                                                                                                                    ",
"                                                                                                                    ",
"                                                                                                                    "};
