/* XPM */
static char * num_6_xpm[] = {
"54 62 254 2",
"  	c #000001",
". 	c #52515A",
"+ 	c #524D5E",
"@ 	c #515053",
"# 	c #555150",
"$ 	c #060208",
"% 	c #140F1D",
"& 	c #0B000F",
"* 	c #03030F",
"= 	c #3A3436",
"- 	c #1D1712",
"; 	c #14110F",
"> 	c #231823",
", 	c #1F141E",
"' 	c #1C171F",
") 	c #0A0402",
"! 	c #1A1102",
"~ 	c #150400",
"{ 	c #120303",
"] 	c #130E04",
"^ 	c #49453C",
"/ 	c #7E747A",
"( 	c #7C7972",
"_ 	c #837D67",
": 	c #837D50",
"< 	c #8C8243",
"[ 	c #90833B",
"} 	c #908233",
"| 	c #7C7468",
"1 	c #10030B",
"2 	c #423713",
"3 	c #F7E9A4",
"4 	c #EEDE80",
"5 	c #F2E272",
"6 	c #F5E36C",
"7 	c #FAE26F",
"8 	c #B8A667",
"9 	c #1D1E12",
"0 	c #1F1215",
"a 	c #2F1F1D",
"b 	c #200B00",
"c 	c #635122",
"d 	c #F0DA5D",
"e 	c #F2D84D",
"f 	c #F9DE57",
"g 	c #F2DC75",
"h 	c #311F00",
"i 	c #2C1B0F",
"j 	c #1B0B0F",
"k 	c #564100",
"l 	c #F2D743",
"m 	c #FADE41",
"n 	c #FFDC42",
"o 	c #FDDA3F",
"p 	c #F6DA3C",
"q 	c #FDDB49",
"r 	c #FBE04C",
"s 	c #FEDC6E",
"t 	c #BB9D4B",
"u 	c #2C2118",
"v 	c #695E3D",
"w 	c #7F6A2D",
"x 	c #765E0E",
"y 	c #A48B1F",
"z 	c #F9D63B",
"A 	c #FED64F",
"B 	c #FBD960",
"C 	c #DAB74F",
"D 	c #A89E8B",
"E 	c #A0988B",
"F 	c #F8D644",
"G 	c #FFD63D",
"H 	c #D9CD9A",
"I 	c #1A1819",
"J 	c #756B37",
"K 	c #CDBB72",
"L 	c #261C00",
"M 	c #1E1618",
"N 	c #251E2B",
"O 	c #706C6B",
"P 	c #FFD646",
"Q 	c #FFD14C",
"R 	c #FFD043",
"S 	c #FBDD36",
"T 	c #231900",
"U 	c #130B16",
"V 	c #1C192C",
"W 	c #736A6F",
"X 	c #FAC53A",
"Y 	c #FFB743",
"Z 	c #FF9B37",
"` 	c #FD9941",
" .	c #FFA64D",
"..	c #FFA644",
"+.	c #FAA73A",
"@.	c #FEC746",
"#.	c #F7E034",
"$.	c #FEDA35",
"%.	c #D6B873",
"&.	c #121119",
"*.	c #1A1421",
"=.	c #796937",
"-.	c #C44F00",
";.	c #C13F00",
">.	c #CE4305",
",.	c #B53F00",
"'.	c #B13E0A",
").	c #DD911D",
"!.	c #6F6D71",
"~.	c #FFC950",
"{.	c #D63E00",
"].	c #CC3001",
"^.	c #D23908",
"/.	c #BA3901",
"(.	c #FED15C",
"_.	c #2C1501",
":.	c #FFD634",
"<.	c #C74802",
"[.	c #DC2C0E",
"}.	c #E3271B",
"|.	c #DA3401",
"1.	c #FF8A46",
"2.	c #FEC85E",
"3.	c #FFD154",
"4.	c #FFCE6C",
"5.	c #E6BD7E",
"6.	c #1A0E19",
"7.	c #FBDA53",
"8.	c #E32512",
"9.	c #D12804",
"0.	c #FF7C39",
"a.	c #FFAF5F",
"b.	c #FAA94F",
"c.	c #FFB455",
"d.	c #FFB44C",
"e.	c #FFB874",
"f.	c #D6A77A",
"g.	c #24090A",
"h.	c #FEC455",
"i.	c #C63600",
"j.	c #BD4500",
"k.	c #B44800",
"l.	c #AA4D1B",
"m.	c #844628",
"n.	c #360803",
"o.	c #210F17",
"p.	c #DB6217",
"q.	c #C6360A",
"r.	c #BB4327",
"s.	c #893724",
"t.	c #1D020D",
"u.	c #D7310B",
"v.	c #D03812",
"w.	c #C33822",
"x.	c #95382C",
"y.	c #3C0206",
"z.	c #311921",
"A.	c #A64700",
"B.	c #D13A26",
"C.	c #9E3830",
"D.	c #160C12",
"E.	c #FEBD43",
"F.	c #FEAC47",
"G.	c #C72F1B",
"H.	c #9D3028",
"I.	c #480407",
"J.	c #2D0719",
"K.	c #FFCC5A",
"L.	c #FFD758",
"M.	c #C84325",
"N.	c #20122A",
"O.	c #470911",
"P.	c #2B0B22",
"Q.	c #120921",
"R.	c #F3AB39",
"S.	c #B24815",
"T.	c #240A1F",
"U.	c #FBAC62",
"V.	c #D5936B",
"W.	c #3A1700",
"X.	c #22111E",
"Y.	c #111114",
"Z.	c #DC8C27",
"`.	c #DD8021",
" +	c #BE7704",
".+	c #F1B737",
"++	c #181920",
"@+	c #BA5400",
"#+	c #E82E0D",
"$+	c #0F0E20",
"%+	c #D0C06E",
"&+	c #CE7014",
"*+	c #E87427",
"=+	c #F27032",
"-+	c #696E6F",
";+	c #856544",
">+	c #FEDB86",
",+	c #7F4932",
"'+	c #2C060C",
")+	c #6A1E18",
"!+	c #350010",
"~+	c #610905",
"{+	c #310008",
"]+	c #731820",
"^+	c #C43B2F",
"/+	c #FEBB5A",
"(+	c #FF9D56",
"_+	c #210E20",
":+	c #360017",
"<+	c #DB3518",
"[+	c #E24E19",
"}+	c #FFB94E",
"|+	c #270C1D",
"1+	c #24040E",
"2+	c #6F1E29",
"3+	c #C84038",
"4+	c #D32816",
"5+	c #DD2D18",
"6+	c #BB3934",
"7+	c #CF3E35",
"8+	c #2A000F",
"9+	c #67151E",
"0+	c #B74039",
"a+	c #D5301B",
"b+	c #CA2B22",
"c+	c #994142",
"d+	c #27020E",
"e+	c #621924",
"f+	c #AF2B1A",
"g+	c #DC3828",
"h+	c #AD4644",
"i+	c #9E7F85",
"j+	c #5C1314",
"k+	c #7C0002",
"l+	c #6C0200",
"m+	c #42191F",
"n+	c #91888E",
"o+	c #641117",
"p+	c #DE2325",
"q+	c #D92A30",
"r+	c #C33338",
"s+	c #94282F",
"t+	c #39323C",
"u+	c #89878A",
"v+	c #BA545B",
"w+	c #BD4851",
"x+	c #833139",
"y+	c #A3A6A1",
"z+	c #BFAFB3",
"A+	c #5F151A",
"B+	c #581818",
"C+	c #744346",
"D+	c #553E3D",
"E+	c #7E8282",
"                                                                                                            ",
"                                                                                                            ",
"                                                                                                            ",
"                                                                                                            ",
"                            . + + . . . . @ . . . . . . . . . @ # @ . + + .                                 ",
"                            $ % & * & * * * & * & * & * & * & * $ $ * * * $ =                               ",
"                            - ; > > > , , , > > , , , , , , , , , ' , , ' ' @                               ",
"                            ) ! ~ ~ ~ ~ ~ ~ ~ { ~ ~ ~ ~ ~ ~ ~ ~ ~ ~ ~ ) ] ) ^                               ",
"                      / ( _ : < [ } } } } } } } } } } } } } } } [ } } } [ < : _ | (                         ",
"                    & 1 ) 2 3 4 5 6 7 6 7 6 7 6 7 6 7 6 7 6 7 6 7 6 6 6 5 4 8 { { ) 9                       ",
"                    0 a b c 4 d e e e e e e e e e e e e e e e e e f e e d g 8 h i j =                       ",
"                    { { b k 6 l m n n n n n n n o o o o o o o p q r p r f s t ~ { b u                       ",
"                  _ v w x y e m o o o o o o o o n n n n n n n n m z n r A B C x w c v D E                   ",
"            ) { ] v 3 4 7 f F n n n n n n n n n o o o o o o o o z n n G q f B 7 4 3 H ] ] ) )               ",
"            $ I ) J 4 d e F m G G o o o o o o o o o o o o o o o m o o G o n p r d g K L ! M N               ",
"          O $ M ) J 5 e m n G n o o o o o P Q Q Q Q Q Q Q R P G z o n n o S S S l 6 K T ] U V               ",
"          W * M ) J 5 l n o o o G z m q n X Y Z `  .......+.@.P G o n p #.#.S $.P B %.T - &.*.              ",
"          W * ' ) =.6 l n o n o n o o F q Q -.;.>.;.,.,.,.'.).A P z n p p #.$.G R s %.h ] &.N               ",
"          !.* ' ) =.6 l n o n o $.n z F R ~.-.{.].^.^.^.{./.` (.A q q n m n n o A s %._.] $ N               ",
"          !.* ' ) =.6 l n o n o :.$.n q A ~.<.].[.}.[.[.|.].1.2.~.3.Q Q Q Q Q Q ~.4.5.b - , 6.              ",
"          !.* ' ) =.6 l n o n n S S m l 7.2.<.^.}.}.}.8.8.9.0.a.b.c.c.c.c.c.d.c.c.e.f.g.j % 6.              ",
"          !.* ' ) =.6 l n o n n S S m r A h.-.].}.}.}.}.8.[.i.j.j.j.j.<.<.<.<.j.k.l.m.n.o.U ,               ",
"          !.* ' ) =.6 l n o n o $.S p r A h.p.i.[.}.}.8.8.[.^.>.i.q.q.q.q.q.].i.q.r.s.n.t.U >               ",
"          !.* ' ) =.6 l n o n o :.$.n F q ~.k.;.^.].].u.u.].i.;.i.i.q.q.q.^.u.u.v.w.x.y.z.U 0               ",
"          !.* ' ) =.6 l n G o o G n o P P Q A.k.j.j.j.j.;.;.j.j.j.j.j.,.,.;.^.u.u.B.C.y.t.D.M               ",
"          !.* ' ) =.6 l n G o o G o P q G G E.Y +.F.F.F. . . ...F...d.F. .a.0.{.u.G.H.I.J.*.D.              ",
"          W * ' ) =.6 l n G o o G o F m z z r R Q Q A Q (.K.K.~.Q @.A L.K.4.` i.i.M.C.y.t.N.*.              ",
"          !.* ' ) =.6 l n G o o n o q p S S z G P q r r A A Q R R R P 7.Q K...j.;.'.x.O.P.Q.N.              ",
"          !.* ' ) =.6 l n G o o G P q z n S z m G o p p q q P G m n z P A 3.R.A.k.S.s.y.T.Q.V               ",
"          !.* ' ) =.6 l n G o o G G P r p o z G G G o m p p o o z n n q P R @.R.b.U.V.n.1 Q.*.              ",
"          !.* ' ) =.6 l n G o o m o l r p m m q P G G n m p S S #.S z z o P P A (.4.5.W.b I -               ",
"          !.& , { =.6 l n o o o n o r p m m P P Q R P P q p z S S S n n z n p F A s 5._.! ) 9               ",
"          O & X.{ J 5 l m z P P F q q q G P A L.3.(.(.L.7.A q G G :.G o q q p q A s %._.~ Y.-               ",
"          O & o.{ J 5 l m z G P n p z G P Q ).Z.`.`.`.`.Z. +.+q G G G o q q m m F s %._.j % ;               ",
"          O & , ) =.7 F n z n o m S m n P @.A.,.i.].].i.j.A.).Q G o o n n n n o F B K T Y.% ++              ",
"          O & ' ) J s F o $.m p S S S z R ~.@+<.|.#+#+[.{.,.+.L.P z o o o o $.S p d K T Y.$+++              ",
"          O * I ) J s F o $.S S S S o q Q E.@+,.i.9.9.].i.'.Z.3.A F o o o n $.$.o f %+T ; $+,               ",
"          O * I ) J 7 7.o $.$.$.$.z z r A ~.Z.&+*+=+=+=+*+`.R.B A F o n n n $.S p f %+L ; % X.              ",
"          O * ' ) J g 7.o :.$.:.m m p p z P A 3.K.K.K.K.~.Q P P P q n m m m m m p f %+L ] D.o.              ",
"          O * , ) =.g A P G G :.z p m p n z n o n F q F q n z o P P o m p p z G P B %+L ] Y.0               ",
"          -+1 , { ;+>+(.A R n G P q n o $.S S $.$.$.o n n n $.o G G $.S m q P A 3.4.5._.- &.;               ",
"          -+$ X.g.,+e.F.Y @.R F P P o o :.$.$.$.$.$.$.$.$.$.$.$.:.:.$.S z R ~.+...U.V.n.j U I               ",
"          -+$ X.'+)+S.,.A. +A r q G o o o o $.$.o o o o n n n n $.S #.S n Q +.k.j.'.s.y.P.Q.*.              ",
"          -+$ X.!+~+M.>.,.&+K.Q P G G G G G G G P P F F P P P G n S S p P K. .,./.M.C.I.P.Q.V               ",
"          -+$ X.{+]+^+].i.p./+(.A P R P Q Q Q A A A A A A A A P P q q 7.3.4.(+/.v.M.C.y.T.N.V               ",
"          -+* _+:+]+^+<+].[+e. .}+Y Y Y d.d.d.}+}+}+}+}+}+Y Y Y d.}+E.}+/+U.1.q.v.w.C.O.|+$+%               ",
"          -+* _+1+2+3+4+<+u.^.>.<.<.<.<.>.>.>.>.>.>.>.>.>.>.>.>.>.>.<.<.;.^.<+5+5+B.C.y.1+_+X.              ",
"          -+* _+J.2+6+G.<+[.[.9.9.].^.u.u.u.[.[.[.[.[.[.u.u.u.[.8.[.|.|.u.[.8.}.4+7+C.I.1+o.0               ",
"          -+* *.8+9+0+w.a+4+5+5+5+[.[.[.[.8.8.8.8.8.8.8.[.[.[.8.8.}.8.[.[.[.8.5+b+6+c+y.g.j M               ",
"          -+$ *.d+e+c+0+f+B.g+4+}.}.}.}.}.}.}.}.}.}.}.}.}.}.}.}.}.8.8.8.[.5+a+b+6+h+c+{+g.0 M               ",
"                  i+{+j+~+k+B.5+}.}.}.}.}.}.}.}.}.}.}.}.}.}.}.}.5+[.[.5+<+G.f+l+~+O.m+                      ",
"                  i+t.'+n.l+7+a+4+5+5+5+5+5+5+5+5+5+5+5+5+5+5+5+<+<+[.5+g+7+H.I.n.g.z.                      ",
"                  n+* _+m+o+6+b+a+a+a+a+a+a+a+a+a+a+a+a+a+a+a+a+a+a+4+p+q+r+s+I.'+1 t+                      ",
"                  u+* % { y.v+0+3+^+^+^+^+^+^+^+^+^+^+^+^+^+^+^+^+3+7+r+r+w+x+'+t.$ ++                      ",
"                    y+y+z+i+O.e+A+A+o+A+o+A+o+A+o+A+o+A+o+A+o+j+B+j+j+A+B+B+C+                              ",
"                          z+t.J.J.d+8+d+8+d+8+d+8+d+8+d+8+d+8+d+d+d+1+1+g.{ D+                              ",
"                          z+_+T._+X.X.X.X.X.X.X.X.X.X.X.X.X.X._+P.P._+> ; ; #                               ",
"                            $ & & $ $ $ $ $ $ $ $ $ $ $ $ $ $ & 1 _+& $ Y.) ^                               ",
"                            / n+u+u+u+u+u+u+u+u+u+u+u+u+u+u+u+u+n+n+u+u+E+E+y+                              ",
"                                                                                                            ",
"                                                                                                            ",
"                                                                                                            "};
