/* XPM */
static char * wall20_20_xpm[] = {
"20 20 277 2",
"  	c #A8541A",
". 	c #944A1A",
"+ 	c #AE5719",
"@ 	c #A95317",
"# 	c #713B17",
"$ 	c #C6631E",
"% 	c #904813",
"& 	c #A7531D",
"* 	c #A85316",
"= 	c #A85418",
"- 	c #934A1A",
"; 	c #AD5719",
"> 	c #A85317",
", 	c #703A16",
"' 	c #C5631D",
") 	c #A95316",
"! 	c #8F4815",
"~ 	c #A7541E",
"{ 	c #85411E",
"] 	c #74391A",
"^ 	c #7E4119",
"/ 	c #84411E",
"( 	c #85421E",
"_ 	c #673514",
": 	c #8D451C",
"< 	c #844120",
"[ 	c #5E3017",
"} 	c #84411F",
"| 	c #753919",
"1 	c #7F4119",
"2 	c #85411F",
"3 	c #86411E",
"4 	c #663615",
"5 	c #8D461C",
"6 	c #844020",
"7 	c #5E3018",
"8 	c #994B13",
"9 	c #7F3D0D",
"0 	c #733608",
"a 	c #7D3F17",
"b 	c #7A3D14",
"c 	c #7E3E0E",
"d 	c #7E3D0D",
"e 	c #5B2D12",
"f 	c #984B14",
"g 	c #7E3E0D",
"h 	c #733709",
"i 	c #7E3E16",
"j 	c #7F3D0C",
"k 	c #7C3D15",
"l 	c #5D2E0F",
"m 	c #8B4619",
"n 	c #7C401A",
"o 	c #8F491A",
"p 	c #5E3115",
"q 	c #A4541E",
"r 	c #8A4618",
"s 	c #773D15",
"t 	c #8B481B",
"u 	c #7C3F19",
"v 	c #8A4619",
"w 	c #5F3116",
"x 	c #A3541E",
"y 	c #8A4616",
"z 	c #8B471D",
"A 	c #8A4519",
"B 	c #623216",
"C 	c #5B2F1D",
"D 	c #643119",
"E 	c #633215",
"F 	c #44271D",
"G 	c #73371B",
"H 	c #643216",
"I 	c #582E17",
"J 	c #622F1F",
"K 	c #633218",
"L 	c #5C2E1D",
"M 	c #643215",
"N 	c #45271C",
"O 	c #72381C",
"P 	c #5F2F1E",
"Q 	c #C4631E",
"R 	c #A9541C",
"S 	c #934815",
"T 	c #A4531D",
"U 	c #A8541B",
"V 	c #A8541D",
"W 	c #914918",
"X 	c #AE561B",
"Y 	c #A8541C",
"Z 	c #723917",
"` 	c #C5631E",
" .	c #A9531C",
"..	c #944716",
"+.	c #A4531E",
"@.	c #924919",
"#.	c #AD571B",
"$.	c #733816",
"%.	c #854315",
"&.	c #6A3514",
"*.	c #8C4616",
"=.	c #824117",
"-.	c #5F3011",
";.	c #924918",
">.	c #834116",
",.	c #743A12",
"'.	c #7F4018",
").	c #834115",
"!.	c #864215",
"~.	c #693515",
"{.	c #8D4616",
"].	c #824116",
"^.	c #5F3113",
"/.	c #934918",
"(.	c #743912",
"_.	c #7E4018",
":.	c #7C3E10",
"<.	c #7C3F16",
"[.	c #7D3E10",
"}.	c #572F15",
"|.	c #994C15",
"1.	c #6F380F",
"2.	c #7E4017",
"3.	c #7D3E11",
"4.	c #7B3F17",
"5.	c #7D3D10",
"6.	c #582E12",
"7.	c #984C15",
"8.	c #6F380E",
"9.	c #8E451F",
"0.	c #7B3B1C",
"a.	c #8B471E",
"b.	c #8D451F",
"c.	c #8D4521",
"d.	c #7B3E1A",
"e.	c #92481D",
"f.	c #8E4521",
"g.	c #60301B",
"h.	c #A6541D",
"i.	c #8E4520",
"j.	c #7B3B1B",
"k.	c #8C471C",
"l.	c #8E461F",
"m.	c #94491D",
"n.	c #61301A",
"o.	c #6F3915",
"p.	c #613213",
"q.	c #5B2D11",
"r.	c #5C3018",
"s.	c #613313",
"t.	c #623214",
"u.	c #592E15",
"v.	c #613214",
"w.	c #623314",
"x.	c #492715",
"y.	c #703816",
"z.	c #5B2E11",
"A.	c #613314",
"B.	c #582E15",
"C.	c #623215",
"D.	c #492714",
"E.	c #A85419",
"F.	c #944919",
"G.	c #AF5618",
"H.	c #703A18",
"I.	c #C6631D",
"J.	c #914814",
"K.	c #A7541D",
"L.	c #AA5318",
"M.	c #A95417",
"N.	c #944A1B",
"O.	c #AE5619",
"P.	c #AA5317",
"Q.	c #713A14",
"R.	c #C7631E",
"S.	c #914813",
"T.	c #A8541E",
"U.	c #75391A",
"V.	c #7E4118",
"W.	c #864220",
"X.	c #663516",
"Y.	c #8E471C",
"Z.	c #844121",
"`.	c #934A1B",
" +	c #84421F",
".+	c #86421E",
"++	c #663515",
"@+	c #8D471C",
"#+	c #5F3018",
"$+	c #994B14",
"%+	c #7F3E0E",
"&+	c #743709",
"*+	c #7E3F17",
"=+	c #7F3E0F",
"-+	c #7D3D14",
";+	c #5B2D10",
">+	c #74370A",
",+	c #7F3F17",
"'+	c #7E3E0F",
")+	c #7B3D15",
"!+	c #5D2E11",
"~+	c #8C4719",
"{+	c #7B4019",
"]+	c #8F4919",
"^+	c #8B4618",
"/+	c #5E3116",
"(+	c #A5531D",
"_+	c #8B4617",
":+	c #783C15",
"<+	c #8B4517",
"[+	c #8C4617",
"}+	c #7B3F19",
"|+	c #8F4918",
"1+	c #603115",
"2+	c #8C481C",
"3+	c #623316",
"4+	c #5A2E1B",
"5+	c #643118",
"6+	c #45271A",
"7+	c #73381A",
"8+	c #592E16",
"9+	c #60301D",
"0+	c #643217",
"a+	c #5C2F1C",
"b+	c #643218",
"c+	c #46271B",
"d+	c #73391A",
"e+	c #60301E",
"f+	c #C5621D",
"g+	c #A8531B",
"h+	c #934715",
"i+	c #A3531E",
"j+	c #A8531A",
"k+	c #A8531C",
"l+	c #924817",
"m+	c #A9531D",
"n+	c #C5621E",
"o+	c #A9531B",
"p+	c #733815",
"q+	c #854316",
"r+	c #693513",
"s+	c #824118",
"t+	c #733913",
"u+	c #7D4018",
"v+	c #854216",
"w+	c #824119",
"x+	c #5F3112",
"y+	c #91491A",
"z+	c #723A13",
"A+	c #7B3F11",
"B+	c #7C3E0E",
"C+	c #7D3E0F",
"D+	c #582F15",
"E+	c #984D16",
"F+	c #7C3E0F",
"G+	c #70370E",
"H+	c #7A3F16",
"I+	c #984C14",
"J+	c #7F4017",
"K+	c #A7531E",
"L+	c #8E451E",
"M+	c #7B3E1B",
"N+	c #92481C",
"O+	c #8D4520",
"P+	c #7A3F1B",
"Q+	c #93481D",
"R+	c #703917",
"S+	c #623315",
"T+	c #5A2E12",
"U+	c #5B301A",
"V+	c #592E17",
"W+	c #613315",
"X+	c #482717",
"Y+	c #6F3917",
"Z+	c #5B2E13",
"`+	c #5C3119",
" @	c #492716",
"  . + @ # $ @ % & * = - ; > , ' ) ! ~ * ",
". { ] ^ / ( _ : < [ - } | 1 2 3 4 5 6 7 ",
"8 9 0 a 9 9 b c d e f g h i 9 j k d 9 l ",
"m n o m p q r s t r m u o v w x y s z A ",
"B C D E F G H I J K B L D M N O H I P K ",
"Q R S T U V W X Y Z `  ...+.U Y @.#.Y $.",
"%.&.*.=.-.;.>.,.'.).!.~.{.].^./.>.(._.].",
":.<.:.[.}.|.[.1.2.[.3.4.5.[.6.7.[.8.'.[.",
"~ 9.0.a.b.c.d.e.f.g.h.i.j.k.l.c.d.m.f.n.",
"o.p.q.r.s.t.u.v.w.x.y.s.z.r.A.t.B.p.C.D.",
"E.F.G.@ H.I.@ J.K.L.M.N.O.P.Q.R.P.S.T.P.",
". } U.V.} W.X.Y.Z.7 `. +U.2. +.+++@+< #+",
"$+%+&+*+%+=+-+c c ;+f %+>+,+'+%+)+c %+!+",
"~+{+]+^+/+(+_+:+z <+[+}+|+^+1+q [+s 2+<+",
"3+4+5+M 6+7+H 8+9+0+E a+b+M c+d+H I e+b+",
"f+g+h+i+j+k+l+#.m+Z n+g+h+(+o+k+=.g+k+p+",
"q+r+_+s+^.;.=.t+u+=.v+r+^+w+x+y+=.z+2.=.",
"A+<.B+C+D+E+F+G+'.F+C+H+F+C+}.I+C+1.J+B+",
"K+9.j.a.L+i.M+N+i.e+K+9.j.k.9.O+P+Q+i.n.",
"R+S+T+U+S+S+V+W+S+X+Y+S+Z+`+S+S+B.W+S+ @"};
